<?xml version="1.0" encoding="UTF-8"?>
<svg width="48px" height="48px" viewBox="0 0 48 48" version="1.1" xmlns="http://www.w3.org/2000/svg" xmlns:xlink="http://www.w3.org/1999/xlink">
    <title>icon_loading_白天模式</title>
    <defs>
        <linearGradient x1="94.0869141%" y1="0%" x2="94.0869141%" y2="90.559082%" id="linearGradient-1">
            <stop stop-color="#EDEDED" stop-opacity="0" offset="0%"></stop>
            <stop stop-color="#EDEDED" stop-opacity="0.3" offset="100%"></stop>
        </linearGradient>
        <linearGradient x1="100%" y1="8.67370605%" x2="100%" y2="90.6286621%" id="linearGradient-2">
            <stop stop-color="#EDEDED" offset="0%"></stop>
            <stop stop-color="#EDEDED" stop-opacity="0.3" offset="100%"></stop>
        </linearGradient>
    </defs>
    <g id="icon_loading_白天模式" stroke="none" stroke-width="1" fill="none" fill-rule="evenodd" opacity="0.5">
        <g id="Icon" transform="translate(0.000000, -0.500000)">
            <path d="M24,4 C35.045695,4 44,12.954305 44,24 C44,35.045695 35.045695,44 24,44 L24,40.5 C33.1126984,40.5 40.5,33.1126984 40.5,24 C40.5,14.8873016 33.1126984,7.5 24,7.5 L24,4 Z" id="路径" fill="url(#linearGradient-1)"></path>
            <path d="M24,4 L24,7.5 C14.8873016,7.5 7.5,14.8873016 7.5,24 C7.5,33.1126984 14.8873016,40.5 24,40.5 L24,44 C12.954305,44 4,35.045695 4,24 C4,12.954305 12.954305,4 24,4 Z" id="路径" fill="url(#linearGradient-2)"></path>
            <circle id="Oval" fill="#EDEDED" cx="24.25" cy="5.75" r="1.75"></circle>
            <rect id="BG" fill-opacity="0" fill="#FFFFFF" x="0" y="0" width="48" height="48"></rect>
        </g>
    </g>
</svg>