<?xml version="1.0" encoding="UTF-8"?>
<svg width="24px" height="24px" viewBox="0 0 24 24" version="1.1" xmlns="http://www.w3.org/2000/svg" xmlns:xlink="http://www.w3.org/1999/xlink">
    <!-- Generator: Sketch 61.2 (89653) - https://sketch.com -->
    <title>Icons/ComposeInput/History</title>
    <desc>Created with Sketch.</desc>
    <g id="Icons/ComposeInput/History" stroke="none" stroke-width="1" fill="none" fill-rule="evenodd">
        <rect id="Icon-Background" fill-opacity="0" fill="#000000" x="0" y="0" width="24" height="24"></rect>
        <path d="M8.66545316,18.3798377 L9.10523968,18.5071922 C10.0265416,18.7739852 11.0002092,18.912 11.998,18.912 C16.8974301,18.912 20.798,15.5965156 20.798,11.612 C20.798,7.62748439 16.8974301,4.312 11.998,4.312 C7.09856987,4.312 3.198,7.62748439 3.198,11.612 C3.198,13.6879237 4.25493049,15.6380959 6.09859482,17.0233629 L6.64925979,17.437114 L6.41419358,19.4593404 L8.66545316,18.3798377 Z M11.998,20.1 C10.8690167,20.1 9.78373058,19.9409734 8.77145417,19.6478358 L5.78850106,21.0781933 C5.70335272,21.1190228 5.60838279,21.1349049 5.51458297,21.1240015 C5.24028753,21.0921171 5.04377459,20.8439092 5.07565905,20.5696138 L5.37775626,17.9707334 C3.30499806,16.413333 1.998,14.1364044 1.998,11.6 C1.998,6.90557963 6.4751525,3.1 11.998,3.1 C17.5208475,3.1 21.998,6.90557963 21.998,11.6 C21.998,16.2944204 17.5208475,20.1 11.998,20.1 Z M11.998,12.912 C12.5502847,12.912 12.998,12.4642847 12.998,11.912 C12.998,11.3597153 12.5502847,10.912 11.998,10.912 C11.4457153,10.912 10.998,11.3597153 10.998,11.912 C10.998,12.4642847 11.4457153,12.912 11.998,12.912 Z M16.216,12.912 C16.7682847,12.912 17.216,12.4642847 17.216,11.912 C17.216,11.3597153 16.7682847,10.912 16.216,10.912 C15.6637153,10.912 15.216,11.3597153 15.216,11.912 C15.216,12.4642847 15.6637153,12.912 16.216,12.912 Z M7.774,12.912 C8.32628475,12.912 8.774,12.4642847 8.774,11.912 C8.774,11.3597153 8.32628475,10.912 7.774,10.912 C7.22171525,10.912 6.774,11.3597153 6.774,11.912 C6.774,12.4642847 7.22171525,12.912 7.774,12.912 Z" id="History" fill="#000000"></path>
    </g>
</svg>