<?xml version="1.0" encoding="UTF-8"?>
<svg width="24px" height="24px" viewBox="0 0 24 24" version="1.1" xmlns="http://www.w3.org/2000/svg" xmlns:xlink="http://www.w3.org/1999/xlink">
    <!-- Generator: Sketch 61.2 (89653) - https://sketch.com -->
    <title>Icons/ComposeInput/Expanded</title>
    <desc>Created with Sketch.</desc>
    <g id="Icons/ComposeInput/Expanded" stroke="none" stroke-width="1" fill="none" fill-rule="evenodd">
        <rect id="Icon-Background" fill-opacity="0" fill="#D8D8D8" x="0" y="0" width="24" height="24"></rect>
        <path d="M12,4.98556701 C16.9705627,4.98556701 21,8.97346367 21,13.8927835 C21,18.8121033 16.9705627,22.8 12,22.8 C7.02943725,22.8 3,18.8121033 3,13.8927835 C3,8.97346367 7.02943725,4.98556701 12,4.98556701 Z M12,6.05443299 C7.62590478,6.05443299 4.08,9.56378205 4.08,13.8927835 C4.08,18.221785 7.62590478,21.731134 12,21.731134 C16.3740952,21.731134 19.92,18.221785 19.92,13.8927835 C19.92,9.56378205 16.3740952,6.05443299 12,6.05443299 Z M14.7,16.5649485 L14.7,18.3463918 L9.3,18.3463918 L9.3,16.5649485 L14.7,16.5649485 Z M8.85,13.0020619 L8.85,14.7835052 L7.05,14.7835052 L7.05,13.0020619 L8.85,13.0020619 Z M11.55,13.0020619 L11.55,14.7835052 L9.75,14.7835052 L9.75,13.0020619 L11.55,13.0020619 Z M14.25,13.0020619 L14.25,14.7835052 L12.45,14.7835052 L12.45,13.0020619 L14.25,13.0020619 Z M16.95,13.0020619 L16.95,14.7835052 L15.15,14.7835052 L15.15,13.0020619 L16.95,13.0020619 Z M8.85,10.3298969 L8.85,12.1113402 L7.05,12.1113402 L7.05,10.3298969 L8.85,10.3298969 Z M11.55,10.3298969 L11.55,12.1113402 L9.75,12.1113402 L9.75,10.3298969 L11.55,10.3298969 Z M14.25,10.3298969 L14.25,12.1113402 L12.45,12.1113402 L12.45,10.3298969 L14.25,10.3298969 Z M16.95,10.3298969 L16.95,12.1113402 L15.15,12.1113402 L15.15,10.3298969 L16.95,10.3298969 Z M12,1.2 L14.025,3.20412371 L9.975,3.20412371 L12,1.2 Z" id="图标颜色" fill="#000000"></path>
    </g>
</svg>