<?xml version="1.0" encoding="UTF-8"?>
<svg width="24px" height="24px" viewBox="0 0 24 24" version="1.1" xmlns="http://www.w3.org/2000/svg" xmlns:xlink="http://www.w3.org/1999/xlink">
    <!-- Generator: Sketch 61.2 (89653) - https://sketch.com -->
    <title>Icons/ComposeInput/Collapsed</title>
    <desc>Created with Sketch.</desc>
    <g id="Icons/ComposeInput/Collapsed" stroke="none" stroke-width="1" fill="none" fill-rule="evenodd">
        <rect id="Icon-Background" fill-opacity="0" fill="#D8D8D8" x="0" y="0" width="24" height="24"></rect>
        <path d="M14.025,20.7958763 L12,22.8 L9.975,20.7958763 L14.025,20.7958763 Z M12,1.2 C16.9705627,1.2 21,5.18789666 21,10.1072165 C21,15.0265363 16.9705627,19.014433 12,19.014433 C7.02943725,19.014433 3,15.0265363 3,10.1072165 C3,5.18789666 7.02943725,1.2 12,1.2 Z M12,2.26886598 C7.62590478,2.26886598 4.08,5.77821504 4.08,10.1072165 C4.08,14.4362179 7.62590478,17.945567 12,17.945567 C16.3740952,17.945567 19.92,14.4362179 19.92,10.1072165 C19.92,5.77821504 16.3740952,2.26886598 12,2.26886598 Z M8.579,12.6003299 L8.58,13.6701031 L7.5,13.6701031 L7.5,12.6012371 L8.579,12.6003299 Z M9.479,12.6003299 L16.5,12.6012371 L16.5,13.6701031 L9.48,13.6701031 L9.479,12.6003299 Z M8.579,9.5723299 L8.579,10.6413299 L7.5,10.6416495 L7.5,9.57278351 L8.579,9.5723299 Z M16.5,9.57278351 L16.5,10.6416495 L9.479,10.6413299 L9.479,9.5723299 L16.5,9.57278351 Z M16.5,6.5443299 L16.5,7.61319588 L9.479,7.6123299 L9.48,6.5443299 L16.5,6.5443299 Z M8.58,6.5443299 L8.579,7.6123299 L7.5,7.61319588 L7.5,6.5443299 L8.58,6.5443299 Z" id="Collapsed" fill="#000000"></path>
    </g>
</svg>