<?xml version="1.0" encoding="UTF-8"?>
<svg width="24px" height="24px" viewBox="0 0 24 24" version="1.1" xmlns="http://www.w3.org/2000/svg" xmlns:xlink="http://www.w3.org/1999/xlink">
    <!-- Generator: Sketch 61.2 (89653) - https://sketch.com -->
    <title>Icons/ComposeInput/Capture</title>
    <desc>Created with Sketch.</desc>
    <g id="Icons/ComposeInput/Capture" stroke="none" stroke-width="1" fill="none" fill-rule="evenodd">
        <rect id="Icon-Background" fill-opacity="0" fill="#D8D8D8" x="0" y="0" width="24" height="24"></rect>
        <path d="M7.00530393,2.99892827 L13.3296497,13.9530164 L14.7425857,13.1384335 C16.3155202,12.2302993 18.2979426,12.5335799 19.5303533,13.8452508 L19.6691601,14.001061 C19.8923922,14.2653873 20.09678,14.5429209 20.2822184,14.8335165 L20.4860658,15.1717752 L20.527111,15.2456438 C21.5069204,17.0424244 20.9295584,19.276841 19.2354063,20.3790871 L19.0561835,20.4890095 L18.7688102,20.6549246 C17.5922228,21.3342276 16.1008729,20.9753058 15.3541521,19.8625778 L15.2610637,19.7131879 L11.9997796,14.0639283 L8.7389363,19.7131879 L8.64584786,19.8625778 C7.93159323,20.9269264 6.53605216,21.301592 5.38635572,20.7376648 L5.23118983,20.6549246 L4.94381653,20.4890095 L4.76459368,20.3790871 C3.12886065,19.3148494 2.5342256,17.1951759 3.3770661,15.4330144 L3.47288904,15.2456438 L3.51393417,15.1717752 L3.71778158,14.8335165 C3.84140718,14.6397861 3.97345477,14.451861 4.11389313,14.2697843 L4.33083987,14.001061 L4.46964668,13.8452508 C5.65276098,12.5860467 7.52708599,12.2561751 9.06677085,13.0352592 L9.25741433,13.1384335 L10.6703503,13.9530164 L11.3027796,12.8569283 L6.52324765,4.57884656 C6.2521789,4.1093417 6.36447873,3.51225952 6.78760077,3.17331878 L7.00530393,2.99892827 Z M15.5099115,14.098262 L15.3468925,14.1851236 L13.9339565,14.9997066 L16.3067306,19.1094718 C16.6590263,19.719666 17.4120779,19.954066 18.0406123,19.6716502 L18.1645033,19.6082344 L18.4518734,19.4423212 C19.716012,18.7124705 20.1665444,17.1064508 19.4670208,15.8236602 L19.4156695,15.7321768 C19.2211453,15.3952509 18.9983129,15.0781261 18.7469227,14.7804581 C17.9462819,13.8324281 16.6092363,13.5598472 15.5099115,14.098262 Z M5.25307731,14.7804581 C5.06453464,15.0037091 4.89205577,15.2379046 4.73553533,15.4831897 L4.58433046,15.7321768 L4.5329792,15.8236602 C3.86143655,17.0551392 4.24978547,18.5845061 5.40035678,19.3506103 L5.54812656,19.4423212 L5.83549667,19.6082344 L5.95938769,19.6716502 C6.54601982,19.9352383 7.2411202,19.7486223 7.61762249,19.2264583 L7.69326941,19.1094718 L10.0660435,14.9997066 L8.6531075,14.1851236 L8.49008846,14.098262 C7.39076371,13.5598472 6.05371811,13.8324281 5.25307731,14.7804581 Z M16.9946961,2.99892827 L17.2123992,3.17331878 C17.6029734,3.48618715 17.728705,4.01901037 17.5325343,4.46841017 L17.4767523,4.57884656 L13.4107796,11.6199283 L12.7137796,10.4119283 L16.9946961,2.99892827 Z" id="Capture" fill="#000000"></path>
    </g>
</svg>