<?xml version="1.0" encoding="UTF-8"?>
<svg width="16px" height="16px" viewBox="0 0 16 16" version="1.1" xmlns="http://www.w3.org/2000/svg" xmlns:xlink="http://www.w3.org/1999/xlink">
    <!-- Generator: Sketch 64 (93537) - https://sketch.com -->
    <title>朋友圈所有权限</title>
    <desc>Created with Sketch.</desc>
    <defs>
        <path d="M6.33333333,10.1045695 L10.4372926,14.2070811 C9.68236232,14.5037472 8.8602071,14.6666667 8,14.6666667 C7.42455673,14.6666667 6.86614191,14.5937592 6.33348887,14.4566776 L6.33333333,10.1045695 Z M5.33333333,8.30964406 L5.33407134,14.1122641 C4.04383225,13.5487214 2.96646032,12.588618 2.25600603,11.3860044 L5.33333333,8.30964406 Z M11.3860044,13.743994 L8.30964406,10.6666667 L14.1118242,10.6669357 C13.5482218,11.9567284 12.5883051,13.0337245 11.3860044,13.743994 Z M1.54358052,6.33248641 L5.8954305,6.33333333 L1.79291886,10.4372926 C1.49625284,9.68236232 1.33333333,8.8602071 1.33333333,8 C1.33333333,7.42419572 1.40633232,6.86544127 1.54358052,6.33248641 Z M14.6666667,8 C14.6666667,8.57580428 14.5936677,9.13455873 14.4564195,9.66751359 L10.1045695,9.66666667 L14.2070736,5.5626882 C14.5037444,6.31762377 14.6666667,7.13978562 14.6666667,8 Z M13.7435345,4.61321799 L10.6666667,7.69035594 L10.6669357,1.88817581 C11.9564503,2.45165672 13.0332601,3.41128102 13.7435345,4.61321799 Z M8,1.33333333 C8.57580428,1.33333333 9.13455873,1.40633232 9.66751359,1.54358052 L9.66666667,5.8954305 L5.5626882,1.79292639 C6.31762377,1.4962556 7.13978562,1.33333333 8,1.33333333 Z M4.61321799,2.25646547 L7.69035594,5.33333333 L1.88817581,5.33306429 C2.45165672,4.04354972 3.41128102,2.96673986 4.61321799,2.25646547 Z" id="path-1"></path>
    </defs>
    <g id="6.0最终定稿-mac版" stroke="none" stroke-width="1" fill="none" fill-rule="evenodd">
        <g id="画板" transform="translate(-342.000000, -800.000000)">
            <g id="3.Icons/Filled/moment" transform="translate(342.000000, 800.000000)">
                <g id="icon25">
                    <mask id="mask-2" fill="white">
                        <use xlink:href="#path-1"></use>
                    </mask>
                    <use id="图标颜色" fill-opacity="0.9" fill="#000000" xlink:href="#path-1"></use>
                </g>
            </g>
        </g>
    </g>
</svg>