<?xml version="1.0" encoding="UTF-8"?>
<svg width="16px" height="16px" viewBox="0 0 16 16" version="1.1" xmlns="http://www.w3.org/2000/svg" xmlns:xlink="http://www.w3.org/1999/xlink">
    <!-- Generator: Sketch 64 (93537) - https://sketch.com -->
    <title>不看他朋友圈和视频动态</title>
    <desc>Created with Sketch.</desc>
    <g id="6.0最终定稿-mac版" stroke="none" stroke-width="1" fill="none" fill-rule="evenodd" fill-opacity="0.9">
        <g id="画板" transform="translate(-402.000000, -803.000000)" fill="#000000">
            <g id="3.Icons/Filled/eyes_off" transform="translate(402.000000, 803.000000)">
                <g id="icon21">
                    <path d="M3.41421356,2 L5.23902535,3.82511979 C6.10185222,3.50672626 7.03133411,3.33333333 8,3.33333333 C11.2051937,3.33333333 13.9813757,5.2317517 15.3333333,8 C14.7030782,9.29050103 13.7633057,10.3919676 12.6148425,11.2001916 L14.7279221,13.3137085 L14.0208153,14.0208153 L2.70710678,2.70710678 L3.41421356,2 Z M3.38577071,4.79937688 L5.80187111,7.21537192 C5.71433635,7.46057769 5.66666667,7.72472192 5.66666667,8 C5.66666667,9.28866442 6.71133558,10.3333333 8,10.3333333 C8.27527808,10.3333333 8.53942231,10.2856637 8.78462808,10.1981289 L10.7610012,12.1748704 C9.89816686,12.4932702 8.96867583,12.6666667 8,12.6666667 C4.79480627,12.6666667 2.01862433,10.7682483 0.666666667,8 C1.297034,6.70926928 2.23702888,5.60764031 3.38577071,4.79937688 Z M8,5.66666667 C7.72505446,5.66666667 7.46121589,5.71422125 7.21626063,5.80155406 L10.1984894,8.78361751 C10.2857945,8.53869662 10.3333333,8.27489995 10.3333333,8 C10.3333333,6.71133558 9.28866442,5.66666667 8,5.66666667 Z" id="图标颜色"></path>
                </g>
            </g>
        </g>
    </g>
</svg>