<?xml version="1.0" encoding="UTF-8"?>
<svg width="36px" height="36px" viewBox="0 0 36 36" version="1.1" xmlns="http://www.w3.org/2000/svg" xmlns:xlink="http://www.w3.org/1999/xlink">
    <title>折叠的群聊icon@1x</title>
    <defs>
        <path d="M5.1277704,-2.07168062e-16 L30.8722296,2.07168062e-16 C32.6552671,-1.2037061e-16 33.3018396,0.185651222 33.9536914,0.534265408 C34.6055433,0.882879593 35.1171204,1.39445674 35.4657346,2.04630859 C35.8143488,2.69816044 36,3.34473292 36,5.1277704 L36,30.8722296 C36,32.6552671 35.8143488,33.3018396 35.4657346,33.9536914 C35.1171204,34.6055433 34.6055433,35.1171204 33.9536914,35.4657346 C33.3018396,35.8143488 32.6552671,36 30.8722296,36 L5.1277704,36 C3.34473292,36 2.69816044,35.8143488 2.04630859,35.4657346 C1.39445674,35.1171204 0.882879593,34.6055433 0.534265408,33.9536914 C0.185651222,33.3018396 8.02470732e-17,32.6552671 -1.38112041e-16,30.8722296 L1.38112041e-16,5.1277704 C-8.02470732e-17,3.34473292 0.185651222,2.69816044 0.534265408,2.04630859 C0.882879593,1.39445674 1.39445674,0.882879593 2.04630859,0.534265408 C2.69816044,0.185651222 3.34473292,1.2037061e-16 5.1277704,-2.07168062e-16 Z" id="path-1"></path>
    </defs>
    <g id="折叠的群聊icon" stroke="none" stroke-width="1" fill="none" fill-rule="evenodd">
        <g id="编组-4">
            <g id="矩形">
                <use fill="#F7F7F7" xlink:href="#path-1"></use>
                <use fill-opacity="0.05" fill="#000000" xlink:href="#path-1"></use>
            </g>
            <path d="M25.5,21 C27.4329966,21 29,22.5670034 29,24.5 C29,26.4329966 27.4329966,28 25.5,28 C23.5670034,28 22,26.4329966 22,24.5 C22,22.5670034 23.5670034,21 25.5,21 Z M16.5,9 C18.709139,9 20.5,10.7929802 20.5,13.0002075 L20.5,14.7101857 C20.5,15.8492959 19.9009324,17.4828603 19.1680872,18.351573 L18.8065546,18.7801327 C18.2170324,19.4789507 18.4011877,20.3683976 19.225549,20.7705104 L21.3018512,21.7831135 C20.7945852,22.5653354 20.5,23.4982657 20.5,24.5 C20.5,25.4112533 20.7437721,26.2655706 21.1696616,27.0012971 L8.00142961,27 C7.44835531,27 7,26.5557555 7,26.0015619 L7,25.3154633 C7,24.6303744 7.49815091,23.8319079 8.11409761,23.5313327 L13.7744508,20.769143 C14.5953771,20.36854 14.7862591,19.4812624 14.1934452,18.7786389 L13.8319127,18.350138 C13.0963176,17.4782852 12.5,15.8494965 12.5,14.7092905 L12.5,12.9995804 C12.5,10.7906731 14.2953562,9 16.5,9 Z M27.5,24 L23.5,24 L23.5,25.1428571 L27.5,25.1428571 L27.5,24 Z M20.78414,10.00178 C22.5930554,10.0598402 24.0414913,11.5308982 24.0414913,13.3335062 L24.0414913,14.7584881 C24.0414913,15.7077466 23.5370133,17.0690503 22.9198804,17.7929775 L22.615432,18.1501106 C22.1189922,18.7324589 22.2740704,19.4736647 22.9682694,19.8087587 L23.3424361,19.9881811 C22.9361935,20.1827985 22.5603205,20.4306663 22.2238581,20.7227436 L19.8,19.5412535 L19.9876799,19.3187784 C20.9495612,18.1785669 21.6730702,16.2021228 21.6730702,14.7101857 L21.6730702,13.0002075 C21.6730702,11.8943538 21.3463371,10.8644104 20.78414,10.00178 Z" id="形状结合" fill="#FA9D3B"></path>
        </g>
    </g>
</svg>