<svg width="16" height="16" viewBox="0 0 16 16" fill="none" xmlns="http://www.w3.org/2000/svg">
<path fill-rule="evenodd" clip-rule="evenodd" d="M13.7108 1.83054C13.581 1.70069 13.3704 1.70069 13.2406 1.83054L6.9009 8.17023L6.02627 9.70133C5.99156 9.76209 5.99123 9.83659 6.02538 9.89766C6.07916 9.99382 6.20071 10.0282 6.29687 9.97441L7.84127 9.11076L14.181 2.77099C14.3109 2.64114 14.3109 2.43061 14.181 2.30077L13.7108 1.83054ZM9.33333 2.80008V2.00008H2.66667C2.29848 2.00008 2 2.29856 2 2.66675V13.3334C2 13.7016 2.29848 14.0001 2.66667 14.0001H13.3333C13.7015 14.0001 14 13.7016 14 13.3334V6.66675H13.2V13.2001H2.8V2.80008H9.33333Z" fill="black" fill-opacity="0.3"/>
</svg>
