<?xml version="1.0" encoding="UTF-8"?>
<svg width="16px" height="16px" viewBox="0 0 16 16" version="1.1" xmlns="http://www.w3.org/2000/svg" xmlns:xlink="http://www.w3.org/1999/xlink">
    <!-- Generator: Sketch 64 (93537) - https://sketch.com -->
    <title>全部朋友</title>
    <desc>Created with Sketch.</desc>
    <g id="6.0最终定稿-mac版" stroke="none" stroke-width="1" fill="none" fill-rule="evenodd" fill-opacity="0.9">
        <g id="画板" transform="translate(-317.000000, -800.000000)" fill="#000000">
            <g id="3.Icons/Filled/me" transform="translate(317.000000, 800.000000)">
                <g id="icon11">
                    <path d="M1.66666667,13.3333333 L1.66666667,12.8769756 L1.66666667,12.8769756 C1.66666667,12.4202496 1.99876727,11.8879386 2.40939841,11.6875551 L6.18296717,9.84609534 C6.73025142,9.57902669 6.85750604,8.9875083 6.46229682,8.5190926 L6.22127513,8.23342532 C5.73087842,7.6521901 5.33333333,6.56633099 5.33333333,5.80619369 L5.33333333,4.66638692 C5.33333333,3.19378209 6.53023744,2 8,2 C9.47275933,2 10.6666667,3.19532015 10.6666667,4.66680498 L10.6666667,5.80679046 C10.6666667,6.5661973 10.2672883,7.65524023 9.77872477,8.23438202 L9.53770306,8.52008849 C9.14468827,8.98596712 9.26745847,9.57893174 9.81703266,9.84700692 L13.5906016,11.687705 C14.000801,11.887795 14.3333333,12.4167801 14.3333333,12.8769756 L14.3333333,13.3333333 C14.3333333,13.7015232 14.0348565,14 13.6666667,14 L2.33333333,14 C1.9651435,14 1.66666667,13.7015232 1.66666667,13.3333333 Z" id="图标颜色"></path>
                </g>
            </g>
        </g>
    </g>
</svg>