<svg width="16" height="16" viewBox="0 0 16 16" fill="none" xmlns="http://www.w3.org/2000/svg">
<path fill-rule="evenodd" clip-rule="evenodd" d="M5.13058 10.3245C2.97651 11.5531 2 12.0292 2 12.6683V13.4674C2 13.7646 2.20321 14 2.52179 14H13.4782C13.7968 14 14 13.7646 14 13.4674V12.6683C14 12.0292 13.0235 11.5531 10.8694 10.3245C10.4009 10.0574 9.54015 9.67045 9.56859 8.92308H10.772C11.2795 8.92308 11.6113 8.51786 11.5113 8.01801L10.851 4.71631C10.5505 3.21383 9.38462 2 8 2C6.61538 2 5.44908 3.21613 5.14904 4.71631L4.48871 8.01801C4.38812 8.52094 4.71974 8.92308 5.22803 8.92308H6.43141C6.45985 9.67045 5.59909 10.0574 5.13058 10.3245ZM10.1539 10.5022C10.2388 9.90802 9.88435 9.68033 9.38228 9.98157L7.99992 10.811L9.07384 11.8849C9.50033 12.3114 9.91418 12.1804 9.99976 11.5813L10.1539 10.5022ZM5.70514 10.5009C5.62026 9.90677 5.97472 9.67908 6.47679 9.98032L7.85915 10.8097L6.78523 11.8837C6.35874 12.3101 5.94489 12.1792 5.85931 11.5801L5.70514 10.5009Z" fill="#FB7373"/>
</svg>
