<svg width="16" height="16" viewBox="0 0 16 16" fill="none" xmlns="http://www.w3.org/2000/svg">
<path fill-rule="evenodd" clip-rule="evenodd" d="M1.66667 13.3333C1.66667 13.7015 1.96514 14 2.33333 14H13.6667C14.0349 14 14.3333 13.7015 14.3333 13.3333V12.877C14.3333 12.4168 14.0008 11.8878 13.5906 11.6877L9.81703 9.84701C9.26746 9.57893 9.14469 8.98597 9.5377 8.52009L9.77873 8.23438C10.2673 7.65524 10.6667 6.5662 10.6667 5.80679V4.66681C10.6667 3.19532 9.47276 2 8 2C6.53024 2 5.33333 3.19378 5.33333 4.66639V5.80619C5.33333 6.56633 5.73088 7.65219 6.22128 8.23343L6.4623 8.51909C6.85751 8.98751 6.73025 9.57903 6.18297 9.8461L2.4094 11.6876C1.99877 11.8879 1.66667 12.4202 1.66667 12.877V13.3333ZM8 10L7.33333 12L8 12.6667L8.66667 12L8 10Z" fill="#10AEFF"/>
</svg>
