<?xml version="1.0" encoding="UTF-8"?>
<svg width="14px" height="14px" viewBox="0 0 14 14" version="1.1" xmlns="http://www.w3.org/2000/svg" xmlns:xlink="http://www.w3.org/1999/xlink">
    <title>plus</title>
    <g id="编辑能力" stroke="none" stroke-width="1" fill="none" fill-rule="evenodd">
        <g id="典型场景" transform="translate(-53.000000, -300.000000)" fill="#576B95">
            <g id="编组" transform="translate(12.000000, 60.000000)">
                <g id="电话" transform="translate(24.000000, 204.000000)">
                    <g id="添加电话" transform="translate(0.000000, 25.000000)">
                        <g id="icon21" transform="translate(16.000000, 10.000000)">
                            <path d="M8,1.33333333 C11.6818983,1.33333333 14.6666667,4.31810167 14.6666667,8 C14.6666667,11.6818983 11.6818983,14.6666667 8,14.6666667 C4.31810167,14.6666667 1.33333333,11.6818983 1.33333333,8 C1.33333333,4.31810167 4.31810167,1.33333333 8,1.33333333 Z M8,2.13333333 C4.75992947,2.13333333 2.13333333,4.75992947 2.13333333,8 C2.13333333,11.2400705 4.75992947,13.8666667 8,13.8666667 C11.2400705,13.8666667 13.8666667,11.2400705 13.8666667,8 C13.8666667,4.75992947 11.2400705,2.13333333 8,2.13333333 Z M8.39999596,4.66666667 L8.39933333,7.59933333 L11.3333333,7.59999593 L11.3333333,8.39999596 L8.39933333,8.39933333 L8.39999596,11.3333333 L7.59999593,11.3333333 L7.59933333,8.39933333 L4.66666667,8.39999596 L4.66666667,7.59999593 L7.59933333,7.59933333 L7.59999593,4.66666667 L8.39999596,4.66666667 Z" id="Combined-Shape"></path>
                        </g>
                    </g>
                </g>
            </g>
        </g>
    </g>
</svg>