<?xml version="1.0" encoding="UTF-8"?>
<svg width="16px" height="16px" viewBox="0 0 16 16" version="1.1" xmlns="http://www.w3.org/2000/svg" xmlns:xlink="http://www.w3.org/1999/xlink">
    <title>0.图标/线型/icons_outlined_more2</title>
    <g id="0.图标/线型/icons_outlined_more2" stroke="none" stroke-width="1" fill="none" fill-rule="evenodd" fill-opacity="0.9">
        <g id="common_icons_miniprogram" fill="#000000">
            <path d="M8,1.33333333 C11.6818983,1.33333333 14.6666667,4.31810167 14.6666667,8 C14.6666667,11.6818983 11.6818983,14.6666667 8,14.6666667 C4.31810167,14.6666667 1.33333333,11.6818983 1.33333333,8 C1.33333333,4.31810167 4.31810167,1.33333333 8,1.33333333 Z M8,2.13333333 C4.75992947,2.13333333 2.13333333,4.75992947 2.13333333,8 C2.13333333,11.2400705 4.75992947,13.8666667 8,13.8666667 C11.2400705,13.8666667 13.8666667,11.2400705 13.8666667,8 C13.8666667,4.75992947 11.2400705,2.13333333 8,2.13333333 Z M8,7.33333333 C8.36818983,7.33333333 8.66666667,7.63181017 8.66666667,8 C8.66666667,8.36818983 8.36818983,8.66666667 8,8.66666667 C7.63181017,8.66666667 7.33333333,8.36818983 7.33333333,8 C7.33333333,7.63181017 7.63181017,7.33333333 8,7.33333333 Z M10.6666667,7.33333333 C11.0348565,7.33333333 11.3333333,7.63181017 11.3333333,8 C11.3333333,8.36818983 11.0348565,8.66666667 10.6666667,8.66666667 C10.2984768,8.66666667 10,8.36818983 10,8 C10,7.63181017 10.2984768,7.33333333 10.6666667,7.33333333 Z M5.33333333,7.33333333 C5.70152317,7.33333333 6,7.63181017 6,8 C6,8.36818983 5.70152317,8.66666667 5.33333333,8.66666667 C4.9651435,8.66666667 4.66666667,8.36818983 4.66666667,8 C4.66666667,7.63181017 4.9651435,7.33333333 5.33333333,7.33333333 Z" id="形状结合"></path>
        </g>
    </g>
</svg>