<?xml version="1.0" encoding="UTF-8"?>
<svg width="16px" height="16px" viewBox="0 0 16 16" version="1.1" xmlns="http://www.w3.org/2000/svg" xmlns:xlink="http://www.w3.org/1999/xlink">
    <!-- Generator: Sketch 64 (93537) - https://sketch.com -->
    <title>不让他看朋友圈和视频动态</title>
    <desc>Created with Sketch.</desc>
    <g id="6.0最终定稿-mac版" stroke="none" stroke-width="1" fill="none" fill-rule="evenodd" fill-opacity="0.9">
        <g id="画板" transform="translate(-377.000000, -801.000000)" fill="#000000">
            <g id="3.Icons/Filled/lock" transform="translate(377.000000, 801.000000)">
                <g id="icon37">
                    <path d="M8,1.33333333 C9.65685425,1.33333333 11,2.67647908 11,4.33333333 L10.9996667,5.99933333 L12.6660856,6 C13.0345963,6 13.3333333,6.30845126 13.3333333,6.66566822 L13.3333333,14.0009984 C13.3333333,14.3686369 13.0256042,14.6666667 12.6660856,14.6666667 L3.33391444,14.6666667 C2.96540367,14.6666667 2.66666667,14.3582154 2.66666667,14.0009984 L2.66666667,6.66566822 C2.66666667,6.29802981 2.97439575,6 3.33391444,6 L4.99966667,5.99933333 L5,4.33333333 C5,2.67647908 6.34314575,1.33333333 8,1.33333333 Z M8,8.66666667 C7.44771525,8.66666667 7,9.11438192 7,9.66666667 C7,10.0764757 7.24651249,10.4287087 7.59934193,10.5831701 L7.59999975,12 L8.39999978,12 L8.40065807,10.5831701 C8.75348751,10.4287087 9,10.0764757 9,9.66666667 C9,9.11438192 8.55228475,8.66666667 8,8.66666667 Z M8,2.33333333 C6.8954305,2.33333333 6,3.22876383 6,4.33333333 L5.99966667,5.99933333 L9.99966667,5.99933333 L10,4.33333333 C10,3.22876383 9.1045695,2.33333333 8,2.33333333 Z" id="图标颜色"></path>
                </g>
            </g>
        </g>
    </g>
</svg>