<?xml version="1.0" encoding="UTF-8"?>
<svg width="24px" height="24px" viewBox="0 0 24 24" version="1.1" xmlns="http://www.w3.org/2000/svg" xmlns:xlink="http://www.w3.org/1999/xlink">
    <title>0.图标/01.线性/icons_outlined_自拍表情⚠️待定☀</title>
    <g id="0.图标/01.线性/icons_outlined_自拍表情⚠️待定☀" stroke="none" stroke-width="1" fill="none" fill-rule="evenodd">
        <path d="M17.1666668,5.95234097 L16.1044115,6.51384428 C16.0014685,6.5682595 15.8739045,6.52891994 15.8194893,6.42597692 C15.7869046,6.36433305 15.7869046,6.29056586 15.8194893,6.228922 L16.3809926,5.16666677 L16.3809926,5.16666677 L15.8194893,4.10441155 C15.765074,4.00146853 15.8044136,3.87390447 15.9073566,3.81948926 C15.9690005,3.78690459 16.0427677,3.78690459 16.1044115,3.81948926 L17.1666668,4.38099257 L17.1666668,4.38099257 L18.228922,3.81948926 C18.331865,3.76507405 18.4594291,3.8044136 18.5138443,3.90735662 C18.5464289,3.96900049 18.5464289,4.04276768 18.5138443,4.10441155 L17.952341,5.16666677 L17.952341,5.16666677 L18.5138443,6.228922 C18.5682595,6.33186501 18.5289199,6.45942907 18.4259769,6.51384428 C18.3643331,6.54642895 18.2905659,6.54642895 18.228922,6.51384428 L17.1666668,5.95234097 L17.1666668,5.95234097 Z" id="Star" fill="#000000" transform="translate(17.166667, 5.166667) rotate(45.000000) translate(-17.166667, -5.166667) "></path>
        <path d="M12.0304492,16.3977874 C12.1330409,15.8949525 12.171994,15.7750672 12.3063687,15.4371611 C12.4492501,15.0778638 12.6572335,14.6342582 12.930319,14.1063443 L11.9715332,14.1355504 C11.4544048,14.126986 11.1012401,13.966799 10.867542,13.8193973 M6.34592196,15.1479886 C5.9430671,14.4326953 5.93611409,14.0389112 6.74568769,13.261069 C7.28540343,12.7425075 7.91224447,12.2043977 8.62621082,11.6467395 C8.73501156,11.5590493 8.85725225,11.4918272 8.98676019,11.4451611 C9.35783039,11.311452 9.62521766,11.4596354 9.76198137,11.7598769 C9.63756356,11.2351889 10.6119921,11.1049414 11.1787297,11.0141849 C11.5863899,10.9489028 11.7933855,10.9161566 13.0119903,10.9333528 C14.2305952,10.9505489 16.5546876,11.1254088 16.7452115,13.7117576 C16.8152239,14.6621702 16.6690883,15.9064471 16.3068048,17.4445886 C15.7330829,19.6616212 13.696112,21.4300097 10.6801152,20.4500529 C9.67086908,20.122129 8.34380864,18.5521653 6.69893386,15.7401617 C6.65100104,15.6698453 6.39035894,15.2268892 6.34592196,15.1479886 Z M9.81033415,11.4584794 C9.76209492,11.6069444 9.75207646,11.7802818 9.79136626,11.9485435 L9.90064333,12.4165311 C10.0424074,13.0236469 10.4084208,13.5303242 10.8986991,13.8395603 M10.802794,13.9866439 L8.32656362,15.8771202 C7.52987088,16.3593503 7.01993644,16.0792045 6.49160556,15.3718902 M9.28524265,11.1820175 L7.33183537,7.16864124 C7.10628476,6.50632092 7.43313063,5.77679237 8.06186606,5.53919361 C8.69639042,5.30080393 9.2705983,5.61556848 9.62527337,6.30692366 L11.0054928,8.75975888 C11.2072644,9.07600807 11.4967848,9.3884149 11.980231,9.31215511 C12.4636773,9.23589533 12.7507178,8.95638285 12.7507178,8.5157035 L12.6908604,5.43088841 C12.6908604,4.80410396 12.9832925,4.27054028 13.6257792,4.14306528 C13.6494455,4.13836968 13.6732422,4.13443595 13.6971363,4.13126956 C14.4006273,4.03804448 15.0529313,4.53329701 15.191459,5.26581287 L15.6375135,11.4989843" id="Shape" stroke="#000000" transform="translate(11.420600, 12.423440) rotate(-19.000000) translate(-11.420600, -12.423440) "></path>
    </g>
</svg>