<svg width="24" height="24" viewBox="0 0 24 24" fill="none" xmlns="http://www.w3.org/2000/svg">
<path fill-rule="evenodd" clip-rule="evenodd" d="M10.3552 1.80486C11.4075 1.27906 12.685 1.69924 13.314 2.80973L16.157 9.47661C17.0877 9.79854 17.8359 10.525 18.3761 11.7845C18.8546 12.9001 19.1871 14.4252 19.3838 16.3806C19.6538 19.8187 17.4203 22.5689 13.5861 22.6358C12.1107 22.6616 9.90447 21.3468 6.85968 18.7283C6.77258 18.6634 6.31583 18.2755 6.18808 18.162C5.18997 17.2755 5.06616 16.5134 5.76901 15.1425C6.18862 14.3241 6.69987 13.4512 7.29783 12.5308C7.38546 12.3913 7.48953 12.2631 7.60752 12.1481L4.11373 8.64246C3.40375 7.72737 3.52261 6.40435 4.39711 5.67828C5.26752 4.95845 6.37692 5.11155 7.25193 5.95249L9.75081 8.17494C10.05 8.41259 10.2281 8.46157 10.418 8.36076C10.698 8.21214 10.7625 8.07694 10.699 7.89233L9.42203 4.40464C9.07116 3.38564 9.33649 2.39363 10.245 1.86441C10.2994 1.83345 10.2994 1.83345 10.3552 1.80486ZM10.7375 11.6643C10.3195 11.8874 10.3452 11.8735 10.2048 11.9563C9.96727 12.0964 9.79727 12.2205 9.70543 12.3199L9.72719 12.37L9.75386 12.4179L10.0607 12.9062C10.3354 13.3434 10.7421 13.6628 11.2031 13.8164L11.3705 13.8643L11.3515 13.8582L11.4973 13.8864C11.715 13.9183 11.9395 13.9117 12.1789 13.8564L12.3614 13.8057L14.3922 13.0365L14.244 14.0463C14.143 14.7339 14.0824 15.2997 14.0617 15.741C14.044 16.1174 14.0466 16.2536 14.0979 16.6646L14.1195 16.8326L12.9297 16.9886C12.8488 16.3719 12.8397 16.1818 12.863 15.6847C12.8705 15.5239 12.8827 15.3502 12.8994 15.1635L12.9279 14.8737L12.7598 14.9373C12.3537 15.0697 11.9748 15.1188 11.6132 15.1017L9.57953 18.1511C9.3343 18.4452 9.08081 18.6586 8.817 18.7961C11.0404 20.5742 12.652 21.452 13.5651 21.436C16.6758 21.3817 18.4056 19.2518 18.1886 16.4877C18.0043 14.6566 17.6963 13.2439 17.2732 12.2575C16.4453 10.327 14.9744 10.1466 12.6907 10.8971C11.5052 11.2867 11.2495 11.3909 10.7375 11.6643ZM8.51234 12.9479C8.43281 13.0118 8.36591 13.0864 8.30907 13.1768C7.72753 14.072 7.23679 14.9099 6.83683 15.69C6.37837 16.5842 6.4053 16.7499 6.98497 17.2648C7.01841 17.2945 7.08749 17.354 7.16831 17.423L7.1769 17.4145C7.86492 17.8828 8.17706 17.9098 8.54473 17.5184L8.61914 17.4345L10.3892 14.7741C9.91087 14.5335 9.48999 14.1752 9.1669 13.7264L9.04462 13.5447L8.7378 13.0564C8.70591 13.0056 8.6768 12.9533 8.65054 12.8998C8.61284 12.8718 8.58666 12.8881 8.51234 12.9479ZM10.994 2.8344L10.8914 2.87832C10.8699 2.88934 10.8699 2.88934 10.8488 2.9013C10.4809 3.11565 10.3787 3.49763 10.5526 4.00299L11.8296 7.49067C12.1017 8.28087 11.7537 9.01016 10.9806 9.42064C10.2788 9.79324 9.63624 9.61657 8.97883 9.0932L6.43755 6.83369C5.95297 6.36833 5.51807 6.30831 5.1626 6.60228C4.79511 6.90739 4.7423 7.49523 5.01223 7.85075L8.73469 11.5789C8.94088 11.3486 9.23483 11.1352 9.59511 10.9227C9.75761 10.8268 9.73059 10.8415 10.1722 10.6057C10.7521 10.2961 11.0695 10.1666 12.3159 9.75705C13.2066 9.46436 14.0266 9.29074 14.768 9.2764L12.2408 3.34242C11.9523 2.83687 11.3626 2.64289 10.8914 2.87832L10.994 2.8344ZM18.0754 3.70678L16.5856 3.24734C16.3817 3.18445 16.3817 2.89577 16.5856 2.83288L18.0754 2.37344L18.5348 0.883645C18.5977 0.679711 18.8864 0.679711 18.9493 0.883645L19.4087 2.37344L20.8985 2.83288C21.1024 2.89577 21.1024 3.18445 20.8985 3.24734L19.4087 3.70678L18.9493 5.19657C18.8864 5.40051 18.5977 5.40051 18.5348 5.19657L18.0754 3.70678Z" fill="black" fill-opacity="0.9" style="fill:black;fill:black;fill-opacity:0.9;"/>
</svg>
