<?xml version="1.0" encoding="UTF-8"?>
<svg width="32px" height="32px" viewBox="0 0 32 32" version="1.1" xmlns="http://www.w3.org/2000/svg" xmlns:xlink="http://www.w3.org/1999/xlink">
    <title>Circle_CDR</title>
    <g id="Circle_CDR" stroke="none" stroke-width="1" fill="none" fill-rule="evenodd">
        <circle id="椭圆形" fill="#F2F2F2" cx="16" cy="16" r="16"></circle>
        <path d="M10.6320346,19 C11.2246272,19 11.7325637,18.8221024 12.1558442,18.4663073 C12.6099086,18.0862534 12.8946609,17.5606469 13.017797,16.8814016 L12.1404521,16.8814016 C12.032708,17.3180593 11.8480038,17.6495957 11.5863396,17.8679245 C11.3400673,18.0619946 11.016835,18.1671159 10.6243386,18.1671159 C10.02405,18.1671159 9.57768158,17.9649596 9.29292929,17.5768194 C9.03126503,17.212938 8.9004329,16.6873315 8.9004329,16.0080863 C8.9004329,15.3450135 9.03126503,14.8274933 9.3006253,14.4555256 C9.59307359,14.0350404 10.02405,13.8328841 10.6012506,13.8328841 C10.986051,13.8328841 11.3015873,13.9137466 11.5478595,14.0916442 C11.8018278,14.2695418 11.97114,14.5444744 12.0634921,14.9245283 L12.9408369,14.9245283 C12.8561809,14.3423181 12.6176046,13.8733154 12.2174122,13.5336927 C11.8018278,13.1778976 11.2631073,13 10.6166426,13 C9.73929774,13 9.06974507,13.2991914 8.60798461,13.9137466 C8.2000962,14.4474394 8,15.1509434 8,16.0080863 C8,16.8814016 8.19240019,17.5768194 8.58489658,18.0943396 C9.03126503,18.6927224 9.71620972,19 10.6320346,19 Z M15.8730159,18.8867925 C16.7657528,18.8867925 17.4353054,18.6280323 17.8970659,18.1105121 C18.3357383,17.6172507 18.5589226,16.9137466 18.5589226,16 C18.5589226,15.0781671 18.3357383,14.3746631 17.8970659,13.8894879 C17.4353054,13.3719677 16.7657528,13.1132075 15.8730159,13.1132075 L13.8643579,13.1132075 L13.8643579,18.8867925 L15.8730159,18.8867925 Z M15.7037037,18.0781671 L14.7647908,18.0781671 L14.7647908,13.9218329 L15.7037037,13.9218329 C16.3886484,13.9218329 16.8888889,14.083558 17.2044252,14.4150943 C17.5122655,14.7385445 17.6661857,15.2722372 17.6661857,16 C17.6661857,16.7115903 17.5122655,17.2371968 17.2044252,17.5768194 C16.8888889,17.9083558 16.3886484,18.0781671 15.7037037,18.0781671 Z M20.3059163,18.8867925 L20.3059163,16.5336927 L21.7296777,16.5336927 C22.037518,16.5336927 22.2760943,16.5983827 22.4377104,16.7439353 C22.5916306,16.8814016 22.6839827,17.1078167 22.7147667,17.4231806 L22.7840308,18.1347709 C22.8148148,18.458221 22.8917749,18.7088949 23.022607,18.8867925 L24,18.8867925 C23.8152958,18.6765499 23.6998557,18.393531 23.6690717,18.0377358 L23.5767196,17.1078167 C23.5151515,16.541779 23.2457912,16.2102426 22.7686388,16.097035 L22.7686388,16.0808625 C23.0610871,16 23.2996633,15.8301887 23.4689755,15.5714286 C23.6228956,15.3369272 23.6998557,15.0700809 23.6998557,14.7708895 C23.6998557,14.2210243 23.5228475,13.8005391 23.1842232,13.509434 C22.8609909,13.2425876 22.4146224,13.1132075 21.8528139,13.1132075 L19.4054834,13.1132075 L19.4054834,18.8867925 L20.3059163,18.8867925 Z M21.7296777,15.7250674 L20.3059163,15.7250674 L20.3059163,13.9218329 L21.7296777,13.9218329 C22.0990861,13.9218329 22.3684464,13.9865229 22.5377585,14.1320755 C22.7070707,14.2695418 22.7917268,14.4959569 22.7917268,14.8113208 C22.7917268,15.1024259 22.7070707,15.328841 22.5377585,15.490566 C22.3530544,15.6442049 22.0836941,15.7250674 21.7296777,15.7250674 Z" id="CDR" fill="#576B95"></path>
    </g>
</svg>