<?xml version="1.0" encoding="UTF-8"?>
<svg width="40px" height="40px" viewBox="0 0 40 40" version="1.1" xmlns="http://www.w3.org/2000/svg" xmlns:xlink="http://www.w3.org/1999/xlink">
    <title>0.图标/06.文件相关/icons_PKG</title>
    <g id="0.图标/06.文件相关/icons_PKG" stroke="none" stroke-width="1" fill="none" fill-rule="evenodd">
        <path d="M6.32954545,0 L33.6704545,0 C34.4047422,-1.34886458e-16 35,0.595257776 35,1.32954545 L35,38.6704545 C35,39.4047422 34.4047422,40 33.6704545,40 L6.32954545,40 C5.59525778,40 5,39.4047422 5,38.6704545 L5,1.32954545 C5,0.595257776 5.59525778,-2.08555959e-15 6.32954545,0 Z M33.6704545,4.67480277e-10 C34.4047422,4.67481224e-10 35,0.595257776 35,1.32954546 L35,11.7285357 C34.9957741,11.2043346 34.7960968,10.6865111 34.4009021,10.2904364 L34.4089054,10.3 L34.4009002,10.2789668 L24.7652602,0.600431099 L24.7255658,0.583186087 C24.3346376,0.200472033 23.8286223,0.00612401211 23.3208082,0.00014202397 L23.3189054,4.67480277e-10 L33.6704545,4.67480277e-10 Z" id="形状结合备份-7" fill-opacity="0.05" fill="#000000"></path>
        <path d="M11.627887,26.6679245 L11.627887,24.045283 L13.372466,24.045283 C14.9850227,24.045283 15.7960161,23.3566038 15.7960161,21.9792453 C15.7960161,20.6113208 14.9944528,19.9320755 13.3913263,19.9320755 L10.6,19.9320755 L10.6,26.6679245 L11.627887,26.6679245 Z M13.3064549,23.1679245 L11.627887,23.1679245 L11.627887,20.809434 L13.3064549,20.809434 C13.8062532,20.809434 14.1740292,20.9037736 14.4097832,21.0924528 C14.6455371,21.2622642 14.7681291,21.5641509 14.7681291,21.9792453 C14.7681291,22.3943396 14.6455371,22.6962264 14.4192133,22.8849057 C14.1834594,23.0735849 13.8156833,23.1679245 13.3064549,23.1679245 Z M17.776349,26.6679245 L17.776349,24.3377358 L18.6533535,23.4981132 L21.3880988,26.6679245 L22.7649017,26.6679245 L19.3511851,22.8283019 L22.3311145,19.9320755 L21.0297529,19.9320755 L17.776349,23.1867925 L17.776349,19.9320755 L16.7484619,19.9320755 L16.7484619,26.6679245 L17.776349,26.6679245 Z M26.4709531,26.8 C27.0556228,26.8 27.5931417,26.7245283 28.0835098,26.5735849 C28.5455875,26.4226415 28.9510842,26.2150943 29.3,25.9415094 L29.3,23.1113208 L26.4143722,23.1113208 L26.4143722,23.9886792 L28.272113,23.9886792 L28.272113,25.4509434 C28.0457892,25.5924528 27.8006051,25.7056604 27.5177005,25.7811321 C27.2253656,25.8566038 26.9141704,25.9037736 26.584115,25.9037736 C25.7448311,25.9037736 25.1224407,25.6679245 24.7263742,25.1962264 C24.3491679,24.7622642 24.169995,24.1396226 24.169995,23.3283019 C24.169995,22.4981132 24.3680282,21.8471698 24.7829551,21.3754717 C25.1695915,20.9226415 25.6882501,20.7056604 26.3389309,20.7056604 C26.8670197,20.7056604 27.3008069,20.8188679 27.6214322,21.054717 C27.9420575,21.2811321 28.1495209,21.6207547 28.2438225,22.0735849 L29.2811397,22.0735849 C29.1585477,21.3188679 28.8567827,20.7622642 28.3758447,20.3849057 C27.8760464,19.9886792 27.1970751,19.8 26.3389309,19.8 C25.3487645,19.8 24.5566314,20.1396226 23.9719617,20.8377358 C23.4155825,21.4886792 23.1421079,22.3188679 23.1421079,23.3283019 C23.1421079,24.3283019 23.4155825,25.1490566 23.9719617,25.7811321 C24.5660615,26.4603774 25.3959153,26.8 26.4709531,26.8 Z" id="PKG" fill="#576B95" fill-rule="nonzero"></path>
        <path d="M35,11.9706421 C35,11.5180407 34.9525324,11.3521757 34.863398,11.1855091 C34.7742637,11.0188424 34.6434628,10.8880414 34.4767961,10.7989071 C34.328648,10.7196766 34.1811332,10.6733679 33.8323048,10.6640553 L33.6916631,10.6623052 L25.3604221,10.6623052 C24.7955854,10.6623052 24.3376948,10.2044146 24.3376948,9.63957788 L24.3376948,1.30833691 C24.3376948,0.855735544 24.2902272,0.689870569 24.2010929,0.523203902 C24.1119586,0.356537235 23.9811576,0.22573626 23.8144909,0.136601951 C23.6663428,0.0573714546 23.5188281,0.0110627687 23.1699996,0.00175010385 L23.0293579,4.71612135e-10 L23.2714643,5.06897718e-10 C23.7626343,5.06878359e-10 24.2538042,0.168637512 24.650674,0.505912534 L24.650674,0.505912534 L24.779342,0.624583376 L34.3754166,10.220658 L34.508043,10.3659166 C34.7990598,10.7154537 34.9609635,11.1361867 34.9937542,11.5649417 L34.9937542,11.5649417 L35,11.7285357 L35,11.9706421 Z" id="形状结合" fill-opacity="0.2" fill="#000000"></path>
    </g>
</svg>