<?xml version="1.0" encoding="UTF-8"?>
<svg width="32px" height="32px" viewBox="0 0 32 32" version="1.1" xmlns="http://www.w3.org/2000/svg" xmlns:xlink="http://www.w3.org/1999/xlink">
    <!-- Generator: Sketch 61.2 (89653) - https://sketch.com -->
    <title>icon-pdf1x</title>
    <desc>Created with Sketch.</desc>
    <g id="icon-pdf1x" stroke="none" stroke-width="1" fill="none" fill-rule="evenodd">
        <circle id="Bg" fill="#E64340" cx="16" cy="16" r="16"></circle>
        <path d="M8.425,19.715 L8.425,17.33 L9.885,17.33 C11.345,17.33 12.37,16.355 12.37,14.915 C12.37,13.475 11.375,12.5 9.94,12.5 L7.135,12.5 L7.135,19.715 L8.425,19.715 Z M9.595,16.29 L8.425,16.29 L8.425,13.555 L9.6,13.555 C10.525,13.555 11.06,14.05 11.06,14.915 C11.06,15.79 10.52,16.29 9.595,16.29 Z M15.945,19.715 C18.105,19.715 19.375,18.375 19.375,16.09 C19.375,13.805 18.1,12.5 15.945,12.5 L13.31,12.5 L13.31,19.715 L15.945,19.715 Z M15.81,18.625 L14.6,18.625 L14.6,13.59 L15.81,13.59 C17.25,13.59 18.06,14.48 18.06,16.095 C18.06,17.74 17.26,18.625 15.81,18.625 Z M21.685,19.715 L21.685,16.77 L24.71,16.77 L24.71,15.72 L21.685,15.72 L21.685,13.59 L24.995,13.59 L24.995,12.5 L20.395,12.5 L20.395,19.715 L21.685,19.715 Z" id="PDF" fill="#FFFFFF" fill-rule="nonzero"></path>
    </g>
</svg>