<?xml version="1.0" encoding="UTF-8"?>
<svg width="40px" height="40px" viewBox="0 0 40 40" version="1.1" xmlns="http://www.w3.org/2000/svg" xmlns:xlink="http://www.w3.org/1999/xlink">
    <title>0.图标/06.文件相关/icons_OFD</title>
    <g id="0.图标/06.文件相关/icons_OFD" stroke="none" stroke-width="1" fill="none" fill-rule="evenodd">
        <path d="M6.32954545,0 L33.6704545,0 C34.4047422,-1.34886458e-16 35,0.595257776 35,1.32954545 L35,38.6704545 C35,39.4047422 34.4047422,40 33.6704545,40 L6.32954545,40 C5.59525778,40 5,39.4047422 5,38.6704545 L5,1.32954545 C5,0.595257776 5.59525778,-2.08555959e-15 6.32954545,0 Z M33.6704545,4.67480277e-10 C34.4047422,4.67481224e-10 35,0.595257776 35,1.32954546 L35,11.7285357 C34.9957741,11.2043346 34.7960968,10.6865111 34.4009021,10.2904364 L34.4089054,10.3 L34.4009002,10.2789668 L24.7652602,0.600431099 L24.7255658,0.583186087 C24.3346376,0.200472033 23.8286223,0.00612401211 23.3208082,0.00014202397 L23.3189054,4.67480277e-10 L33.6704545,4.67480277e-10 Z" id="形状结合备份-7" fill="#74A800"></path>
        <path d="M35,11.9706421 C35,11.5180407 34.9525324,11.3521757 34.863398,11.1855091 C34.7742637,11.0188424 34.6434628,10.8880414 34.4767961,10.7989071 C34.328648,10.7196766 34.1811332,10.6733679 33.8323048,10.6640553 L33.6916631,10.6623052 L25.3604221,10.6623052 C24.7955854,10.6623052 24.3376948,10.2044146 24.3376948,9.63957788 L24.3376948,1.30833691 C24.3376948,0.855735544 24.2902272,0.689870569 24.2010929,0.523203902 C24.1119586,0.356537235 23.9811576,0.22573626 23.8144909,0.136601951 C23.6663428,0.0573714546 23.5188281,0.0110627687 23.1699996,0.00175010385 L23.0293579,4.71612135e-10 L23.2714643,5.06897718e-10 C23.7626343,5.06878359e-10 24.2538042,0.168637512 24.650674,0.505912534 L24.650674,0.505912534 L24.779342,0.624583376 L34.3754166,10.220658 L34.508043,10.3659166 C34.7990598,10.7154537 34.9609635,11.1361867 34.9937542,11.5649417 L34.9937542,11.5649417 L35,11.7285357 L35,11.9706421 Z" id="形状结合" fill-opacity="0.2" fill="#000000"></path>
        <path d="M13.612,26.7973333 C14.6293333,26.7973333 15.432,26.4706667 16.02,25.8173333 C16.58,25.192 16.86,24.3706667 16.86,23.344 C16.86,22.3173333 16.58,21.4866667 16.02,20.8613333 C15.432,20.1986667 14.6293333,19.872 13.612,19.872 C12.5853333,19.872 11.7826667,20.1986667 11.204,20.8706667 C10.644,21.5053333 10.3733333,22.3266667 10.3733333,23.344 C10.3733333,24.352 10.644,25.1733333 11.204,25.808 C11.7826667,26.4613333 12.5853333,26.7973333 13.612,26.7973333 Z M13.612,25.836 C12.9213333,25.836 12.38,25.6026667 12.0066667,25.1453333 C11.6426667,24.6973333 11.4653333,24.1 11.4653333,23.344 C11.4653333,22.5786667 11.6426667,21.9813333 12.0066667,21.5333333 C12.3893333,21.0666667 12.9213333,20.8333333 13.612,20.8333333 C14.3026667,20.8333333 14.8346667,21.048 15.208,21.496 C15.572,21.944 15.7586667,22.56 15.7586667,23.344 C15.7586667,24.128 15.572,24.7346667 15.208,25.1733333 C14.8346667,25.612 14.3026667,25.836 13.612,25.836 Z M18.9786667,26.6666667 L18.9786667,23.7173333 L22.236,23.7173333 L22.236,22.784 L18.9786667,22.784 L18.9786667,20.936 L22.432,20.936 L22.432,20.0026667 L17.8866667,20.0026667 L17.8866667,26.6666667 L18.9786667,26.6666667 Z M25.7546667,26.6666667 C26.8373333,26.6666667 27.6493333,26.368 28.2093333,25.7706667 C28.7413333,25.2013333 29.012,24.3893333 29.012,23.3346667 C29.012,22.2706667 28.7413333,21.4586667 28.2093333,20.8986667 C27.6493333,20.3013333 26.8373333,20.0026667 25.7546667,20.0026667 L23.3186667,20.0026667 L23.3186667,26.6666667 L25.7546667,26.6666667 Z M25.5493333,25.7333333 L24.4106667,25.7333333 L24.4106667,20.936 L25.5493333,20.936 C26.38,20.936 26.9866667,21.1226667 27.3693333,21.5053333 C27.7426667,21.8786667 27.9293333,22.4946667 27.9293333,23.3346667 C27.9293333,24.156 27.7426667,24.7626667 27.3693333,25.1546667 C26.9866667,25.5373333 26.38,25.7333333 25.5493333,25.7333333 Z" id="OFD" fill="#FFFFFF" fill-rule="nonzero"></path>
    </g>
</svg>