<?xml version="1.0" encoding="UTF-8"?>
<svg width="32px" height="32px" viewBox="0 0 32 32" version="1.1" xmlns="http://www.w3.org/2000/svg" xmlns:xlink="http://www.w3.org/1999/xlink">
    <!-- Generator: Sketch 61.2 (89653) - https://sketch.com -->
    <title>icon-number</title>
    <desc>Created with Sketch.</desc>
    <defs>
        <circle id="path-1" cx="16" cy="16" r="16"></circle>
    </defs>
    <g id="icon-number" stroke="none" stroke-width="1" fill="none" fill-rule="evenodd">
        <mask id="mask-2" fill="white">
            <use xlink:href="#path-1"></use>
        </mask>
        <use id="蒙版" fill="#1DCC25" xlink:href="#path-1"></use>
        <g id="icon" transform="translate(7.500000, 9.000000)" fill="#FFFFFF">
            <rect id="Rectangle-10" x="0" y="9.6" width="3.2" height="2.4" rx="0.4"></rect>
            <rect id="Rectangle-10" x="4.4" y="6" width="3.2" height="6" rx="0.4"></rect>
            <path d="M9.2,0 L11.6,0 C11.8209139,1.55629733e-16 12,0.1790861 12,0.4 L12,11.6 C12,11.8209139 11.8209139,12 11.6,12 L9.2,12 C8.9790861,12 8.8,11.8209139 8.8,11.6 L8.8,0.4 C8.8,0.1790861 8.9790861,3.18136981e-16 9.2,0 Z" id="Rectangle-10"></path>
            <rect id="Rectangle-12" x="9.05941988e-14" y="13" width="16.8" height="1" rx="0.5"></rect>
            <rect id="Rectangle-10" x="13.2" y="3.6" width="3.2" height="8.4" rx="0.4"></rect>
        </g>
    </g>
</svg>