<?xml version="1.0" encoding="UTF-8"?>
<svg width="32px" height="32px" viewBox="0 0 32 32" version="1.1" xmlns="http://www.w3.org/2000/svg" xmlns:xlink="http://www.w3.org/1999/xlink">
    <!-- Generator: Sketch 61.2 (89653) - https://sketch.com -->
    <title>icon-music</title>
    <desc>Created with Sketch.</desc>
    <defs>
        <circle id="path-1" cx="16" cy="16" r="16"></circle>
    </defs>
    <g id="icon-music" stroke="none" stroke-width="1" fill="none" fill-rule="evenodd">
        <mask id="mask-2" fill="white">
            <use xlink:href="#path-1"></use>
        </mask>
        <use id="蒙版" fill="#6467F0" xlink:href="#path-1"></use>
        <path d="M21.9862021,7.5102498 C21.9953758,7.55371087 22,7.59800889 22,7.64242759 L22,9.31058409 L21.999,9.31029712 L22,19.3279762 C22,20.0946709 21.5224359,20.8435234 20.8592506,21.2205328 L20.7144047,21.2955 C20.5773303,21.3596507 19.7114081,21.5538623 19.5983407,21.5766876 C18.5119265,21.7960054 17.6771842,20.8622141 17.6312138,19.9179469 C17.5852434,18.9736797 18.2023563,18.1862993 18.9183645,18.0417565 L18.9183645,18.0417565 L20.1637003,17.7903566 C20.7236104,17.6773258 21.1262428,17.1852906 21.1262428,16.6140855 L21.1262428,16.6140855 L21.126,9.49429712 L11.333,11.5612971 L11.3335718,21.7189439 C11.3335718,22.4856386 10.8601187,23.2344911 10.2026424,23.6115005 L10.0590434,23.6864677 C9.92314896,23.7506184 9.06468089,23.94483 8.95258678,23.9676553 C7.87552479,24.1869731 7.04796819,23.2531818 7.00239354,22.3089146 C6.95681888,21.3646474 7.56861946,20.577267 8.27846403,20.4327242 L8.27846403,20.4327242 L9.50677381,20.1826084 C10.0657489,20.0687865 10.4673362,19.5771846 10.4673362,19.0067386 L10.4673362,19.0067386 L10.4673362,10.4114353 C10.4676832,10.4111618 10.4680302,10.4108885 10.468377,10.4106152 L10.4689306,9.80620778 C10.4689306,9.50368693 10.6807541,9.24248467 10.9767528,9.18000571 L21.2278222,7.01622552 C21.5736641,6.94322574 21.9132023,7.16440795 21.9862021,7.5102498 Z" id="Music-Copy" fill="#FFFFFF"></path>
    </g>
</svg>