<?xml version="1.0" encoding="UTF-8"?>
<svg width="32px" height="32px" viewBox="0 0 32 32" version="1.1" xmlns="http://www.w3.org/2000/svg" xmlns:xlink="http://www.w3.org/1999/xlink">
    <title>Circle_INK</title>
    <g id="Circle_INK" stroke="none" stroke-width="1" fill="none" fill-rule="evenodd">
        <circle id="椭圆形" fill="#F2F2F2" cx="16" cy="16" r="16"></circle>
        <path d="M10.0030618,19 L10.0030618,13 L9,13 L9,19 L10.0030618,19 Z M12.2063686,19 L12.2063686,14.6134454 L12.2406614,14.6134454 L15.301286,19 L16.2786283,19 L16.2786283,13 L15.2669933,13 L15.2669933,17.3277311 L15.2327006,17.3277311 L12.2063686,13 L11.2033068,13 L11.2033068,19 L12.2063686,19 Z M18.4819351,19 L18.4819351,16.9327731 L19.2278016,16.2184874 L21.6454378,19 L23,19 L19.9050827,15.5714286 L22.5970606,13 L21.3282303,13 L18.4819351,15.8319328 L18.4819351,13 L17.4788732,13 L17.4788732,19 L18.4819351,19 Z" id="INK" fill="#576B95" fill-rule="nonzero"></path>
    </g>
</svg>