<?xml version="1.0" encoding="UTF-8"?>
<svg width="40px" height="40px" viewBox="0 0 40 40" version="1.1" xmlns="http://www.w3.org/2000/svg" xmlns:xlink="http://www.w3.org/1999/xlink">
    <title>0.图标/06.文件相关/icons_DWG</title>
    <g id="0.图标/06.文件相关/icons_DWG" stroke="none" stroke-width="1" fill="none" fill-rule="evenodd">
        <path d="M6.32954545,0 L33.6704545,0 C34.4047422,-1.34886458e-16 35,0.595257776 35,1.32954545 L35,38.6704545 C35,39.4047422 34.4047422,40 33.6704545,40 L6.32954545,40 C5.59525778,40 5,39.4047422 5,38.6704545 L5,1.32954545 C5,0.595257776 5.59525778,-2.08555959e-15 6.32954545,0 Z M33.6704545,4.67480277e-10 C34.4047422,4.67481224e-10 35,0.595257776 35,1.32954546 L35,11.7285357 C34.9957741,11.2043346 34.7960968,10.6865111 34.4009021,10.2904364 L34.4089054,10.3 L34.4009002,10.2789668 L24.7652602,0.600431099 L24.7255658,0.583186087 C24.3346376,0.200472033 23.8286223,0.00612401211 23.3208082,0.00014202397 L23.3189054,4.67480277e-10 L33.6704545,4.67480277e-10 Z" id="形状结合备份-7" fill-opacity="0.05" fill="#000000"></path>
        <path d="M11.9209115,26.6679245 C13,26.6679245 13.8163539,26.3660377 14.3793566,25.7622642 C14.9142091,25.1773585 15.1863271,24.3566038 15.1863271,23.3 C15.1863271,22.2339623 14.9235925,21.4132075 14.3981233,20.8471698 C13.8351206,20.2339623 13.0187668,19.9320755 11.9396783,19.9320755 L9.5,19.9320755 L9.5,26.6679245 L11.9209115,26.6679245 Z M11.733244,25.790566 L10.5227882,25.790566 L10.5227882,20.809434 L11.7520107,20.809434 C12.5965147,20.809434 13.2158177,21.0075472 13.6099196,21.4132075 C13.9852547,21.809434 14.1823056,22.4320755 14.1823056,23.3 C14.1823056,24.1490566 13.9852547,24.7716981 13.6005362,25.1773585 C13.2064343,25.5830189 12.577748,25.790566 11.733244,25.790566 Z M17.2506702,26.6679245 L17.2506702,21.8566038 L17.2882038,21.8566038 L19.3431635,26.6679245 L20.2252011,26.6679245 L22.2801609,21.8566038 L22.3176944,21.8566038 L22.3176944,26.6679245 L23.3404826,26.6679245 L23.3404826,19.9320755 L22.1300268,19.9320755 L19.8029491,25.3283019 L19.7747989,25.3283019 L17.4383378,19.9320755 L16.227882,19.9320755 L16.227882,26.6679245 L17.2506702,26.6679245 Z M27.6849866,26.8 C28.266756,26.8 28.8016086,26.7245283 29.2895442,26.5735849 C29.7493298,26.4226415 30.152815,26.2150943 30.5,25.9415094 L30.5,23.1113208 L27.6286863,23.1113208 L27.6286863,23.9886792 L29.4772118,23.9886792 L29.4772118,25.4509434 C29.2520107,25.5924528 29.0080429,25.7056604 28.7265416,25.7811321 C28.4356568,25.8566038 28.1260054,25.9037736 27.7975871,25.9037736 C26.9624665,25.9037736 26.3431635,25.6679245 25.9490617,25.1962264 C25.5737265,24.7622642 25.3954424,24.1396226 25.3954424,23.3283019 C25.3954424,22.4981132 25.5924933,21.8471698 26.0053619,21.3754717 C26.3900804,20.9226415 26.9061662,20.7056604 27.5536193,20.7056604 C28.0790885,20.7056604 28.5107239,20.8188679 28.8297587,21.054717 C29.1487936,21.2811321 29.3552279,21.6207547 29.4490617,22.0735849 L30.4812332,22.0735849 C30.3592493,21.3188679 30.0589812,20.7622642 29.580429,20.3849057 C29.0831099,19.9886792 28.4075067,19.8 27.5536193,19.8 C26.5683646,19.8 25.7801609,20.1396226 25.1983914,20.8377358 C24.6447721,21.4886792 24.3726542,22.3188679 24.3726542,23.3283019 C24.3726542,24.3283019 24.6447721,25.1490566 25.1983914,25.7811321 C25.7895442,26.4603774 26.6152815,26.8 27.6849866,26.8 Z" id="DMG" fill="#576B95" fill-rule="nonzero"></path>
        <path d="M35,11.9706421 C35,11.5180407 34.9525324,11.3521757 34.863398,11.1855091 C34.7742637,11.0188424 34.6434628,10.8880414 34.4767961,10.7989071 C34.328648,10.7196766 34.1811332,10.6733679 33.8323048,10.6640553 L33.6916631,10.6623052 L25.3604221,10.6623052 C24.7955854,10.6623052 24.3376948,10.2044146 24.3376948,9.63957788 L24.3376948,1.30833691 C24.3376948,0.855735544 24.2902272,0.689870569 24.2010929,0.523203902 C24.1119586,0.356537235 23.9811576,0.22573626 23.8144909,0.136601951 C23.6663428,0.0573714546 23.5188281,0.0110627687 23.1699996,0.00175010385 L23.0293579,4.71612135e-10 L23.2714643,5.06897718e-10 C23.7626343,5.06878359e-10 24.2538042,0.168637512 24.650674,0.505912534 L24.650674,0.505912534 L24.779342,0.624583376 L34.3754166,10.220658 L34.508043,10.3659166 C34.7990598,10.7154537 34.9609635,11.1361867 34.9937542,11.5649417 L34.9937542,11.5649417 L35,11.7285357 L35,11.9706421 Z" id="形状结合" fill-opacity="0.2" fill="#000000"></path>
    </g>
</svg>