<?xml version="1.0" encoding="UTF-8"?>
<svg width="32px" height="32px" viewBox="0 0 32 32" version="1.1" xmlns="http://www.w3.org/2000/svg" xmlns:xlink="http://www.w3.org/1999/xlink">
    <title>Circle_PS</title>
    <g id="Circle_PS" stroke="none" stroke-width="1" fill="none" fill-rule="evenodd">
        <circle id="椭圆形" fill="#F2F2F2" cx="16" cy="16" r="16"></circle>
        <path d="M11.1641791,19.8490566 L11.1641791,16.8948787 L12.9253731,16.8948787 C14.6567164,16.8948787 15.5223881,16.097035 15.5223881,14.5121294 C15.5223881,12.9380054 14.6567164,12.1509434 12.9452736,12.1509434 L10,12.1509434 L10,19.8490566 L11.1641791,19.8490566 Z M12.8557214,15.8167116 L11.1641791,15.8167116 L11.1641791,13.2291105 L12.8557214,13.2291105 C13.3631841,13.2291105 13.7412935,13.3261456 13.9800995,13.5309973 C14.2189055,13.7250674 14.3482587,14.0485175 14.3482587,14.5121294 C14.3482587,14.9757412 14.2288557,15.309973 13.9900498,15.5148248 C13.7512438,15.7088949 13.3731343,15.8167116 12.8557214,15.8167116 Z M19.1442786,20 C20.0497512,20 20.7562189,19.7951482 21.2537313,19.4070081 C21.7512438,19.0080863 22,18.458221 22,17.7681941 C22,17.0566038 21.6915423,16.5067385 21.0746269,16.1078167 C20.7960199,15.93531 20.1791045,15.6765499 19.2139303,15.3530997 C18.5572139,15.1266846 18.1492537,14.9649596 18,14.8787062 C17.6616915,14.6846361 17.5024876,14.4150943 17.5024876,14.0916442 C17.5024876,13.7250674 17.641791,13.4555256 17.9402985,13.2938005 C18.1791045,13.1536388 18.5174129,13.0889488 18.9651741,13.0889488 C19.4825871,13.0889488 19.880597,13.1859838 20.1393035,13.4016173 C20.39801,13.606469 20.5870647,13.9514825 20.6865672,14.425876 L21.840796,14.425876 C21.7711443,13.5849057 21.4825871,12.9595687 20.9850746,12.5606469 C20.5174129,12.1832884 19.8606965,12 19.0248756,12 C18.2587065,12 17.6318408,12.1832884 17.1343284,12.5606469 C16.5970149,12.9487871 16.3383085,13.4878706 16.3383085,14.1671159 C16.3383085,14.8463612 16.6069652,15.3638814 17.1542289,15.7196765 C17.3631841,15.8490566 17.9104478,16.06469 18.7860697,16.3665768 C19.5721393,16.6253369 20.0298507,16.7978437 20.1691542,16.8733154 C20.6069652,17.1105121 20.8358209,17.4339623 20.8358209,17.8436658 C20.8358209,18.1671159 20.6766169,18.4150943 20.3781095,18.6091644 C20.079602,18.7924528 19.6616915,18.8894879 19.1442786,18.8894879 C18.5572139,18.8894879 18.1293532,18.7708895 17.8507463,18.5552561 C17.5422886,18.3072776 17.3532338,17.8867925 17.2736318,17.3045822 L16.119403,17.3045822 C16.1691542,18.2857143 16.4975124,18.9973046 17.0945274,19.4501348 C17.5820896,19.8167116 18.2686567,20 19.1442786,20 Z" id="PS" fill="#576B95" fill-rule="nonzero"></path>
    </g>
</svg>