<?xml version="1.0" encoding="UTF-8"?>
<svg width="32px" height="32px" viewBox="0 0 32 32" version="1.1" xmlns="http://www.w3.org/2000/svg" xmlns:xlink="http://www.w3.org/1999/xlink">
    <title>Circle_文件传图</title>
    <g id="Circle_文件传图" stroke="none" stroke-width="1" fill="none" fill-rule="evenodd">
        <circle id="椭圆形" fill="#6467F0" cx="16" cy="16" r="16"></circle>
        <path d="M22.3057378,10.5 C22.6812861,10.5 23,10.8307817 23,11.2388216 L23,20.7611784 C23,21.1707918 22.6891682,21.5 22.3057378,21.5 L9.69426218,21.5 C9.3187139,21.5 9,21.1692183 9,20.7611784 L9,11.2388216 C9,10.8292082 9.31083176,10.5 9.69426218,10.5 L22.3057378,10.5 Z M22.16,11.325 L9.84,11.325 L9.84,17.437 L13.3394719,14.6588653 C13.6632593,14.4016897 14.1832379,14.4141624 14.4953468,14.683495 L17.628846,17.3875306 L19.2263718,16.0532796 C19.5499222,15.7830508 20.0647061,15.7885405 20.378802,16.06537 L22.16,17.657 L22.16,11.325 Z" id="形状结合" fill="#FFFFFF"></path>
    </g>
</svg>