<?xml version="1.0" encoding="UTF-8"?>
<svg width="40px" height="40px" viewBox="0 0 40 40" version="1.1" xmlns="http://www.w3.org/2000/svg" xmlns:xlink="http://www.w3.org/1999/xlink">
    <title>0.图标/06.文件相关/icons_FileMovie</title>
    <g id="0.图标/06.文件相关/icons_FileMovie" stroke="none" stroke-width="1" fill="none" fill-rule="evenodd">
        <path d="M6.32954545,0 L33.6704545,0 C34.4047422,-1.34886458e-16 35,0.595257776 35,1.32954545 L35,38.6704545 C35,39.4047422 34.4047422,40 33.6704545,40 L6.32954545,40 C5.59525778,40 5,39.4047422 5,38.6704545 L5,1.32954545 C5,0.595257776 5.59525778,-2.08555959e-15 6.32954545,0 Z M33.6704545,4.67480277e-10 C34.4047422,4.67481224e-10 35,0.595257776 35,1.32954546 L35,11.7285357 C34.9957741,11.2043346 34.7960968,10.6865111 34.4009021,10.2904364 L34.4089054,10.3 L34.4009002,10.2789668 L24.7652602,0.600431099 L24.7255658,0.583186087 C24.3346376,0.200472033 23.8286223,0.00612401211 23.3208082,0.00014202397 L23.3189054,4.67480277e-10 L33.6704545,4.67480277e-10 Z" id="形状结合备份-7" fill="#404040"></path>
        <path d="M35,11.9706421 C35,11.5180407 34.9525324,11.3521757 34.863398,11.1855091 C34.7742637,11.0188424 34.6434628,10.8880414 34.4767961,10.7989071 C34.328648,10.7196766 34.1811332,10.6733679 33.8323048,10.6640553 L33.6916631,10.6623052 L25.3604221,10.6623052 C24.7955854,10.6623052 24.3376948,10.2044146 24.3376948,9.63957788 L24.3376948,1.30833691 C24.3376948,0.855735544 24.2902272,0.689870569 24.2010929,0.523203902 C24.1119586,0.356537235 23.9811576,0.22573626 23.8144909,0.136601951 C23.6663428,0.0573714546 23.5188281,0.0110627687 23.1699996,0.00175010385 L23.0293579,4.71612135e-10 L23.2714643,5.06897718e-10 C23.7626343,5.06878359e-10 24.2538042,0.168637512 24.650674,0.505912534 L24.650674,0.505912534 L24.779342,0.624583376 L34.3754166,10.220658 L34.508043,10.3659166 C34.7990598,10.7154537 34.9609635,11.1361867 34.9937542,11.5649417 L34.9937542,11.5649417 L35,11.7285357 L35,11.9706421 Z" id="形状结合" fill-opacity="0.2" fill="#000000"></path>
        <g id="Group" transform="translate(11.000000, 18.000000)">
            <path d="M0.333333333,0.866666667 L0.333333333,13.1333333 C0.333333333,13.4278852 0.5721148,13.6666667 0.866666667,13.6666667 L17.1333333,13.6666667 C17.4278852,13.6666667 17.6666667,13.4278852 17.6666667,13.1333333 L17.6666667,0.866666667 C17.6666667,0.5721148 17.4278852,0.333333333 17.1333333,0.333333333 L0.866666667,0.333333333 C0.5721148,0.333333333 0.333333333,0.5721148 0.333333333,0.866666667 Z" id="Rectangle-42" fill="#FFFFFF"></path>
            <path d="M9.61068343,5.41602515 L11.6545111,8.4817666 C11.7566286,8.63494283 11.7152373,8.84189928 11.562061,8.94401676 C11.5073052,8.98052066 11.4429693,9 11.377161,9 L7.2895057,9 C7.10541078,9 6.95617236,8.85076158 6.95617236,8.66666667 C6.95617236,8.60085834 6.97565171,8.53652244 7.0121556,8.4817666 L9.05598324,5.41602515 C9.15810072,5.26284892 9.36505717,5.22145763 9.5182334,5.32357511 C9.55485083,5.34798673 9.58627181,5.37940772 9.61068343,5.41602515 Z" id="Triangle-2" fill="#404040" transform="translate(9.333333, 7.000000) rotate(90.000000) translate(-9.333333, -7.000000) "></path>
            <rect id="Rectangle-5" fill="#404040" x="1.66666667" y="2.33333333" width="2" height="1.33333333"></rect>
            <rect id="Rectangle-5" fill="#404040" x="14.3333333" y="2.33333333" width="2" height="1.33333333"></rect>
            <rect id="Rectangle-5" fill="#404040" x="1.66666667" y="5" width="2" height="1.33333333"></rect>
            <rect id="Rectangle-5" fill="#404040" x="14.3333333" y="5" width="2" height="1.33333333"></rect>
            <rect id="Rectangle-5" fill="#404040" x="1.66666667" y="7.66666667" width="2" height="1.33333333"></rect>
            <rect id="Rectangle-5" fill="#404040" x="14.3333333" y="7.66666667" width="2" height="1.33333333"></rect>
            <rect id="Rectangle-5" fill="#404040" x="1.66666667" y="10.3333333" width="2" height="1.33333333"></rect>
            <rect id="Rectangle-5" fill="#404040" x="14.3333333" y="10.3333333" width="2" height="1.33333333"></rect>
        </g>
    </g>
</svg>