<?xml version="1.0" encoding="UTF-8"?>
<svg width="40px" height="40px" viewBox="0 0 40 40" version="1.1" xmlns="http://www.w3.org/2000/svg" xmlns:xlink="http://www.w3.org/1999/xlink">
    <title>0.图标/06.文件相关/icons_FileMusic</title>
    <g id="0.图标/06.文件相关/icons_FileMusic" stroke="none" stroke-width="1" fill="none" fill-rule="evenodd">
        <path d="M6.32954545,0 L33.6704545,0 C34.4047422,-1.34886458e-16 35,0.595257776 35,1.32954545 L35,38.6704545 C35,39.4047422 34.4047422,40 33.6704545,40 L6.32954545,40 C5.59525778,40 5,39.4047422 5,38.6704545 L5,1.32954545 C5,0.595257776 5.59525778,-2.08555959e-15 6.32954545,0 Z M33.6704545,4.67480277e-10 C34.4047422,4.67481224e-10 35,0.595257776 35,1.32954546 L35,11.7285357 C34.9957741,11.2043346 34.7960968,10.6865111 34.4009021,10.2904364 L34.4089054,10.3 L34.4009002,10.2789668 L24.7652602,0.600431099 L24.7255658,0.583186087 C24.3346376,0.200472033 23.8286223,0.00612401211 23.3208082,0.00014202397 L23.3189054,4.67480277e-10 L33.6704545,4.67480277e-10 Z" id="形状结合备份-7" fill="#6467F0"></path>
        <path d="M35,11.9706421 C35,11.5180407 34.9525324,11.3521757 34.863398,11.1855091 C34.7742637,11.0188424 34.6434628,10.8880414 34.4767961,10.7989071 C34.328648,10.7196766 34.1811332,10.6733679 33.8323048,10.6640553 L33.6916631,10.6623052 L25.3604221,10.6623052 C24.7955854,10.6623052 24.3376948,10.2044146 24.3376948,9.63957788 L24.3376948,1.30833691 C24.3376948,0.855735544 24.2902272,0.689870569 24.2010929,0.523203902 C24.1119586,0.356537235 23.9811576,0.22573626 23.8144909,0.136601951 C23.6663428,0.0573714546 23.5188281,0.0110627687 23.1699996,0.00175010385 L23.0293579,4.71612135e-10 L23.2714643,5.06897718e-10 C23.7626343,5.06878359e-10 24.2538042,0.168637512 24.650674,0.505912534 L24.650674,0.505912534 L24.779342,0.624583376 L34.3754166,10.220658 L34.508043,10.3659166 C34.7990598,10.7154537 34.9609635,11.1361867 34.9937542,11.5649417 L34.9937542,11.5649417 L35,11.7285357 L35,11.9706421 Z" id="形状结合" fill-opacity="0.2" fill="#000000"></path>
        <g id="Music" transform="translate(11.000000, 16.000000)" fill="#FFFFFF">
            <g id="Arrow41" transform="translate(0.000000, 0.333333)">
                <path d="M14.1333333,11.3885844 C14.1333333,12.0587266 13.6769185,12.7121595 13.0630324,12.9936813 C12.9489134,13.0460152 12.2280042,13.2044521 12.1338718,13.2230729 C11.2293958,13.4019913 10.5344449,12.6402086 10.496173,11.8698798 C10.4579012,11.099551 10.9716682,10.4572096 11.567769,10.3392923 L11.567769,10.3392923 L12.5419274,10.1465896 C13.044047,10.0472631 13.4059013,9.60681695 13.4059013,9.09496748 L13.4059013,9.09496748 L13.4053328,3.36724222 L5.25233285,5.05224222 L5.25317598,13.3391249 C5.25317598,13.9613998 4.86302233,14.5692672 4.32000562,14.8783326 L4.19208853,14.9442218 C4.07895189,14.9965556 3.36424858,15.1549926 3.27092649,15.1736133 C2.37423645,15.3525318 1.68526796,14.5907491 1.64732554,13.8204203 C1.60938312,13.0500915 2.11872752,12.4077501 2.70969681,12.2898327 L2.70969681,12.2898327 L3.66976942,12.0982674 C4.17107102,11.9982417 4.53200589,11.5581738 4.53200589,11.0469905 L4.53200589,11.0469905 L4.53200589,4.11451131 C4.53270268,4.11397329 4.53339896,4.1134358 4.53409473,4.11289884 L4.53333333,3.63167223 C4.53333333,3.3787575 4.71096886,3.16062088 4.95864128,3.1093936 L13.4919746,1.34440344 C13.7804211,1.28474267 14.0626178,1.47021016 14.1222786,1.75865668 C14.1296292,1.79419525 14.1333333,1.83039128 14.1333333,1.86668207 Z" id="Music-Copy"></path>
            </g>
        </g>
    </g>
</svg>