<?xml version="1.0" encoding="UTF-8"?>
<svg width="32px" height="32px" viewBox="0 0 32 32" version="1.1" xmlns="http://www.w3.org/2000/svg" xmlns:xlink="http://www.w3.org/1999/xlink">
    <title>Circle_page</title>
    <g id="Circle_page" stroke="none" stroke-width="1" fill="none" fill-rule="evenodd">
        <circle id="椭圆形" fill="#FA9D3B" cx="16" cy="16" r="16"></circle>
        <g id="icon" transform="translate(5.000000, 5.000000)" fill="#FFFFFF">
            <g id="Numbers" transform="translate(0.000000, 0.333333)">
                <g id="icon" transform="translate(4.666667, 4.333333)">
                    <rect id="Rectangle-12" x="0" y="11.6666667" width="12.6666667" height="1" rx="0.5"></rect>
                    <path d="M6.11197242,12.1602068 L5.9348271,13.2158319 C5.92438123,13.2780798 5.86545131,13.3200736 5.80320343,13.3096277 C5.75513625,13.3015615 5.71747379,13.2638991 5.70940759,13.2158319 L5.53226227,12.1602068 C5.51798582,11.9652448 5.50403898,11.7731471 5.49042175,11.5839139 L6.15381294,11.5839139 C6.14019571,11.7731471 6.12624887,11.9652448 6.11197242,12.1602068 Z M6.19490602,11.0073805 L5.44932867,11.0073805 C5.22724871,7.8604429 5.10229614,5.55757214 5.07447094,4.09876821 L6.56976375,4.09876821 C6.54193855,5.55757214 6.41698598,7.8604429 6.19490602,11.0073805 Z M5.86263919,-1.65797501 C6.16587248,-1.65797493 6.41630222,-1.4211181 6.43318169,-1.11835497 C6.5282221,0.586363491 6.5757423,2.13376287 6.5757423,3.52384317 L5.06849239,3.52384317 L5.06849239,3.52384317 C5.06849239,2.13374516 5.1160138,0.58632405 5.21105664,-1.11842015 C5.2279991,-1.42114521 5.4784004,-1.65797501 5.78159919,-1.65797501 L5.86263919,-1.65797501 Z" id="Combined-Shape" transform="translate(5.822117, 5.822117) rotate(45.000000) translate(-5.822117, -5.822117) "></path>
                </g>
            </g>
        </g>
    </g>
</svg>