<?xml version="1.0" encoding="UTF-8"?>
<svg width="32px" height="32px" viewBox="0 0 32 32" version="1.1" xmlns="http://www.w3.org/2000/svg" xmlns:xlink="http://www.w3.org/1999/xlink">
    <!-- Generator: Sketch 61.2 (89653) - https://sketch.com -->
    <title>icon-zip1x</title>
    <desc>Created with Sketch.</desc>
    <defs>
        <circle id="path-1" cx="16" cy="16" r="16"></circle>
    </defs>
    <g id="icon-zip1x" stroke="none" stroke-width="1" fill="none" fill-rule="evenodd">
        <g id="编组-3">
            <mask id="mask-2" fill="white">
                <use xlink:href="#path-1"></use>
            </mask>
            <use id="蒙版" fill="#8B572A" xlink:href="#path-1"></use>
            <path d="M14.4,10.6666667 C14.1054481,10.6666667 13.8666667,10.4278852 13.8666667,10.1333333 L13.8666667,8.53333333 C13.8666667,8.23878147 14.1054481,8 14.4,8 L15.4666667,8 L15.4666667,5.33333333 L14.4,5.33333333 C14.1054481,5.33333333 13.8666667,5.09455187 13.8666667,4.8 L13.8666667,3.2 C13.8666667,2.90544813 14.1054481,2.66666667 14.4,2.66666667 L15.4666667,2.66666667 L15.4666667,9.76996262e-15 L17.0666667,9.76996262e-15 C17.3612185,9.71585432e-15 17.6,0.238781467 17.6,0.533333333 L17.6,2.13333333 C17.6,2.4278852 17.3612185,2.66666667 17.0666667,2.66666667 L16,2.66666667 L16,5.33333333 L17.0666667,5.33333333 C17.3612185,5.33333333 17.6,5.5721148 17.6,5.86666667 L17.6,7.46666667 C17.6,7.76121853 17.3612185,8 17.0666667,8 L16,8 L16,10.6666667 L17.0666667,10.6666667 C17.3612185,10.6666667 17.6,10.9054481 17.6,11.2 L17.6,12.8 C17.6,13.0945519 17.3612185,13.3333333 17.0666667,13.3333333 L15.4666667,13.3333333 L15.4666667,10.6666667 L14.4,10.6666667 Z" id="Combined-Shape" fill="#FFFFFF"></path>
            <path d="M17.0666667,15.7333333 C17.3612185,15.7333333 17.6,15.9721148 17.6,16.2666667 L17.6,23.2 C17.6,23.4945519 17.3612185,23.7333333 17.0666667,23.7333333 L14.4,23.7333333 C14.1054481,23.7333333 13.8666667,23.4945519 13.8666667,23.2 L13.8666667,16.2666667 C13.8666667,15.9721148 14.1054481,15.7333333 14.4,15.7333333 L17.0666667,15.7333333 Z M16.5333333,20 L14.9333333,20 L14.9333333,22.6666667 L16.5333333,22.6666667 L16.5333333,20 Z" id="Combined-Shape" fill="#FFFFFF"></path>
        </g>
    </g>
</svg>