<?xml version="1.0" encoding="UTF-8"?>
<svg width="40px" height="40px" viewBox="0 0 40 40" version="1.1" xmlns="http://www.w3.org/2000/svg" xmlns:xlink="http://www.w3.org/1999/xlink">
    <title>0.图标/06.文件相关/icons_Ps</title>
    <g id="0.图标/06.文件相关/icons_Ps" stroke="none" stroke-width="1" fill="none" fill-rule="evenodd">
        <path d="M6.32954545,0 L33.6704545,0 C34.4047422,-1.34886458e-16 35,0.595257776 35,1.32954545 L35,38.6704545 C35,39.4047422 34.4047422,40 33.6704545,40 L6.32954545,40 C5.59525778,40 5,39.4047422 5,38.6704545 L5,1.32954545 C5,0.595257776 5.59525778,-2.08555959e-15 6.32954545,0 Z M33.6704545,4.67480277e-10 C34.4047422,4.67481224e-10 35,0.595257776 35,1.32954546 L35,11.7285357 C34.9957741,11.2043346 34.7960968,10.6865111 34.4009021,10.2904364 L34.4089054,10.3 L34.4009002,10.2789668 L24.7652602,0.600431099 L24.7255658,0.583186087 C24.3346376,0.200472033 23.8286223,0.00612401211 23.3208082,0.00014202397 L23.3189054,4.67480277e-10 L33.6704545,4.67480277e-10 Z" id="形状结合备份-7" fill-opacity="0.05" fill="#000000"></path>
        <path d="M35,11.9706421 C35,11.5180407 34.9525324,11.3521757 34.863398,11.1855091 C34.7742637,11.0188424 34.6434628,10.8880414 34.4767961,10.7989071 C34.328648,10.7196766 34.1811332,10.6733679 33.8323048,10.6640553 L33.6916631,10.6623052 L25.3604221,10.6623052 C24.7955854,10.6623052 24.3376948,10.2044146 24.3376948,9.63957788 L24.3376948,1.30833691 C24.3376948,0.855735544 24.2902272,0.689870569 24.2010929,0.523203902 C24.1119586,0.356537235 23.9811576,0.22573626 23.8144909,0.136601951 C23.6663428,0.0573714546 23.5188281,0.0110627687 23.1699996,0.00175010385 L23.0293579,4.71612135e-10 L23.2714643,5.06897718e-10 C23.7626343,5.06878359e-10 24.2538042,0.168637512 24.650674,0.505912534 L24.650674,0.505912534 L24.779342,0.624583376 L34.3754166,10.220658 L34.508043,10.3659166 C34.7990598,10.7154537 34.9609635,11.1361867 34.9937542,11.5649417 L34.9937542,11.5649417 L35,11.7285357 L35,11.9706421 Z" id="形状结合" fill-opacity="0.2" fill="#000000"></path>
        <path d="M15.412,26.6666667 L15.412,24.1093333 L17.064,24.1093333 C18.688,24.1093333 19.5,23.4186667 19.5,22.0466667 C19.5,20.684 18.688,20.0026667 17.0826667,20.0026667 L14.32,20.0026667 L14.32,26.6666667 L15.412,26.6666667 Z M16.9986667,23.176 L15.412,23.176 L15.412,20.936 L16.9986667,20.936 C17.4746667,20.936 17.8293333,21.02 18.0533333,21.1973333 C18.2773333,21.3653333 18.3986667,21.6453333 18.3986667,22.0466667 C18.3986667,22.448 18.2866667,22.7373333 18.0626667,22.9146667 C17.8386667,23.0826667 17.484,23.176 16.9986667,23.176 Z M22.8973333,26.7973333 C23.7466667,26.7973333 24.4093333,26.62 24.876,26.284 C25.3426667,25.9386667 25.576,25.4626667 25.576,24.8653333 C25.576,24.2493333 25.2866667,23.7733333 24.708,23.428 C24.4466667,23.2786667 23.868,23.0546667 22.9626667,22.7746667 C22.3466667,22.5786667 21.964,22.4386667 21.824,22.364 C21.5066667,22.196 21.3573333,21.9626667 21.3573333,21.6826667 C21.3573333,21.3653333 21.488,21.132 21.768,20.992 C21.992,20.8706667 22.3093333,20.8146667 22.7293333,20.8146667 C23.2146667,20.8146667 23.588,20.8986667 23.8306667,21.0853333 C24.0733333,21.2626667 24.2506667,21.5613333 24.344,21.972 L25.4266667,21.972 C25.3613333,21.244 25.0906667,20.7026667 24.624,20.3573333 C24.1853333,20.0306667 23.5693333,19.872 22.7853333,19.872 C22.0666667,19.872 21.4786667,20.0306667 21.012,20.3573333 C20.508,20.6933333 20.2653333,21.16 20.2653333,21.748 C20.2653333,22.336 20.5173333,22.784 21.0306667,23.092 C21.2266667,23.204 21.74,23.3906667 22.5613333,23.652 C23.2986667,23.876 23.728,24.0253333 23.8586667,24.0906667 C24.2693333,24.296 24.484,24.576 24.484,24.9306667 C24.484,25.2106667 24.3346667,25.4253333 24.0546667,25.5933333 C23.7746667,25.752 23.3826667,25.836 22.8973333,25.836 C22.3466667,25.836 21.9453333,25.7333333 21.684,25.5466667 C21.3946667,25.332 21.2173333,24.968 21.1426667,24.464 L20.06,24.464 C20.1066667,25.3133333 20.4146667,25.9293333 20.9746667,26.3213333 C21.432,26.6386667 22.076,26.7973333 22.8973333,26.7973333 Z" id="PS" fill="#576B95" fill-rule="nonzero"></path>
    </g>
</svg>