<?xml version="1.0" encoding="UTF-8"?>
<svg width="32px" height="32px" viewBox="0 0 32 32" version="1.1" xmlns="http://www.w3.org/2000/svg" xmlns:xlink="http://www.w3.org/1999/xlink">
    <!-- Generator: Sketch 61.2 (89653) - https://sketch.com -->
    <title>icon-zip1x备份</title>
    <desc>Created with Sketch.</desc>
    <defs>
        <circle id="path-1" cx="16" cy="16" r="16"></circle>
    </defs>
    <g id="icon-zip1x备份" stroke="none" stroke-width="1" fill="none" fill-rule="evenodd">
        <mask id="mask-2" fill="white">
            <use xlink:href="#path-1"></use>
        </mask>
        <use id="蒙版" fill="#404040" xlink:href="#path-1"></use>
        <g id="编组" transform="translate(7.000000, 9.000000)">
            <g id="Group">
                <path d="M0,0.56 L0,13.44 C3.78758101e-17,13.7492795 0.25072054,14 0.56,14 L17.3452632,14 C17.6545426,14 17.9052632,13.7492795 17.9052632,13.44 L17.9052632,0.56 C17.9052632,0.25072054 17.6545426,-3.89880622e-16 17.3452632,0 L0.56,0 C0.25072054,5.68137151e-17 5.17235702e-16,0.25072054 0,0.56 Z" id="Rectangle-42" fill="#FFFFFF"></path>
                <path d="M9.57044277,5.4172774 L11.6961723,8.43805099 C11.807415,8.5961327 11.7694445,8.81446325 11.6113628,8.92570593 C11.5523935,8.96720281 11.4820467,8.98947368 11.4099401,8.98947368 L7.15848096,8.98947368 C6.9651813,8.98947368 6.80848096,8.83277335 6.80848096,8.63947368 C6.80848096,8.56736707 6.83075184,8.49702024 6.87224872,8.43805099 L8.99797828,5.4172774 C9.10922096,5.2591957 9.32755151,5.22122517 9.48563322,5.33246785 C9.51857235,5.35564724 9.54726338,5.38433827 9.57044277,5.4172774 Z" id="Triangle-2" fill="#404040" transform="translate(9.284211, 7.000000) rotate(90.000000) translate(-9.284211, -7.000000) "></path>
            </g>
            <path d="M3.31578947,10.5 L3.31578947,11.9 L1.32631579,11.9 L1.32631579,10.5 L3.31578947,10.5 Z M16.5789474,10.5 L16.5789474,11.9 L14.5894737,11.9 L14.5894737,10.5 L16.5789474,10.5 Z M3.31578947,7.7 L3.31578947,9.1 L1.32631579,9.1 L1.32631579,7.7 L3.31578947,7.7 Z M16.5789474,7.7 L16.5789474,9.1 L14.5894737,9.1 L14.5894737,7.7 L16.5789474,7.7 Z M3.31578947,4.9 L3.31578947,6.3 L1.32631579,6.3 L1.32631579,4.9 L3.31578947,4.9 Z M16.5789474,4.9 L16.5789474,6.3 L14.5894737,6.3 L14.5894737,4.9 L16.5789474,4.9 Z M3.31578947,2.1 L3.31578947,3.5 L1.32631579,3.5 L1.32631579,2.1 L3.31578947,2.1 Z M16.5789474,2.1 L16.5789474,3.5 L14.5894737,3.5 L14.5894737,2.1 L16.5789474,2.1 Z" id="Combined-Shape" fill="#404040"></path>
        </g>
    </g>
</svg>