<?xml version="1.0" encoding="UTF-8"?>
<svg width="40px" height="40px" viewBox="0 0 40 40" version="1.1" xmlns="http://www.w3.org/2000/svg" xmlns:xlink="http://www.w3.org/1999/xlink">
    <!-- Generator: Sketch 61 (89581) - https://sketch.com -->
    <title>fileicon_error</title>
    <desc>Created with Sketch.</desc>
    <g id="fileicon_error" stroke="none" stroke-width="1" fill="none" fill-rule="evenodd">
        <g id="Icons/File/State/Error">
            <rect id="Icon-Background" fill-opacity="0" fill="#000000" x="0" y="0" width="40" height="40"></rect>
            <circle id="BG" fill-opacity="0.5" fill="#000000" cx="20" cy="20" r="10"></circle>
            <path d="M20,10 C25.5228475,10 30,14.4771525 30,20 C30,25.5228475 25.5228475,30 20,30 C14.4771525,30 10,25.5228475 10,20 C10,14.4771525 14.4771525,10 20,10 Z M20,11.2 C15.1398942,11.2 11.2,15.1398942 11.2,20 C11.2,24.8601058 15.1398942,28.8 20,28.8 C24.8601058,28.8 28.8,24.8601058 28.8,20 C28.8,15.1398942 24.8601058,11.2 20,11.2 Z M20,23 C20.5522847,23 21,23.4477153 21,24 C21,24.5522847 20.5522847,25 20,25 C19.4477153,25 19,24.5522847 19,24 C19,23.4477153 19.4477153,23 20,23 Z M20.7,15 L20.5,21.5795971 L19.5,21.5795971 L19.3,15 L20.7,15 Z" id="Error" fill="#FFFFFF"></path>
        </g>
    </g>
</svg>