<?xml version="1.0" encoding="UTF-8"?>
<svg width="40px" height="40px" viewBox="0 0 40 40" version="1.1" xmlns="http://www.w3.org/2000/svg" xmlns:xlink="http://www.w3.org/1999/xlink">
    <title>0.图标/06.文件相关/icons_EXE</title>
    <g id="0.图标/06.文件相关/icons_EXE" stroke="none" stroke-width="1" fill="none" fill-rule="evenodd">
        <path d="M6.32954545,0 L33.6704545,0 C34.4047422,-1.34886458e-16 35,0.595257776 35,1.32954545 L35,38.6704545 C35,39.4047422 34.4047422,40 33.6704545,40 L6.32954545,40 C5.59525778,40 5,39.4047422 5,38.6704545 L5,1.32954545 C5,0.595257776 5.59525778,-2.08555959e-15 6.32954545,0 Z M33.6704545,4.67480277e-10 C34.4047422,4.67481224e-10 35,0.595257776 35,1.32954546 L35,11.7285357 C34.9957741,11.2043346 34.7960968,10.6865111 34.4009021,10.2904364 L34.4089054,10.3 L34.4009002,10.2789668 L24.7652602,0.600431099 L24.7255658,0.583186087 C24.3346376,0.200472033 23.8286223,0.00612401211 23.3208082,0.00014202397 L23.3189054,4.67480277e-10 L33.6704545,4.67480277e-10 Z" id="形状结合备份-7" fill-opacity="0.05" fill="#000000"></path>
        <path d="M35,11.9706421 C35,11.5180407 34.9525324,11.3521757 34.863398,11.1855091 C34.7742637,11.0188424 34.6434628,10.8880414 34.4767961,10.7989071 C34.328648,10.7196766 34.1811332,10.6733679 33.8323048,10.6640553 L33.6916631,10.6623052 L25.3604221,10.6623052 C24.7955854,10.6623052 24.3376948,10.2044146 24.3376948,9.63957788 L24.3376948,1.30833691 C24.3376948,0.855735544 24.2902272,0.689870569 24.2010929,0.523203902 C24.1119586,0.356537235 23.9811576,0.22573626 23.8144909,0.136601951 C23.6663428,0.0573714546 23.5188281,0.0110627687 23.1699996,0.00175010385 L23.0293579,4.71612135e-10 L23.2714643,5.06897718e-10 C23.7626343,5.06878359e-10 24.2538042,0.168637512 24.650674,0.505912534 L24.650674,0.505912534 L24.779342,0.624583376 L34.3754166,10.220658 L34.508043,10.3659166 C34.7990598,10.7154537 34.9609635,11.1361867 34.9937542,11.5649417 L34.9937542,11.5649417 L35,11.7285357 L35,11.9706421 Z" id="形状结合" fill-opacity="0.2" fill="#000000"></path>
        <path d="M16.215965,27 L16.215965,26.0882353 L12.0727173,26.0882353 L12.0727173,23.8627451 L15.8124658,23.8627451 L15.8124658,22.9509804 L12.0727173,22.9509804 L12.0727173,20.9117647 L16.0486605,20.9117647 L16.0486605,20 L11,20 L11,27 L16.215965,27 Z M17.9775834,27 L19.8572991,24.2254902 L21.7370148,27 L23.0459267,27 L20.4969929,23.3823529 L22.8786222,20 L21.5697102,20 L19.8572991,22.5294118 L18.1448879,20 L16.8359759,20 L19.1979224,23.3823529 L16.6686714,27 L17.9775834,27 Z M29,27 L29,26.0882353 L24.8567523,26.0882353 L24.8567523,23.8627451 L28.5965008,23.8627451 L28.5965008,22.9509804 L24.8567523,22.9509804 L24.8567523,20.9117647 L28.8326955,20.9117647 L28.8326955,20 L23.784035,20 L23.784035,27 L29,27 Z" id="EXE" fill="#576B95" fill-rule="nonzero"></path>
    </g>
</svg>