<?xml version="1.0" encoding="UTF-8"?>
<svg width="32px" height="32px" viewBox="0 0 32 32" version="1.1" xmlns="http://www.w3.org/2000/svg" xmlns:xlink="http://www.w3.org/1999/xlink">
    <title>Circle_BIN</title>
    <g id="Circle_BIN" stroke="none" stroke-width="1" fill="none" fill-rule="evenodd">
        <circle id="椭圆形" fill="#F2F2F2" cx="16" cy="16" r="16"></circle>
        <path d="M12.2706303,19 C12.9126056,19 13.4194282,18.8823529 13.774204,18.6470588 C14.1881092,18.3613445 14.3992853,17.9159664 14.3992853,17.3109244 C14.3992853,16.907563 14.2979207,16.5798319 14.1036387,16.3445378 C13.9009097,16.1008403 13.6052632,15.9411765 13.2082521,15.8655462 C13.5123457,15.7478992 13.7404159,15.5882353 13.9009097,15.3697479 C14.0614035,15.1344538 14.1458739,14.8487395 14.1458739,14.512605 C14.1458739,14.0588235 13.9853801,13.697479 13.6728395,13.4285714 C13.3349578,13.1428571 12.8619233,13 12.2621832,13 L9.5,13 L9.5,19 L12.2706303,19 Z M12.0003249,15.5210084 L10.4883041,15.5210084 L10.4883041,13.8067227 L12.017219,13.8067227 C12.4226771,13.8067227 12.7098765,13.8739496 12.8957115,14.0084034 C13.0646524,14.1344538 13.1575699,14.3445378 13.1575699,14.6302521 C13.1575699,14.9411765 13.0646524,15.1680672 12.8957115,15.3109244 C12.7183236,15.4453782 12.4226771,15.5210084 12.0003249,15.5210084 Z M12.1270305,18.1932773 L10.4883041,18.1932773 L10.4883041,16.3277311 L12.1523717,16.3277311 C12.5916179,16.3277311 12.9126056,16.4033613 13.1153346,16.5546218 C13.3096166,16.7058824 13.4109812,16.9495798 13.4109812,17.2941176 C13.4109812,17.6302521 13.2758285,17.8655462 13.0055231,18.0168067 C12.794347,18.1344538 12.4987005,18.1932773 12.1270305,18.1932773 Z M16.3167641,19 L16.3167641,13 L15.32846,13 L15.32846,19 L16.3167641,19 Z M18.4876543,19 L18.4876543,14.6134454 L18.5214425,14.6134454 L21.537037,19 L22.5,19 L22.5,13 L21.5032489,13 L21.5032489,17.3277311 L21.4694607,17.3277311 L18.4876543,13 L17.4993502,13 L17.4993502,19 L18.4876543,19 Z" id="BIN" fill="#576B95"></path>
    </g>
</svg>