<?xml version="1.0" encoding="UTF-8"?>
<svg width="40px" height="40px" viewBox="0 0 40 40" version="1.1" xmlns="http://www.w3.org/2000/svg" xmlns:xlink="http://www.w3.org/1999/xlink">
    <title>0.图标/06.文件相关/icons_FilePages</title>
    <g id="0.图标/06.文件相关/icons_FilePages" stroke="none" stroke-width="1" fill="none" fill-rule="evenodd">
        <path d="M6.32954545,0 L33.6704545,0 C34.4047422,-1.34886458e-16 35,0.595257776 35,1.32954545 L35,38.6704545 C35,39.4047422 34.4047422,40 33.6704545,40 L6.32954545,40 C5.59525778,40 5,39.4047422 5,38.6704545 L5,1.32954545 C5,0.595257776 5.59525778,-2.08555959e-15 6.32954545,0 Z M33.6704545,4.67480277e-10 C34.4047422,4.67481224e-10 35,0.595257776 35,1.32954546 L35,11.7285357 C34.9957741,11.2043346 34.7960968,10.6865111 34.4009021,10.2904364 L34.4089054,10.3 L34.4009002,10.2789668 L24.7652602,0.600431099 L24.7255658,0.583186087 C24.3346376,0.200472033 23.8286223,0.00612401211 23.3208082,0.00014202397 L23.3189054,4.67480277e-10 L33.6704545,4.67480277e-10 Z" id="形状结合备份-7" fill="#FA9D3B"></path>
        <path d="M35,11.9706421 C35,11.5180407 34.9525324,11.3521757 34.863398,11.1855091 C34.7742637,11.0188424 34.6434628,10.8880414 34.4767961,10.7989071 C34.328648,10.7196766 34.1811332,10.6733679 33.8323048,10.6640553 L33.6916631,10.6623052 L25.3604221,10.6623052 C24.7955854,10.6623052 24.3376948,10.2044146 24.3376948,9.63957788 L24.3376948,1.30833691 C24.3376948,0.855735544 24.2902272,0.689870569 24.2010929,0.523203902 C24.1119586,0.356537235 23.9811576,0.22573626 23.8144909,0.136601951 C23.6663428,0.0573714546 23.5188281,0.0110627687 23.1699996,0.00175010385 L23.0293579,4.71612135e-10 L23.2714643,5.06897718e-10 C23.7626343,5.06878359e-10 24.2538042,0.168637512 24.650674,0.505912534 L24.650674,0.505912534 L24.779342,0.624583376 L34.3754166,10.220658 L34.508043,10.3659166 C34.7990598,10.7154537 34.9609635,11.1361867 34.9937542,11.5649417 L34.9937542,11.5649417 L35,11.7285357 L35,11.9706421 Z" id="形状结合" fill-opacity="0.2" fill="#000000"></path>
        <g id="icon" transform="translate(9.000000, 14.000000)" fill="#FFFFFF">
            <g id="Numbers" transform="translate(0.000000, 0.333333)">
                <g id="icon" transform="translate(4.666667, 4.333333)">
                    <rect id="Rectangle-12" x="0" y="11.6666667" width="12.6666667" height="1" rx="0.5"></rect>
                    <path d="M6.11197242,12.1602068 L5.9348271,13.2158319 C5.92438123,13.2780798 5.86545131,13.3200736 5.80320343,13.3096277 C5.75513625,13.3015615 5.71747379,13.2638991 5.70940759,13.2158319 L5.53226227,12.1602068 C5.51798582,11.9652448 5.50403898,11.7731471 5.49042175,11.5839139 L6.15381294,11.5839139 C6.14019571,11.7731471 6.12624887,11.9652448 6.11197242,12.1602068 Z M6.19490602,11.0073805 L5.44932867,11.0073805 C5.22724871,7.8604429 5.10229614,5.55757214 5.07447094,4.09876821 L6.56976375,4.09876821 C6.54193855,5.55757214 6.41698598,7.8604429 6.19490602,11.0073805 Z M5.86263919,-1.65797501 C6.16587248,-1.65797493 6.41630222,-1.4211181 6.43318169,-1.11835497 C6.5282221,0.586363491 6.5757423,2.13376287 6.5757423,3.52384317 L5.06849239,3.52384317 L5.06849239,3.52384317 C5.06849239,2.13374516 5.1160138,0.58632405 5.21105664,-1.11842015 C5.2279991,-1.42114521 5.4784004,-1.65797501 5.78159919,-1.65797501 L5.86263919,-1.65797501 Z" id="Combined-Shape" transform="translate(5.822117, 5.822117) rotate(45.000000) translate(-5.822117, -5.822117) "></path>
                </g>
            </g>
        </g>
    </g>
</svg>