<?xml version="1.0" encoding="UTF-8"?>
<svg width="40px" height="40px" viewBox="0 0 40 40" version="1.1" xmlns="http://www.w3.org/2000/svg" xmlns:xlink="http://www.w3.org/1999/xlink">
    <title>0.图标/06.文件相关/icons_BIN</title>
    <g id="0.图标/06.文件相关/icons_BIN" stroke="none" stroke-width="1" fill="none" fill-rule="evenodd">
        <path d="M6.32954545,0 L33.6704545,0 C34.4047422,-1.34886458e-16 35,0.595257776 35,1.32954545 L35,38.6704545 C35,39.4047422 34.4047422,40 33.6704545,40 L6.32954545,40 C5.59525778,40 5,39.4047422 5,38.6704545 L5,1.32954545 C5,0.595257776 5.59525778,-2.08555959e-15 6.32954545,0 Z M33.6704545,4.67480277e-10 C34.4047422,4.67481224e-10 35,0.595257776 35,1.32954546 L35,11.7285357 C34.9957741,11.2043346 34.7960968,10.6865111 34.4009021,10.2904364 L34.4089054,10.3 L34.4009002,10.2789668 L24.7652602,0.600431099 L24.7255658,0.583186087 C24.3346376,0.200472033 23.8286223,0.00612401211 23.3208082,0.00014202397 L23.3189054,4.67480277e-10 L33.6704545,4.67480277e-10 Z" id="形状结合备份-7" fill-opacity="0.05" fill="#000000"></path>
        <path d="M35,11.9706421 C35,11.5180407 34.9525324,11.3521757 34.863398,11.1855091 C34.7742637,11.0188424 34.6434628,10.8880414 34.4767961,10.7989071 C34.328648,10.7196766 34.1811332,10.6733679 33.8323048,10.6640553 L33.6916631,10.6623052 L25.3604221,10.6623052 C24.7955854,10.6623052 24.3376948,10.2044146 24.3376948,9.63957788 L24.3376948,1.30833691 C24.3376948,0.855735544 24.2902272,0.689870569 24.2010929,0.523203902 C24.1119586,0.356537235 23.9811576,0.22573626 23.8144909,0.136601951 C23.6663428,0.0573714546 23.5188281,0.0110627687 23.1699996,0.00175010385 L23.0293579,4.71612135e-10 L23.2714643,5.06897718e-10 C23.7626343,5.06878359e-10 24.2538042,0.168637512 24.650674,0.505912534 L24.650674,0.505912534 L24.779342,0.624583376 L34.3754166,10.220658 L34.508043,10.3659166 C34.7990598,10.7154537 34.9609635,11.1361867 34.9937542,11.5649417 L34.9937542,11.5649417 L35,11.7285357 L35,11.9706421 Z" id="形状结合" fill-opacity="0.2" fill="#000000"></path>
        <path d="M15.7146667,26.6666667 C16.424,26.6666667 16.984,26.536 17.376,26.2746667 C17.8333333,25.9573333 18.0666667,25.4626667 18.0666667,24.7906667 C18.0666667,24.3426667 17.9546667,23.9786667 17.74,23.7173333 C17.516,23.4466667 17.1893333,23.2693333 16.7506667,23.1853333 C17.0866667,23.0546667 17.3386667,22.8773333 17.516,22.6346667 C17.6933333,22.3733333 17.7866667,22.056 17.7866667,21.6826667 C17.7866667,21.1786667 17.6093333,20.7773333 17.264,20.4786667 C16.8906667,20.1613333 16.368,20.0026667 15.7053333,20.0026667 L12.6533333,20.0026667 L12.6533333,26.6666667 L15.7146667,26.6666667 Z M15.416,22.8026667 L13.7453333,22.8026667 L13.7453333,20.8986667 L15.4346667,20.8986667 C15.8826667,20.8986667 16.2,20.9733333 16.4053333,21.1226667 C16.592,21.2626667 16.6946667,21.496 16.6946667,21.8133333 C16.6946667,22.1586667 16.592,22.4106667 16.4053333,22.5693333 C16.2093333,22.7186667 15.8826667,22.8026667 15.416,22.8026667 Z M15.556,25.7706667 L13.7453333,25.7706667 L13.7453333,23.6986667 L15.584,23.6986667 C16.0693333,23.6986667 16.424,23.7826667 16.648,23.9506667 C16.8626667,24.1186667 16.9746667,24.3893333 16.9746667,24.772 C16.9746667,25.1453333 16.8253333,25.4066667 16.5266667,25.5746667 C16.2933333,25.7053333 15.9666667,25.7706667 15.556,25.7706667 Z M20.1853333,26.6666667 L20.1853333,20.0026667 L19.0933333,20.0026667 L19.0933333,26.6666667 L20.1853333,26.6666667 Z M22.584,26.6666667 L22.584,21.7946667 L22.6213333,21.7946667 L25.9533333,26.6666667 L27.0173333,26.6666667 L27.0173333,20.0026667 L25.916,20.0026667 L25.916,24.8093333 L25.8786667,24.8093333 L22.584,20.0026667 L21.492,20.0026667 L21.492,26.6666667 L22.584,26.6666667 Z" id="BIN" fill="#576B95"></path>
    </g>
</svg>