<?xml version="1.0" encoding="UTF-8"?>
<svg width="40px" height="40px" viewBox="0 0 40 40" version="1.1" xmlns="http://www.w3.org/2000/svg" xmlns:xlink="http://www.w3.org/1999/xlink">
    <!-- Generator: Sketch 61 (89581) - https://sketch.com -->
    <title>fileicon_download</title>
    <desc>Created with Sketch.</desc>
    <g id="fileicon_download" stroke="none" stroke-width="1" fill="none" fill-rule="evenodd">
        <g id="Icons/File/State/Download">
            <rect id="Icon-Background" fill-opacity="0" fill="#000000" x="0" y="0" width="40" height="40"></rect>
            <circle id="BG" fill-opacity="0.5" fill="#000000" cx="20" cy="20" r="10"></circle>
            <path d="M20,10 C25.5228475,10 30,14.4771525 30,20 C30,25.5228475 25.5228475,30 20,30 C14.4771525,30 10,25.5228475 10,20 C10,14.4771525 14.4771525,10 20,10 Z M20,11.2 C15.1398942,11.2 11.2,15.1398942 11.2,20 C11.2,24.8601058 15.1398942,28.8 20,28.8 C24.8601058,28.8 28.8,24.8601058 28.8,20 C28.8,15.1398942 24.8601058,11.2 20,11.2 Z M20.5855279,15 L20.5855279,23.1171633 L22.6725396,21.0301515 L23.5210678,21.8786797 L20.6926407,24.7071068 C20.3021164,25.0976311 19.6689514,25.0976311 19.2784271,24.7071068 L16.45,21.8786797 L17.2985282,21.0301515 L19.3855278,23.1171511 L19.3855278,15 L20.5855279,15 Z" id="Download" fill="#FFFFFF"></path>
        </g>
    </g>
</svg>