<?xml version="1.0" encoding="UTF-8"?>
<svg width="32px" height="32px" viewBox="0 0 32 32" version="1.1" xmlns="http://www.w3.org/2000/svg" xmlns:xlink="http://www.w3.org/1999/xlink">
    <title>Circle_pkg</title>
    <g id="Circle_pkg" stroke="none" stroke-width="1" fill="none" fill-rule="evenodd">
        <circle id="椭圆形" fill="#F2F2F2" cx="16" cy="16" r="16"></circle>
        <path d="M8.88104603,18.8867925 L8.88104603,16.638814 L10.3763994,16.638814 C11.7585909,16.638814 12.4537281,16.0485175 12.4537281,14.8679245 C12.4537281,13.6954178 11.7666739,13.1132075 10.3925654,13.1132075 L8,13.1132075 L8,18.8867925 L8.88104603,18.8867925 Z M10.3198185,15.8867925 L8.88104603,15.8867925 L8.88104603,13.8652291 L10.3198185,13.8652291 C10.748217,13.8652291 11.0634536,13.9460916 11.2655284,14.1078167 C11.4676032,14.2533693 11.5726821,14.5121294 11.5726821,14.8679245 C11.5726821,15.2237197 11.4676032,15.4824798 11.2736114,15.6442049 C11.0715366,15.8059299 10.7563,15.8867925 10.3198185,15.8867925 Z M14.1511563,18.8867925 L14.1511563,16.8894879 L14.9028744,16.1698113 L17.2469419,18.8867925 L18.4270586,18.8867925 L15.5010158,15.5956873 L18.055241,13.1132075 L16.9397882,13.1132075 L14.1511563,15.902965 L14.1511563,13.1132075 L13.2701102,13.1132075 L13.2701102,18.8867925 L14.1511563,18.8867925 Z M21.6036741,19 C22.1048195,19 22.56555,18.93531 22.9858656,18.8059299 C23.3819321,18.6765499 23.7295008,18.4986523 24.0285714,18.2641509 L24.0285714,15.8382749 L21.5551761,15.8382749 L21.5551761,16.5902965 L23.1475254,16.5902965 L23.1475254,17.8436658 C22.9535336,17.9649596 22.7433758,18.0619946 22.5008861,18.1266846 C22.2503134,18.1913747 21.9835747,18.2318059 21.70067,18.2318059 C20.9812838,18.2318059 20.4478064,18.0296496 20.1083207,17.6253369 C19.7850011,17.2533693 19.6314242,16.7196765 19.6314242,16.0242588 C19.6314242,15.3126685 19.8011671,14.754717 20.1568187,14.3504043 C20.4882213,13.9622642 20.9327858,13.7762803 21.4905122,13.7762803 C21.9431597,13.7762803 22.3149773,13.8733154 22.589799,14.0754717 C22.8646207,14.2695418 23.0424465,14.5606469 23.1232764,14.9487871 L24.0124054,14.9487871 C23.9073266,14.3018868 23.6486708,13.8247978 23.2364383,13.5013477 C22.8080398,13.1617251 22.2260644,13 21.4905122,13 C20.6417981,13 19.9628269,13.2911051 19.4616814,13.8894879 C18.984785,14.4474394 18.7503782,15.1590296 18.7503782,16.0242588 C18.7503782,16.8814016 18.984785,17.5849057 19.4616814,18.1266846 C19.9709099,18.7088949 20.6822131,19 21.6036741,19 Z" id="PKG" fill="#576B95" fill-rule="nonzero"></path>
    </g>
</svg>