<?xml version="1.0" encoding="UTF-8"?>
<svg width="32px" height="32px" viewBox="0 0 32 32" version="1.1" xmlns="http://www.w3.org/2000/svg" xmlns:xlink="http://www.w3.org/1999/xlink">
    <!-- Generator: Sketch 61.2 (89653) - https://sketch.com -->
    <title>icon-unknown-defult1x</title>
    <desc>Created with Sketch.</desc>
    <g id="icon-unknown-defult1x" stroke="none" stroke-width="1" fill="none" fill-rule="evenodd">
        <circle id="Bg" fill="#A9A9A9" cx="16" cy="16" r="16"></circle>
        <path d="M16.575,18.61875 L16.575,18.009375 C16.575,17.025 16.9125,16.5 18.103125,15.796875 C19.303125,15.075 20.0625,14.034375 20.0625,12.5625 C20.0625,10.63125 18.45,9.16875 16.0875,9.16875 C13.453125,9.16875 12.103125,10.78125 12,12.80625 L13.603125,12.80625 C13.70625,11.465625 14.60625,10.63125 16.021875,10.63125 C17.41875,10.63125 18.31875,11.484375 18.31875,12.646875 C18.31875,13.65 17.896875,14.240625 16.809375,14.90625 C15.525,15.675 14.925,16.51875 14.934375,17.75625 L14.934375,18.61875 L16.575,18.61875 Z M15.759375,22.89375 C16.36875,22.89375 16.828125,22.425 16.828125,21.825 C16.828125,21.215625 16.36875,20.75625 15.759375,20.75625 C15.159375,20.75625 14.690625,21.215625 14.690625,21.825 C14.690625,22.425 15.159375,22.89375 15.759375,22.89375 Z" id="?" fill="#FFFFFF" fill-rule="nonzero"></path>
    </g>
</svg>