<?xml version="1.0" encoding="UTF-8"?>
<svg width="32px" height="32px" viewBox="0 0 32 32" version="1.1" xmlns="http://www.w3.org/2000/svg" xmlns:xlink="http://www.w3.org/1999/xlink">
    <title>Circle_dmg</title>
    <g id="Circle_dmg" stroke="none" stroke-width="1" fill="none" fill-rule="evenodd">
        <circle id="椭圆形" fill="#F2F2F2" cx="16" cy="16" r="16"></circle>
        <path d="M9.07506702,18.8867925 C10,18.8867925 10.6997319,18.6280323 11.1823056,18.1105121 C11.6407507,17.6091644 11.8739946,16.9056604 11.8739946,16 C11.8739946,15.0862534 11.6487936,14.3827493 11.1983914,13.8975741 C10.7158177,13.3719677 10.0160858,13.1132075 9.09115282,13.1132075 L7,13.1132075 L7,18.8867925 L9.07506702,18.8867925 Z M8.91420912,18.1347709 L7.8766756,18.1347709 L7.8766756,13.8652291 L8.93029491,13.8652291 C9.6541555,13.8652291 10.1849866,14.0350404 10.5227882,14.3827493 C10.844504,14.722372 11.0134048,15.2560647 11.0134048,16 C11.0134048,16.7277628 10.844504,17.2614555 10.5147453,17.6091644 C10.1769437,17.9568733 9.63806971,18.1347709 8.91420912,18.1347709 Z M13.6434316,18.8867925 L13.6434316,14.7628032 L13.6756032,14.7628032 L15.4369973,18.8867925 L16.1930295,18.8867925 L17.9544236,14.7628032 L17.9865952,14.7628032 L17.9865952,18.8867925 L18.8632708,18.8867925 L18.8632708,13.1132075 L17.8257373,13.1132075 L15.8310992,17.7385445 L15.8069705,17.7385445 L13.8042895,13.1132075 L12.766756,13.1132075 L12.766756,18.8867925 L13.6434316,18.8867925 Z M22.5871314,19 C23.0857909,19 23.5442359,18.93531 23.9624665,18.8059299 C24.3565684,18.6765499 24.7024129,18.4986523 25,18.2641509 L25,15.8382749 L22.538874,15.8382749 L22.538874,16.5902965 L24.1233244,16.5902965 L24.1233244,17.8436658 C23.9302949,17.9649596 23.7211796,18.0619946 23.4798928,18.1266846 C23.230563,18.1913747 22.9651475,18.2318059 22.6836461,18.2318059 C21.9678284,18.2318059 21.4369973,18.0296496 21.0991957,17.6253369 C20.7774799,17.2533693 20.6246649,16.7196765 20.6246649,16.0242588 C20.6246649,15.3126685 20.7935657,14.754717 21.1474531,14.3504043 C21.4772118,13.9622642 21.919571,13.7762803 22.4745308,13.7762803 C22.924933,13.7762803 23.2949062,13.8733154 23.5683646,14.0754717 C23.8418231,14.2695418 24.0187668,14.5606469 24.0991957,14.9487871 L24.9839142,14.9487871 C24.8793566,14.3018868 24.6219839,13.8247978 24.2117962,13.5013477 C23.7855228,13.1617251 23.2064343,13 22.4745308,13 C21.6300268,13 20.9544236,13.2911051 20.4557641,13.8894879 C19.9812332,14.4474394 19.7479893,15.1590296 19.7479893,16.0242588 C19.7479893,16.8814016 19.9812332,17.5849057 20.4557641,18.1266846 C20.9624665,18.7088949 21.6702413,19 22.5871314,19 Z" id="DMG" fill="#576B95" fill-rule="nonzero"></path>
    </g>
</svg>