<?xml version="1.0" encoding="UTF-8"?>
<svg width="40px" height="40px" viewBox="0 0 40 40" version="1.1" xmlns="http://www.w3.org/2000/svg" xmlns:xlink="http://www.w3.org/1999/xlink">
    <title>0.图标/06.文件相关/icons_DWG</title>
    <g id="0.图标/06.文件相关/icons_DWG" stroke="none" stroke-width="1" fill="none" fill-rule="evenodd">
        <path d="M6.32954545,0 L33.6704545,0 C34.4047422,-1.34886458e-16 35,0.595257776 35,1.32954545 L35,38.6704545 C35,39.4047422 34.4047422,40 33.6704545,40 L6.32954545,40 C5.59525778,40 5,39.4047422 5,38.6704545 L5,1.32954545 C5,0.595257776 5.59525778,-2.08555959e-15 6.32954545,0 Z M33.6704545,4.67480277e-10 C34.4047422,4.67481224e-10 35,0.595257776 35,1.32954546 L35,11.7285357 C34.9957741,11.2043346 34.7960968,10.6865111 34.4009021,10.2904364 L34.4089054,10.3 L34.4009002,10.2789668 L24.7652602,0.600431099 L24.7255658,0.583186087 C24.3346376,0.200472033 23.8286223,0.00612401211 23.3208082,0.00014202397 L23.3189054,4.67480277e-10 L33.6704545,4.67480277e-10 Z" id="形状结合备份-7" fill-opacity="0.05" fill="#000000"></path>
        <path d="M35,11.9706421 C35,11.5180407 34.9525324,11.3521757 34.863398,11.1855091 C34.7742637,11.0188424 34.6434628,10.8880414 34.4767961,10.7989071 C34.328648,10.7196766 34.1811332,10.6733679 33.8323048,10.6640553 L33.6916631,10.6623052 L25.3604221,10.6623052 C24.7955854,10.6623052 24.3376948,10.2044146 24.3376948,9.63957788 L24.3376948,1.30833691 C24.3376948,0.855735544 24.2902272,0.689870569 24.2010929,0.523203902 C24.1119586,0.356537235 23.9811576,0.22573626 23.8144909,0.136601951 C23.6663428,0.0573714546 23.5188281,0.0110627687 23.1699996,0.00175010385 L23.0293579,4.71612135e-10 L23.2714643,5.06897718e-10 C23.7626343,5.06878359e-10 24.2538042,0.168637512 24.650674,0.505912534 L24.650674,0.505912534 L24.779342,0.624583376 L34.3754166,10.220658 L34.508043,10.3659166 C34.7990598,10.7154537 34.9609635,11.1361867 34.9937542,11.5649417 L34.9937542,11.5649417 L35,11.7285357 L35,11.9706421 Z" id="形状结合" fill-opacity="0.2" fill="#000000"></path>
        <path d="M11.756,26.6666667 C12.8386667,26.6666667 13.6506667,26.368 14.2106667,25.7706667 C14.7426667,25.2013333 15.0133333,24.3893333 15.0133333,23.3346667 C15.0133333,22.2706667 14.7426667,21.4586667 14.2106667,20.8986667 C13.6506667,20.3013333 12.8386667,20.0026667 11.756,20.0026667 L9.32,20.0026667 L9.32,26.6666667 L11.756,26.6666667 Z M11.5506667,25.7333333 L10.412,25.7333333 L10.412,20.936 L11.5506667,20.936 C12.3813333,20.936 12.988,21.1226667 13.3706667,21.5053333 C13.744,21.8786667 13.9306667,22.4946667 13.9306667,23.3346667 C13.9306667,24.156 13.744,24.7626667 13.3706667,25.1546667 C12.988,25.5373333 12.3813333,25.7333333 11.5506667,25.7333333 Z M18.5133333,26.6666667 L19.82,21.6546667 L19.8573333,21.6546667 L21.1546667,26.6666667 L22.312,26.6666667 L24.2346667,20.0026667 L23.0026667,20.0026667 L21.752,25.0706667 L21.7146667,25.0706667 L20.3986667,20.0026667 L19.2693333,20.0026667 L17.9533333,25.0706667 L17.916,25.0706667 L16.6653333,20.0026667 L15.4333333,20.0026667 L17.3466667,26.6666667 L18.5133333,26.6666667 Z M27.9493333,26.7973333 C28.5466667,26.7973333 29.0786667,26.7226667 29.564,26.5733333 C30.0213333,26.424 30.4226667,26.2186667 30.7773333,25.9386667 L30.7773333,23.12 L27.9213333,23.12 L27.9213333,24.0533333 L29.6853333,24.0533333 L29.6853333,25.4253333 C29.4613333,25.556 29.228,25.6586667 28.9666667,25.7333333 C28.6866667,25.808 28.388,25.8453333 28.0706667,25.8453333 C27.2586667,25.8453333 26.6613333,25.6213333 26.2786667,25.1733333 C25.924,24.7533333 25.7466667,24.1466667 25.7466667,23.3626667 C25.7466667,22.5413333 25.9426667,21.916 26.344,21.468 C26.708,21.0386667 27.2026667,20.8333333 27.828,20.8333333 C28.332,20.8333333 28.7426667,20.936 29.0506667,21.1506667 C29.3493333,21.3653333 29.5546667,21.6826667 29.648,22.112 L30.7493333,22.112 C30.628,21.3653333 30.3293333,20.8146667 29.8533333,20.4413333 C29.3586667,20.0586667 28.6866667,19.872 27.828,19.872 C26.8386667,19.872 26.0546667,20.208 25.476,20.8986667 C24.9253333,21.5426667 24.6546667,22.364 24.6546667,23.3626667 C24.6546667,24.352 24.9253333,25.164 25.476,25.7893333 C26.064,26.4613333 26.8853333,26.7973333 27.9493333,26.7973333 Z" id="DWG" fill="#576B95"></path>
    </g>
</svg>