<?xml version="1.0" encoding="UTF-8"?>
<svg width="32px" height="32px" viewBox="0 0 32 32" version="1.1" xmlns="http://www.w3.org/2000/svg" xmlns:xlink="http://www.w3.org/1999/xlink">
    <title>Circle_DWG</title>
    <g id="Circle_DWG" stroke="none" stroke-width="1" fill="none" fill-rule="evenodd">
        <circle id="椭圆形" fill="#F2F2F2" cx="16" cy="16" r="16"></circle>
        <path d="M9.42996955,18.8867925 C10.2877338,18.8867925 10.931057,18.6280323 11.3747281,18.1105121 C11.7962157,17.6172507 12.0106568,16.9137466 12.0106568,16 C12.0106568,15.0781671 11.7962157,14.3746631 11.3747281,13.8894879 C10.931057,13.3719677 10.2877338,13.1132075 9.42996955,13.1132075 L7.5,13.1132075 L7.5,18.8867925 L9.42996955,18.8867925 Z M9.26729013,18.0781671 L8.36515876,18.0781671 L8.36515876,13.9218329 L9.26729013,13.9218329 C9.92540235,13.9218329 10.4060461,14.083558 10.7092214,14.4150943 C11.0050022,14.7385445 11.1528926,15.2722372 11.1528926,16 C11.1528926,16.7115903 11.0050022,17.2371968 10.7092214,17.5768194 C10.4060461,17.9083558 9.92540235,18.0781671 9.26729013,18.0781671 Z M14.7836016,18.8867925 L15.8188343,14.5444744 L15.8484124,14.5444744 L16.8762505,18.8867925 L17.7931709,18.8867925 L19.3164419,13.1132075 L18.3403654,13.1132075 L17.3494998,17.5040431 L17.3199217,17.5040431 L16.2772945,13.1132075 L15.3825576,13.1132075 L14.3399304,17.5040431 L14.3103523,17.5040431 L13.3194867,13.1132075 L12.3434102,13.1132075 L13.8592866,18.8867925 L14.7836016,18.8867925 Z M22.2594606,19 C22.7327099,19 23.1541975,18.93531 23.5387125,18.8059299 C23.9010439,18.6765499 24.2190083,18.4986523 24.5,18.2560647 L24.5,15.8140162 L22.2372771,15.8140162 L22.2372771,16.6226415 L23.6348412,16.6226415 L23.6348412,17.8113208 C23.4573728,17.9245283 23.2725098,18.0134771 23.0654632,18.0781671 C22.8436277,18.1428571 22.607003,18.1752022 22.3555894,18.1752022 C21.7122662,18.1752022 21.239017,17.9811321 20.9358417,17.5929919 C20.6548499,17.2291105 20.5143541,16.703504 20.5143541,16.0242588 C20.5143541,15.3126685 20.669639,14.7708895 20.9876033,14.3827493 C21.2759896,14.0107817 21.6678991,13.8328841 22.1633319,13.8328841 C22.5626359,13.8328841 22.8879948,13.9218329 23.1320139,14.1078167 C23.3686385,14.2938005 23.531318,14.5687332 23.6052632,14.9407008 L24.4778164,14.9407008 C24.3816877,14.2938005 24.1450631,13.8167116 23.7679426,13.4932615 C23.3760331,13.1617251 22.8436277,13 22.1633319,13 C21.3795128,13 20.7583732,13.2911051 20.299913,13.8894879 C19.8636364,14.4474394 19.6491953,15.1590296 19.6491953,16.0242588 C19.6491953,16.8814016 19.8636364,17.5849057 20.299913,18.1266846 C20.7657677,18.7088949 21.4164854,19 22.2594606,19 Z" id="DWG" fill="#576B95"></path>
    </g>
</svg>