<?xml version="1.0" encoding="UTF-8"?>
<svg width="40px" height="40px" viewBox="0 0 40 40" version="1.1" xmlns="http://www.w3.org/2000/svg" xmlns:xlink="http://www.w3.org/1999/xlink">
    <title>0.图标/06.文件相关/icons_cdr</title>
    <g id="0.图标/06.文件相关/icons_cdr" stroke="none" stroke-width="1" fill="none" fill-rule="evenodd">
        <path d="M6.32954545,0 L33.6704545,0 C34.4047422,-1.34886458e-16 35,0.595257776 35,1.32954545 L35,38.6704545 C35,39.4047422 34.4047422,40 33.6704545,40 L6.32954545,40 C5.59525778,40 5,39.4047422 5,38.6704545 L5,1.32954545 C5,0.595257776 5.59525778,-2.08555959e-15 6.32954545,0 Z M33.6704545,4.67480277e-10 C34.4047422,4.67481224e-10 35,0.595257776 35,1.32954546 L35,11.7285357 C34.9957741,11.2043346 34.7960968,10.6865111 34.4009021,10.2904364 L34.4089054,10.3 L34.4009002,10.2789668 L24.7652602,0.600431099 L24.7255658,0.583186087 C24.3346376,0.200472033 23.8286223,0.00612401211 23.3208082,0.00014202397 L23.3189054,4.67480277e-10 L33.6704545,4.67480277e-10 Z" id="形状结合备份-7" fill-opacity="0.05" fill="#000000"></path>
        <path d="M35,11.9706421 C35,11.5180407 34.9525324,11.3521757 34.863398,11.1855091 C34.7742637,11.0188424 34.6434628,10.8880414 34.4767961,10.7989071 C34.328648,10.7196766 34.1811332,10.6733679 33.8323048,10.6640553 L33.6916631,10.6623052 L25.3604221,10.6623052 C24.7955854,10.6623052 24.3376948,10.2044146 24.3376948,9.63957788 L24.3376948,1.30833691 C24.3376948,0.855735544 24.2902272,0.689870569 24.2010929,0.523203902 C24.1119586,0.356537235 23.9811576,0.22573626 23.8144909,0.136601951 C23.6663428,0.0573714546 23.5188281,0.0110627687 23.1699996,0.00175010385 L23.0293579,4.71612135e-10 L23.2714643,5.06897718e-10 C23.7626343,5.06878359e-10 24.2538042,0.168637512 24.650674,0.505912534 L24.650674,0.505912534 L24.779342,0.624583376 L34.3754166,10.220658 L34.508043,10.3659166 C34.7990598,10.7154537 34.9609635,11.1361867 34.9937542,11.5649417 L34.9937542,11.5649417 L35,11.7285357 L35,11.9706421 Z" id="形状结合" fill-opacity="0.2" fill="#000000"></path>
        <path d="M13.5653333,26.7973333 C14.284,26.7973333 14.9,26.592 15.4133333,26.1813333 C15.964,25.7426667 16.3093333,25.136 16.4586667,24.352 L15.3946667,24.352 C15.264,24.856 15.04,25.2386667 14.7226667,25.4906667 C14.424,25.7146667 14.032,25.836 13.556,25.836 C12.828,25.836 12.2866667,25.6026667 11.9413333,25.1546667 C11.624,24.7346667 11.4653333,24.128 11.4653333,23.344 C11.4653333,22.5786667 11.624,21.9813333 11.9506667,21.552 C12.3053333,21.0666667 12.828,20.8333333 13.528,20.8333333 C13.9946667,20.8333333 14.3773333,20.9266667 14.676,21.132 C14.984,21.3373333 15.1893333,21.6546667 15.3013333,22.0933333 L16.3653333,22.0933333 C16.2626667,21.4213333 15.9733333,20.88 15.488,20.488 C14.984,20.0773333 14.3306667,19.872 13.5466667,19.872 C12.4826667,19.872 11.6706667,20.2173333 11.1106667,20.9266667 C10.616,21.5426667 10.3733333,22.3546667 10.3733333,23.344 C10.3733333,24.352 10.6066667,25.1546667 11.0826667,25.752 C11.624,26.4426667 12.4546667,26.7973333 13.5653333,26.7973333 Z M19.9213333,26.6666667 C21.004,26.6666667 21.816,26.368 22.376,25.7706667 C22.908,25.2013333 23.1786667,24.3893333 23.1786667,23.3346667 C23.1786667,22.2706667 22.908,21.4586667 22.376,20.8986667 C21.816,20.3013333 21.004,20.0026667 19.9213333,20.0026667 L17.4853333,20.0026667 L17.4853333,26.6666667 L19.9213333,26.6666667 Z M19.716,25.7333333 L18.5773333,25.7333333 L18.5773333,20.936 L19.716,20.936 C20.5466667,20.936 21.1533333,21.1226667 21.536,21.5053333 C21.9093333,21.8786667 22.096,22.4946667 22.096,23.3346667 C22.096,24.156 21.9093333,24.7626667 21.536,25.1546667 C21.1533333,25.5373333 20.5466667,25.7333333 19.716,25.7333333 Z M25.2973333,26.6666667 L25.2973333,23.9506667 L27.024,23.9506667 C27.3973333,23.9506667 27.6866667,24.0253333 27.8826667,24.1933333 C28.0693333,24.352 28.1813333,24.6133333 28.2186667,24.9773333 L28.3026667,25.7986667 C28.34,26.172 28.4333333,26.4613333 28.592,26.6666667 L29.7773333,26.6666667 C29.5533333,26.424 29.4133333,26.0973333 29.376,25.6866667 L29.264,24.6133333 C29.1893333,23.96 28.8626667,23.5773333 28.284,23.4466667 L28.284,23.428 C28.6386667,23.3346667 28.928,23.1386667 29.1333333,22.84 C29.32,22.5693333 29.4133333,22.2613333 29.4133333,21.916 C29.4133333,21.2813333 29.1986667,20.796 28.788,20.46 C28.396,20.152 27.8546667,20.0026667 27.1733333,20.0026667 L24.2053333,20.0026667 L24.2053333,26.6666667 L25.2973333,26.6666667 Z M27.024,23.0173333 L25.2973333,23.0173333 L25.2973333,20.936 L27.024,20.936 C27.472,20.936 27.7986667,21.0106667 28.004,21.1786667 C28.2093333,21.3373333 28.312,21.5986667 28.312,21.9626667 C28.312,22.2986667 28.2093333,22.56 28.004,22.7466667 C27.78,22.924 27.4533333,23.0173333 27.024,23.0173333 Z" id="CDR" fill="#576B95"></path>
    </g>
</svg>