<?xml version="1.0" encoding="UTF-8"?>
<svg width="32px" height="32px" viewBox="0 0 32 32" version="1.1" xmlns="http://www.w3.org/2000/svg" xmlns:xlink="http://www.w3.org/1999/xlink">
    <title>Circle_WPS</title>
    <g id="Circle_WPS" stroke="none" stroke-width="1" fill="none" fill-rule="evenodd">
        <circle id="椭圆形" fill="#F2F2F2" cx="16" cy="16" r="16"></circle>
        <path d="M9.67086331,18.8920863 L10.8039568,14.5458633 L10.8363309,14.5458633 L11.9613309,18.8920863 L12.9649281,18.8920863 L14.6321942,13.1133094 L13.5638489,13.1133094 L12.4793165,17.5080935 L12.4469424,17.5080935 L11.3057554,13.1133094 L10.3264388,13.1133094 L9.1852518,17.5080935 L9.1528777,17.5080935 L8.06834532,13.1133094 L7,13.1133094 L8.65917266,18.8920863 L9.67086331,18.8920863 Z M16.1861511,18.8920863 L16.1861511,16.6744604 L17.618705,16.6744604 C19.0269784,16.6744604 19.7311151,16.0755396 19.7311151,14.8857914 C19.7311151,13.7041367 19.0269784,13.1133094 17.6348921,13.1133094 L15.2392086,13.1133094 L15.2392086,18.8920863 L16.1861511,18.8920863 Z M17.5620504,15.8651079 L16.1861511,15.8651079 L16.1861511,13.9226619 L17.5620504,13.9226619 C17.9748201,13.9226619 18.2823741,13.9955036 18.4766187,14.1492806 C18.6708633,14.294964 18.7760791,14.5377698 18.7760791,14.8857914 C18.7760791,15.2338129 18.6789568,15.4847122 18.4847122,15.6384892 C18.2904676,15.7841727 17.9829137,15.8651079 17.5620504,15.8651079 Z M22.6771583,19.0053957 C23.4136691,19.0053957 23.9883094,18.8516187 24.3929856,18.5602518 C24.7976619,18.2607914 25,17.8480216 25,17.330036 C25,16.7958633 24.7491007,16.3830935 24.2473022,16.0836331 C24.0206835,15.9541367 23.5188849,15.7598921 22.7338129,15.5170863 C22.1996403,15.3471223 21.8678058,15.2257194 21.7464029,15.1609712 C21.471223,15.0152878 21.3417266,14.8129496 21.3417266,14.5701439 C21.3417266,14.294964 21.455036,14.0926259 21.6978417,13.971223 C21.8920863,13.8660072 22.1672662,13.817446 22.5314748,13.817446 C22.9523381,13.817446 23.2760791,13.8902878 23.4865108,14.0521583 C23.6969424,14.2059353 23.8507194,14.4649281 23.9316547,14.8210432 L24.8705036,14.8210432 C24.8138489,14.1897482 24.5791367,13.7203237 24.1744604,13.4208633 C23.7940647,13.1375899 23.2598921,13 22.580036,13 C21.9568345,13 21.4469424,13.1375899 21.0422662,13.4208633 C20.6052158,13.7122302 20.3947842,14.1169065 20.3947842,14.6267986 C20.3947842,15.1366906 20.6133094,15.5251799 21.0584532,15.7922662 C21.2284173,15.8893885 21.6735612,16.051259 22.3857914,16.2778777 C23.0251799,16.4721223 23.397482,16.6016187 23.5107914,16.6582734 C23.8669065,16.8363309 24.0530576,17.0791367 24.0530576,17.3866906 C24.0530576,17.6294964 23.9235612,17.8156475 23.6807554,17.9613309 C23.4379496,18.0989209 23.0980216,18.1717626 22.6771583,18.1717626 C22.1996403,18.1717626 21.8516187,18.0827338 21.625,17.9208633 C21.3741007,17.7347122 21.2203237,17.4190647 21.1555755,16.9820144 L20.2167266,16.9820144 C20.2571942,17.7185252 20.5242806,18.2526978 21.0098921,18.5926259 C21.4064748,18.8678058 21.9649281,19.0053957 22.6771583,19.0053957 Z" id="WPS" fill="#576B95" fill-rule="nonzero"></path>
    </g>
</svg>