<?xml version="1.0" encoding="UTF-8"?>
<svg width="32px" height="32px" viewBox="0 0 32 32" version="1.1" xmlns="http://www.w3.org/2000/svg" xmlns:xlink="http://www.w3.org/1999/xlink">
    <title>Circle_OFD</title>
    <g id="Circle_OFD" stroke="none" stroke-width="1" fill="none" fill-rule="evenodd">
        <circle id="椭圆形" fill="#74A800" cx="16" cy="16" r="16"></circle>
        <path d="M10.1276915,19.688032 C11.1101652,19.688032 11.885328,19.3725588 12.4531798,18.7416124 C12.993991,18.1377066 13.2643966,17.3445168 13.2643966,16.3530295 C13.2643966,15.3615423 12.993991,14.559339 12.4531798,13.9554331 C11.885328,13.3154732 11.1101652,13 10.1276915,13 C9.13620431,13 8.36104156,13.3154732 7.8022033,13.9644467 C7.26139209,14.577366 7,15.3705558 7,16.3530295 C7,17.3264897 7.26139209,18.1196795 7.8022033,18.7325989 C8.36104156,19.3635453 9.13620431,19.688032 10.1276915,19.688032 Z M10.1276915,18.7596395 C9.46069104,18.7596395 8.93790686,18.5343015 8.57736605,18.092639 C8.22583876,17.65999 8.05458187,17.0831247 8.05458187,16.3530295 C8.05458187,15.6139209 8.22583876,15.0370556 8.57736605,14.6044066 C8.94692038,14.1537306 9.46069104,13.9283926 10.1276915,13.9283926 C10.794692,13.9283926 11.3084627,14.1357036 11.6690035,14.5683525 C12.0205308,15.0010015 12.2008012,15.5958938 12.2008012,16.3530295 C12.2008012,17.1101652 12.0205308,17.6960441 11.6690035,18.1196795 C11.3084627,18.543315 10.794692,18.7596395 10.1276915,18.7596395 Z M15.3104657,19.5618428 L15.3104657,16.7135704 L18.4561843,16.7135704 L18.4561843,15.8122183 L15.3104657,15.8122183 L15.3104657,14.0275413 L18.6454682,14.0275413 L18.6454682,13.1261893 L14.2558838,13.1261893 L14.2558838,19.5618428 L15.3104657,19.5618428 Z M21.8542814,19.5618428 C22.8998498,19.5618428 23.684026,19.2734101 24.2248373,18.6965448 C24.7386079,18.1467201 25,17.3625438 25,16.344016 C25,15.3164747 24.7386079,14.5322984 24.2248373,13.9914872 C23.684026,13.4146219 22.8998498,13.1261893 21.8542814,13.1261893 L19.5017526,13.1261893 L19.5017526,19.5618428 L21.8542814,19.5618428 Z M21.655984,18.6604907 L20.5563345,18.6604907 L20.5563345,14.0275413 L21.655984,14.0275413 C22.4581873,14.0275413 23.0440661,14.2078117 23.4136204,14.577366 C23.7741612,14.9379069 23.9544316,15.5327992 23.9544316,16.344016 C23.9544316,17.1372058 23.7741612,17.7230846 23.4136204,18.1016525 C23.0440661,18.4712068 22.4581873,18.6604907 21.655984,18.6604907 Z" id="OFD" fill="#FFFFFF" fill-rule="nonzero"></path>
    </g>
</svg>