<?xml version="1.0" encoding="UTF-8"?>
<svg width="32px" height="32px" viewBox="0 0 32 32" version="1.1" xmlns="http://www.w3.org/2000/svg" xmlns:xlink="http://www.w3.org/1999/xlink">
    <!-- Generator: Sketch 61.2 (89653) - https://sketch.com -->
    <title>icon-keynote</title>
    <desc>Created with Sketch.</desc>
    <defs>
        <circle id="path-1" cx="16" cy="16" r="16"></circle>
    </defs>
    <g id="icon-keynote" stroke="none" stroke-width="1" fill="none" fill-rule="evenodd">
        <mask id="mask-2" fill="white">
            <use xlink:href="#path-1"></use>
        </mask>
        <use id="蒙版" fill="#1E85F5" xlink:href="#path-1"></use>
        <g id="icon" transform="translate(7.000000, 8.000000)" fill="#FFFFFF">
            <rect id="Rectangle-12" x="4.8" y="16" width="8" height="1" rx="0.5"></rect>
            <path d="M0,8 L17.6,8 C17.6,8.8836556 16.8836556,9.6 16,9.6 L1.6,9.6 C0.7163444,9.6 5.5230581e-16,8.8836556 0,8 L0,8 L0,8 Z" id="Rectangle-12"></path>
            <rect id="Rectangle-12" x="8.4" y="8.4" width="1" height="8" rx="0.5"></rect>
            <path d="M2.89160623,0 L14.4750604,0 C14.8574966,-5.70431561e-17 15.1864479,0.270674655 15.2600889,0.645953733 L16.5666667,7.30434783 L16.5666667,7.30434783 L0.8,7.30434783 L2.10657773,0.645953733 C2.1802188,0.270674655 2.5091701,6.2536389e-16 2.89160623,0 Z M5.49904181,5.5470236 L7.41852129,3.74739461 L9.17055247,4.9244752 C9.30566159,5.01224118 9.48368667,4.99491466 9.59483287,4.88307332 L12.0352406,2.22878713 L11.553724,1.75908318 L9.30292239,4.22103818 L7.57969327,3.04390425 C7.45565074,2.95611427 7.28621373,2.97347677 7.17375433,3.08538747 L5.05929152,5.07748233 L5.49904181,5.5470236 Z" id="Combined-Shape"></path>
        </g>
    </g>
</svg>