<?xml version="1.0" encoding="UTF-8"?>
<svg width="32px" height="32px" viewBox="0 0 32 32" version="1.1" xmlns="http://www.w3.org/2000/svg" xmlns:xlink="http://www.w3.org/1999/xlink">
    <title>Circle_exe</title>
    <g id="Circle_exe" stroke="none" stroke-width="1" fill="none" fill-rule="evenodd">
        <circle id="椭圆形" fill="#F2F2F2" cx="16" cy="16" r="16"></circle>
        <path d="M12.6364133,19.2222222 L12.6364133,18.4117647 L8.95352652,18.4117647 L8.95352652,16.4335512 L12.2777474,16.4335512 L12.2777474,15.6230937 L8.95352652,15.6230937 L8.95352652,13.8104575 L12.4876982,13.8104575 L12.4876982,13 L8,13 L8,19.2222222 L12.6364133,19.2222222 Z M14.2022963,19.2222222 L15.8731547,16.7559913 L17.5440131,19.2222222 L18.7074904,19.2222222 L16.4417715,16.0065359 L18.5587753,13 L17.395298,13 L15.8731547,15.248366 L14.3510115,13 L13.1875342,13 L15.2870421,16.0065359 L13.038819,19.2222222 L14.2022963,19.2222222 Z M24,19.2222222 L24,18.4117647 L20.3171132,18.4117647 L20.3171132,16.4335512 L23.6413341,16.4335512 L23.6413341,15.6230937 L20.3171132,15.6230937 L20.3171132,13.8104575 L23.8512849,13.8104575 L23.8512849,13 L19.3635867,13 L19.3635867,19.2222222 L24,19.2222222 Z" id="EXE" fill="#576B95" fill-rule="nonzero"></path>
    </g>
</svg>