<?xml version="1.0" encoding="UTF-8"?>
<svg width="40px" height="40px" viewBox="0 0 40 40" version="1.1" xmlns="http://www.w3.org/2000/svg" xmlns:xlink="http://www.w3.org/1999/xlink">
    <title>0.图标/06.文件相关/icons_FileKeynote</title>
    <g id="0.图标/06.文件相关/icons_FileKeynote" stroke="none" stroke-width="1" fill="none" fill-rule="evenodd">
        <path d="M6.32954545,0 L33.6704545,0 C34.4047422,-1.34886458e-16 35,0.595257776 35,1.32954545 L35,38.6704545 C35,39.4047422 34.4047422,40 33.6704545,40 L6.32954545,40 C5.59525778,40 5,39.4047422 5,38.6704545 L5,1.32954545 C5,0.595257776 5.59525778,-2.08555959e-15 6.32954545,0 Z M33.6704545,4.67480277e-10 C34.4047422,4.67481224e-10 35,0.595257776 35,1.32954546 L35,11.7285357 C34.9957741,11.2043346 34.7960968,10.6865111 34.4009021,10.2904364 L34.4089054,10.3 L34.4009002,10.2789668 L24.7652602,0.600431099 L24.7255658,0.583186087 C24.3346376,0.200472033 23.8286223,0.00612401211 23.3208082,0.00014202397 L23.3189054,4.67480277e-10 L33.6704545,4.67480277e-10 Z" id="形状结合备份-7" fill="#1E85F5"></path>
        <path d="M35,11.9706421 C35,11.5180407 34.9525324,11.3521757 34.863398,11.1855091 C34.7742637,11.0188424 34.6434628,10.8880414 34.4767961,10.7989071 C34.328648,10.7196766 34.1811332,10.6733679 33.8323048,10.6640553 L33.6916631,10.6623052 L25.3604221,10.6623052 C24.7955854,10.6623052 24.3376948,10.2044146 24.3376948,9.63957788 L24.3376948,1.30833691 C24.3376948,0.855735544 24.2902272,0.689870569 24.2010929,0.523203902 C24.1119586,0.356537235 23.9811576,0.22573626 23.8144909,0.136601951 C23.6663428,0.0573714546 23.5188281,0.0110627687 23.1699996,0.00175010385 L23.0293579,4.71612135e-10 L23.2714643,5.06897718e-10 C23.7626343,5.06878359e-10 24.2538042,0.168637512 24.650674,0.505912534 L24.650674,0.505912534 L24.779342,0.624583376 L34.3754166,10.220658 L34.508043,10.3659166 C34.7990598,10.7154537 34.9609635,11.1361867 34.9937542,11.5649417 L34.9937542,11.5649417 L35,11.7285357 L35,11.9706421 Z" id="形状结合" fill-opacity="0.2" fill="#000000"></path>
        <g id="Keynote" transform="translate(12.000000, 18.000000)" fill="#FFFFFF">
            <g id="icon" transform="translate(0.666667, 0.333333)">
                <rect id="Rectangle-12" x="4" y="13.3333333" width="6.66666667" height="1" rx="0.5"></rect>
                <path d="M0,6.66666667 L14.6666667,6.66666667 C14.6666667,7.40304633 14.069713,8 13.3333333,8 L1.33333333,8 C0.596953667,8 9.01805001e-17,7.40304633 0,6.66666667 L0,6.66666667 L0,6.66666667 Z" id="Rectangle-12"></path>
                <rect id="Rectangle-12" x="7" y="7" width="1" height="6.66666667" rx="0.5"></rect>
                <path d="M2.40967186,0 L12.0625504,0 C12.3812471,-7.96700141e-16 12.6553732,0.225562212 12.7167408,0.538294777 L13.8055556,6.08695652 L13.8055556,6.08695652 L0.666666667,6.08695652 L1.75548144,0.538294777 C1.816849,0.225562212 2.09097508,3.91610555e-16 2.40967186,0 Z M4.58253484,4.62251966 L6.18210107,3.12282884 L7.64212706,4.10372933 C7.75471799,4.17686765 7.90307222,4.16242888 7.99569406,4.06922777 L10.0293672,1.8573226 L9.62810337,1.46590265 L7.75243533,3.51753182 L6.31641106,2.53658688 C6.21304228,2.46342856 6.07184478,2.47789731 5.97812861,2.57115623 L4.21607627,4.23123528 L4.58253484,4.62251966 Z" id="Combined-Shape"></path>
            </g>
        </g>
    </g>
</svg>