<?xml version="1.0" encoding="UTF-8"?>
<svg width="40px" height="40px" viewBox="0 0 40 40" version="1.1" xmlns="http://www.w3.org/2000/svg" xmlns:xlink="http://www.w3.org/1999/xlink">
    <title>0.图标/06.文件相关/icons_WPS</title>
    <g id="0.图标/06.文件相关/icons_WPS" stroke="none" stroke-width="1" fill="none" fill-rule="evenodd">
        <path d="M6.32954545,0 L33.6704545,0 C34.4047422,-1.34886458e-16 35,0.595257776 35,1.32954545 L35,38.6704545 C35,39.4047422 34.4047422,40 33.6704545,40 L6.32954545,40 C5.59525778,40 5,39.4047422 5,38.6704545 L5,1.32954545 C5,0.595257776 5.59525778,-2.08555959e-15 6.32954545,0 Z M33.6704545,4.67480277e-10 C34.4047422,4.67481224e-10 35,0.595257776 35,1.32954546 L35,11.7285357 C34.9957741,11.2043346 34.7960968,10.6865111 34.4009021,10.2904364 L34.4089054,10.3 L34.4009002,10.2789668 L24.7652602,0.600431099 L24.7255658,0.583186087 C24.3346376,0.200472033 23.8286223,0.00612401211 23.3208082,0.00014202397 L23.3189054,4.67480277e-10 L33.6704545,4.67480277e-10 Z" id="形状结合备份-7" fill-opacity="0.05" fill="#000000"></path>
        <path d="M35,11.9706421 C35,11.5180407 34.9525324,11.3521757 34.863398,11.1855091 C34.7742637,11.0188424 34.6434628,10.8880414 34.4767961,10.7989071 C34.328648,10.7196766 34.1811332,10.6733679 33.8323048,10.6640553 L33.6916631,10.6623052 L25.3604221,10.6623052 C24.7955854,10.6623052 24.3376948,10.2044146 24.3376948,9.63957788 L24.3376948,1.30833691 C24.3376948,0.855735544 24.2902272,0.689870569 24.2010929,0.523203902 C24.1119586,0.356537235 23.9811576,0.22573626 23.8144909,0.136601951 C23.6663428,0.0573714546 23.5188281,0.0110627687 23.1699996,0.00175010385 L23.0293579,4.71612135e-10 L23.2714643,5.06897718e-10 C23.7626343,5.06878359e-10 24.2538042,0.168637512 24.650674,0.505912534 L24.650674,0.505912534 L24.779342,0.624583376 L34.3754166,10.220658 L34.508043,10.3659166 C34.7990598,10.7154537 34.9609635,11.1361867 34.9937542,11.5649417 L34.9937542,11.5649417 L35,11.7285357 L35,11.9706421 Z" id="形状结合" fill-opacity="0.2" fill="#000000"></path>
        <path d="M12.46,26.6666667 L13.7666667,21.6546667 L13.804,21.6546667 L15.1013333,26.6666667 L16.2586667,26.6666667 L18.1813333,20.0026667 L16.9493333,20.0026667 L15.6986667,25.0706667 L15.6613333,25.0706667 L14.3453333,20.0026667 L13.216,20.0026667 L11.9,25.0706667 L11.8626667,25.0706667 L10.612,20.0026667 L9.38,20.0026667 L11.2933333,26.6666667 L12.46,26.6666667 Z M19.9733333,26.6666667 L19.9733333,24.1093333 L21.6253333,24.1093333 C23.2493333,24.1093333 24.0613333,23.4186667 24.0613333,22.0466667 C24.0613333,20.684 23.2493333,20.0026667 21.644,20.0026667 L18.8813333,20.0026667 L18.8813333,26.6666667 L19.9733333,26.6666667 Z M21.56,23.176 L19.9733333,23.176 L19.9733333,20.936 L21.56,20.936 C22.036,20.936 22.3906667,21.02 22.6146667,21.1973333 C22.8386667,21.3653333 22.96,21.6453333 22.96,22.0466667 C22.96,22.448 22.848,22.7373333 22.624,22.9146667 C22.4,23.0826667 22.0453333,23.176 21.56,23.176 Z M27.4586667,26.7973333 C28.308,26.7973333 28.9706667,26.62 29.4373333,26.284 C29.904,25.9386667 30.1373333,25.4626667 30.1373333,24.8653333 C30.1373333,24.2493333 29.848,23.7733333 29.2693333,23.428 C29.008,23.2786667 28.4293333,23.0546667 27.524,22.7746667 C26.908,22.5786667 26.5253333,22.4386667 26.3853333,22.364 C26.068,22.196 25.9186667,21.9626667 25.9186667,21.6826667 C25.9186667,21.3653333 26.0493333,21.132 26.3293333,20.992 C26.5533333,20.8706667 26.8706667,20.8146667 27.2906667,20.8146667 C27.776,20.8146667 28.1493333,20.8986667 28.392,21.0853333 C28.6346667,21.2626667 28.812,21.5613333 28.9053333,21.972 L29.988,21.972 C29.9226667,21.244 29.652,20.7026667 29.1853333,20.3573333 C28.7466667,20.0306667 28.1306667,19.872 27.3466667,19.872 C26.628,19.872 26.04,20.0306667 25.5733333,20.3573333 C25.0693333,20.6933333 24.8266667,21.16 24.8266667,21.748 C24.8266667,22.336 25.0786667,22.784 25.592,23.092 C25.788,23.204 26.3013333,23.3906667 27.1226667,23.652 C27.86,23.876 28.2893333,24.0253333 28.42,24.0906667 C28.8306667,24.296 29.0453333,24.576 29.0453333,24.9306667 C29.0453333,25.2106667 28.896,25.4253333 28.616,25.5933333 C28.336,25.752 27.944,25.836 27.4586667,25.836 C26.908,25.836 26.5066667,25.7333333 26.2453333,25.5466667 C25.956,25.332 25.7786667,24.968 25.704,24.464 L24.6213333,24.464 C24.668,25.3133333 24.976,25.9293333 25.536,26.3213333 C25.9933333,26.6386667 26.6373333,26.7973333 27.4586667,26.7973333 Z" id="WPS" fill="#576B95" fill-rule="nonzero"></path>
    </g>
</svg>