<?xml version="1.0" encoding="UTF-8"?>
<svg width="8px" height="14px" viewBox="0 0 8 14" version="1.1" xmlns="http://www.w3.org/2000/svg" xmlns:xlink="http://www.w3.org/1999/xlink">
    <title>数字_3</title>
    <g id="数字_3" stroke="none" stroke-width="1" fill="none" fill-rule="evenodd">
        <g id="编组">
            <path d="M2.97460938,7.27929688 L3.953125,7.27929688 C4.83203125,7.27929688 5.34765625,7.71289062 5.34765625,8.40429688 C5.34765625,9.18359375 4.69140625,9.6875 3.7890625,9.6875 C2.77539063,9.6875 2.21875,9.125 2.24804688,8.36914062 L2.24804688,8.36914062 L0.6015625,8.36914062 C0.583984375,8.45703125 0.578125,8.52734375 0.578125,8.59765625 C0.54296875,10.0742188 1.76757813,11.140625 3.77148438,11.140625 C5.65820313,11.140625 7.08203125,10.0566406 7.08203125,8.49804688 C7.08203125,7.60742188 6.54882813,6.93359375 5.62890625,6.7109375 L5.63476563,6.67578125 C6.765625,6.5234375 7.60351563,5.7265625 7.60351563,4.70117188 C7.60351563,3.40039062 6.43164063,2.40429688 4.71484375,2.40429688 C2.99804688,2.40429688 1.74414063,3.34765625 1.4453125,4.859375 L3.07421875,4.859375 C3.23242188,4.24414062 3.80664063,3.84570312 4.55664063,3.84570312 C5.3828125,3.84570312 5.8984375,4.26757812 5.8984375,4.89453125 C5.8984375,5.56835938 5.24804688,5.97851562 4.26953125,5.97851562 L3.24414063,5.97851562 L2.97460938,7.27929688 Z" id="路径" fill="#FA5151" fill-rule="nonzero"></path>
            <rect id="矩形" x="0" y="0" width="8" height="14"></rect>
        </g>
    </g>
</svg>