<?xml version="1.0" encoding="UTF-8"?>
<svg width="8px" height="14px" viewBox="0 0 8 14" version="1.1" xmlns="http://www.w3.org/2000/svg" xmlns:xlink="http://www.w3.org/1999/xlink">
    <title>数字_2</title>
    <g id="数字_2" stroke="none" stroke-width="1" fill="none" fill-rule="evenodd">
        <g id="编组">
            <g id="2" transform="translate(0.361328, 2.398438)" fill="#FA5151" fill-rule="nonzero">
                <path d="M1.1015625,2.70703125 L2.7421875,2.70703125 C2.89453125,1.91015625 3.46875,1.44726562 4.25976562,1.44726562 C4.96289062,1.44726562 5.4609375,1.85742188 5.4609375,2.46679688 C5.4609375,3.09375 5.08007812,3.5390625 3.72070312,4.59375 L0.26953125,7.28320312 L0,8.6015625 L6.140625,8.6015625 L6.43945312,7.14257812 L2.671875,7.14257812 L2.67773438,7.10742188 L4.79882812,5.49023438 C6.68554688,4.03710938 7.20703125,3.375 7.20703125,2.2734375 C7.20703125,0.943359375 6.00585938,0 4.37695312,0 C2.58984375,0 1.23632812,1.11914062 1.1015625,2.70703125 Z" id="路径"></path>
            </g>
            <rect id="矩形" x="0" y="0" width="8" height="14"></rect>
        </g>
    </g>
</svg>