<?xml version="1.0" encoding="UTF-8"?>
<svg width="64px" height="64px" viewBox="0 0 64 64" version="1.1" xmlns="http://www.w3.org/2000/svg" xmlns:xlink="http://www.w3.org/1999/xlink">
    <title>占位图</title>
    <g id="占位图" stroke="none" stroke-width="1" fill="none" fill-rule="evenodd">
        <g id="编组">
            <polygon id="矩形" fill="#F7F7F7" points="0 0 64 0 64 64 0 64"></polygon>
            <g id="common_icons_album" opacity="0.100000001" transform="translate(12.000000, 12.000000)" fill="#000000" fill-opacity="0.9">
                <path d="M35.0136615,6.66666667 C35.907824,6.66666667 36.6666667,7.46856167 36.6666667,8.45774929 L36.6666667,31.5422507 C36.6666667,32.535253 35.926591,33.3333333 35.0136615,33.3333333 L4.98633852,33.3333333 C4.09217596,33.3333333 3.33333333,32.5314383 3.33333333,31.5422507 L3.33333333,8.45774929 C3.33333333,7.46474703 4.07340896,6.66666667 4.98633852,6.66666667 L35.0136615,6.66666667 Z M34.1666667,9.16666667 L5.83333333,9.16666667 L5.83333333,23.0816667 L13.6654092,16.7487644 C14.4363317,16.1253084 15.674376,16.1555453 16.4174924,16.8084728 L23.8782048,23.3637106 L27.6818376,20.1291628 C28.4521958,19.4740626 29.6778715,19.487371 30.425719,20.1584728 L34.1663333,23.5596667 L34.1666667,9.16666667 Z" id="图标颜色"></path>
            </g>
        </g>
    </g>
</svg>