<?xml version="1.0" encoding="UTF-8"?>
<svg width="72px" height="72px" viewBox="0 0 72 72" version="1.1" xmlns="http://www.w3.org/2000/svg" xmlns:xlink="http://www.w3.org/1999/xlink">
    <title>0.图标/线型/icons_outlined_wifi_error@1x</title>
    <g id="0.图标/线型/icons_outlined_wifi_error" stroke="none" stroke-width="1" fill="none" fill-rule="evenodd">
        <g id="0.图标/线型/icons_outlined_done3备份" fill="#D8D8D8" fill-opacity="0">
            <rect id="矩形备份" x="0" y="0" width="72" height="72"></rect>
        </g>
        <g id="编组-8备份" transform="translate(9.000000, 15.000000)" fill="#000000" fill-opacity="0.5">
            <path d="M28.8703508,35.8330989 C30.2866357,35.8330989 31.5838281,36.3399776 32.5883682,37.181202 L28.9220447,40.9997519 L25.2100701,37.1334833 C26.2063481,36.3208463 27.4810507,35.8330989 28.8703508,35.8330989 Z M28.8176,23.5294945 C33.5931631,23.5294945 37.9723388,25.2165903 41.3849016,28.0239298 L39.2285259,30.2690383 C36.4419581,28.1909765 32.9795819,26.9598168 29.2279416,26.9598168 C25.3169581,26.9598168 21.7203322,28.2977794 18.8759829,30.5383765 L16.368598,27.9273733 C19.7637909,25.1779508 24.097041,23.5294945 28.8176,23.5294945 Z M28.8176,11.7647473 C34.6398843,11.7647473 40.093923,13.3320662 44.7760586,16.0654346 L44.7771176,20.0226991 C40.2614598,16.9755098 34.8107347,15.1950695 28.9416906,15.1950695 C21.94089,15.1950695 15.5352967,17.7283781 10.6019522,21.9231421 L8.17974161,19.4018002 C13.712865,14.6433627 20.9270636,11.7647473 28.8176,11.7647473 Z M28.8176,0 C34.4528839,0 39.83728,1.06782351 44.7772018,3.01102937 L44.7767959,6.81259995 C39.8490447,4.63836873 34.3941589,3.43032227 28.6554396,3.43032227 C18.564997,3.43032227 9.35206857,7.16518034 2.33925821,13.3201173 L-1.77635684e-15,10.8849828 C7.66373131,4.11329469 17.7574512,0 28.8176,0 Z" id="Combined-Shape"></path>
            <path d="M50.1756117,4.60679699 L53.7688841,4.60679699 L53.5448592,29.4778855 L50.3996366,29.4778855 L50.1756117,4.60679699 Z M51.9997772,38.7190737 C50.8768451,38.7190737 49.9995544,37.8469731 49.9995544,36.7306844 C49.9995544,35.5969536 50.8768451,34.742295 51.9997772,34.742295 C53.1402551,34.742295 54,35.5969536 54,36.7306844 C54,37.8469731 53.1402551,38.7190737 51.9997772,38.7190737 Z" id="!" fill-rule="nonzero"></path>
        </g>
    </g>
</svg>