<svg width="24" height="24" viewBox="0 0 24 24" fill="none" xmlns="http://www.w3.org/2000/svg">
<path fill-rule="evenodd" clip-rule="evenodd" d="M3.20708 14.2071C2.81655 13.8166 2.81655 13.1834 3.20708 12.7929L12.7071 3.29289C12.8946 3.10536 13.149 3 13.4142 3H20C20.5523 3 21 3.44772 21 4V10.5858C21 10.851 20.8946 11.1054 20.7071 11.2929L11.2071 20.7929C10.8166 21.1834 10.1834 21.1834 9.79286 20.7929L3.20708 14.2071ZM19.8 10.5029V4.2H13.497L4.19703 13.5L10.5 19.8029L19.8 10.5029ZM16 9.5C16.8284 9.5 17.5 8.82843 17.5 8C17.5 7.17157 16.8284 6.5 16 6.5C15.1715 6.5 14.5 7.17157 14.5 8C14.5 8.82843 15.1715 9.5 16 9.5Z" fill="black" fill-opacity="0.9"/>
</svg>
