<?xml version="1.0" encoding="UTF-8"?>
<svg width="20px" height="20px" viewBox="0 0 20 20" version="1.1" xmlns="http://www.w3.org/2000/svg" xmlns:xlink="http://www.w3.org/1999/xlink">
    <title>icons_filled_star</title>
    <g id="201020过allen后完稿" stroke="none" stroke-width="1" fill="none" fill-rule="evenodd">
        <g id="verify_and_star_LM" transform="translate(-22.000000, 0.000000)">
            <g id="0.图标/面型/icons_filled_star" transform="translate(22.000000, 0.000000)">
                <rect id="矩形" x="0" y="0" width="20" height="20"></rect>
                <path d="M10,15.4166667 L6.10652865,17.4635857 C5.69915816,17.677753 5.1953022,17.5211309 4.98113486,17.1137604 C4.8958523,16.9515434 4.8664234,16.7657366 4.89740411,16.5851053 L5.64099097,12.2496612 L2.49110648,9.17928269 C2.16153683,8.85803168 2.15479324,8.33043729 2.47604425,8.00086764 C2.60396809,7.86963128 2.77158676,7.7842253 2.95295096,7.75787154 L7.30598426,7.12533878 L9.25271994,3.18082146 C9.45640518,2.76811008 9.95609338,2.59866091 10.3688048,2.80234615 C10.5331486,2.88345469 10.6661715,3.01647762 10.7472801,3.18082146 L12.6940157,7.12533878 L17.047049,7.75787154 C17.5025031,7.82405289 17.818071,8.24692193 17.7518896,8.70237598 C17.7255359,8.88374018 17.6401299,9.05135885 17.5088935,9.17928269 L14.359009,12.2496612 L15.1025959,16.5851053 C15.1803967,17.038719 14.8757402,17.4695156 14.4221265,17.5473164 C14.2414952,17.5782971 14.0556884,17.5488682 13.8934714,17.4635857 L10,15.4166667 Z" id="Star" fill="#FFC300"></path>
            </g>
        </g>
    </g>
</svg>