<svg width="25" height="25" viewBox="0 0 25 25" fill="none" xmlns="http://www.w3.org/2000/svg">
<path fill-rule="evenodd" clip-rule="evenodd" d="M2.0835 12.4999C2.0835 18.2529 6.7472 22.9166 12.5002 22.9166C18.2531 22.9166 22.9168 18.2529 22.9168 12.4999C22.9168 6.74695 18.2531 2.08325 12.5002 2.08325C6.7472 2.08325 2.0835 6.74695 2.0835 12.4999ZM21.6668 12.4999C21.6668 17.5625 17.5628 21.6666 12.5002 21.6666C7.43755 21.6666 3.3335 17.5625 3.3335 12.4999C3.3335 7.43731 7.43755 3.33325 12.5002 3.33325C17.5628 3.33325 21.6668 7.43731 21.6668 12.4999ZM13.1868 6.69904L13.0953 14.0538H11.9051L11.8135 6.69904H13.1868ZM11.6304 16.9148C11.6304 17.4031 12.0119 17.7845 12.5002 17.7845C12.9961 17.7845 13.3699 17.4031 13.3699 16.9148C13.3699 16.4189 12.9961 16.045 12.5002 16.045C12.0119 16.045 11.6304 16.4189 11.6304 16.9148Z" fill="black" fill-opacity="0.9"/>
</svg>
