<?xml version="1.0" encoding="UTF-8"?>
<svg width="24px" height="24px" viewBox="0 0 24 24" version="1.1" xmlns="http://www.w3.org/2000/svg" xmlns:xlink="http://www.w3.org/1999/xlink">
    <title>icons_filled_groupNotice</title>
    <g id="icons_filled_groupNotice" stroke="none" stroke-width="1" fill="none" fill-rule="evenodd">
        <rect id="切图区占位" fill="#FFFFFF" fill-rule="nonzero" opacity="0" x="0" y="0" width="24" height="24"></rect>
        <path d="M6,16 C3.790861,16 2,14.209139 2,12 C2,9.790861 3.790861,8 6,8 L6,8 L8,8 L14.4700011,3.95624934 C14.6289327,3.85691709 14.8125803,3.80424764 15,3.80424764 C15.5522847,3.80424764 16,4.25196289 16,4.80424764 L16,4.80424764 L16,19.1957524 C16,19.3831721 15.9473306,19.5668197 15.8479983,19.7257513 C15.555288,20.1940878 14.9383376,20.336461 14.4700011,20.0437507 L14.4700011,20.0437507 L8,16 Z M17.9960938,13 L22,13 L22,11 L17.9960938,11 L17.9960938,13 Z M17.5492293,16.8946017 L21.5531356,18.8946017 L22.4468644,17.1053983 L18.4429582,15.1053983 L17.5492293,16.8946017 Z M18.4429582,8.89460168 L22.4468644,6.89460168 L21.5531356,5.10539832 L17.5492293,7.10539832 L18.4429582,8.89460168 Z" id="形状结合" fill="#FFC300"></path>
    </g>
</svg>