<?xml version="1.0" encoding="UTF-8"?>
<svg width="24px" height="24px" viewBox="0 0 24 24" version="1.1" xmlns="http://www.w3.org/2000/svg" xmlns:xlink="http://www.w3.org/1999/xlink">
    <title>icons_outlined_share</title>
    <g id="icons_outlined_share" stroke="none" stroke-width="1" fill="none" fill-rule="evenodd">
        <rect id="矩形" fill="#D8D8D8" fill-rule="nonzero" opacity="0" x="0" y="0" width="24" height="24"></rect>
        <path d="M14.5,3.40202866 C14.7917381,3.40202866 15.0715274,3.51792118 15.2778175,3.7242112 L15.2778175,3.7242112 L20.7171573,9.16355103 C21.3419962,9.78838989 21.3419962,10.8014539 20.7171573,11.4262927 L20.7171573,11.4262927 L15.2778175,16.8656326 C14.8482407,17.2952093 14.1517593,17.2952093 13.7221825,16.8656326 C13.5158925,16.6593425 13.4,16.3795532 13.4,16.0878735 L13.4,16.0878735 L13.399,12.807 L13.3555539,12.8087285 C10.6777365,12.9222401 8.62841434,14.2090299 7.06711248,16.3479682 L7.06711248,16.3479682 L6.88912004,16.5985322 C6.25759072,17.5118699 5.77393233,18.4716992 5.36299215,19.5081528 L5.36299215,19.5081528 L4.99608572,20.4729261 C4.94687326,20.5921197 4.91450971,20.6447009 4.83659471,20.7254713 C4.50382676,21.0704342 3.95515957,20.9180611 3.81653858,20.4880866 C3.7876937,20.3986156 3.78208008,20.3313087 3.78442243,20.2911246 C3.16092446,13.2556184 6.78532184,7.77736398 13.3417056,7.08572154 L13.3417056,7.08572154 L13.399,7.08 L13.4,4.50202866 C13.4,3.93501631 13.8290107,3.46820479 14.3801429,3.40848331 L14.3801429,3.40848331 Z M14.599,4.742 L14.5994391,8.20034197 L14.0341338,8.23300394 C8.72685602,8.53964569 5.44736202,12.210128 4.97566386,17.4448858 L4.97566386,17.4448858 L4.974,17.462 L5.19188149,17.0572999 C5.33605969,16.799091 5.48866268,16.544238 5.65103673,16.2921598 L5.65103673,16.2921598 L5.90209439,15.9160512 C7.81497112,13.1495884 10.4733153,11.5159727 14.0145111,11.6038767 L14.0145111,11.6038767 L14.5995648,11.6183996 L14.599,15.847 L19.8686291,10.5777646 C20.0053127,10.4410811 20.0223981,10.2300889 19.9198855,10.0748282 L19.9198855,10.0748282 L19.8686291,10.0120792 L14.599,4.742 Z" id="形状结合" fill-opacity="0.9" fill="#000000"></path>
    </g>
</svg>