<svg width="24" height="24" viewBox="0 0 24 24" fill="none" xmlns="http://www.w3.org/2000/svg">
<path d="M18.4902 7.11079C17.0402 5.88079 14.9502 5.88079 13.7102 4.49079C13.3502 4.08079 13.1302 3.58079 13.0902 3.07079C13.0302 2.59079 12.5202 2.48079 12.2102 2.68079C12.1902 2.69079 12.1702 2.70079 12.1602 2.72079C12.1102 2.76079 12.0702 2.81079 12.0402 2.86079C11.8802 3.09079 11.7902 3.46079 11.7902 4.06079V11.8608C11.7902 15.3408 11.1002 14.6008 8.90018 15.1608C7.28018 15.5708 5.93018 16.6608 5.93018 18.3308C5.93018 20.0008 7.41018 21.3908 9.13018 21.3308C13.4102 21.2008 13.2802 16.6608 13.2802 14.9108V7.85079C13.3402 6.49079 14.3002 6.82079 16.1302 7.49079C16.6602 7.70079 17.1702 7.93079 17.6202 8.24079C19.4002 9.45079 18.5102 11.5908 16.8602 12.4608C16.6602 12.5708 16.7702 12.8708 16.9902 12.8308C19.5202 12.3908 20.9602 9.01079 18.4902 7.11079Z" fill="black"/>
</svg>
