<?xml version="1.0" encoding="UTF-8"?>
<svg width="24px" height="24px" viewBox="0 0 24 24" version="1.1" xmlns="http://www.w3.org/2000/svg" xmlns:xlink="http://www.w3.org/1999/xlink">
    <title>location</title>
    <g id="回收站" stroke="none" stroke-width="1" fill="none" fill-rule="evenodd">
        <g id="编组-2" transform="translate(-33.000000, -37.000000)" fill="#07C160">
            <g id="表单项" transform="translate(1.000000, 25.000000)">
                <g id="location" transform="translate(32.000000, 12.000000)">
                    <path d="M12,2.5 C16.1421356,2.5 19.5,5.83401492 19.5,9.94673075 C19.5,15.5487927 12.6788028,21.2543698 12.6788028,21.2543698 C12.3032979,21.5962683 11.7020119,21.595164 11.334425,21.2666219 C11.334425,21.2666219 4.5,15.5487927 4.5,9.94673075 C4.5,5.83401492 7.85786438,2.5 12,2.5 Z M12,7 C10.3431458,7 9,8.34314575 9,10 C9,11.6568542 10.3431458,13 12,13 C13.6568542,13 15,11.6568542 15,10 C15,8.34314575 13.6568542,7 12,7 Z" id="形状结合"></path>
                </g>
            </g>
        </g>
    </g>
</svg>