<?xml version="1.0" encoding="UTF-8"?>
<svg width="24px" height="24px" viewBox="0 0 24 24" version="1.1" xmlns="http://www.w3.org/2000/svg" xmlns:xlink="http://www.w3.org/1999/xlink">
    <title>9.元素/进度/暂停/White</title>
    <g id="9.元素/进度/暂停/White" stroke="none" stroke-width="1" fill="none" fill-rule="evenodd">
        <g id="Group" transform="translate(6.000000, 6.000000)" fill="#FFFFFF">
            <path d="M4.5,2.5 C4.77614237,2.5 5,2.70893378 5,2.96666667 L5,9.03333333 C5,9.29106622 4.77614237,9.5 4.5,9.5 L3.5,9.5 C3.22385763,9.5 3,9.29106622 3,9.03333333 L3,2.96666667 C3,2.70893378 3.22385763,2.5 3.5,2.5 L4.5,2.5 Z M8.5,2.5 C8.77614237,2.5 9,2.70893378 9,2.96666667 L9,9.03333333 C9,9.29106622 8.77614237,9.5 8.5,9.5 L7.5,9.5 C7.22385763,9.5 7,9.29106622 7,9.03333333 L7,2.96666667 C7,2.70893378 7.22385763,2.5 7.5,2.5 L8.5,2.5 Z" id="形状结合"></path>
        </g>
    </g>
</svg>