<?xml version="1.0" encoding="UTF-8"?>
<svg width="168px" height="72px" viewBox="0 0 168 72" version="1.1" xmlns="http://www.w3.org/2000/svg" xmlns:xlink="http://www.w3.org/1999/xlink">
    <title>0.图标/线型/icons_outlined_move to cellphone@1x</title>
    <g id="0.图标/线型/icons_outlined_move-to-cellphone" stroke="none" stroke-width="1" fill="none" fill-rule="evenodd">
        <rect id="矩形" fill-opacity="0" fill="#D8D8D8" x="0" y="0" width="168" height="72"></rect>
        <g id="编组-4" transform="translate(14.000000, 8.000000)">
            <rect id="矩形" stroke="#000000" stroke-width="1.2" x="0.6" y="0.6" width="68.8" height="46.8" rx="3.28348306"></rect>
            <rect id="矩形" fill="#000000" x="19" y="55" width="32" height="1.2" rx="0.3"></rect>
            <g id="编组-2" transform="translate(32.000000, 47.000000)" fill="#000000">
                <rect id="矩形备份" transform="translate(0.600000, 4.600000) rotate(90.000000) translate(-0.600000, -4.600000) " x="-3.4" y="4" width="8" height="1.2"></rect>
                <rect id="矩形备份-2" transform="translate(5.800000, 4.000000) rotate(90.000000) translate(-5.800000, -4.000000) " x="1.8" y="3.4" width="8" height="1.2"></rect>
            </g>
        </g>
        <g id="编组" transform="translate(92.000000, 25.000000)" fill="#000000" fill-opacity="0.9">
            <g id="0.图标/线型/icons_outlined_sending" transform="translate(12.000000, 12.000000) scale(-1, 1) translate(-12.000000, -12.000000) ">
                <g id="Group-11" transform="translate(5.000000, 7.000000)">
                    <path d="M4.24264069,0.757359313 L5.30330086,1.81801948 L2.87110678,4.24935931 L8,4.25 L8,5.75 L2.87110678,5.74935931 L5.30330086,8.18198052 L4.24264069,9.24264069 L0.353553391,5.35355339 C0.158291245,5.15829124 0.158291245,4.84170876 0.353553391,4.64644661 L1.06066017,3.93933983 L1.06110678,3.93935931 L4.24264069,0.757359313 Z M11,4.25 L11,5.75 L9.5,5.75 L9.5,4.25 L11,4.25 Z M14,4.25 L14,5.75 L12.5,5.75 L12.5,4.25 L14,4.25 Z" id="Combined-Shape"></path>
                </g>
            </g>
        </g>
        <g id="编组-5" transform="translate(124.000000, 8.000000)">
            <rect id="矩形" stroke="#000000" stroke-width="1.2" x="0.6" y="0.6" width="34.8" height="54.8" rx="3.375"></rect>
            <rect id="矩形备份-16" fill-opacity="0.9" fill="#000000" x="13" y="51" width="10" height="1.2"></rect>
        </g>
        <rect id="矩形备份-3" fill="#111111" x="23" y="19" width="12" height="1.2"></rect>
        <rect id="矩形备份-4" fill="#111111" x="23" y="26" width="18" height="1.2"></rect>
        <rect id="矩形备份-5" fill="#111111" x="23" y="33" width="9.5" height="1.2"></rect>
    </g>
</svg>