<?xml version="1.0" encoding="UTF-8"?>
<svg width="24px" height="24px" viewBox="0 0 24 24" version="1.1" xmlns="http://www.w3.org/2000/svg" xmlns:xlink="http://www.w3.org/1999/xlink">
    <title>0.图标/线型/icons_outlined_backup@1x</title>
    <g id="0.图标/线型/icons_outlined_backup" stroke="none" stroke-width="1" fill="none" fill-rule="evenodd">
        <path d="M12.6321331,2.83062044 C17.7935476,2.83062044 21.9777008,7.08391532 21.9777008,12.3306204 C21.9777008,17.5773256 17.7935476,21.8306204 12.6321331,21.8306204 C7.78335863,21.8306204 3.79704067,18.0769859 3.33190814,13.2723802 L4.40390138,12.8798743 C4.68169097,17.2665075 8.26313809,20.7306204 12.6321331,20.7306204 C17.1819624,20.7306204 20.8777008,16.9738112 20.8777008,12.3306204 C20.8777008,7.68742967 17.1819624,3.93062044 12.6321331,3.93062044 C9.18783454,3.93062044 6.23299399,6.08355352 5.00039633,9.14414919 L3.66938688,9.63068809 C4.81376368,5.69915088 8.39340342,2.83062044 12.6321331,2.83062044 Z" id="形状结合" fill="#000000" fill-rule="nonzero"></path>
        <g id="编组-6" transform="translate(13.102636, 12.650970) rotate(-15.000000) translate(-13.102636, -12.650970) translate(11.529144, 8.853879)" fill="#000000" fill-opacity="0.9">
            <polygon id="Rectangle-34" transform="translate(1.137516, 2.152080) rotate(15.000000) translate(-1.137516, -2.152080) " points="0.514683832 0.0915510886 1.76251613 0.0915607822 1.76034843 4.21260859 0.512516131 4.2125989"></polygon>
            <polygon id="Rectangle-34" transform="translate(1.573493, 5.493812) scale(1, -1) rotate(-330.000000) translate(-1.573493, -5.493812) " points="0.948492544 3.4388294 2.19030305 3.42935835 2.19849254 7.54879397 0.956682033 7.55826502"></polygon>
        </g>
        <g id="编组-4" transform="translate(4.740300, 8.164252) rotate(-113.000000) translate(-4.740300, -8.164252) translate(2.855164, 6.240395)" fill="#000000">
            <path d="M0.491900407,0.00964735379 L3.77027123,0 L3.77027123,0 L3.77027123,0.991304348 L1.94732393,1.00239923 L9.09494702e-12,1.00239923 L9.09494702e-12,0.50299742 C9.09496923e-12,0.231093312 0.219997476,0.0104474902 0.491900407,0.00964735379 Z" id="Rectangle-16"></path>
            <path d="M0.493352202,0.0110948829 L0.975189668,0.0110948829 L0.975189668,0.0110948829 L0.975189668,3.84771468 L4.54747351e-13,3.84771468 L4.54747351e-13,0.504447085 C4.54658472e-13,0.231976188 0.220881305,0.0110948829 0.493352202,0.0110948829 Z" id="Rectangle-16"></path>
        </g>
    </g>
</svg>