<?xml version="1.0" encoding="UTF-8"?>
<svg width="24px" height="24px" viewBox="0 0 24 24" version="1.1" xmlns="http://www.w3.org/2000/svg" xmlns:xlink="http://www.w3.org/1999/xlink">
    <title>0.图标/04.特殊/icons_chatadd@2x</title>
    <g id="0.图标/04.特殊/icons_chatadd" stroke="none" stroke-width="1" fill="none" fill-rule="evenodd">
        <path d="M21.2234492,0 C22.7568958,0 24,1.23980619 24,2.77655084 L24,21.2234492 C24,22.7568958 22.7601938,24 21.2234492,24 L2.77655084,24 C1.24310416,24 0,22.7601938 0,21.2234492 L0,2.77655084 C0,1.24310416 1.23980619,0 2.77655084,0 L21.2234492,0 Z M21.2234492,0.923076923 L2.77655084,0.923076923 C1.79753596,0.923076923 0.998743708,1.67798788 0.928148988,2.63806121 L0.923076923,2.77655084 L0.923076923,21.2234492 C0.923076923,22.202464 1.67798788,23.0012563 2.63806121,23.071851 L2.77655084,23.0769231 L21.2234492,23.0769231 C22.202464,23.0769231 23.0012563,22.3220121 23.071851,21.3619388 L23.0769231,21.2234492 L23.0769231,2.77655084 C23.0769231,1.79753596 22.3220121,0.998743708 21.3619388,0.928148988 L21.2234492,0.923076923 Z" id="Base" fill-opacity="0.1" fill="#000000"></path>
        <path d="M12.4615385,6.76923077 L12.4612308,11.5382308 L17.2307692,11.5384615 L17.2307692,12.4615385 L12.4612308,12.4612308 L12.4615385,17.2307692 L11.5384615,17.2307692 L11.5382308,12.4612308 L6.76923077,12.4615385 L6.76923077,11.5384615 L11.5382308,11.5382308 L11.5384615,6.76923077 L12.4615385,6.76923077 Z" id="图标颜色" fill-opacity="0.5" fill="#000000"></path>
    </g>
</svg>