<?xml version="1.0" encoding="UTF-8"?>
<svg width="24px" height="24px" viewBox="0 0 24 24" version="1.1" xmlns="http://www.w3.org/2000/svg" xmlns:xlink="http://www.w3.org/1999/xlink">
    <title>0.图标/线型/icons_outlined_migration_move@1x</title>
    <g id="0.图标/线型/icons_outlined_migration_move" stroke="none" stroke-width="1" fill="none" fill-rule="evenodd" fill-opacity="0.9">
        <g id="0.图标/线型/icons_outlined_migration_recieve" transform="translate(3.625000, 3.350798)" fill="#000000">
            <g id="icon34">
                <path d="M13.5,17.1929516 C13.5,17.7210739 12.9963203,18.1492016 12.375,18.1492016 L1.125,18.1492016 C0.503679656,18.1492016 0,17.7210739 0,17.1929516 L0,3.80545163 C0,3.27732934 0.503679656,2.84920163 1.125,2.84920163 L4.5,2.84920163 L4.5,0.837341244 C4.5,0.309218952 5.00367966,0 5.625,0 L15.4222333,0 L15.4222333,0 C16.0435536,0 16.3425111,0.40172705 16.3425111,0.929849342 L16.3425111,13.4207755 C16.3425111,13.9488978 16.1166291,14.3242016 15.4953087,14.3242016 L15.09,14.324 L15.09,13.176 L15.0925014,13.1767016 L15.0925014,1.20476985 L4.50128961,1.20476985 L4.50128961,2.84920163 L12.375,2.84920163 C12.9963203,2.84920163 13.5,3.27732934 13.5,3.80545163 L13.5,13.1767016 L13.5,13.176 L13.5,17.1929516 Z M12.2258709,4.10601511 L1.125,4.10601511 L1.125,17.0017016 L12.2258709,17.0017016 L12.2258709,4.10601511 Z" id="形状结合"></path>
            </g>
            <path d="M7.38915119,11.4732716 L7.38915119,7.32479758 L6.43879967,7.32479758 L6.43879967,11.5130006 L5.32889058,10.2794823 L4.65689058,11.0038449 L6.62122365,13.1002267 C6.77482088,13.2788138 7.01896029,13.2788138 7.17255752,13.1002267 L9.13689058,11.0038449 L8.46489058,10.2794823 L7.38915119,11.4732716 Z" id="Combined-Shape备份-3" transform="translate(6.896891, 10.279482) rotate(-90.000000) translate(-6.896891, -10.279482) "></path>
        </g>
    </g>
</svg>