<?xml version="1.0" encoding="UTF-8"?>
<svg width="24px" height="24px" viewBox="0 0 24 24" version="1.1" xmlns="http://www.w3.org/2000/svg" xmlns:xlink="http://www.w3.org/1999/xlink">
    <title>画板</title>
    <g id="画板" stroke="none" stroke-width="1" fill="none" fill-rule="evenodd">
        <rect id="矩形备份-10" fill="#1485EE" x="0" y="0" width="24" height="24" rx="2.4"></rect>
        <g id="icon14" transform="translate(4.000000, 4.000000)" fill="#FFFFFF">
            <path d="M10.0740466,2.66785334 C11.2799901,2.70656012 12.245614,3.68726543 12.245614,4.88900415 L12.245614,5.83899205 C12.245614,6.47183108 11.9092954,7.37936686 11.4978735,7.86198502 L11.2949078,8.10007374 C10.963948,8.48830593 11.0673334,8.98244312 11.5301328,9.2058391 L14.707875,10.7397542 C15.0533061,10.9064959 15.3333333,11.3473167 15.3333333,11.730813 L15.3333333,12.1119788 C15.3333333,12.4183245 15.0801822,12.6666667 14.7711272,12.6666667 L14.3221378,12.6666667 C14.2405377,11.8929045 13.7209365,11.126442 13.0290123,10.7889303 L9.4179532,9.02750237 L9.5430731,8.87918558 C10.1843274,8.11904459 10.6666667,6.80141519 10.6666667,5.80679046 L10.6666667,4.66680498 C10.6666667,3.92956921 10.4488446,3.24294029 10.0740466,2.66785334 L10.0740466,2.66785334 Z M5.22127513,8.23342532 C4.73087842,7.6521901 4.33333333,6.56633099 4.33333333,5.80619369 L4.33333333,4.66638692 C4.33333333,3.19378209 5.53023744,2 7,2 C8.47275933,2 9.66666667,3.19532015 9.66666667,4.66680498 L9.66666667,5.80679046 C9.66666667,6.5661973 9.26728826,7.65524023 8.77872477,8.23438202 L8.53770306,8.52008849 C8.14468827,8.98596712 8.26745847,9.57893174 8.81703266,9.84700692 L12.5906016,11.687705 C13.000801,11.887795 13.3333333,12.4167801 13.3333333,12.8769756 L13.3333333,13.3343746 C13.3333333,13.7019893 13.0327164,14 12.6657136,14 L1.33428641,14 C0.965570206,14 0.666666667,13.703837 0.666666667,13.3343746 L0.666666667,12.8769756 C0.666666667,12.4202496 0.998767271,11.8879386 1.40939841,11.6875551 L5.18296717,9.84609534 C5.73025142,9.57902669 5.85750604,8.9875083 5.46229682,8.5190926 L5.22127513,8.23342532 Z" id="Combined-Shape"></path>
        </g>
    </g>
</svg>