<?xml version="1.0" encoding="UTF-8"?>
<svg width="24px" height="24px" viewBox="0 0 24 24" version="1.1" xmlns="http://www.w3.org/2000/svg" xmlns:xlink="http://www.w3.org/1999/xlink">
    <title>0.图标/01.线性/icons_outlined_float</title>
    <g id="0.图标/01.线性/icons_outlined_float" stroke="none" stroke-width="1" fill="none" fill-rule="evenodd" fill-opacity="0.9">
        <g id="编组-2" transform="translate(4.000000, 2.500000)" fill="#000000" fill-rule="nonzero">
            <g id="编组" transform="translate(2.500000, 13.100000)">
                <circle id="椭圆形" transform="translate(4.100000, 0.900000) scale(-1, 1) translate(-4.100000, -0.900000) " cx="4.1" cy="0.9" r="1"></circle>
                <circle id="椭圆形备份-2" transform="translate(0.900000, 0.900000) scale(-1, 1) translate(-0.900000, -0.900000) " cx="0.9" cy="0.9" r="1"></circle>
            </g>
            <path d="M15,-7.10542736e-15 C15.5522847,-7.10542736e-15 16,0.44771525 16,1 L16,1 L16,17 C16,17.5522847 15.5522847,18 15,18 L15,18 L9.97740771,18.0012092 C10.217903,17.625751 10.4208511,17.2239339 10.5809544,16.8010557 L14.8,16.8 L14.8,1.2 L5.2,1.2 L5.19911532,8.03715814 C4.96944277,8.01259781 4.73619257,8 4.5,8 C4.33193967,8 4.16536902,8.00637812 4.00051692,8.01890551 L4,1 C4,0.44771525 4.44771525,-7.10542736e-15 5,-7.10542736e-15 L5,-7.10542736e-15 Z" id="形状结合"></path>
            <path d="M5,9 C7.76142375,9 10,11.2385763 10,14 C10,16.7614237 7.76142375,19 5,19 C2.23857625,19 0,16.7614237 0,14 C0,11.2385763 2.23857625,9 5,9 Z M5,10.2 C2.90131795,10.2 1.2,11.901318 1.2,14 C1.2,16.098682 2.90131795,17.8 5,17.8 C7.09868205,17.8 8.8,16.098682 8.8,14 C8.8,11.901318 7.09868205,10.2 5,10.2 Z" id="椭圆形"></path>
        </g>
    </g>
</svg>