<svg width="24" height="24" viewBox="0 0 24 24" fill="none" xmlns="http://www.w3.org/2000/svg">
<path fill-rule="evenodd" clip-rule="evenodd" d="M19.5972 2.8032C19.5226 2.47932 19.2024 2.27478 18.8772 2.3432L7.26719 4.8932C6.75094 5.00831 6.3897 5.47456 6.40719 6.0032V16.4032C6.41018 16.837 6.10323 17.2113 5.67719 17.2932L4.00719 17.6432C2.9982 17.8987 2.3216 18.8459 2.40719 19.8832C2.45299 20.9682 3.32216 21.8374 4.40719 21.8832C4.53345 21.8975 4.66092 21.8975 4.78719 21.8832C4.85719 21.8832 5.90719 21.6432 6.08719 21.5632C6.99828 21.126 7.58599 20.2135 7.60719 19.2032V6.2032L18.3972 3.8332V13.7432C18.3962 14.1756 18.0911 14.5477 17.6672 14.6332L15.9272 15.0032C14.9342 15.2748 14.2776 16.2177 14.3672 17.2432C14.4176 18.3262 15.2842 19.1927 16.3672 19.2432C16.4968 19.258 16.6276 19.258 16.7572 19.2432C17.1992 19.1556 17.6364 19.0455 18.0672 18.9132C18.9782 18.4883 19.5734 17.5878 19.6072 16.5832V2.9332C19.6088 2.88962 19.6055 2.84601 19.5972 2.8032ZM18.4072 15.6432V16.5432C18.3734 17.0622 18.0697 17.5253 17.6072 17.7632C17.4072 17.8332 16.6772 17.9932 16.5172 18.0232H16.3672C15.9192 17.9688 15.5788 17.5943 15.5672 17.1432C15.532 16.7157 15.7734 16.3133 16.1672 16.1432L17.9072 15.7932C18.0791 15.7629 18.2469 15.7125 18.4072 15.6432ZM6.40719 18.3032V19.2032C6.3769 19.7231 6.07737 20.1894 5.61719 20.4332C5.42719 20.4932 4.69719 20.6532 4.54719 20.6932C4.30458 20.7128 4.06486 20.6298 3.88623 20.4645C3.7076 20.2992 3.6064 20.0666 3.60719 19.8232C3.57039 19.3981 3.80733 18.9965 4.19719 18.8232L5.91719 18.4832C6.08711 18.4429 6.25162 18.3825 6.40719 18.3032Z" fill="black" fill-opacity="0.9"/>
</svg>
