<?xml version="1.0" encoding="UTF-8"?>
<svg width="28px" height="28px" viewBox="0 0 28 28" version="1.1" xmlns="http://www.w3.org/2000/svg" xmlns:xlink="http://www.w3.org/1999/xlink">
    <title>0.图标/02.面型/icons_filled_video</title>
    <g id="0.图标/02.面型/icons_filled_video" stroke="none" stroke-width="1" fill="none" fill-rule="evenodd" fill-opacity="0.9">
        <g id="0.图标/面型/icons_filled_video_call" transform="translate(2.333333, 5.833333)" fill="#000000">
            <path d="M15.1666667,0.583333333 C15.8109989,0.583333333 16.3333333,1.10566779 16.3333333,1.75 L16.3333333,14.5833333 C16.3333333,15.2276655 15.8109989,15.75 15.1666667,15.75 L1.16666667,15.75 C0.522334459,15.75 0,15.2276655 0,14.5833333 L0,1.75 C0,1.10566779 0.522334459,0.583333333 1.16666667,0.583333333 L15.1666667,0.583333333 Z M23.0776803,2.86525143 C23.2431725,3.07211666 23.3333333,3.32914558 23.3333333,3.59406232 L23.3333333,12.739271 C23.3333333,13.3836032 22.8109989,13.9059377 22.1666667,13.9059377 C21.9017499,13.9059377 21.644721,13.8157768 21.4378558,13.6502846 L17.5,10.5 L17.5,5.83333333 L21.4378558,2.68304871 C21.9409947,2.28053757 22.6751691,2.36211251 23.0776803,2.86525143 Z" id="形状"></path>
        </g>
    </g>
</svg>