<?xml version="1.0" encoding="UTF-8"?>
<svg width="24px" height="24px" viewBox="0 0 24 24" version="1.1" xmlns="http://www.w3.org/2000/svg" xmlns:xlink="http://www.w3.org/1999/xlink">
    <title>0.图标/01.线性/icons_outlined_call</title>
    <g id="0.图标/01.线性/icons_outlined_call" stroke="none" stroke-width="1" fill="none" fill-rule="evenodd" fill-opacity="0.9">
        <path d="M6.81056684,5.00002333 C7.44633993,5.02124321 7.99704274,5.3903954 8.24883891,5.98682409 L9.40124582,9.05097217 C9.51938683,9.37585973 9.47594115,9.62205175 9.30380368,9.93738914 C8.9945768,10.4785358 8.35736244,11.6549308 8.02579657,12.305436 C7.97643447,12.3971084 7.94934986,12.5018355 7.94934986,12.6000725 C7.94934986,12.695636 7.98110416,12.8032477 8.041454,12.9015319 C8.63941303,13.916671 9.2886795,14.7845018 10.0082142,15.5040663 C10.7186699,16.2265631 11.5806805,16.874667 12.6137068,17.4832925 C12.7078032,17.5411979 12.8026484,17.5696514 12.9063099,17.5696514 C13.0126123,17.5696514 13.1045274,17.5454633 13.2100664,17.488712 C13.8073812,17.178568 14.9315443,16.5696468 15.5805641,16.2091011 C15.8839297,16.0436291 16.1099945,16.0025265 16.439155,16.1122466 L19.541383,17.2790766 C20.1075774,17.5186202 20.4759638,18.0593161 20.5172006,18.679118 C20.5219113,18.7356464 20.5218841,18.7919582 20.5178969,18.8483749 C20.5096922,18.9644685 20.4858568,19.0747746 20.4511601,19.1862886 C20.4335682,19.242828 20.413199,19.2986226 20.4009574,19.3307278 C19.8161814,20.9226171 18.3132765,22 16.6001685,22 C16.2065112,22 15.7957081,21.9315329 15.5591955,21.8630571 C12.6545101,21.1991294 10.0111769,19.7201656 7.90610219,17.6150923 C5.80093308,15.5099245 4.32183488,12.8663547 3.64868059,9.91198822 C3.64960383,9.9184509 3.6110144,9.73749707 3.5924069,9.63641575 C3.54710873,9.39034302 3.52081528,9.15607587 3.52081528,8.91974693 C3.52081528,7.20580392 4.59842781,5.70258071 6.20730034,5.1118617 C6.25150258,5.09655993 6.30382239,5.07971421 6.3665867,5.06263808 C6.46087526,5.03698522 6.5545693,5.01778487 6.64966148,5.00754418 C6.69689464,5.00245754 6.74372833,4.99971594 6.81056684,5.00002333 Z M6.72657915,5.94446648 C6.66119502,5.95013571 6.61841144,5.95890479 6.57233408,5.97144325 C6.53602735,5.98132294 6.50784079,5.9904 6.47980926,5.99989706 C5.27655986,6.44198787 4.46525972,7.57392443 4.46525972,8.86307036 C4.46525972,9.02981635 4.48512606,9.20685223 4.52035267,9.39824847 C4.53344269,9.46937029 4.57899383,9.68300823 4.57751026,9.68323829 C5.20517054,12.4297541 6.60401088,14.9303392 8.59654813,16.9232408 C10.5891537,18.9162107 13.0894539,20.3154034 15.8583714,20.9490571 C16.0427383,21.001743 16.3655626,21.0555569 16.6561738,21.0555569 C17.9456886,21.0555569 19.077649,20.2439428 19.5152019,19.0531916 C19.5356007,18.9974329 19.5448398,18.9721208 19.5533999,18.9446039 C19.5664002,18.9028139 19.5743026,18.8662359 19.5761031,18.8407557 C19.5592293,18.5739548 19.4259365,18.3782795 19.2418106,18.2999772 L16.1623231,17.1415511 C15.4677736,17.5305268 14.3217549,18.1514004 13.7129369,18.4675197 C13.464753,18.6011816 13.2018837,18.6703704 12.9171678,18.6703704 C12.6125421,18.6703704 12.3279796,18.584986 12.0794083,18.4318953 C10.9697187,17.778123 10.025168,17.0678309 9.23932781,16.2685032 C8.4473403,15.4763709 7.73771629,14.5276901 7.09431964,13.4350512 C6.93947342,13.1833801 6.85132373,12.884596 6.85132373,12.5890616 C6.85132373,12.3133339 6.92293029,12.0364045 7.04969326,11.801184 C7.38667352,11.1395833 8.03965635,9.93385605 8.35656533,9.37933684 C8.36450776,9.36477305 7.98843139,8.33178349 7.22833623,6.28036816 C7.14386878,6.08068132 6.95228519,5.95223367 6.72657915,5.94446648 Z" id="Combined-Shape" fill="#000000" transform="translate(12.020815, 13.500000) rotate(135.000000) translate(-12.020815, -13.500000) "></path>
    </g>
</svg>