<?xml version="1.0" encoding="UTF-8"?>
<svg width="20px" height="20px" viewBox="0 0 20 20" version="1.1" xmlns="http://www.w3.org/2000/svg" xmlns:xlink="http://www.w3.org/1999/xlink">
    <title>0 图标/1 线性/icons_outlined_search</title>
    <g id="视觉标注及切图" stroke="none" stroke-width="1" fill="none" fill-rule="evenodd">
        <g id="画板" transform="translate(-1280.000000, -929.000000)" fill="currentColor">
            <g id="0-图标/1-线性/icons_outlined_search" transform="translate(1280.000000, 929.000000)">
                <path d="M9.16666667,3.33333333 C12.3883333,3.33333333 15,5.945 15,9.16666667 C15,10.6191196 14.4691636,11.9475864 13.5909149,12.9686433 L17.0202201,16.3964466 L16.3131133,17.1035534 L12.8775829,13.6676449 C11.8691853,14.4999877 10.5763193,15 9.16666667,15 C5.945,15 3.33333333,12.3883333 3.33333333,9.16666667 C3.33333333,5.945 5.945,3.33333333 9.16666667,3.33333333 Z M9.16666428,4.33334351 C6.49728324,4.33334351 4.33333079,6.49729596 4.33333079,9.166677 C4.33333079,11.836058 6.49728324,14.0000105 9.16666428,14.0000105 C11.8360453,14.0000105 13.9999978,11.836058 13.9999978,9.166677 C13.9999978,6.49729596 11.8360453,4.33334351 9.16666428,4.33334351 Z" id="Combined-Shape"></path>
                <rect id="BG" fill-opacity="0" x="0" y="0" width="20" height="20"></rect>
            </g>
        </g>
    </g>
</svg>