<?xml version="1.0" encoding="UTF-8"?>
<svg width="17px" height="17px" viewBox="0 0 17 17" version="1.1" xmlns="http://www.w3.org/2000/svg" xmlns:xlink="http://www.w3.org/1999/xlink">
    <title>icon12</title>
    <g id="1012---剔除了「搜收藏」" stroke="none" stroke-width="1" fill="none" fill-rule="evenodd">
        <g id="icon12">
            <rect id="Rectangle-11" fill-opacity="0" fill="#FFFFFF" x="0" y="0" width="17" height="17"></rect>
            <path d="M13.3166667,14.025 L13.3166667,13.6817865 C13.3166667,13.519292 13.1499809,13.2529308 13.0048651,13.1821452 L8.9954481,11.2264034 C7.91411929,10.6989452 7.64686404,9.42289674 8.42161342,8.504511 L8.67769899,8.20094788 C9.06822147,7.73802362 9.42083333,6.77477691 9.42083333,6.16971486 L9.42083333,4.95848029 C9.42083333,3.86389756 8.53229278,2.975 7.4375,2.975 C6.3440521,2.975 5.45416667,3.86410191 5.45416667,4.9580361 L5.45416667,6.16908079 C5.45416667,6.77567859 5.8053206,7.7353427 6.19726388,8.1998875 L6.45334942,8.50340898 C7.2297008,9.42356759 6.95952681,10.698419 5.87967628,11.2253741 L1.87025946,13.1819251 C1.72622044,13.2522145 1.55833333,13.5211463 1.55833333,13.6817865 L1.55833333,14.025 L13.3166667,14.025 Z M7.4375,2.125 C9.00230679,2.125 10.2708333,3.39502766 10.2708333,4.95848029 L10.2708333,6.16971486 C10.2708333,6.97658463 9.84649377,8.13369275 9.32739507,8.7490309 L9.0713095,9.05259402 C8.65373129,9.54759006 8.78417463,10.177615 9.3680972,10.4624449 L13.3775142,12.4181866 C13.8133511,12.6307822 14.1666667,13.1928288 14.1666667,13.6817865 L14.1666667,14.1666667 C14.1666667,14.5578684 13.849535,14.875 13.4583333,14.875 L1.41666667,14.875 C1.02546497,14.875 0.708333333,14.5578684 0.708333333,14.1666667 L0.708333333,13.6817865 C0.708333333,13.1965152 1.06119023,12.6309347 1.49748581,12.4180273 L5.50690262,10.4614763 C6.08839213,10.1777159 6.22360016,9.54922757 5.80369037,9.05153589 L5.54760482,8.74801441 C5.02655832,8.13045198 4.60416667,6.97672667 4.60416667,6.16908079 L4.60416667,4.9580361 C4.60416667,3.39339347 5.87587728,2.125 7.4375,2.125 Z M16.2916667,10.2708333 L16.2916667,11.1208334 L14.1666667,11.1208334 L14.1666667,10.2708333 L16.2916667,10.2708333 Z M16.2916667,8.14583333 L16.2916667,8.99583337 L12.75,8.99583337 L12.75,8.14583333 L16.2916667,8.14583333 Z M16.2916667,6.02083333 L16.2916667,6.87083337 L11.3333333,6.87083337 L11.3333333,6.02083333 L16.2916667,6.02083333 Z" id="Path-67" fill-opacity="0.3" fill="#000000"></path>
        </g>
    </g>
</svg>