<?xml version="1.0" encoding="UTF-8"?>
<svg width="24px" height="24px" viewBox="0 0 24 24" version="1.1" xmlns="http://www.w3.org/2000/svg" xmlns:xlink="http://www.w3.org/1999/xlink">
    <title>0.图标/01.线性/icons_outlined_like</title>
    <g id="0.图标/01.线性/icons_outlined_like" stroke="none" stroke-width="1" fill="none" fill-rule="evenodd" fill-opacity="0.9">
        <path d="M19.2136235,12.6450953 C20.6577405,11.1567519 20.6408828,8.7815372 19.1723398,7.31299423 C17.6883475,5.82900192 15.2823206,5.82900192 13.7983283,7.31299423 C13.6060635,7.50525906 13.3621912,7.74049974 13.0655986,8.0199452 L12.2426934,8.79527533 L11.4197881,8.0199452 C11.1231956,7.74049974 10.8793233,7.50525906 10.6870585,7.31299423 C9.20306616,5.82900192 6.79703924,5.82900192 5.31304693,7.31299423 C3.84452199,8.78151917 3.82756803,11.1568704 5.25865851,12.6326173 L12.2426509,19.6166823 L19.2136235,12.6450953 Z M4.46451879,6.46446609 C6.41714025,4.51184464 9.58296515,4.51184464 11.5355866,6.46446609 C11.7183933,6.6472728 11.9540956,6.87463262 12.2426934,7.14654555 C12.5312912,6.87463262 12.7669935,6.6472728 12.9498002,6.46446609 C14.9024216,4.51184464 18.0682465,4.51184464 20.020868,6.46446609 C21.9553262,8.39892429 21.9733205,11.5241205 20.0748509,13.4807312 L12.9498002,20.6066017 C12.5592963,20.9971464 11.9261313,20.9971796 11.5355866,20.6066757 L4.41012597,13.4811411 C2.51206629,11.5241205 2.53006059,8.39892429 4.46451879,6.46446609 Z" id="Combined-Shape" fill="#000000"></path>
    </g>
</svg>