<?xml version="1.0" encoding="UTF-8"?>
<svg width="40px" height="40px" viewBox="0 0 40 40" version="1.1" xmlns="http://www.w3.org/2000/svg" xmlns:xlink="http://www.w3.org/1999/xlink">
    <title>Icons/7 特殊/icons_play</title>
    <g id="Icons/7-特殊/icons_play" stroke="none" stroke-width="1" fill="none" fill-rule="evenodd">
        <g id="PlayBtn备份-6">
            <circle id="Mask" fill-opacity="0.1" fill="#000000" cx="20" cy="20" r="20"></circle>
            <path d="M20,0 C31.045695,0 40,8.954305 40,20 C40,31.045695 31.045695,40 20,40 C8.954305,40 0,31.045695 0,20 C0,8.954305 8.954305,0 20,0 Z M20,1.2 C9.6170467,1.2 1.2,9.6170467 1.2,20 C1.2,30.3829533 9.6170467,38.8 20,38.8 C30.3829533,38.8 38.8,30.3829533 38.8,20 C38.8,9.6170467 30.3829533,1.2 20,1.2 Z M16,12.7231797 C16.1740269,12.7231797 16.3450412,12.768595 16.4961389,12.8549365 L27.4805745,19.1317569 C27.9600919,19.4057668 28.1266887,20.0166215 27.8526787,20.4961389 C27.7640894,20.6511702 27.6356058,20.7796538 27.4805745,20.8682431 L16.4961389,27.1450635 C16.0166215,27.4190734 15.4057668,27.2524767 15.1317569,26.7729593 C15.0454153,26.6218616 15,26.4508473 15,26.2768203 L15,13.7231797 C15,13.1708949 15.4477153,12.7231797 16,12.7231797 Z" id="Combined-Shape"  fill-opacity="0.8" fill="#FFFFFF"></path>
            <rect id="BG" fill-opacity="0" fill="#FFFFFF" x="0" y="0" width="40" height="40"></rect>
        </g>
    </g>
</svg>