<svg width="20" height="20" viewBox="0 0 20 20" fill="none" xmlns="http://www.w3.org/2000/svg">
<path fill-rule="evenodd" clip-rule="evenodd" d="M3.33325 2.50008C3.33325 2.03984 3.70635 1.66675 4.16659 1.66675H15.8333C16.2935 1.66675 16.6666 2.03984 16.6666 2.50008V17.5001C16.6666 17.9603 16.2935 18.3334 15.8333 18.3334H4.16659C3.70635 18.3334 3.33325 17.9603 3.33325 17.5001V2.50008ZM7.08325 6.66675C7.77361 6.66675 8.33325 6.1071 8.33325 5.41675C8.33325 4.72639 7.77361 4.16675 7.08325 4.16675C6.3929 4.16675 5.83325 4.72639 5.83325 5.41675C5.83325 6.1071 6.3929 6.66675 7.08325 6.66675ZM5.83325 8.33342V9.58342H12.0833V8.33342H5.83325ZM5.83325 10.8334V12.0834H9.16659V10.8334H5.83325ZM5.83325 13.3334V14.5834H9.16659V13.3334H5.83325Z" fill="white"/>
</svg>
