<?xml version="1.0" encoding="UTF-8"?>
<svg width="24px" height="24px" viewBox="0 0 24 24" version="1.1" xmlns="http://www.w3.org/2000/svg" xmlns:xlink="http://www.w3.org/1999/xlink">
    <title>0.图标/04.特殊/icons_groupdelete</title>
    <g id="0.图标/04.特殊/icons_groupdelete" stroke="none" stroke-width="1" fill="none" fill-rule="evenodd" fill-opacity="0.9">
        <path d="M6.5,23.199 L6.5,24 L3.5,24 L3.5,23.199 L6.5,23.199 Z M11,23.199 L11,24 L8,24 L8,23.199 L11,23.199 Z M15.5,23.199 L15.5,24 L12.5,24 L12.5,23.199 L15.5,23.199 Z M20,23.199 L20,24 L17,24 L17,23.199 L20,23.199 Z M21.5007158,23.9840406 L21.5010742,23.177488 C22.1895241,23.0735462 22.7629169,22.618661 23.0331919,22.0008934 L23.8836973,22.0011791 C23.5667104,23.0645483 22.6349547,23.8629307 21.5007158,23.9840406 Z M2.00026832,23.0336997 L1.99988107,23.8840131 C1.09704882,23.6152732 0.385070842,22.9034241 0.116150799,22.0006694 L0.96684344,22.0009742 C1.16856261,22.4619881 1.53909153,22.8322839 2.00026832,23.0336997 Z M0.799,17.5 L0.799,20.5 L0,20.5 L0,17.5 L0.799,17.5 Z M24,17.5 L24,20.5 L23.2,20.5 L23.2,17.5 L24,17.5 Z M0.799,13 L0.799,16 L0,16 L0,13 L0.799,13 Z M24,13 L24,16 L23.2,16 L23.2,13 L24,13 Z M0.799,8.5 L0.799,11.5 L0,11.5 L0,8.5 L0.799,8.5 Z M24,8.5 L24,11.5 L23.2,11.5 L23.2,8.5 L24,8.5 Z M0.799,4 L0.799,7 L0,7 L0,4 L0.799,4 Z M24,3.999 L24,6.999 L23.2,6.999 L23.2,3.999 L24,3.999 Z M1.99988107,0.115986869 L1.99979137,0.966508643 C1.38117935,1.23687609 0.925762119,1.8111419 0.822262429,2.5005833 L0.0158572265,2.50024265 C0.136659738,1.36519323 0.935682826,0.432759502 1.99988107,0.115986869 Z M21.5007158,0.0159593975 C22.806937,0.155432973 23.8446155,1.19313695 23.9840498,2.49936991 L23.1775947,2.49963307 C23.0474713,1.63567567 22.3646889,0.952773322 21.5007908,0.822469192 L21.5007158,0.0159593975 Z M6.5,0 L6.5,0.8 L3.5,0.8 L3.5,0 L6.5,0 Z M11,0 L11,0.8 L8,0.8 L8,0 L11,0 Z M15.5,0 L15.5,0.8 L12.5,0.8 L12.5,0 L15.5,0 Z M20,0 L20,0.8 L17,0.8 L17,0 L20,0 Z" id="形状结合" fill="#000000"></path>
        <rect id="图标颜色" fill="#000000" x="6.76923077" y="11.5384615" width="10.4615385" height="1"></rect>
    </g>
</svg>