<?xml version="1.0" encoding="UTF-8"?>
<svg width="16px" height="16px" viewBox="0 0 16 16" version="1.1" xmlns="http://www.w3.org/2000/svg" xmlns:xlink="http://www.w3.org/1999/xlink">
    <title>0.图标/其他素材/search/搜索联想@3x</title>
    <g id="0.图标/其他素材/search/搜索联想" stroke="none" stroke-width="1" fill="none" fill-rule="evenodd" fill-opacity="0.5">
        <path d="M8,1 C10.7614237,1 13,3.23857625 13,6 C13,8.59243394 11.0270268,10.7240553 8.50070198,10.9752426 L8.5,15 L7.5,15 L7.50030016,10.9753422 C4.97349494,10.724619 3,8.59277672 3,6 C3,3.23857625 5.23857625,1 8,1 Z M8,2 C5.790861,2 4,3.790861 4,6 C4,8.209139 5.790861,10 8,10 C10.209139,10 12,8.209139 12,6 C12,3.790861 10.209139,2 8,2 Z" id="形状结合" fill="#000000" transform="translate(8.000000, 8.000000) rotate(-45.000000) translate(-8.000000, -8.000000) "></path>
    </g>
</svg>