<?xml version="1.0" encoding="UTF-8"?>
<svg width="24px" height="24px" viewBox="0 0 24 24" version="1.1" xmlns="http://www.w3.org/2000/svg" xmlns:xlink="http://www.w3.org/1999/xlink">
    <title>Icon / Umbrella_Outlined</title>
    <g id="Icon-/-Umbrella_Outlined" stroke="none" stroke-width="1" fill="none" fill-rule="evenodd">
        <rect id="BG" fill="#D8D8D8" opacity="0" x="0" y="0" width="24" height="24"></rect>
        <path d="M12,2 C12.2982338,2 12.5456468,2.21758961 12.592147,2.50267688 L12.6,2.6 L12.6010412,3.01776486 C17.8440508,3.32857686 22,7.67895146 22,13 L21.9967895,13.2559004 C21.046151,12.470693 19.8280436,12 18.5,12 C17.2225748,12 16.0468652,12.4354959 15.1139221,13.1657815 C14.3840644,12.6635854 13.5269237,12.333047 12.6007681,12.2324341 L12.6,19.4865723 C12.6,20.8672841 11.5237614,21.996627 10.1644281,22.0814571 L10,22.0865723 L9.7878418,22.0865723 C8.40712992,22.0865723 7.27778704,21.0103337 7.19295698,19.6510004 L7.1878418,19.4865723 L7.1878418,19.241272 C7.1878418,18.9099011 7.45647095,18.641272 7.7878418,18.641272 C8.08607556,18.641272 8.33348855,18.8588616 8.37998881,19.1439489 L8.3878418,19.241272 L8.3878418,19.4865723 C8.3878418,20.2142886 8.94307067,20.8123244 9.65301245,20.8801635 L9.7878418,20.8865723 L10,20.8865723 C10.7277164,20.8865723 11.3257521,20.3313434 11.3935912,19.6214016 L11.4,19.4865723 L11.4002423,12.2323266 C10.4737184,12.3328179 9.61631972,12.6634626 8.88676022,13.1661188 C7.95313483,12.4354959 6.77742517,12 5.5,12 C4.17152786,12 2.95306294,12.4709968 2.00248315,13.2551126 L2,13 C2,7.6786123 6.15647897,3.32802229 11.3999614,3.01770547 L11.4,2.6 C11.4,2.26862915 11.6686292,2 12,2 Z M12,4.2 C7.83419503,4.2 4.34446389,7.09461615 3.43237848,10.9748856 L3.396,11.138 L3.49719998,11.1047784 C4.04549582,10.9332948 4.61887827,10.8318643 5.20558861,10.8063838 L5.5,10.8 C6.61133984,10.8 7.68292745,11.0721377 8.63654847,11.5781472 L8.931,11.744 L9.00359486,11.7062534 C9.83068278,11.2917402 10.740587,11.0512855 11.6842592,11.0073397 L12,11 C13.055876,11 14.0768806,11.2455326 14.9961151,11.7058039 L15.069,11.744 L15.1066215,11.7217953 C16.0378755,11.1736924 17.0944969,10.8558807 18.1979547,10.8067184 L18.5,10.8 C19.1894437,10.8 19.8633175,10.9047557 20.5029815,11.1049562 L20.601,11.138 L20.5675857,10.9822407 C19.6745371,7.17560833 16.3100916,4.32104 12.2594653,4.20375184 L12,4.2 Z" id="形状结合" fill="#07C160"></path>
    </g>
</svg>