<?xml version="1.0" encoding="UTF-8"?>
<svg width="30px" height="30px" viewBox="0 0 30 30" version="1.1" xmlns="http://www.w3.org/2000/svg" xmlns:xlink="http://www.w3.org/1999/xlink">
    <title>0.图标/面型/icons_filled_tag</title>
    <g id="页面3" stroke="none" stroke-width="1" fill="none" fill-rule="evenodd">
        <g id="谁可以看-/-标签" transform="translate(-570.000000, -1498.000000)">
            <g id="编组-10" transform="translate(538.000000, 1490.000000)">
                <g id="0.图标/面型/icons_filled_tag" transform="translate(32.000000, 8.000000)">
                    <rect id="头像" fill="#F7F7F7" x="0" y="0" width="30" height="30" rx="3"></rect>
                    <g id="编组" transform="translate(3.000000, 3.000000)" fill="#000000" fill-opacity="0.5">
                        <g id="icon28">
                            <path d="M20,3 C20.5522847,3 21,3.44771525 21,4 L21,10.5857864 C21,10.8510029 20.8946432,11.1053568 20.7071068,11.2928932 L11.2071068,20.7928932 C10.8165825,21.1834175 10.1834175,21.1834175 9.79289322,20.7928932 L3.20710678,14.2071068 C2.81658249,13.8165825 2.81658249,13.1834175 3.20710678,12.7928932 L12.7071068,3.29289322 C12.8946432,3.10535684 13.1489971,3 13.4142136,3 L20,3 Z M16,6 C14.8954305,6 14,6.8954305 14,8 C14,9.1045695 14.8954305,10 16,10 C17.1045695,10 18,9.1045695 18,8 C18,6.8954305 17.1045695,6 16,6 Z" id="Combined-Shape"></path>
                        </g>
                    </g>
                </g>
            </g>
        </g>
    </g>
</svg>