<svg width="24" height="24" viewBox="0 0 24 24" fill="none" xmlns="http://www.w3.org/2000/svg">
<path fill-rule="evenodd" clip-rule="evenodd" d="M17.6568 12L16.8083 11.1515L18.9296 9.03013C20.0231 7.93666 20.0231 6.1638 18.9296 5.07033C17.8362 3.97686 16.0633 3.97686 14.9698 5.07033L11.0807 8.95942C9.98727 10.0529 9.98727 11.8257 11.0807 12.9192L10.2322 13.7677C8.67012 12.2056 8.67012 9.67299 10.2322 8.11089L14.1213 4.2218C15.6834 2.65971 18.2161 2.65971 19.7782 4.2218C21.3403 5.7839 21.3403 8.31656 19.7782 9.87866L17.6568 12ZM6.34313 12L7.19165 12.8485L5.07033 14.9698C3.97686 16.0633 3.97686 17.8362 5.07033 18.9296C6.1638 20.0231 7.93666 20.0231 9.03013 18.9296L12.9192 15.0405C14.0127 13.9471 14.0127 12.1742 12.9192 11.0807L13.7677 10.2322C15.3298 11.7943 15.3298 14.327 13.7677 15.8891L9.87866 19.7782C8.31656 21.3403 5.7839 21.3403 4.2218 19.7782C2.65971 18.2161 2.65971 15.6834 4.2218 14.1213L6.34313 12Z" fill="black" fill-opacity="0.9"/>
</svg>
