<?xml version="1.0" encoding="UTF-8"?>
<svg width="40px" height="40px" viewBox="0 0 40 40" version="1.1" xmlns="http://www.w3.org/2000/svg" xmlns:xlink="http://www.w3.org/1999/xlink">
    <title>Icons/7 特殊/icons_download</title>
    <g id="Icons/7-特殊/icons_download" stroke="none" stroke-width="1" fill="none" fill-rule="evenodd">
        <g id="PlayBtn备份-6">
            <circle id="Mask" fill-opacity="0.1" fill="#000000" cx="20" cy="20" r="20"></circle>
            <path d="M20,0 C31.045695,0 40,8.954305 40,20 C40,31.045695 31.045695,40 20,40 C8.954305,40 0,31.045695 0,20 C0,8.954305 8.954305,0 20,0 Z M20,1.2 C9.6170467,1.2 1.2,9.6170467 1.2,20 C1.2,30.3829533 9.6170467,38.8 20,38.8 C30.3829533,38.8 38.8,30.3829533 38.8,20 C38.8,9.6170467 30.3829533,1.2 20,1.2 Z M20.941844,11.5 L20.941,24.4577831 L25.6579221,19.7406085 L27.0721356,21.154822 L20.3546212,27.8723365 C20.1593591,28.0675986 19.8427766,28.0675986 19.6475144,27.8723365 L12.93,21.154822 L14.3442136,19.7406085 L18.941,24.3377831 L18.941844,11.5 L20.941844,11.5 Z" id="形状结合" fill="#FFFFFF"></path>
            <rect id="BG" fill-opacity="0" fill="#FFFFFF" x="0" y="0" width="40" height="40"></rect>
        </g>
    </g>
</svg>