<?xml version="1.0" encoding="UTF-8"?><svg version="1.1" width="16px" height="16px" viewBox="0 0 16.0 16.0" xmlns="http://www.w3.org/2000/svg" xmlns:xlink="http://www.w3.org/1999/xlink"><defs><clipPath id="i0"><path d="M6.66666667,0 C10.348565,0 13.3333333,2.98476833 13.3333333,6.66666667 C13.3333333,10.348565 10.348565,13.3333333 6.66666667,13.3333333 C2.98476833,13.3333333 0,10.348565 0,6.66666667 C0,2.98476833 2.98476833,0 6.66666667,0 Z M6.66666667,0.8 C3.42659613,0.8 0.8,3.42659613 0.8,6.66666667 C0.8,9.9067372 3.42659613,12.5333333 6.66666667,12.5333333 C9.9067372,12.5333333 12.5333333,9.9067372 12.5333333,6.66666667 C12.5333333,3.42659613 9.9067372,0.8 6.66666667,0.8 Z M6.66666667,8.93554687 C6.98404948,8.93554687 7.22330729,9.17480469 7.22330729,9.4921875 C7.22330729,9.8046875 6.98404948,10.0488281 6.66666667,10.0488281 C6.35416667,10.0488281 6.11002604,9.8046875 6.11002604,9.4921875 C6.11002604,9.17480469 6.35416667,8.93554687 6.66666667,8.93554687 Z M7.10611979,2.95410156 L7.04752604,7.66113281 L6.28580729,7.66113281 L6.22721354,2.95410156 L7.10611979,2.95410156 Z"></path></clipPath></defs><g transform="translate(1.333333333333333 1.333333333333333)"><g clip-path="url(#i0)"><polygon points="0,0 13.3333333,0 13.3333333,13.3333333 0,13.3333333 0,0" stroke="none" fill="rgba(0, 0, 0, 0.9)"></polygon></g></g></svg>