<?xml version="1.0" encoding="UTF-8"?>
<svg width="210px" height="28px" viewBox="0 0 210 28" version="1.1" xmlns="http://www.w3.org/2000/svg" xmlns:xlink="http://www.w3.org/1999/xlink">
    <title>BG_0_default</title>
    <g id="Components-组件" stroke="none" stroke-width="1" fill="none" fill-rule="evenodd" fill-opacity="0.1">
        <g id="WeChatPC-Components-for-Mac" transform="translate(-89.000000, -337.000000)" fill="#000000" fill-rule="nonzero">
            <path d="M294.007682,337.5 L93.9923179,337.5 C91.5088772,337.5 89.5,339.513349 89.5,342.00552 L89.5,359.99448 C89.5,362.47893 91.5181551,364.5 93.9923179,364.5 L294.007682,364.5 C296.491123,364.5 298.5,362.486651 298.5,359.99448 L298.5,342.00552 C298.5,339.52107 296.481845,337.5 294.007682,337.5 Z M93.9923179,338.5 L294.007682,338.5 C295.929237,338.5 297.5,340.073032 297.5,342.00552 L297.5,359.99448 C297.5,361.934863 295.93834,363.5 294.007682,363.5 L93.9923179,363.5 C92.0707632,363.5 90.5,361.926968 90.5,359.99448 L90.5,342.00552 C90.5,340.065137 92.0616603,338.5 93.9923179,338.5 Z" id="BG_0_default"></path>
        </g>
    </g>
</svg>