<svg width="16" height="16" viewBox="0 0 16 16" fill="none" xmlns="http://www.w3.org/2000/svg">
<path fill-rule="evenodd" clip-rule="evenodd" d="M10.0741 2.66785C11.28 2.70656 12.2456 3.68727 12.2456 4.889V5.83899C12.2456 6.47183 11.9093 7.37937 11.4979 7.86199L11.2949 8.10007C10.964 8.48831 11.0673 8.98244 11.5301 9.20584L14.7079 10.7398C15.0533 10.9065 15.3333 11.3473 15.3333 11.7308V12.112C15.3333 12.4183 15.0802 12.6667 14.7711 12.6667H14.3221C14.2405 11.8929 13.7209 11.1264 13.029 10.7889L9.41796 9.0275L9.54308 8.87919C10.1843 8.11904 10.6667 6.80141 10.6667 5.80679V4.66681C10.6667 3.92957 10.4488 3.24294 10.0741 2.66785ZM5.22128 8.23343C4.73088 7.65219 4.33334 6.56633 4.33334 5.80619V4.66639C4.33334 3.19378 5.53024 2 7 2C8.47276 2 9.66667 3.19532 9.66667 4.66681V5.80679C9.66667 6.5662 9.26729 7.65524 8.77873 8.23438L8.53771 8.52009C8.14469 8.98597 8.26746 9.57893 8.81704 9.84701L12.5906 11.6877C13.0008 11.8878 13.3333 12.4168 13.3333 12.877V13.3344C13.3333 13.702 13.0327 14 12.6657 14H1.33429C0.965575 14 0.666672 13.7038 0.666672 13.3344V12.877C0.666672 12.4202 0.998772 11.8879 1.4094 11.6876L5.18297 9.8461C5.73026 9.57903 5.85751 8.98751 5.4623 8.51909L5.22128 8.23343Z" fill="#576B95"/>
</svg>
