<?xml version="1.0" encoding="UTF-8"?>
<svg width="24px" height="24px" viewBox="0 0 24 24" version="1.1" xmlns="http://www.w3.org/2000/svg" xmlns:xlink="http://www.w3.org/1999/xlink">
    <title>win逐条转发 定1</title>
    <g id="Mac-3" stroke="none" stroke-width="1" fill="none" fill-rule="evenodd">
        <g id="笔记备份" transform="translate(-812.000000, -64.000000)">
            <g id="win逐条转发-定1" transform="translate(812.000000, 64.000000)">
                <rect id="矩形备份" fill-opacity="0" fill="#FFFFFF" x="0" y="0" width="24" height="24"></rect>
                <path d="M14.6184138,3.9772964 L20.0843017,9.47524451 C20.4853011,9.878596 20.4853011,10.5300669 20.0843017,10.9334184 L14.6184936,16.4312862 C14.2524358,16.7994912 13.6571982,16.8012318 13.2889933,16.4351739 C13.1114794,16.2586952 13.0116752,16.0187102 13.0116969,15.7683984 L13.0119805,12.4972395 L13.0119805,12.4972395 C10.3058209,12.6513099 7.96449617,14.1774794 6.66472652,16.3950583 C5.9732366,17.5748315 5.84320882,17.9477288 5.28367015,19.3383872 C5.25462586,19.4105729 5.22230934,19.5058145 5.15523641,19.6650034 C4.92141713,20.2199429 3.99530137,20.2109968 4.00001795,19.4304993 C4.0003914,19.397663 4.00001795,18.8360128 4.00001795,18.4010835 C4.00001795,18.2295235 4.02467851,17.1200329 4.03618058,16.9572169 C4.08602588,16.2516386 4.17391097,15.4268954 4.26383593,14.9522918 C5.06405638,10.7289083 8.65250528,7.50408556 13.0117503,7.21559058 L13.0116171,4.6401513 C13.0115903,4.12094691 13.4324669,3.70002684 13.9516712,3.7 C14.2019716,3.69998706 14.4419431,3.79979055 14.6184138,3.9772964 Z M19.1966564,9.8729015 L13.9172947,4.56257359 L13.9172947,4.56257359 L13.9184965,8.06957431 L13.0712772,8.12564331 C9.19400419,8.38224136 6.04123836,11.2104211 5.23354581,14.9032423 C5.10186998,15.5052725 5.04489921,15.921453 4.9888961,16.5600484 C4.96916785,16.7850067 4.95659096,17.1159738 4.95659096,17.3332394 L4.95659096,17.6812311 L5.10115471,17.3726087 C5.40198004,16.69069 5.70717748,16.1859957 6.10180781,15.5794848 C7.54040223,13.3684958 9.93783035,11.8406019 12.7130304,11.6042692 C12.8035217,11.5934913 13.0000098,11.5858956 13.3024946,11.5814822 C13.6049794,11.5770687 13.8104033,11.5788001 13.9187662,11.5866766 L13.9172947,15.8451773 L19.1966296,10.5357347 C19.3789273,10.3523974 19.3789393,10.0562536 19.1966564,9.8729015 Z" id="形状结合备份" fill-opacity="0.9" fill="#000000"></path>
            </g>
        </g>
    </g>
</svg>