<?xml version="1.0" encoding="UTF-8"?>
<svg width="72px" height="72px" viewBox="0 0 72 72" version="1.1" xmlns="http://www.w3.org/2000/svg" xmlns:xlink="http://www.w3.org/1999/xlink">
    <title>0.图标/线型/icons_outlined_error@1x</title>
    <g id="0.图标/线型/icons_outlined_error" stroke="none" stroke-width="1" fill="none" fill-rule="evenodd">
        <rect id="矩形备份" fill-opacity="0" fill="#D8D8D8" x="0" y="0" width="72" height="72"></rect>
        <g id="common_icons_info" transform="translate(7.000000, 7.000000)" fill="#FA5151">
            <path d="M29,4.83333333 C42.3468815,4.83333333 53.1666667,15.6531185 53.1666667,29 C53.1666667,42.3468815 42.3468815,53.1666667 29,53.1666667 C15.6531185,53.1666667 4.83333333,42.3468815 4.83333333,29 C4.83333333,15.6531185 15.6531185,4.83333333 29,4.83333333 Z M29,7.73333333 C17.2547443,7.73333333 7.73333333,17.2547443 7.73333333,29 C7.73333333,40.7452557 17.2547443,50.2666667 29,50.2666667 C40.7452557,50.2666667 50.2666667,40.7452557 50.2666667,29 C50.2666667,17.2547443 40.7452557,7.73333333 29,7.73333333 Z M29,37.2246908 C30.1505127,37.2246908 31.0178223,38.0920003 31.0178223,39.242513 C31.0178223,40.3753255 30.1505127,41.2603353 29,41.2603353 C27.8671875,41.2603353 26.9821777,40.3753255 26.9821777,39.242513 C26.9821777,38.0920003 27.8671875,37.2246908 29,37.2246908 Z M30.5930176,15.5419515 L30.3806152,32.6049398 L27.6193848,32.6049398 L27.4069824,15.5419515 L30.5930176,15.5419515 Z" id="Combined-Shape"></path>
        </g>
    </g>
</svg>