<?xml version="1.0" encoding="UTF-8"?>
<svg width="72px" height="72px" viewBox="0 0 72 72" version="1.1" xmlns="http://www.w3.org/2000/svg" xmlns:xlink="http://www.w3.org/1999/xlink">
    <title>0.图标/线型/icons_outlined_done3@1x</title>
    <g id="0.图标/线型/icons_outlined_done3" stroke="none" stroke-width="1" fill="none" fill-rule="evenodd">
        <rect id="矩形备份" fill-opacity="0" fill="#D8D8D8" x="0" y="0" width="72" height="72"></rect>
        <g id="common_icons_miniprogram" transform="translate(7.000000, 7.000000)" fill="#07C160">
            <path d="M29,4.83333333 C42.3468815,4.83333333 53.1666667,15.6531185 53.1666667,29 C53.1666667,42.3468815 42.3468815,53.1666667 29,53.1666667 C15.6531185,53.1666667 4.83333333,42.3468815 4.83333333,29 C4.83333333,15.6531185 15.6531185,4.83333333 29,4.83333333 Z M29,7.73333333 C17.2547443,7.73333333 7.73333333,17.2547443 7.73333333,29 C7.73333333,40.7452557 17.2547443,50.2666667 29,50.2666667 C40.7452557,50.2666667 50.2666667,40.7452557 50.2666667,29 C50.2666667,17.2547443 40.7452557,7.73333333 29,7.73333333 Z M40.2054873,21.1458333 L42.2560971,23.1964431 L27.8775407,37.5749995 C26.9337736,38.5187665 25.4036249,38.5187665 24.4598579,37.5749995 L16.9166667,30.0318082 L18.9672764,27.9811985 L26.1686993,35.1826214 L40.2054873,21.1458333 Z" id="Combined-Shape"></path>
        </g>
    </g>
</svg>