<?xml version="1.0" encoding="UTF-8"?>
<svg width="24px" height="24px" viewBox="0 0 24 24" version="1.1" xmlns="http://www.w3.org/2000/svg" xmlns:xlink="http://www.w3.org/1999/xlink">
    <title>0.图标/04.特殊/icons_groupadd</title>
    <g id="0.图标/04.特殊/icons_groupadd" stroke="none" stroke-width="1" fill="none" fill-rule="evenodd" fill-opacity="0.9">
        <path d="M2.65073766,23.1945143 L2.8,23.2 L3,23.199 L3,24 L2.8,24 C1.35519582,24 0.165978709,22.9057017 0.0159593975,21.5007158 L0.82251196,21.5010742 C0.960439179,22.4146231 1.71632007,23.1255755 2.65073766,23.1945143 Z M7.2,23.199 L7.2,24 L4.2,24 L4.2,23.199 L7.2,23.199 Z M11.4,23.199 L11.4,24 L8.4,24 L8.4,23.199 L11.4,23.199 Z M15.6,23.199 L15.6,24 L12.6,24 L12.6,23.199 L15.6,23.199 Z M19.8,23.199 L19.8,24 L16.8,24 L16.8,23.199 L19.8,23.199 Z M21.2,24 L21,24 L21,23.199 L21.2,23.2 C22.2023328,23.2 23.0324499,22.4626568 23.1775308,21.5007908 L23.9840406,21.5007158 C23.8340213,22.9057017 22.6448042,24 21.2,24 Z M0.799,17.3 L0.799,20.3 L0,20.3 L0,17.3 L0.799,17.3 Z M24,17.3 L24,20.3 L23.2,20.3 L23.2,17.3 L24,17.3 Z M0.799,13.1 L0.799,16.1 L0,16.1 L0,13.1 L0.799,13.1 Z M24,13.1 L24,16.1 L23.2,16.1 L23.2,13.1 L24,13.1 Z M0.799,8.9 L0.799,11.9 L0,11.9 L0,8.9 L0.799,8.9 Z M24,8.9 L24,11.9 L23.2,11.9 L23.2,8.9 L24,8.9 Z M0.799,4.7 L0.799,7.7 L0,7.7 L0,4.7 L0.799,4.7 Z M24,4.7 L24,7.7 L23.2,7.7 L23.2,4.7 L24,4.7 Z M3,0 L3,0.8 L2.8,0.8 C1.7456382,0.8 0.881834878,1.61587779 0.805485736,2.65073766 L0.8,2.8 L0.799,3.5 L0,3.5 L0,2.8 C0,1.2536027 1.2536027,0 2.8,0 L3,0 Z M21.2,0 C22.7463973,0 24,1.2536027 24,2.8 L24,3.5 L23.2,3.5 L23.2,2.8 C23.2,1.7456382 22.3841222,0.881834878 21.3492623,0.805485736 L21.2,0.8 L21,0.8 L21,0 L21.2,0 Z M7.2,0 L7.2,0.8 L4.2,0.8 L4.2,0 L7.2,0 Z M11.4,0 L11.4,0.8 L8.4,0.8 L8.4,0 L11.4,0 Z M15.6,0 L15.6,0.8 L12.6,0.8 L12.6,0 L15.6,0 Z M19.8,0 L19.8,0.8 L16.8,0.8 L16.8,0 L19.8,0 Z" id="形状结合" fill="#000000"></path>
        <path d="M12.4615385,6.76923077 L12.4612308,11.5382308 L17.2307692,11.5384615 L17.2307692,12.4615385 L12.4612308,12.4612308 L12.4615385,17.2307692 L11.5384615,17.2307692 L11.5382308,12.4612308 L6.76923077,12.4615385 L6.76923077,11.5384615 L11.5382308,11.5382308 L11.5384615,6.76923077 L12.4615385,6.76923077 Z" id="图标颜色" fill="#000000"></path>
    </g>
</svg>