<?xml version="1.0" encoding="UTF-8"?>
<svg width="24px" height="24px" viewBox="0 0 24 24" version="1.1" xmlns="http://www.w3.org/2000/svg" xmlns:xlink="http://www.w3.org/1999/xlink">
    <title>icons_outlined_stickychat_dark</title>
    <g id="icons_outlined_stickychat_dark" stroke="none" stroke-width="1" fill="none" fill-rule="evenodd">
        <rect id="bg" x="0" y="0" width="24" height="24"></rect>
        <path d="M8.75,11.5 L21.25,11.5 C21.6642136,11.5 22,11.8357864 22,12.25 C22,12.6642136 21.6642136,13 21.25,13 L8.75,13 C8.33578644,13 8,12.6642136 8,12.25 C8,11.8357864 8.33578644,11.5 8.75,11.5 Z" id="矩形" fill="#FFFFFF" opacity="0.300000012"></path>
        <rect id="矩形" fill="#FFFFFF" opacity="0.300000012" x="2" y="11.5" width="4" height="1.5" rx="0.75"></rect>
        <path d="M8.75,16.5 L21.25,16.5 C21.6642136,16.5 22,16.8357864 22,17.25 C22,17.6642136 21.6642136,18 21.25,18 L8.75,18 C8.33578644,18 8,17.6642136 8,17.25 C8,16.8357864 8.33578644,16.5 8.75,16.5 Z" id="矩形" fill="#FFFFFF" opacity="0.300000012"></path>
        <rect id="矩形" fill="#FFFFFF" opacity="0.300000012" x="2" y="16.5" width="4" height="1.5" rx="0.75"></rect>
        <path d="M9,6 L21,6 C21.5522847,6 22,6.44771525 22,7 C22,7.55228475 21.5522847,8 21,8 L9,8 C8.44771525,8 8,7.55228475 8,7 C8,6.44771525 8.44771525,6 9,6 Z" id="矩形" fill="#FFFFFF" opacity="0.5"></path>
        <rect id="矩形" fill="#FFFFFF" opacity="0.5" x="2" y="6" width="4" height="2" rx="1"></rect>
    </g>
</svg>