<?xml version="1.0" encoding="UTF-8"?>
<svg width="20px" height="20px" viewBox="0 0 20 20" version="1.1" xmlns="http://www.w3.org/2000/svg" xmlns:xlink="http://www.w3.org/1999/xlink">
    <title>icon_qrcode_default</title>
    <g id="icon_qrcode_default" stroke="none" stroke-width="1" fill="none" fill-rule="evenodd" fill-opacity="0.9">
        <g id="0.图标/线型/icons_outlined_qr_code" transform="translate(4.000000, 4.000000)" fill="#000000">
            <path d="M11.3333333,8 C11.7015232,8 12,8.29847683 12,8.66666667 L12,11.3333333 C12,11.7015232 11.7015232,12 11.3333333,12 L8.66666667,12 C8.29847683,12 8,11.7015232 8,11.3333333 L8,8.66666667 C8,8.29847683 8.29847683,8 8.66666667,8 L11.3333333,8 Z M3.33333333,8 C3.70152317,8 4,8.29847683 4,8.66666667 L4,11.3333333 C4,11.7015232 3.70152317,12 3.33333333,12 L0.666666667,12 C0.298476833,12 0,11.7015232 0,11.3333333 L0,8.66666667 C0,8.29847683 0.298476833,8 0.666666667,8 L3.33333333,8 Z M6.66666667,10.6666667 L6.66666667,12 L5.33333333,12 L5.33333333,10.6666667 L6.66666667,10.6666667 Z M11.2,8.8 L8.8,8.8 L8.8,11.2 L11.2,11.2 L11.2,8.8 Z M3.2,8.8 L0.8,8.8 L0.8,11.2 L3.2,11.2 L3.2,8.8 Z M6.66666667,8 L6.66666667,9.33333333 L5.33333333,9.33333333 L5.33333333,8 L6.66666667,8 Z M12,5.33333333 L12,6.66666667 L10.6666667,6.66666667 L10.6666667,5.33333333 L12,5.33333333 Z M9.33333333,5.33333333 L9.33333333,6.66666667 L8,6.66666667 L8,5.33333333 L9.33333333,5.33333333 Z M6,0 C6.36818983,0 6.66666667,0.298476833 6.66666667,0.666666667 L6.66666667,6 C6.66666667,6.36818983 6.36818983,6.66666667 6,6.66666667 L0.666666667,6.66666667 C0.298476833,6.66666667 0,6.36818983 0,6 L0,0.666666667 C0,0.298476833 0.298476833,0 0.666666667,0 L6,0 Z M5.86666667,0.8 L0.8,0.8 L0.8,5.86666667 L5.86666667,5.86666667 L5.86666667,0.8 Z M11.3333333,0 C11.7015232,0 12,0.298476833 12,0.666666667 L12,3.33333333 C12,3.70152317 11.7015232,4 11.3333333,4 L8.66666667,4 C8.29847683,4 8,3.70152317 8,3.33333333 L8,0.666666667 C8,0.298476833 8.29847683,0 8.66666667,0 L11.3333333,0 Z M4,2.66666667 L4,4 L2.66666667,4 L2.66666667,2.66666667 L4,2.66666667 Z M11.2,0.8 L8.8,0.8 L8.8,3.2 L11.2,3.2 L11.2,0.8 Z" id="Combined-Shape"></path>
        </g>
    </g>
</svg>