<?xml version="1.0" encoding="UTF-8"?>
<svg width="20px" height="20px" viewBox="0 0 20 20" version="1.1" xmlns="http://www.w3.org/2000/svg" xmlns:xlink="http://www.w3.org/1999/xlink">
    <title>voice_me_1</title>
    <g id="切图" stroke="none" stroke-width="1" fill="none" fill-rule="evenodd">
        <g id="voice_me_1" transform="translate(10.000000, 10.000000) scale(-1, 1) translate(-10.000000, -10.000000) translate(0.000000, 0.000000)">
            <path d="M16.25,10 C16.25,13.4168363 14.8510956,16.5102248 12.5893337,18.7495061 L11.2635099,17.4370047 C13.1859627,15.5336216 14.375,12.9042725 14.375,10 C14.375,7.09572751 13.1859627,4.4663784 11.2635099,2.56299531 L12.5893337,1.25049395 C14.8510956,3.48977519 16.25,6.58316369 16.25,10 Z M11.875,10 C11.875,12.2211069 10.9655784,14.2319418 9.4952426,15.6875 L8.1699167,14.3745056 C9.30065081,13.2548846 10,11.7082923 10,10 C10,8.29170767 9.30065081,6.74511542 8.1699167,5.62549436 L9.4952426,4.3125 C10.9655784,5.76805818 11.875,7.77889309 11.875,10 Z M6.4021517,7.37549633 C7.08047364,8.04725316 7.5,8.97512617 7.5,10 C7.5,11.0248738 7.08047364,11.9527468 6.4021517,12.6245037 L3.75,10 Z" id="Combined-Shape" fill-opacity="0.9" fill="#000000"></path>
            <rect id="BG" fill-opacity="0" fill="#FFFFFF" x="0" y="0" width="20" height="20"></rect>
        </g>
    </g>
</svg>