<?xml version="1.0" encoding="UTF-8"?>
<svg width="24px" height="24px" viewBox="0 0 24 24" version="1.1" xmlns="http://www.w3.org/2000/svg" xmlns:xlink="http://www.w3.org/1999/xlink">
    <title>icon_企业微信</title>
    <g id="icon_企业微信" stroke="none" stroke-width="1" fill="none" fill-rule="evenodd" fill-opacity="0.9">
        <g id="编组-19" fill="#000000" transform="translate(2.000000, 4.000000)">
            <path d="M13.5421807,13.4585032 L13.6120344,13.4676552 C13.6578043,13.4798578 13.7011072,13.5042632 13.7369884,13.5408712 L13.7369884,13.5408712 C13.7730537,13.5807902 13.809855,13.6203343 13.8479444,13.6589414 C14.3754911,14.1962545 15.0274262,14.5294748 15.7093543,14.6587898 C15.7327232,14.6614136 15.755908,14.664787 15.7789088,14.6689101 L15.7789088,14.6689101 L15.8134422,14.6751182 L15.8134422,14.6751182 L15.8477824,14.6824976 L15.9684966,14.7178961 C16.1273252,14.77421 16.2765912,14.8669869 16.4034821,14.9962269 L16.4034821,14.9962269 L16.4930389,15.0985707 C16.8512658,15.5591563 16.8214135,16.2303015 16.4034821,16.656144 C16.0820727,16.9836214 15.6179256,17.0772132 15.2149084,16.9368256 L15.095934,16.8876889 C14.9792951,16.8315568 14.8699981,16.7543752 14.7735524,16.656144 L14.7735524,16.656144 L14.6912293,16.5628333 C14.5891631,16.4340071 14.5178569,16.2883647 14.4769339,16.1358855 L14.4769339,16.1358855 L14.4622133,16.0742266 L14.4622133,16.0742266 L14.4508049,16.0120055 L14.4432607,15.9552662 L14.4432607,15.9552662 L14.4384765,15.8982458 L14.3870556,15.6736265 C14.2310625,15.078374 13.924076,14.5156167 13.46545,14.0486667 L13.46545,14.0486667 L13.3857752,13.9701407 L13.3660175,13.9549368 L13.3660175,13.9549368 L13.3475018,13.9379057 L13.3278131,13.9154161 L13.2918569,13.8565996 C13.2449949,13.75308 13.2634722,13.626394 13.3475018,13.5409649 C13.4012317,13.4860529 13.4717062,13.4585032 13.5421807,13.4585032 L13.5421807,13.4585032 Z M10.6826826,12.83245 C10.6466966,13.2159259 10.7976866,13.6027403 11.0997641,13.853752 C11.1132409,13.8650516 11.1270302,13.8759868 11.1411181,13.886639 L11.2570037,13.9637687 L11.3608156,14.0172985 L11.3608156,14.0172985 L11.4672864,14.0592556 C11.2971735,14.1214954 11.124725,14.1789777 10.9500714,14.2314716 L11.065029,14.1959914 C10.9381021,14.2359454 10.809989,14.2732631 10.6807404,14.3078545 C10.6523903,14.3155616 10.6238087,14.3230641 10.595172,14.3304328 C10.50129,14.3544702 10.4069203,14.3771662 10.3119824,14.3983935 C10.2596322,14.4102145 10.2069252,14.4215107 10.1540464,14.4323515 C10.0684722,14.4497819 9.98277837,14.4660743 9.89665447,14.4811586 C9.725632,14.5112136 9.55283839,14.5364091 9.37844437,14.5566497 L9.78035245,14.50075 C9.76193064,14.5037301 9.74348961,14.506655 9.72502948,14.5095243 L9.37848117,14.556556 L9.01041361,14.5922131 L8.64631241,14.6136684 L8.64631241,14.6136684 L8.28857375,14.6209324 C7.94172145,14.6209324 7.59008499,14.601254 7.24378472,14.5624595 C6.71126985,14.5026748 6.20580393,14.4076564 5.69665789,14.2588504 L5.69665789,14.2588504 L3.92544792,15.1645238 L3.33092285,15.4683203 L3.31093514,15.481041 L3.29025741,15.4930588 L3.28591025,15.4953312 L3.28142509,15.4977442 L3.2090444,15.5345152 C3.15923039,15.5561438 3.10639177,15.5717401 3.05110356,15.5797344 L2.96636913,15.5857346 C2.93333996,15.5857346 2.90093089,15.583167 2.86931526,15.5782178 C2.61628955,15.5386873 2.41425186,15.346559 2.35165873,15.0973972 L2.33489555,15.0014745 L2.33091641,14.9688412 L2.32845532,14.9360674 L2.33087041,14.9053785 L2.33452754,14.8749707 L2.33832267,14.8348878 L2.34446389,14.7955076 L2.35642431,14.7536911 L2.37114483,14.7128585 L2.61992165,12.7208456 L2.61992165,12.7197211 L2.41175529,12.5240582 C2.32257942,12.4371344 2.23306954,12.3460243 2.14437123,12.2521689 C1.7472107,11.8319625 1.36654753,11.3566293 1.10477515,10.9556961 C1.09658626,10.9431599 1.08844111,10.9306039 1.08033976,10.9180283 L0.943940505,10.6977342 C0.480129497,9.91574545 0.181089168,9.06503352 0.060557191,8.19080812 L0.0269739992,7.89868383 C0.00904136185,7.70337507 0,7.50715254 0,7.31051304 C0,6.31778632 0.222279878,5.35373379 0.660215398,4.44590516 C0.982962836,3.77684071 1.41574617,3.15556658 1.94715701,2.59932476 C2.33643758,2.19205425 2.77043499,1.82711663 3.24078783,1.508539 C4.39729879,0.725123336 5.77346316,0.222148224 7.24492556,0.0592225116 C7.60079417,0.0200531922 7.95187861,2.93098879e-14 8.28842654,2.93098879e-14 L8.64596212,0.00712516505 C8.88669717,0.0167318172 9.13187563,0.0358895917 9.37844437,0.0643763694 L9.327,0.059 L9.37848117,0.0642826629 L9.72014266,0.11023436 C11.5323298,0.387997925 13.1793562,1.18631822 14.4192967,2.38765311 L14.6469559,2.61759753 L14.8675593,2.86049135 C15.225106,3.27180007 15.531729,3.71511381 15.7830025,4.18408072 L15.9270893,4.46848843 L16.0628639,4.77118024 C16.3612805,5.48194267 16.530822,6.22349225 16.5685446,6.98357207 L16.5766323,7.31041934 L16.5714571,7.55836675 L16.5567228,7.80584563 C16.5390581,7.78466796 16.5226816,7.76330288 16.5033609,7.7434371 C16.4713284,7.71082724 16.4378916,7.68055873 16.4032503,7.6526279 L16.2910147,7.57277096 C16.2736892,7.56195866 16.2561446,7.55165978 16.2384016,7.54187392 C16.2167626,7.52990472 16.1948285,7.51873681 16.1726367,7.50833083 L16.2384016,7.54187392 C16.19883,7.52004898 16.1582713,7.50077585 16.1169539,7.48405032 L16.1726367,7.50833083 C16.1313857,7.4889878 16.089244,7.47227741 16.0464516,7.45819575 L16.1169539,7.48405032 C16.0752658,7.46717474 16.0328054,7.45289267 15.9898076,7.44119976 L16.0464516,7.45819575 C16.0036398,7.4441077 15.9601767,7.43265077 15.9163029,7.42382104 L15.9898076,7.44119976 C15.9475008,7.42969476 15.9046737,7.42069639 15.86155,7.41420051 L15.9163029,7.42382104 C15.8714229,7.41478882 15.8261131,7.40850568 15.7806309,7.40496743 L15.86155,7.41420051 C15.7747283,7.40112225 15.6867045,7.39818773 15.5993043,7.40536327 L15.642433,7.40264785 C15.6004639,7.40449646 15.5585692,7.40866992 15.51695,7.41516495 L15.5993043,7.40536327 C15.553154,7.40915219 15.5071776,7.41576 15.4616438,7.42518173 L15.51695,7.41516495 C15.4717903,7.42221251 15.4269549,7.43199343 15.3827008,7.44450354 L15.4616438,7.42518173 C15.4195395,7.43389387 15.3778136,7.44501203 15.3366788,7.45853229 L15.3827008,7.44450354 C15.3386625,7.45695265 15.2951998,7.47210439 15.2525658,7.48995464 L15.3366788,7.45853229 C15.2924656,7.47306436 15.2489352,7.4903715 15.2063515,7.51044886 L15.0887187,7.57457798 C15.0923989,7.49436521 15.0975511,7.41433985 15.0975511,7.33412708 C15.0975511,6.56161065 14.925321,5.80914741 14.5854609,5.09772762 C14.3293238,4.56191382 13.9839436,4.06302038 13.5583365,3.61454104 C12.6579676,2.66631615 11.456009,1.99365269 10.1094761,1.67294984 C9.91611021,1.62697141 9.71972503,1.5881745 9.52082257,1.55686249 L9.446,1.546 L9.20198212,1.51326636 C8.9946681,1.48915255 8.7889897,1.47303503 8.58745486,1.46496933 L8.28857375,1.45891659 L8.28857375,1.45891659 L8.00333911,1.46447304 L7.71125942,1.48128468 L7.71125942,1.48128468 L7.41402755,1.50904957 L7.09369543,1.55115554 L6.77759967,1.60600579 L6.77759967,1.60600579 L6.46622186,1.67339184 C5.84823272,1.82063422 5.26071895,2.04191097 4.71877913,2.33000741 L4.45170405,2.47955247 C4.01310456,2.7380415 3.60789444,3.04211637 3.24481692,3.38760192 L3.03209626,3.59982912 L2.82516389,3.8275932 C2.55824539,4.1367622 2.32752847,4.46750451 2.1358482,4.81548883 L1.99945166,5.07964226 L1.87793009,5.35007228 C1.65089695,5.8947699 1.52003165,6.46198782 1.4872749,7.0426336 L1.47908122,7.33403338 L1.48655678,7.60775395 C1.49722775,7.80313255 1.51928517,7.99773458 1.55248627,8.19076551 C1.55689401,8.21669748 1.56152413,8.24243255 1.56635217,8.26813773 L1.55248627,8.19076551 C1.56789547,8.28035451 1.58570508,8.36960509 1.60589082,8.45843781 L1.56635217,8.26813773 C1.5869374,8.37773642 1.61112074,8.48679197 1.63885746,8.59515797 L1.60589082,8.45843781 C1.62775903,8.55467467 1.65241598,8.65042111 1.67983081,8.74557615 L1.63885746,8.59515797 C1.66192441,8.68527938 1.68744895,8.77492389 1.71540537,8.86400726 L1.67983081,8.74557615 C1.70780518,8.84267328 1.73865115,8.9391546 1.77233593,9.03491282 L1.71540537,8.86400726 C1.74651571,8.96314064 1.78063758,9.06157915 1.81773552,9.15920673 L1.77233593,9.03491282 C1.80186355,9.11885314 1.83357252,9.20223782 1.86744077,9.28499458 L1.81773552,9.15920673 C1.85229152,9.2501449 1.88942973,9.34037947 1.92912148,9.42981663 L1.86744077,9.28499458 C1.9113042,9.39217448 1.95878946,9.49830116 2.00984857,9.60321758 L1.92912148,9.42981663 C1.96673428,9.51456929 2.00664014,9.59860589 2.04881466,9.68184662 L2.00984857,9.60321758 C2.05228366,9.69041334 2.09718729,9.77677316 2.14453193,9.8622069 L2.04881466,9.68184662 C2.09612191,9.77521791 2.14628363,9.86758782 2.19926541,9.9588437 L2.317,10.151 L2.35381142,10.2096049 C2.53611588,10.4887566 2.74439976,10.7540983 2.97617898,11.0035743 L3.21569796,11.2476856 C3.33309412,11.360883 3.45490644,11.4708945 3.58242296,11.5767828 C3.6654099,11.6457508 3.74453271,11.7081594 3.82383952,11.7679441 L3.82383952,11.7679441 L3.89629055,11.8315214 C3.98578928,11.9234683 4.04531539,12.0431107 4.06554588,12.1722903 L4.07320515,12.2706795 L4.06879581,12.3398349 L4.05780313,12.403243 L4.05780313,12.403243 L4.0435801,12.4601541 L4.00641079,12.6045593 L3.96654271,12.7595429 L3.96654271,12.7595429 L3.92544792,12.9193159 L3.8882309,13.0633741 L3.85244503,13.2020597 L3.85244503,13.2020597 L3.81927616,13.3308749 L3.79406045,13.4286698 L3.77236131,13.5127627 L3.77236131,13.5127627 L3.75450586,13.5818209 L3.69838387,13.8127138 L3.70600577,13.8525302 C3.71582136,13.8770404 3.73441177,13.8967363 3.75761384,13.9071436 L3.79535531,13.9152287 L3.81232207,13.9126431 C3.8247391,13.9092002 3.83966408,13.9019536 3.86064082,13.8894594 L3.86064082,13.8894594 L3.86248089,13.8885223 L3.92541112,13.8506649 L5.38035068,12.9771329 C5.39691127,12.9673874 5.41365586,12.9600783 5.43040045,12.9510824 L5.43043725,12.9509887 L5.52684805,12.9061531 C5.59104907,12.8804131 5.6552156,12.8630247 5.72001464,12.8542924 L5.81777098,12.8477242 L5.90096646,12.8519132 C5.95592308,12.857605 6.00965298,12.8689331 6.06117481,12.8856753 C6.25134555,12.9423677 6.4448284,12.9913762 6.64054234,13.0329819 L6.9356106,13.0899408 L6.9356106,13.0899408 L7.23314914,13.1359654 L7.32365735,13.1485455 L7.41402755,13.1601417 L7.70512587,13.1873651 L7.99720555,13.2037603 L7.99720555,13.2037603 L8.28842654,13.2092439 L8.58765931,13.2032015 C8.78923505,13.1950525 8.99479078,13.1788517 9.20198212,13.1549878 C9.71352025,13.0955779 10.2086818,12.9855664 10.6826826,12.83245 Z M18.8474568,11.3412984 L18.973761,11.3482962 C19.2253757,11.3763622 19.4696275,11.4886264 19.66244,11.6850888 C19.9098333,11.9370621 20.0212431,12.2751029 19.9966695,12.6045946 C19.9765181,12.8745634 19.8651083,13.1387823 19.6624216,13.3453057 L19.6624216,13.3453057 L19.5709675,13.4290434 C19.4446242,13.5328612 19.3015112,13.6053975 19.1518035,13.6472281 L19.1518035,13.6472281 L19.0911964,13.6622445 L19.0911964,13.6622445 L19.0301752,13.6740281 L18.9743753,13.6817121 L18.9743753,13.6817121 L18.9182993,13.6865848 L18.6977204,13.7389021 C18.1132208,13.8976535 17.5609649,14.2103417 17.1023389,14.6776248 L17.1023389,14.6776248 L17.0633985,14.7179186 L17.0633985,14.7179186 L17.0254242,14.7587746 L17.0104046,14.7787341 L17.0104046,14.7787341 L16.9935911,14.7975691 L16.9828267,14.8080174 L16.9828267,14.8080174 L16.9720623,14.8176223 L16.9140696,14.8542442 C16.8936704,14.8637901 16.8723716,14.8706741 16.8506793,14.8748944 L16.7849921,14.8794733 C16.7190717,14.8761702 16.6541174,14.8489016 16.6038836,14.7976441 C16.5661692,14.759297 16.541646,14.7126273 16.530314,14.663465 C16.5092286,14.5721024 16.5337518,14.4721709 16.6038652,14.4010032 L16.592,14.415 L16.6038836,14.4008908 L16.6622367,14.3451354 L16.6622367,14.3451354 L16.7197893,14.2879932 L16.8882169,14.1042726 C17.3175675,13.602559 17.5886068,13.0093158 17.7014641,12.3919357 L17.7014641,12.3919357 L17.7058573,12.3565147 L17.7058573,12.3565147 L17.7112165,12.3210936 L17.7173807,12.2859771 L17.7173807,12.2859771 L17.724649,12.2510011 L17.7594556,12.1279997 C17.8147459,11.9662308 17.905601,11.8144413 18.0324919,11.6852013 C18.2575318,11.4559951 18.5524943,11.3412984 18.8474568,11.3412984 L18.8474568,11.3412984 Z M14.3864027,10.1418551 C14.4097557,10.1424717 14.4242409,10.1440954 14.4385512,10.1468827 L14.4563047,10.1510314 C14.4569986,10.1512167 14.4576919,10.1514048 14.4583847,10.1515958 C14.4782483,10.1569742 14.4975918,10.1647066 14.516052,10.174735 C14.5393454,10.1875455 14.561456,10.2040715 14.5812656,10.2243168 L14.5238297,10.1791274 C14.544423,10.1912077 14.5638125,10.2062268 14.5814128,10.2241856 C14.6382669,10.2819933 14.6650924,10.3588314 14.6618894,10.4346249 C14.6588808,10.5024232 14.6320552,10.5693402 14.5812656,10.6210702 L14.5812656,10.6210702 L14.5230045,10.6768724 L14.5230045,10.6768724 L14.4653415,10.7340802 L14.2969684,10.9176956 C13.8677451,11.4191789 13.5966876,12.0125701 13.4836667,12.6299503 L13.4836667,12.6299503 L13.4795035,12.6653713 L13.4795035,12.6653713 L13.4740983,12.7007924 L13.4678651,12.7360494 L13.4678651,12.7360494 L13.4606658,12.7708848 L13.42584,12.8938158 C13.3705027,13.0555427 13.2795298,13.2074822 13.1526389,13.3368721 L13.1526389,13.3368721 L13.0521187,13.4280868 C12.8781333,13.5684171 12.6735863,13.6502764 12.4639261,13.6736648 L12.3376372,13.6807375 C12.0426748,13.6807375 11.7477123,13.5661345 11.5226724,13.3369284 C11.5207813,13.3350015 11.5188981,13.3330696 11.5170229,13.3311327 L11.4329684,13.2344537 C11.1651523,12.8898888 11.1142451,12.4278102 11.2802468,12.0386437 C11.317839,11.9505839 11.3668367,11.8656994 11.4270854,11.7868443 C11.4561944,11.7486893 11.4880385,11.7118928 11.5225252,11.6767677 L11.5225252,11.6767677 L11.6141589,11.5928486 C11.7406907,11.4888449 11.8838036,11.4163386 12.0335113,11.3746579 L12.0335113,11.3746579 L12.0939574,11.3595946 L12.0939574,11.3595946 L12.1551028,11.3479141 C12.1922721,11.3417294 12.2296254,11.3376063 12.2667947,11.3353574 C12.9323463,11.1998578 13.5671688,10.8698235 14.0827551,10.3445048 C14.109068,10.3177047 14.1346449,10.2907173 14.1598538,10.2631676 C14.1692382,10.2494864 14.1797265,10.2365549 14.191687,10.2241856 C14.1986792,10.2168765 14.2058555,10.2105045 14.2133997,10.2043199 L14.2133997,10.2043199 L14.2669483,10.1695922 C14.2682226,10.1689654 14.2695007,10.1683492 14.2707825,10.1677436 C14.2737629,10.1664165 14.2773681,10.1647992 14.2809989,10.1632646 C14.3149374,10.1488996 14.3506389,10.1418551 14.3864027,10.1418551 L14.3304082,10.1477547 C14.3376757,10.1462172 14.3449923,10.1449813 14.3523387,10.1440468 L14.3864027,10.1418551 Z M15.5967423,8.02182039 L15.7230062,8.02886083 L15.7230062,8.02886083 L15.8479365,8.04988644 C16.0545468,8.0966632 16.2509644,8.2019109 16.4117072,8.36562956 C16.4475355,8.40216685 16.4804936,8.44051171 16.5105921,8.4803701 C16.5154427,8.48685882 16.5180782,8.49041225 16.5206912,8.4939774 C16.5445604,8.52653866 16.5664247,8.55988656 16.5864395,8.59404114 C16.5926276,8.6045764 16.5986758,8.61527205 16.6045455,8.62604142 C16.6208,8.6559208 16.6357007,8.6863654 16.6492301,8.71727607 C16.6731569,8.77170875 16.6929401,8.82820617 16.7083809,8.8856257 L16.6680199,8.76275328 C16.6837237,8.80311277 16.6971564,8.84416547 16.7083257,8.88570066 C16.7191821,8.92674411 16.7280144,8.96816239 16.7344547,9.00976808 C16.7405269,9.0476255 16.744575,9.08548293 16.7465991,9.12371519 C16.8573058,9.68765202 17.1004019,10.2299158 17.4760995,10.6987764 C17.5516412,10.7931291 17.6329529,10.8848858 17.7196808,10.9732192 L17.7196808,10.9732192 L17.7993556,11.0515579 L17.8192283,11.0668555 L17.8192283,11.0668555 L17.837997,11.0839803 L17.8479333,11.0949908 L17.8479333,11.0949908 L17.8573177,11.1062825 L17.8932756,11.1651787 C17.9401462,11.2688112 17.9217199,11.3955232 17.837997,11.4811085 L17.837997,11.4811085 L17.7792265,11.5267904 C17.7581927,11.5389723 17.7359211,11.5481086 17.7130293,11.5541996 L17.6431479,11.5632235 C17.6196487,11.5632235 17.596147,11.560178 17.5732586,11.5540871 L17.5069343,11.5267904 L17.5069343,11.5267904 L17.4480872,11.4811085 L17.3934372,11.4214877 L17.3934372,11.4214877 L17.3371312,11.3628509 L17.1568594,11.1912559 C16.6645215,10.7538581 16.0820432,10.4779491 15.4757213,10.3630025 L15.4757213,10.3630025 L15.440944,10.3585514 L15.440944,10.3585514 L15.4061668,10.353257 L15.3716886,10.3468147 L15.3716886,10.3468147 L15.3373484,10.3393884 L15.2167048,10.3039539 C15.0579234,10.247676 14.9085396,10.1551989 14.7816487,10.025659 L14.7816487,10.025659 L14.6921286,9.923278 C14.4166821,9.5688666 14.3707743,9.08995943 14.5544053,8.69404944 C14.6096234,8.5751726 14.6853712,8.46386075 14.7817775,8.36562956 C15.0068174,8.13642344 15.3017799,8.02182039 15.5967423,8.02182039 Z" id="形状结合"></path>
        </g>
    </g>
</svg>