<?xml version="1.0" encoding="UTF-8"?>
<svg width="24px" height="24px" viewBox="0 0 24 24" version="1.1" xmlns="http://www.w3.org/2000/svg" xmlns:xlink="http://www.w3.org/1999/xlink">
    <title>icon_恢复小窗@1x</title>
    <g id="icon_恢复小窗" stroke="none" stroke-width="1" fill="none" fill-rule="evenodd" fill-opacity="0.49">
        <g id="icon_声音" fill="#000000" transform="translate(4.000000, 5.000000)">
            <path d="M14.7569444,8.07291667 L14.7569444,9.11143945 L12.0190972,9.11197917 L15.2777778,12.3710693 L14.5412082,13.1076389 L11.2838542,9.85069444 L11.2826973,12.5868056 L10.2430556,12.5868056 L10.2430556,8.94097222 C10.2430556,8.46155838 10.6316973,8.07291667 11.1111111,8.07291667 L14.7569444,8.07291667 Z M14.3229167,0 C14.7680867,0 15.1321483,0.332171281 15.1822917,0.763888889 L15.1909722,0.868055556 L15.1909722,7.1875 L14.1493056,7.1875 L14.1493056,1.04166667 L1.04166667,1.04166667 L1.04166667,11.8923611 L8.57638889,11.8923611 L8.57638889,12.9340278 L0.868055556,12.9340278 C0.422885556,12.9340278 0.0559833675,12.6018565 0.00584004455,12.1701389 L0,12.0659722 L0,0.868055556 C0,0.422885556 0.335104332,0.0588238785 0.76682194,0.00868055556 L0.868055556,0 L14.3229167,0 Z" id="形状结合"></path>
        </g>
    </g>
</svg>