<?xml version="1.0" encoding="UTF-8"?>
<svg width="24px" height="24px" viewBox="0 0 24 24" version="1.1" xmlns="http://www.w3.org/2000/svg" xmlns:xlink="http://www.w3.org/1999/xlink">
    <title>icon_一键小窗@1x</title>
    <g id="icon_一键小窗" stroke="none" stroke-width="1" fill="none" fill-rule="evenodd">
        <g id="icon/一键小窗">
            <rect id="矩形" x="0" y="0" width="24" height="24"></rect>
            <g transform="translate(5.000000, 6.000000)" fill="#000000" fill-opacity="0.49" id="路径">
                <path d="M13.75,0 C14.1773632,0 14.5268624,0.31888443 14.575,0.733333333 L14.5833333,0.833333333 L14.5833333,6.9 L13.5833333,6.9 L13.5833333,1 L1,1 L1,11.4166667 L9.1,11.4166667 L9.1,12.4166667 L0.833333333,12.4166667 C0.405970134,12.4166667 0.0537440328,12.0977822 0.00560644277,11.6833333 L0,11.5833333 L0,0.833333333 C0,0.405970134 0.321700158,0.0564709233 0.736149062,0.00833333333 L0.833333333,0 L13.75,0 Z"></path>
                <path d="M10.4571068,7.6 L13.5841667,10.7266667 L13.5852772,8.1 L14.5833333,8.1 L14.5833333,11.6 C14.5833333,12.0602373 14.2102373,12.4333333 13.75,12.4333333 L10.25,12.4333333 L10.25,11.4363515 L12.8783333,11.4358333 L9.75,8.30710678 L10.4571068,7.6 Z"></path>
            </g>
        </g>
    </g>
</svg>