<?xml version="1.0" encoding="UTF-8"?>
<svg width="40px" height="40px" viewBox="0 0 40 40" version="1.1" xmlns="http://www.w3.org/2000/svg" xmlns:xlink="http://www.w3.org/1999/xlink">
    <title>Error</title>
    <g id="1223" stroke="none" stroke-width="1" fill="none" fill-rule="evenodd">
        <g id="画板" transform="translate(-1604.000000, -394.000000)">
            <g id="Error" transform="translate(1600.000000, 390.000000)">
                <path d="M24,4 C35.045695,4 44,12.954305 44,24 C44,35.045695 35.045695,44 24,44 C12.954305,44 4,35.045695 4,24 C4,12.954305 12.954305,4 24,4 Z M23.9910164,30.6777344 C22.9929695,30.6777344 22.2000008,31.4433594 22.2000008,32.4414062 C22.2000008,33.4394531 22.9929695,34.2050781 23.9910164,34.2050781 C25.016407,34.2050781 25.7957039,33.4394531 25.7957039,32.4414062 C25.7957039,31.4433594 25.016407,30.6777344 23.9910164,30.6777344 Z M25.5222664,12.2714844 L22.4734383,12.2714844 L22.6921883,27.4648438 L25.3035164,27.4648438 L25.5222664,12.2714844 Z" id="Combined-Shape" fill-opacity="0.3" fill="#000000"></path>
                <rect id="BG" fill-opacity="0" fill="#FFFFFF" x="0" y="0" width="48" height="48"></rect>
            </g>
        </g>
    </g>
</svg>