<?xml version="1.0" encoding="UTF-8"?>
<svg width="14px" height="14px" viewBox="0 0 14 14" version="1.1" xmlns="http://www.w3.org/2000/svg" xmlns:xlink="http://www.w3.org/1999/xlink">
    <title>icon_企业微信_彩色</title>
    <defs>
        <path d="M0.0972575758,0.0751969697 C0.0391363636,0.133106061 0.0354242424,0.224954545 0.0859090909,0.287212121 L0.0859090909,0.287212121 C0.0894090909,0.291560606 0.0931212121,0.29580303 0.0972575758,0.299727273 L0.0972575758,0.299727273 C0.104045455,0.306727273 0.111575758,0.312666667 0.119318182,0.318075758 L0.119318182,0.318075758 C0.13480303,0.332606061 0.150181818,0.347454545 0.165242424,0.362515152 L0.165242424,0.362515152 C0.462636364,0.65980303 0.649409091,1.02571212 0.726090909,1.40912121 L0.726090909,1.40912121 C0.727363636,1.43075758 0.72980303,1.45228788 0.73319697,1.47371212 L0.73319697,1.47371212 C0.736909091,1.49725758 0.742,1.52059091 0.748257576,1.54381818 L0.748257576,1.54381818 C0.777742424,1.6514697 0.834590909,1.75339394 0.919227273,1.83813636 L0.919227273,1.83813636 C1.17865152,2.09766667 1.59939394,2.09766667 1.85871212,1.83813636 L1.85871212,1.83813636 C2.11813636,1.57871212 2.11813636,1.15807576 1.85871212,0.898757576 L1.85871212,0.898757576 C1.76728788,0.807227273 1.65571212,0.748257576 1.53840909,0.721212121 L1.53840909,0.721212121 C1.52525758,0.718242424 1.512,0.71569697 1.49874242,0.713469697 L1.49874242,0.713469697 C1.48548485,0.711136364 1.47212121,0.709227273 1.45854545,0.707848485 L1.45854545,0.707848485 C1.06559091,0.634666667 0.689818182,0.446090909 0.385742424,0.142015152 L0.385742424,0.142015152 C0.363787879,0.120166667 0.342469697,0.0977878788 0.321787879,0.0750909091 L0.321787879,0.0750909091 L0.321681818,0.0751969697 C0.290712121,0.0441212121 0.250090909,0.0286363636 0.209469697,0.0286363636 L0.209469697,0.0286363636 C0.168848485,0.0286363636 0.128227273,0.0441212121 0.0972575758,0.0751969697 L0.0972575758,0.0751969697 Z" id="path-1"></path>
        <path d="M0.888575758,0.297712121 C0.797151515,0.389136364 0.738181818,0.500606061 0.711136364,0.617909091 L0.711136364,0.617909091 C0.708166667,0.631060606 0.705515152,0.644318182 0.703393939,0.657575758 L0.703393939,0.657575758 C0.701166667,0.670939394 0.699257576,0.68430303 0.697772727,0.697772727 L0.697772727,0.697772727 C0.624590909,1.09072727 0.436015152,1.4665 0.131939394,1.77068182 L0.131939394,1.77068182 C0.110090909,1.7925303 0.0876060606,1.81384848 0.0650151515,1.83442424 L0.0650151515,1.83442424 L0.0651212121,1.8345303 C0.00296969697,1.89657576 0.00296969697,1.99722727 0.0651212121,2.05916667 L0.0651212121,2.05916667 C0.123030303,2.11728788 0.214772727,2.121 0.277348485,2.07040909 L0.277348485,2.07040909 C0.281484848,2.06690909 0.285621212,2.06319697 0.289757576,2.05916667 L0.289757576,2.05916667 C0.296651515,2.05227273 0.302590909,2.04484848 0.308106061,2.03710606 L0.308106061,2.03710606 C0.322530303,2.02151515 0.337272727,2.00624242 0.352439394,1.99107576 L0.352439394,1.99107576 C0.649833333,1.69368182 1.0155303,1.50690909 1.39915152,1.43033333 L1.39915152,1.43033333 C1.42078788,1.42906061 1.44221212,1.42662121 1.46363636,1.42322727 L1.46363636,1.42322727 C1.48707576,1.41951515 1.51062121,1.41431818 1.53374242,1.40806061 L1.53374242,1.40806061 C1.64160606,1.37868182 1.7435303,1.32172727 1.82806061,1.23719697 L1.82806061,1.23719697 C2.08748485,0.977772727 2.08748485,0.557136364 1.82806061,0.297712121 L1.82806061,0.297712121 C1.69845455,0.168 1.52833333,0.103090909 1.35831818,0.103090909 L1.35831818,0.103090909 C1.18830303,0.103090909 1.01828788,0.168 0.888575758,0.297712121 L0.888575758,0.297712121 Z" id="path-3"></path>
        <path d="M0.194488636,0.194621212 C-0.0648295455,0.454045455 -0.0648295455,0.874575758 0.194488636,1.13421212 L0.194488636,1.13421212 C0.285912879,1.2255303 0.397594697,1.2845 0.514791667,1.31154545 L0.514791667,1.31154545 C0.527943182,1.31462121 0.541200758,1.31716667 0.554458333,1.3195 L0.554458333,1.3195 C0.56782197,1.32151515 0.581185606,1.32342424 0.594549242,1.32490909 L0.594549242,1.32490909 C0.987715909,1.39809091 1.36348864,1.58666667 1.66745833,1.89074242 L1.66745833,1.89074242 C1.68941288,1.91259091 1.71073106,1.93507576 1.73141288,1.95766667 L1.73141288,1.95766667 C1.79356439,2.01971212 1.89410985,2.01971212 1.9561553,1.95766667 L1.9561553,1.95766667 C2.01406439,1.89965152 2.01777652,1.80790909 1.96729167,1.74554545 L1.96729167,1.74554545 C1.96379167,1.74130303 1.96007955,1.73706061 1.9561553,1.73292424 L1.9561553,1.73292424 C1.9491553,1.72613636 1.94173106,1.72009091 1.93388258,1.71468182 L1.93388258,1.71468182 C1.91839773,1.70015152 1.903125,1.68530303 1.88795833,1.67024242 L1.88795833,1.67024242 C1.59067045,1.37295455 1.40379167,1.00725758 1.32710985,0.623636364 L1.32710985,0.623636364 C1.32594318,0.601893939 1.32360985,0.580469697 1.32000379,0.559045455 L1.32000379,0.559045455 C1.31639773,0.535606061 1.31120076,0.512166667 1.30504924,0.488939394 L1.30504924,0.488939394 C1.27556439,0.381181818 1.21860985,0.279257576 1.13407955,0.194621212 L1.13407955,0.194621212 C1.00436742,0.0649090909 0.834352273,0 0.664337121,0 L0.664337121,0 C0.49432197,0 0.324200758,0.0649090909 0.194488636,0.194621212 L0.194488636,0.194621212 Z" id="path-5"></path>
        <path d="M1.76304545,0.0959848485 C1.75869697,0.0994848485 1.75445455,0.10319697 1.75063636,0.107227273 L1.75063636,0.107227273 C1.74363636,0.114227273 1.73748485,0.121545455 1.73218182,0.129393939 L1.73218182,0.129393939 C1.71754545,0.144878788 1.70290909,0.160257576 1.68774242,0.175318182 L1.68774242,0.175318182 C1.39056061,0.472606061 1.02465152,0.659590909 0.641030303,0.736060606 L0.641030303,0.736060606 C0.6195,0.737439394 0.598075758,0.739772727 0.576545455,0.743272727 L0.576545455,0.743272727 C0.553,0.746878788 0.529666667,0.752181818 0.506545455,0.758439394 L0.506545455,0.758439394 C0.398681818,0.787712121 0.296757576,0.844666667 0.212015152,0.92919697 L0.212015152,0.92919697 C-0.0474090909,1.18872727 -0.0474090909,1.60936364 0.212015152,1.86878788 L0.212015152,1.86878788 C0.471651515,2.12821212 0.892181818,2.12821212 1.15160606,1.86878788 L1.15160606,1.86878788 C1.2430303,1.77736364 1.30210606,1.66578788 1.32915152,1.54848485 L1.32915152,1.54848485 C1.33212121,1.53533333 1.33466667,1.52207576 1.33689394,1.50881818 L1.33689394,1.50881818 C1.33922727,1.49545455 1.3410303,1.48209091 1.34240909,1.46872727 L1.34240909,1.46872727 C1.41569697,1.07566667 1.60427273,0.699893939 1.90824242,0.395818182 L1.90824242,0.395818182 C1.93019697,0.373969697 1.95257576,0.352651515 1.97527273,0.331969697 L1.97527273,0.331969697 L1.97506061,0.331863636 C2.03710606,0.269924242 2.03710606,0.169166667 1.97506061,0.107227273 L1.97506061,0.107227273 C1.94409091,0.0762575758 1.9034697,0.060772017 1.86274242,0.060772017 L1.86274242,0.060772017 C1.82742424,0.0606666667 1.792,0.0724393939 1.76304545,0.0959848485 L1.76304545,0.0959848485 Z" id="path-7"></path>
        <path d="M4.21612121,0.0820909091 C3.02293939,0.21180303 1.9384697,0.722378788 1.1625303,1.5195303 L1.1625303,1.5195303 C0.856227273,1.83421212 0.606772727,2.18580303 0.420742424,2.56454545 L0.420742424,2.56454545 C0.168318182,3.07830303 0.0401969697,3.62377273 0.0401969697,4.18557576 L0.0401969697,4.18557576 C0.0401969697,4.90912121 0.260378788,5.62227273 0.676878788,6.24856061 L0.676878788,6.24856061 C0.887833333,6.56578788 1.23295455,6.96521212 1.55028788,7.24690909 L1.55028788,7.24690909 L1.55028788,7.24743939 L1.40689394,8.37475758 C1.40116667,8.39024242 1.39512121,8.40540909 1.39151515,8.4215303 L1.39151515,8.4215303 C1.38833333,8.43616667 1.38716667,8.45143939 1.38578788,8.46660606 L1.38578788,8.46660606 C1.38483333,8.47816667 1.38228788,8.48930303 1.38228788,8.50118182 L1.38228788,8.50118182 C1.38228788,8.51369697 1.38483333,8.52557576 1.386,8.53809091 L1.386,8.53809091 C1.40498485,8.72348485 1.55951515,8.86878788 1.75,8.86878788 L1.75,8.86878788 C1.81639394,8.86878788 1.87780303,8.84980303 1.93157576,8.81904545 L1.93157576,8.81904545 C1.93327273,8.81798485 1.93507576,8.81713636 1.93666667,8.81628788 L1.93666667,8.81628788 C1.94462121,8.81162121 1.95268182,8.80748485 1.96010606,8.80228788 L1.96010606,8.80228788 L2.30278788,8.63036364 L3.32372727,8.11787879 C3.61719697,8.20219697 3.90854545,8.25586364 4.21548485,8.28969697 L4.21548485,8.28969697 C4.41509091,8.31165152 4.61777273,8.32278788 4.81759091,8.32278788 L4.81759091,8.32278788 C5.02165152,8.32278788 5.2330303,8.31048485 5.44589394,8.28640909 L5.44589394,8.28640909 C5.86462121,8.23868182 6.26743939,8.14216667 6.64989394,8.00492424 L6.64989394,8.00492424 C6.6085303,7.99113636 6.56790909,7.97331818 6.52866667,7.95083333 L6.52866667,7.95083333 C6.29459091,7.81698485 6.17368182,7.56254545 6.19765152,7.31065152 L6.19765152,7.31065152 C5.92443939,7.39740909 5.6390303,7.45966667 5.34418182,7.49318182 L5.34418182,7.49318182 C5.16504545,7.51343939 4.9880303,7.52383333 4.81759091,7.52383333 L4.81759091,7.52383333 C4.65033333,7.52383333 4.48074242,7.5145 4.31359091,7.49615152 L4.31359091,7.49615152 C4.27890909,7.49233333 4.24412121,7.48692424 4.20933333,7.48225758 L4.20933333,7.48225758 C3.97992424,7.45171212 3.75306061,7.40483333 3.53383333,7.34077273 L3.53383333,7.34077273 C3.48928788,7.32645455 3.44187879,7.31934848 3.39351515,7.31934848 L3.39351515,7.31934848 C3.31789394,7.31934848 3.2445,7.33928788 3.17025758,7.37778788 L3.17025758,7.37778788 C3.1605,7.38277273 3.15095455,7.38701515 3.14130303,7.39263636 L3.14130303,7.39263636 L2.30278788,7.88677273 L2.26640909,7.90830303 L2.26545455,7.90872727 C2.24731818,7.91933333 2.2370303,7.92336364 2.22780303,7.92336364 L2.22780303,7.92336364 C2.19693939,7.92336364 2.17190909,7.89727273 2.17190909,7.86545455 L2.17190909,7.86545455 L2.20425758,7.73468182 C2.21337879,7.70021212 2.22610606,7.65163636 2.24159091,7.59266667 L2.24159091,7.59266667 C2.25972727,7.52340909 2.28115152,7.44184848 2.30278788,7.35986364 L2.30278788,7.35986364 C2.32654545,7.26907576 2.35051515,7.17754545 2.37087879,7.09990909 L2.37087879,7.09990909 C2.37936364,7.06968182 2.38795455,7.03340909 2.38795455,6.99268182 L2.38795455,6.99268182 C2.38795455,6.88004545 2.3339697,6.77356061 2.24413636,6.70822727 L2.24413636,6.70822727 C2.1985303,6.67439394 2.15292424,6.6389697 2.10498485,6.59993939 L2.10498485,6.59993939 C2.03159091,6.54012121 1.96137879,6.4779697 1.89371212,6.41369697 L1.89371212,6.41369697 C1.70375758,6.23360606 1.5370303,6.0369697 1.39692424,5.82633333 L1.39692424,5.82633333 C1.06707576,5.33039394 0.892712121,4.76774242 0.892712121,4.19904545 L0.892712121,4.19904545 C0.892712121,3.75762121 0.993575758,3.3285 1.19265152,2.92324242 L1.19265152,2.92324242 C1.34134848,2.62065152 1.54159091,2.33884848 1.78786364,2.08568182 L1.78786364,2.08568182 C2.42581818,1.43033333 3.32277273,1.01012121 4.31359091,0.902469697 L4.31359091,0.902469697 C4.48604545,0.88380303 4.65563636,0.874151515 4.81759091,0.874151515 L4.81759091,0.874151515 C4.98781818,0.874151515 5.16493939,0.884439394 5.34418182,0.90480303 L5.34418182,0.90480303 C6.33033333,1.01690909 7.22209091,1.43934848 7.85516667,2.09406061 L7.85516667,2.09406061 C8.10048485,2.34786364 8.29956061,2.63019697 8.44719697,2.93342424 L8.44719697,2.93342424 C8.64309091,3.3360303 8.74236364,3.76186364 8.74236364,4.19904545 L8.74236364,4.19904545 C8.74236364,4.24443939 8.73939394,4.28972727 8.73727273,4.33501515 L8.73727273,4.33501515 C8.99298485,4.1784697 9.33110606,4.20922727 9.55266667,4.43068182 L9.55266667,4.43068182 C9.56380303,4.44192424 9.57324242,4.45401515 9.58342424,4.46589394 L9.58342424,4.46589394 C9.59074242,4.37277273 9.59487879,4.27922727 9.59487879,4.18557576 L9.59487879,4.18557576 C9.59487879,3.62907576 9.46887879,3.08784848 9.22048485,2.57737879 L9.22048485,2.57737879 C9.03572727,2.19778788 8.78743939,1.84534848 8.48262121,1.52992424 L8.48262121,1.52992424 C7.71219697,0.73319697 6.63377273,0.220075758 5.44589394,0.0849545455 L5.44589394,0.0849545455 C5.23260606,0.0607727273 5.02133333,0.0485757576 4.81759091,0.0485757576 L4.81759091,0.0485757576 C4.62360606,0.0485757576 4.42124242,0.0597121212 4.21612121,0.0820909091 L4.21612121,0.0820909091 Z" id="path-9"></path>
    </defs>
    <g id="icon_企业微信_彩色" stroke="none" stroke-width="1" fill="none" fill-rule="evenodd">
        <g id="编组" transform="translate(1.166667, 2.333333)">
            <g id="Group-14" transform="translate(7.636364, 7.636364)">
                <mask id="mask-2" fill="white">
                    <use xlink:href="#path-1"></use>
                </mask>
                <g id="Clip-13"></g>
                <polygon id="Fill-12" fill="#FB6500" mask="url(#mask-2)" points="-0.0194090909 2.10275758 2.12322727 2.10275758 2.12322727 -0.0413636364 -0.0194090909 -0.0413636364"></polygon>
            </g>
            <g id="Group-17" transform="translate(9.545455, 6.363636)">
                <mask id="mask-4" fill="white">
                    <use xlink:href="#path-3"></use>
                </mask>
                <g id="Clip-16"></g>
                <polygon id="Fill-15" fill="#0082EF" mask="url(#mask-4)" points="-0.0514393939 2.17572727 2.09268182 2.17572727 2.09268182 0.0330909091 -0.0514393939 0.0330909091"></polygon>
            </g>
            <g id="Group-20" transform="translate(8.365769, 4.588182)">
                <mask id="mask-6" fill="white">
                    <use xlink:href="#path-5"></use>
                </mask>
                <g id="Clip-19"></g>
                <polygon id="Fill-18" fill="#2DBC00" mask="url(#mask-6)" points="-0.0699204545 2.07412121 2.07260985 2.07412121 2.07260985 -0.07 -0.0699204545 -0.07"></polygon>
            </g>
            <g id="Group-23" transform="translate(6.469697, 5.727273)">
                <mask id="mask-8" fill="white">
                    <use xlink:href="#path-7"></use>
                </mask>
                <g id="Clip-22"></g>
                <polygon id="Fill-21" fill="#FFCC00" mask="url(#mask-8)" points="-0.0525 2.13340909 2.09162121 2.13340909 2.09162121 -0.00922727273 -0.0525 -0.00922727273"></polygon>
            </g>
            <g id="Group-26">
                <mask id="mask-10" fill="white">
                    <use xlink:href="#path-9"></use>
                </mask>
                <g id="Clip-25"></g>
                <polygon id="Fill-24" fill="#0082EF" mask="url(#mask-10)" points="-0.0296969697 8.93878788 9.66487879 8.93878788 9.66487879 -0.021530303 -0.0296969697 -0.021530303"></polygon>
            </g>
        </g>
    </g>
</svg>