<?xml version="1.0" encoding="UTF-8"?>
<svg width="40px" height="40px" viewBox="0 0 40 40" version="1.1" xmlns="http://www.w3.org/2000/svg" xmlns:xlink="http://www.w3.org/1999/xlink">
    <title>Icons/7 特殊/icons_error</title>
    <g id="Icons/7-特殊/icons_error" stroke="none" stroke-width="1" fill="none" fill-rule="evenodd">
        <g id="PlayBtn备份-6">
            <circle id="Mask" fill-opacity="0.1" fill="#000000" cx="20" cy="20" r="20"></circle>
            <path d="M20,0 C31.045695,0 40,8.954305 40,20 C40,31.045695 31.045695,40 20,40 C8.954305,40 0,31.045695 0,20 C0,8.954305 8.954305,0 20,0 Z M20,1.2 C9.6170467,1.2 1.2,9.6170467 1.2,20 C1.2,30.3829533 9.6170467,38.8 20,38.8 C30.3829533,38.8 38.8,30.3829533 38.8,20 C38.8,9.6170467 30.3829533,1.2 20,1.2 Z M18.9029687,11 L21.1002344,11 L20.95375,22.7675781 L19.0494531,22.7675781 L18.9029687,11 Z M20.0016016,28.7368164 C19.2203516,28.7368164 18.61,28.1264648 18.61,27.3452148 C18.61,26.5517578 19.2203516,25.9536133 20.0016016,25.9536133 C20.7950586,25.9536133 21.3932031,26.5517578 21.3932031,27.3452148 C21.3932031,28.1264648 20.7950586,28.7368164 20.0016016,28.7368164 Z" id="形状结合" fill="#FFFFFF"></path>
            <rect id="BG" fill-opacity="0" fill="#FFFFFF" x="0" y="0" width="40" height="40"></rect>
        </g>
    </g>
</svg>