<?xml version="1.0" encoding="UTF-8"?>
<svg width="20px" height="20px" viewBox="0 0 20 20" version="1.1" xmlns="http://www.w3.org/2000/svg" xmlns:xlink="http://www.w3.org/1999/xlink">
    <title>icon_qrcode_on</title>
    <g id="icon_qrcode_on" stroke="none" stroke-width="1" fill="none" fill-rule="evenodd">
        <g id="Icons_outlined_qr_code" fill="#000000" fill-opacity="0.10">
            <rect id="BG" x="0" y="0" width="20" height="20" rx="1.6"></rect>
        </g>
        <path d="M15.3333333,12 C15.7015232,12 16,12.2984768 16,12.6666667 L16,15.3333333 C16,15.7015232 15.7015232,16 15.3333333,16 L12.6666667,16 C12.2984768,16 12,15.7015232 12,15.3333333 L12,12.6666667 C12,12.2984768 12.2984768,12 12.6666667,12 L15.3333333,12 Z M7.33333333,12 C7.70152317,12 8,12.2984768 8,12.6666667 L8,15.3333333 C8,15.7015232 7.70152317,16 7.33333333,16 L4.66666667,16 C4.29847683,16 4,15.7015232 4,15.3333333 L4,12.6666667 C4,12.2984768 4.29847683,12 4.66666667,12 L7.33333333,12 Z M10.6666667,14.6666667 L10.6666667,16 L9.33333333,16 L9.33333333,14.6666667 L10.6666667,14.6666667 Z M15.2,12.8 L12.8,12.8 L12.8,15.2 L15.2,15.2 L15.2,12.8 Z M7.2,12.8 L4.8,12.8 L4.8,15.2 L7.2,15.2 L7.2,12.8 Z M10.6666667,12 L10.6666667,13.3333333 L9.33333333,13.3333333 L9.33333333,12 L10.6666667,12 Z M16,9.33333333 L16,10.6666667 L14.6666667,10.6666667 L14.6666667,9.33333333 L16,9.33333333 Z M13.3333333,9.33333333 L13.3333333,10.6666667 L12,10.6666667 L12,9.33333333 L13.3333333,9.33333333 Z M10,4 C10.3681898,4 10.6666667,4.29847683 10.6666667,4.66666667 L10.6666667,10 C10.6666667,10.3681898 10.3681898,10.6666667 10,10.6666667 L4.66666667,10.6666667 C4.29847683,10.6666667 4,10.3681898 4,10 L4,4.66666667 C4,4.29847683 4.29847683,4 4.66666667,4 L10,4 Z M9.86666667,4.8 L4.8,4.8 L4.8,9.86666667 L9.86666667,9.86666667 L9.86666667,4.8 Z M8,6.66666667 L8,8 L6.66666667,8 L6.66666667,6.66666667 L8,6.66666667 Z M15.3333333,4 C15.7015232,4 16,4.29847683 16,4.66666667 L16,7.33333333 C16,7.70152317 15.7015232,8 15.3333333,8 L12.6666667,8 C12.2984768,8 12,7.70152317 12,7.33333333 L12,4.66666667 C12,4.29847683 12.2984768,4 12.6666667,4 L15.3333333,4 Z M15.2,4.8 L12.8,4.8 L12.8,7.2 L15.2,7.2 L15.2,4.8 Z" id="Combined-Shape" fill="#07C160"></path>
    </g>
</svg>