<svg width="14" height="14" viewBox="0 0 14 14" fill="none" xmlns="http://www.w3.org/2000/svg">
<path d="M2.3335 1.75008C2.3335 1.42792 2.59466 1.16675 2.91683 1.16675H11.0835C11.4057 1.16675 11.6668 1.42792 11.6668 1.75008V12.2501C11.6668 12.5722 11.4057 12.8334 11.0835 12.8334H2.91683C2.59466 12.8334 2.3335 12.5722 2.3335 12.2501V1.75008ZM3.0335 1.86675V12.1334H10.9668V1.86675H3.0335ZM4.9585 4.66675C4.47525 4.66675 4.0835 4.275 4.0835 3.79175C4.0835 3.3085 4.47525 2.91675 4.9585 2.91675C5.44175 2.91675 5.8335 3.3085 5.8335 3.79175C5.8335 4.275 5.44175 4.66675 4.9585 4.66675ZM4.0835 5.83341H8.4585V6.53341H4.0835V5.83341ZM4.0835 7.58341H6.41683V8.28341H4.0835V7.58341ZM4.0835 9.33341H6.41683V10.0334H4.0835V9.33341Z" fill="black" fill-opacity="0.55"/>
</svg>
