<?xml version="1.0" encoding="UTF-8"?>
<svg width="24px" height="24px" viewBox="0 0 24 24" version="1.1" xmlns="http://www.w3.org/2000/svg" xmlns:xlink="http://www.w3.org/1999/xlink">
    <title>0.图标/面型/icons_filled_moment</title>
    <g id="0.图标/面型/icons_filled_moment" stroke="none" stroke-width="1" fill="none" fill-rule="evenodd" fill-opacity="0.9">
        <g id="icon25" fill="#000000">
            <path d="M9.5,15.1568542 L15.6534595,21.3115957 C14.5217434,21.7559773 13.289369,22 12,22 C11.1369308,22 10.2993987,21.890663 9.50049919,21.6850848 L9.5,15.1568542 Z M8,12.4644661 L8.00059079,21.1681707 C6.06605467,20.3230853 4.45058718,18.8836501 3.3849899,17.0806666 L8,12.4644661 Z M17.0796735,20.615597 L12.4644661,16 L21.1677323,16.0004128 C20.3224323,17.9348592 18.8828097,19.5501902 17.0796735,20.615597 Z M2.31491524,9.50049919 L8.84314575,9.5 L2.68879465,15.6544534 C2.24416559,14.5224649 2,13.2897464 2,12 C2,11.1369308 2.10933696,10.2993987 2.31491524,9.50049919 Z M22,12 C22,12.8634306 21.8905715,13.7013028 21.6848264,14.5005044 L15.1568542,14.5 L21.3115957,8.34654046 C21.7559773,9.47825658 22,10.710631 22,12 Z M20.615597,6.92032651 L16,11.5355339 L16.0004128,2.83226775 C17.9348592,3.67756772 19.5501902,5.11719029 20.615597,6.92032651 Z M12,2 C12.8634306,2 13.7013028,2.10942855 14.5005044,2.31517356 L14.5,8.84314575 L8.34554659,2.68879465 C9.47753505,2.24416559 10.7102536,2 12,2 Z M6.9193334,3.3849899 L11.5355339,8 L2.83182926,8.00059079 C3.67691466,6.06605467 5.1163499,4.45058718 6.9193334,3.3849899 Z" id="Combined-Shape"></path>
        </g>
    </g>
</svg>