<?xml version="1.0" encoding="UTF-8"?>
<svg width="48px" height="48px" viewBox="0 0 48 48" version="1.1" xmlns="http://www.w3.org/2000/svg" xmlns:xlink="http://www.w3.org/1999/xlink">
    <title>0.图标/线型/icons_outlined_error备份@1x</title>
    <g id="视觉稿-电脑端" stroke="none" stroke-width="1" fill="none" fill-rule="evenodd">
        <g id="画板备份" transform="translate(-251.000000, -110.000000)" fill="#FFC300">
            <g id="编组-4" transform="translate(145.000000, 85.000000)">
                <g id="common_icons_info" transform="translate(106.000000, 25.000000)">
                    <path d="M24,4 C35.045695,4 44,12.954305 44,24 C44,35.045695 35.045695,44 24,44 C12.954305,44 4,35.045695 4,24 C4,12.954305 12.954305,4 24,4 Z M24,6.4 C14.2797884,6.4 6.4,14.2797884 6.4,24 C6.4,33.7202116 14.2797884,41.6 24,41.6 C33.7202116,41.6 41.6,33.7202116 41.6,24 C41.6,14.2797884 33.7202116,6.4 24,6.4 Z M24,30.8066406 C24.9521484,30.8066406 25.6699219,31.5244141 25.6699219,32.4765625 C25.6699219,33.4140625 24.9521484,34.1464844 24,34.1464844 C23.0625,34.1464844 22.3300781,33.4140625 22.3300781,32.4765625 C22.3300781,31.5244141 23.0625,30.8066406 24,30.8066406 Z M25.3183594,12.8623047 L25.1425781,26.9833984 L22.8574219,26.9833984 L22.6816406,12.8623047 L25.3183594,12.8623047 Z" id="Combined-Shape"></path>
                </g>
            </g>
        </g>
    </g>
</svg>