<?xml version="1.0" encoding="UTF-8"?>
<svg width="15px" height="13px" viewBox="0 0 15 13" version="1.1" xmlns="http://www.w3.org/2000/svg" xmlns:xlink="http://www.w3.org/1999/xlink">
    <title>0.图标/线型/icons_outlined_add_friends</title>
    <g id="回收站" stroke="none" stroke-width="1" fill="none" fill-rule="evenodd" fill-opacity="0.5">
        <g id="icon13" transform="translate(0.000000, -1.000000)" fill="#000000">
            <path d="M6.5625,1.875 C7.94321187,1.875 9.0625,2.99561264 9.0625,4.37512967 L9.0625,5.44386605 C9.0625,6.15580997 8.68808274,7.17678772 8.23005447,7.71973315 L8.00409662,7.98758296 C7.63564526,8.42434417 7.75074232,8.9802485 8.26596812,9.23156899 L11.803689,10.9572235 C12.1882509,11.1448078 12.5,11.6407313 12.5,12.0721646 L12.5,12.5009762 C12.5,12.845615 12.2181716,13.125 11.8741065,13.125 L1.25089351,13.125 C0.905222068,13.125 0.625,12.8473472 0.625,12.5009762 L0.625,12.0721646 C0.625,11.643984 0.936344317,11.1449424 1.32131101,10.9570829 L4.85903173,9.23071438 C5.3721107,8.98033752 5.49141191,8.42578903 5.12090327,7.98664931 L4.89494543,7.71883624 C4.43519852,7.17392822 4.0625,6.1559353 4.0625,5.44330658 L4.0625,4.37473774 C4.0625,2.99417071 5.1845976,1.875 6.5625,1.875 Z M6.5625,2.625 C5.59769303,2.625 4.8125,3.40950169 4.8125,4.37473774 L4.8125,5.44330658 C4.8125,5.97853993 5.1223417,6.82530238 5.46817401,7.23519485 L5.69413184,7.50300792 C6.37914776,8.31491258 6.14075895,9.43978144 5.18794966,9.90474183 L1.65022894,11.6311104 C1.52313568,11.6931305 1.375,11.9304232 1.375,12.0721646 L1.375,12.375 L11.75,12.375 L11.75,12.0721646 C11.75,11.9287871 11.6029243,11.6937625 11.4748809,11.6313045 L7.93716009,9.90565005 C6.98304643,9.44024575 6.74723298,8.31432065 7.43083537,7.50398029 L7.65679322,7.23613048 C8.00137189,6.8276679 8.3125,5.97774433 8.3125,5.44386605 L8.3125,4.37512967 C8.3125,3.40932137 7.52849363,2.625 6.5625,2.625 Z M12.5624962,5 L12.5624962,6.81249619 L14.375,6.81249619 L14.375,7.56249622 L12.5624962,7.56249622 L12.5624962,9.375 L11.8124962,9.375 L11.8124962,7.56249622 L10,7.56249622 L10,6.81249619 L11.8124962,6.81249619 L11.8124962,5 L12.5624962,5 Z" id="Combined-Shape"></path>
        </g>
    </g>
</svg>