<?xml version="1.0" encoding="UTF-8"?>
<svg width="24px" height="24px" viewBox="0 0 24 24" version="1.1" xmlns="http://www.w3.org/2000/svg" xmlns:xlink="http://www.w3.org/1999/xlink">
    <title>画板</title>
    <g id="画板" stroke="none" stroke-width="1" fill="none" fill-rule="evenodd">
        <g id="0.图标/面型/icons_filled_volume_off" fill="#FFFFFF">
            <path d="M5.12132034,3 L9.06,6.939 L11.3,4.7 C11.7,4.3 12.3,4.3 12.7,4.7 C12.8714286,4.87142857 12.9693878,5.04285714 12.9938776,5.27725948 L13,5.4 L12.999,10.878 L15.8788947,13.7565417 C16.1521402,13.2159763 16.3,12.6079882 16.3,12 C16.3,11 15.9,10 15.2,9.3 L15.1,9.2 L16.2,8.1 L16.3,8.2 C17.3,9.2 17.9,10.6 17.9,12 C17.9,13.01875 17.5822903,14.0375 17.0239345,14.902123 L17.9421945,15.8212132 C18.730194,14.7030025 19.1,13.4131356 19.1,12 C19.1,10.2 18.4,8.6 17.2,7.3 L17.1,7.2 L18.2,6.1 L18.3,6.2 C19.8,7.7 20.7,9.8 20.7,12 C20.7,13.8200769 20.1524496,15.5032662 19.0573488,16.9363198 L22.0918831,19.9705627 L21.0312229,21.0312229 L4.06066017,4.06066017 L5.12132034,3 Z M6.378,8.5 L12.999,15.12 L13,18.6 C13,19.2 12.6,19.6 12,19.6 C11.7428571,19.6 11.5591837,19.5265306 11.3860058,19.3795918 L11.3,19.3 L7.5,15.5 L3,15.5 C2.44285714,15.5 2.05816327,15.155102 2.00604956,14.6254373 L2,14.5 L2,9.5 C2,8.94285714 2.34489796,8.55816327 2.87456268,8.50604956 L3,8.5 L6.378,8.5 Z" id="Combined-Shape"></path>
        </g>
    </g>
</svg>