<?xml version="1.0" encoding="UTF-8"?>
<svg width="16px" height="16px" viewBox="0 0 16 16" version="1.1" xmlns="http://www.w3.org/2000/svg" xmlns:xlink="http://www.w3.org/1999/xlink">
    <title>icon_恢复窗口@1x</title>
    <defs>
        <filter color-interpolation-filters="auto" id="filter-1">
            <feColorMatrix in="SourceGraphic" type="matrix" values="0 0 0 0 1.000000 0 0 0 0 1.000000 0 0 0 0 1.000000 0 0 0 0.800000 0"></feColorMatrix>
        </filter>
    </defs>
    <g id="icon_恢复窗口" stroke="none" stroke-width="1" fill="none" fill-rule="evenodd">
        <g id="icon_小窗恢复" filter="url(#filter-1)">
            <g>
                <path d="M12.1453716,4 C12.4425445,4 12.5503066,4.03094187 12.6589486,4.08904423 C12.7675905,4.1471466 12.8528534,4.23240946 12.9109558,4.34105143 C12.9690581,4.44969341 13,4.55745549 13,4.8546284 L12.9993333,8 L12,8 L12,5 L4,5 L4,11 L9,11 L9,12 L3.8546284,12 C3.55745549,12 3.44969341,11.9690581 3.34105143,11.9109558 C3.23240946,11.8528534 3.1471466,11.7675905 3.08904423,11.6589486 C3.03094187,11.5503066 3,11.4425445 3,11.1453716 L3,4.8546284 C3,4.55745549 3.03094187,4.44969341 3.08904423,4.34105143 C3.1471466,4.23240946 3.23240946,4.1471466 3.34105143,4.08904423 C3.44969341,4.03094187 3.55745549,4 3.8546284,4 L12.1453716,4 Z" id="形状结合" fill="#000000" fill-rule="nonzero"></path>
                <path d="M11.5360105,9.52395571 L10.4289148,9.52395571 L10.4289148,8.66705766 L12.57116,8.66705766 C12.8077858,8.66705766 12.999609,8.85888082 12.999609,9.09550669 L12.999609,11.2377518 L12.142711,11.2377518 L12.142711,10.1296287 L10.2721941,11.999609 L9.66627568,11.3936906 L11.5360105,9.52395571 Z" id="Path" fill="#000000" transform="translate(11.332942, 10.333333) scale(-1, -1) rotate(90.000000) translate(-11.332942, -10.333333) "></path>
            </g>
        </g>
    </g>
</svg>