<?xml version="1.0" encoding="UTF-8"?>
<svg width="24px" height="24px" viewBox="0 0 24 24" version="1.1" xmlns="http://www.w3.org/2000/svg" xmlns:xlink="http://www.w3.org/1999/xlink">
    <title>0.图标/面型/icons_filled_refresh</title>
    <g id="0.图标/面型/icons_filled_refresh" stroke="none" stroke-width="1" fill="none" fill-rule="evenodd" fill-opacity="0.9">
        <g id="common_icons_miniprogram" fill="#000000">
            <path d="M10.2426407,2 L14.131728,5.8890873 C14.3269901,6.08434944 14.3269901,6.40093193 14.131728,6.59619408 L10.2426407,10.4852814 L8.82842712,9.07106781 L10.772297,7.12571353 C8.04742277,7.69229363 6,10.1070462 6,13 C6,16.3137085 8.6862915,19 12,19 C15.3137085,19 18,16.3137085 18,13 C18,11.3852639 17.3618946,9.87661321 16.2426407,8.75735931 L17.6568542,7.34314575 C19.1045695,8.790861 20,10.790861 20,13 C20,17.418278 16.418278,21 12,21 C7.581722,21 4,17.418278 4,13 C4,9.07841639 6.82168646,5.81587297 10.5455337,5.13189545 L8.82842712,3.41421356 L10.2426407,2 Z" id="Combined-Shape"></path>
        </g>
    </g>
</svg>