<?xml version="1.0" encoding="UTF-8"?>
<svg width="12px" height="12px" viewBox="0 0 12 12" version="1.1" xmlns="http://www.w3.org/2000/svg" xmlns:xlink="http://www.w3.org/1999/xlink">
    <title>按钮_一键小窗@1x</title>
    <defs>
        <filter color-interpolation-filters="auto" id="filter-1">
            <feColorMatrix in="SourceGraphic" type="matrix" values="0 0 0 0 0.545230 0 0 0 0 0.303024 0 0 0 0 0.047795 0 0 0 1.000000 0"></feColorMatrix>
        </filter>
    </defs>
    <g id="按钮_一键小窗" stroke="none" stroke-width="1" fill="none" fill-rule="evenodd">
        <g id="编组-57">
            <circle id="Zoom" stroke="#E38420" stroke-width="0.5" fill="#FA9D3B" cx="6" cy="6" r="5.75"></circle>
            <g id="icon/小窗_面型" transform="translate(1.000000, 1.000000)" filter="url(#filter-1)">
                <g>
                    <path d="M7.59085725,2.5 C7.77659032,2.5 7.84394162,2.51933867 7.91184285,2.55565265 C7.97974409,2.59196662 8.03303338,2.64525591 8.06934735,2.71315715 C8.10566133,2.78105838 8.125,2.84840968 8.125,3.03414275 L8.12458333,5 L7.5,5 L7.5,3.125 L2.5,3.125 L2.5,6.875 L5.625,6.875 L5.625,7.5 L2.40914275,7.5 C2.22340968,7.5 2.15605838,7.48066133 2.08815715,7.44434735 C2.02025591,7.40803338 1.96696662,7.35474409 1.93065265,7.28684285 C1.89433867,7.21894162 1.875,7.15159032 1.875,6.96585725 L1.875,3.03414275 C1.875,2.84840968 1.89433867,2.78105838 1.93065265,2.71315715 C1.96696662,2.64525591 2.02025591,2.59196662 2.08815715,2.55565265 C2.15605838,2.51933867 2.22340968,2.5 2.40914275,2.5 L7.59085725,2.5 Z" id="形状结合" fill="#000000" fill-rule="nonzero"></path>
                    <path d="M7.21000659,5.95247232 L6.51807177,5.95247232 L6.51807177,5.41691104 L7.85697499,5.41691104 C8.00486615,5.41691104 8.12475563,5.53680051 8.12475563,5.68469168 L8.12475563,7.0235949 L7.58919434,7.0235949 L7.58919434,6.33101796 L6.42012132,7.49975563 L6.0414223,7.12105661 L7.21000659,5.95247232 Z" id="Path" fill="#000000" transform="translate(7.083089, 6.458333) rotate(90.000000) translate(-7.083089, -6.458333) "></path>
                </g>
            </g>
        </g>
    </g>
</svg>