<svg width="24" height="24" viewBox="0 0 24 24" fill="none" xmlns="http://www.w3.org/2000/svg">
<path d="M10 3C10.5523 3 11 3.44772 11 4V10C11 10.5523 10.5523 11 10 11H4C3.44772 11 3 10.5523 3 10V4C3 3.44772 3.44772 3 4 3H10ZM9.8 4.2H4.2V9.8H9.8V4.2Z" fill="black"/>
<path d="M19.5 3C20.0523 3 20.5 3.44772 20.5 4V10C20.5 10.5523 20.0523 11 19.5 11H13.5C12.9477 11 12.5 10.5523 12.5 10V4C12.5 3.44772 12.9477 3 13.5 3H19.5ZM19.3 4.2H13.7V9.8H19.3V4.2Z" fill="black"/>
<path d="M10 12.5C10.5523 12.5 11 12.9477 11 13.5V19.5C11 20.0523 10.5523 20.5 10 20.5H4C3.44772 20.5 3 20.0523 3 19.5V13.5C3 12.9477 3.44772 12.5 4 12.5H10ZM9.8 13.7H4.2V19.3H9.8V13.7Z" fill="black"/>
<path d="M19.5 12.5C20.0523 12.5 20.5 12.9477 20.5 13.5V19.5C20.5 20.0523 20.0523 20.5 19.5 20.5H13.5C12.9477 20.5 12.5 20.0523 12.5 19.5V13.5C12.5 12.9477 12.9477 12.5 13.5 12.5H19.5ZM19.3 13.7H13.7V19.3H19.3V13.7Z" fill="black"/>
</svg>
