<?xml version="1.0" encoding="UTF-8"?>
<svg width="24px" height="24px" viewBox="0 0 24 24" version="1.1" xmlns="http://www.w3.org/2000/svg" xmlns:xlink="http://www.w3.org/1999/xlink">
    <title>aaa合并转发 1备份 mac 加粗备份</title>
    <g id="aaa合并转发-1备份-mac-加粗备份" stroke="none" stroke-width="1" fill="none" fill-rule="evenodd">
        <rect id="Rectangle-11" fill="#FFFFFF" opacity="0" transform="translate(12.000000, 12.000000) scale(-1, 1) translate(-12.000000, -12.000000) " x="0" y="0" width="24" height="24"></rect>
        <path d="M19,17.77 L19,19.22 L4,19.22 L4,17.77 L19,17.77 Z M10,11.759 L10,13.209 L4,13.21 L4,11.76 L10,11.759 Z M10,5.46 L10,6.91 L4,6.91 L4,5.46 L10,5.46 Z" id="形状结合" fill-opacity="0.9" fill="#000000"></path>
        <path d="M11.903,9.69998845 L11.9050739,9.58633391 C12.0152537,7.27674523 13.9061342,5.43371991 16.2349847,5.39998845 L16.235,6.79998845 L16.0766651,6.80500782 C14.5445857,6.89377853 13.3261773,8.1517471 13.3004162,9.69993723 L13.3,13.22 L11.9,13.22 L11.9,9.7 L11.903,9.69998845 Z M17.8192388,3.14 L19.904,5.24 L19.9055728,5.24 L20.4615715,5.79863991 C20.5477914,5.88526942 20.5957256,5.99561759 20.6053626,6.10861993 L20.6053626,6.19619168 C20.5957256,6.30919401 20.5477914,6.41954219 20.4615715,6.50617169 L20.4615715,6.50617169 L19.9055728,7.06481161 L19.905,7.063 L17.8192388,9.16481161 L16.9125797,8.2538455 L18.356,6.799 L16.235294,6.8 L16.235294,5.4 L18.252,5.399 L16.9125797,4.05096611 L17.8192388,3.14 Z" id="形状结合" fill-opacity="0.9" fill="#000000"></path>
    </g>
</svg>