<?xml version="1.0" encoding="UTF-8"?>
<svg width="30px" height="30px" viewBox="0 0 30 30" version="1.1" xmlns="http://www.w3.org/2000/svg" xmlns:xlink="http://www.w3.org/1999/xlink">
    <title>音量调节/default</title>
    <g id="音量调节/default" stroke="none" stroke-width="1" fill="none" fill-rule="evenodd">
        <g id="编组">
            <rect id="矩形" x="0" y="0" width="30" height="30"></rect>
            <g id="3.Icons/Filled/volume-up" transform="translate(3.000000, 5.750000)" fill="#FFFFFF">
                <path d="M12.8828427,0.932842712 C12.9578573,1.00785726 13,1.10959883 13,1.21568542 L13,17.2843146 C13,17.5052285 12.8209139,17.6843146 12.6,17.6843146 C12.4939134,17.6843146 12.3921718,17.6421718 12.3171573,17.5671573 L8,13.25 L1.8,13.25 C1.3581722,13.25 1,12.8918278 1,12.45 L1,6.05 C1,5.6081722 1.3581722,5.25 1.8,5.25 L8,5.25 L12.3171573,0.932842712 C12.473367,0.776632996 12.726633,0.776632996 12.8828427,0.932842712 Z M19.75,1.875 L19.875,2 C21.75,3.875 22.875,6.5 22.875,9.25 C22.875,12 21.875,14.5 19.875,16.5 L19.75,16.625 L18.375,15.25 L18.5,15.125 C20.125,13.5 20.875,11.5 20.875,9.25 C20.875,7 20,5 18.5,3.375 L18.375,3.25 L19.75,1.875 Z M17.25,4.375 L17.375,4.5 C18.625,5.75 19.375,7.5 19.375,9.25 C19.375,11 18.625,12.75 17.375,14 L17.25,14.125 L15.875,12.75 L16,12.625 C16.875,11.75 17.375,10.5 17.375,9.25 C17.375,8 16.875,6.75 16,5.875 L15.875,5.75 L17.25,4.375 Z" id="Combined-Shape"></path>
            </g>
        </g>
    </g>
</svg>