<?xml version="1.0" encoding="UTF-8"?>
<svg width="30px" height="30px" viewBox="0 0 30 30" version="1.1" xmlns="http://www.w3.org/2000/svg" xmlns:xlink="http://www.w3.org/1999/xlink">
    <title>Alert-Defult</title>
    <g id="Alert-Defult" stroke="none" stroke-width="1" fill="none" fill-rule="evenodd">
        <g id="编组-2">
            <g id="编组-6" fill="#404040">
                <g id="编组-5备份">
                    <g id="编组-11备份">
                        <circle id="椭圆形备份-3" cx="15" cy="15" r="15"></circle>
                    </g>
                </g>
            </g>
            <g id="3.Icons/Filled/display" transform="translate(7.000000, 6.000000)" fill="#FFFFFF" opacity="0.93">
                <path d="M12.9978394,14.24 C13.3304035,14.24 13.6,14.5007018 13.6,14.8369943 L13.6,15.5921174 L2.4,15.5921174 L2.4,14.8369943 C2.4,14.5072834 2.67685547,14.24 3.00216064,14.24 L12.9978394,14.24 Z M8,4.8 C10.0700595,4.8 11.7831762,6.35662276 11.9812594,8.37116859 L11.9959747,8.57410889 L12,8.75061728 L12,12.8 L4,12.8 L4.00010688,8.74148525 L4.0043472,8.56495295 C4.10301261,6.4621272 5.86093847,4.8 8,4.8 Z M3.72928932,2.68076118 L4.71923882,3.67071068 C4.91450096,3.86597282 4.91450096,4.18255531 4.71923882,4.37781746 L4.57781746,4.51923882 C4.38255531,4.71450096 4.06597282,4.71450096 3.87071068,4.51923882 L2.88076118,3.52928932 C2.68549904,3.33402718 2.68549904,3.01744469 2.88076118,2.82218254 L3.02218254,2.68076118 C3.21744469,2.48549904 3.53402718,2.48549904 3.72928932,2.68076118 Z M11.8707107,2.68076118 C12.0659728,2.48549904 12.3825553,2.48549904 12.5778175,2.68076118 L12.5778175,2.68076118 L12.7192388,2.82218254 C12.914501,3.01744469 12.914501,3.33402718 12.7192388,3.52928932 L12.7192388,3.52928932 L11.7292893,4.51923882 C11.5340272,4.71450096 11.2174447,4.71450096 11.0221825,4.51923882 L11.0221825,4.51923882 L10.8807612,4.37781746 C10.685499,4.18255531 10.685499,3.86597282 10.8807612,3.67071068 L10.8807612,3.67071068 Z M8.1,0.4 C8.37614237,0.4 8.6,0.623857625 8.6,0.9 L8.6,2.3 C8.6,2.57614237 8.37614237,2.8 8.1,2.8 L7.9,2.8 C7.62385763,2.8 7.4,2.57614237 7.4,2.3 L7.4,0.9 C7.4,0.623857625 7.62385763,0.4 7.9,0.4 L8.1,0.4 Z" id="形状结合"></path>
            </g>
        </g>
    </g>
</svg>