<?xml version="1.0" encoding="UTF-8"?>
<svg width="90px" height="30px" viewBox="0 0 90 30" version="1.1" xmlns="http://www.w3.org/2000/svg" xmlns:xlink="http://www.w3.org/1999/xlink">
    <title>挂断按钮</title>
    <g id="挂断按钮" stroke="none" stroke-width="1" fill="none" fill-rule="evenodd">
        <rect id="Rectangle-703" stroke-opacity="0.3" stroke="#000000" stroke-width="0.5" fill="#AE0505" x="-0.25" y="-0.25" width="90.5" height="30.5" rx="4"></rect>
        <path d="M50.3541394,21.0359897 C50.1485036,20.9674379 50.0628221,21.0017138 49.8743226,21.1045416 C49.2574152,21.4473008 47.7494193,22.2699229 46.8583309,22.7326478 C46.6355588,22.8526135 46.3956504,22.9211654 46.1214693,22.9211654 C45.8301519,22.9211654 45.5731072,22.8354756 45.3503351,22.6983719 C44.099384,21.9614396 42.9169781,21.1045416 41.9059355,20.0762639 C40.8948928,19.0651243 40.038077,17.882605 39.3012154,16.6315338 C39.1641249,16.4087404 39.0784433,16.134533 39.0784433,15.8603256 C39.0784433,15.6032562 39.1469886,15.3461868 39.2669428,15.1233933 C39.7296233,14.2150814 40.5521665,12.7069409 40.8948928,12.1071123 C40.9977107,11.9185947 41.0319833,11.8157669 40.9634381,11.6272494 L39.5068512,7.75407027 C39.3183517,7.30848329 38.8899438,7.01713796 38.3758543,7 C38.1702185,7 37.9303101,7.0856898 37.8789011,7.10282776 C36.1995421,7.71979434 35,9.31362468 35,11.1988003 C35,11.7300771 35.1370905,12.227078 35.1542268,12.3470437 C35.97677,15.9460154 37.8103559,19.1508141 40.3293944,21.6700943 C42.8484329,24.1893745 46.052924,26.0231362 49.6515505,26.8457584 C49.7715047,26.8800343 50.2684579,27 50.7996837,27 C52.6846785,27 54.2783559,25.8003428 54.8952633,24.1208226 C54.9123996,24.0694087 55.0152175,23.8294773 54.9980812,23.6238218 C54.9638085,23.1096829 54.6724911,22.6812339 54.2269469,22.4927164 L50.3541394,21.0359897 Z" id="XMLID_46_-path" fill="#FFFFFF" transform="translate(45.000000, 17.000000) rotate(-225.000000) translate(-45.000000, -17.000000) "></path>
    </g>
</svg>