<?xml version="1.0" encoding="UTF-8"?>
<svg width="30px" height="30px" viewBox="0 0 30 30" version="1.1" xmlns="http://www.w3.org/2000/svg" xmlns:xlink="http://www.w3.org/1999/xlink">
    <title>最大化/default</title>
    <g id="最大化/default" stroke="none" stroke-width="1" fill="none" fill-rule="evenodd" fill-opacity="0.9">
        <g id="最大化" fill="#FFFFFF">
            <path d="M24.1475,17.7725 L24.146893,23.521893 C24.146893,23.7980354 23.9230354,24.021893 23.646893,24.021893 L17.8975,24.0225 L17.8975,22.1475 L22.271893,22.146893 L22.2725,17.7725 L24.1475,17.7725 Z M12.8210678,15.625 L14.146893,16.9508252 L8.95,22.146 L12.0033673,22.146893 L12.0033673,24.021893 L6.25336732,24.021893 C5.97722494,24.021893 5.75336732,23.7980354 5.75336732,23.521893 L5.753,22.699 L5.75,22.6960678 L5.753,22.693 L5.75336732,17.771893 L7.62836732,17.771893 L7.628,20.818 L12.8210678,15.625 Z M23.6435257,5.625 C23.9196681,5.625 24.1435257,5.84885763 24.1435257,6.125 L24.143893,6.94789303 L24.146893,6.95082521 L24.143893,6.95389303 L24.1435257,11.874 L22.2685257,11.874 L22.268893,8.82889303 L17.0758252,14.021893 L15.75,12.6960678 L20.946893,7.50089303 L17.8935257,7.5 L17.8935257,5.625 L23.6435257,5.625 Z M12,5.625 L12,7.5 L7.625,7.5 L7.625,11.875 L5.75,11.875 L5.75,6.125 C5.75,5.84885763 5.97385763,5.625 6.25,5.625 L12,5.625 Z" id="形状结合"></path>
        </g>
    </g>
</svg>