<?xml version="1.0" encoding="UTF-8"?>
<svg width="24px" height="24px" viewBox="0 0 24 24" version="1.1" xmlns="http://www.w3.org/2000/svg" xmlns:xlink="http://www.w3.org/1999/xlink">
    <!-- Generator: Sketch 64 (93537) - https://sketch.com -->
    <title>Silence-Light@2x</title>
    <desc>Created with Sketch.</desc>
    <g id="Silence-Light" stroke="none" stroke-width="1" fill="none" fill-rule="evenodd">
        <g id="编组" fill="#6467F0">
            <g id="3.Icons/Filled/mike" transform="translate(4.000000, 4.000000)">
                <g id="Group">
                    <path d="M4.33333333,6.66666667 L4.33333333,8 C4.33333333,10.0250441 5.97495592,11.6666667 8,11.6666667 C8.79373137,11.6666667 9.52855742,11.414463 10.1287134,10.9858203 L10.8618253,11.6864282 C10.195303,12.2046059 9.38452543,12.5459985 8.4998922,12.6402064 L8.5,14.6666667 L7.5,14.6666667 L7.49910842,12.6400998 C5.15732036,12.3902055 3.33333333,10.4081103 3.33333333,8 L3.33333333,6.66666667 L4.33333333,6.66666667 Z M8,1.33333333 C9.47275933,1.33333333 10.6666667,2.52724067 10.6666667,4 L10.6666667,4 L10.6666667,8 C10.6666667,8.26970134 10.6266286,8.53005128 10.552172,8.77543028 L11.3358387,9.52419442 C11.5482672,9.06003031 11.6666667,8.543842 11.6666667,8 L11.6666667,6.66666667 L12.6666667,6.66666667 L12.6666667,8 C12.6666667,8.81436432 12.4580704,9.58000837 12.0913943,10.2464158 L14.6391276,12.6834873 L13.9314396,13.4455658 L2.20710807,2.23380566 L2.91479608,1.47172711 L5.34131575,3.79212738 C5.4473781,2.41651849 6.59719332,1.33333333 8,1.33333333 Z M5.33310807,6.39933333 L9.38827575,10.277246 C8.98388829,10.5243 8.5085699,10.6666667 8,10.6666667 C6.52724067,10.6666667 5.33333333,9.47275933 5.33333333,8 L5.33333333,8 L5.33310807,6.39933333 Z" id="图标颜色"></path>
                </g>
            </g>
        </g>
    </g>
</svg>