<?xml version="1.0" encoding="UTF-8"?>
<svg width="24px" height="24px" viewBox="0 0 24 24" version="1.1" xmlns="http://www.w3.org/2000/svg" xmlns:xlink="http://www.w3.org/1999/xlink">
    <!-- Generator: Sketch 64 (93537) - https://sketch.com -->
    <title>Close Comment-Light备份@2x</title>
    <desc>Created with Sketch.</desc>
    <g id="Close-Comment-Light备份" stroke="none" stroke-width="1" fill="none" fill-rule="evenodd">
        <g id="编组" fill="#FF6146">
            <g id="3.Icons/Filled/chats" transform="translate(2.000000, 2.000000)">
                <g id="common_icons_chats">
                    <path d="M3.4434776,5.21079532 L14.0220352,15.7885294 C12.8295488,16.3481674 11.4585329,16.6666667 10,16.6666667 C9.05918056,16.6666667 8.15477548,16.5341445 7.31121181,16.2898632 L7.31121181,16.2898632 L4.82541755,17.4818277 C4.7544606,17.5158523 4.67531899,17.5290874 4.59715248,17.5200013 C4.36857294,17.4934309 4.20481216,17.286591 4.23138254,17.0580115 L4.23138254,17.0580115 L4.48313022,14.8922778 C2.75583171,13.5944442 1.66666667,11.6970037 1.66666667,9.58333333 C1.66666667,7.93323442 2.33046955,6.41491906 3.4434776,5.21079532 Z M3.43443362,1.66666667 L5.42739581,3.66063428 C6.7401452,2.92689219 8.311422,2.5 10,2.5 C14.6023729,2.5 18.3333333,5.67131636 18.3333333,9.58333333 C18.3333333,11.4301208 17.501851,13.1118356 16.1397336,14.3727577 L17.5765692,15.8088023 L16.6926858,16.6926858 L2.55055014,2.55055014 L3.43443362,1.66666667 Z" id="图标颜色-2"></path>
                </g>
            </g>
        </g>
    </g>
</svg>