<?xml version="1.0" encoding="UTF-8"?>
<svg width="40px" height="40px" viewBox="0 0 40 40" version="1.1" xmlns="http://www.w3.org/2000/svg" xmlns:xlink="http://www.w3.org/1999/xlink">
    <title>语音直播</title>
    <g id="语音直播" stroke="none" stroke-width="1" fill="none" fill-rule="evenodd">
        <path d="M10.8333333,16.6666667 L10.8333333,20 C10.8333333,25.0626102 14.9373898,29.1666667 20,29.1666667 C25.0626102,29.1666667 29.1666667,25.0626102 29.1666667,20 L29.1666667,16.6666667 L31.6666667,16.6666667 L31.6666667,20 C31.6666667,26.0210847 27.1054735,30.9768456 21.2498687,31.6005012 L21.25,36.6666667 L18.75,36.6666667 L18.7498707,31.6004735 C12.8943912,30.9766986 8.33333333,26.0209954 8.33333333,20 L8.33333333,16.6666667 L10.8333333,16.6666667 Z M20,3.33333333 C23.6818983,3.33333333 26.6666667,6.31810167 26.6666667,10 L26.6666667,10 L26.6666667,20 C26.6666667,23.6818983 23.6818983,26.6666667 20,26.6666667 C16.3181017,26.6666667 13.3333333,23.6818983 13.3333333,20 L13.3333333,20 L13.3333333,10 C13.3333333,6.31810167 16.3181017,3.33333333 20,3.33333333 Z" id="图标颜色" fill="#404040"></path>
    </g>
</svg>