<?xml version="1.0" encoding="UTF-8"?>
<svg width="30px" height="30px" viewBox="0 0 30 30" version="1.1" xmlns="http://www.w3.org/2000/svg" xmlns:xlink="http://www.w3.org/1999/xlink">
    <title>音量调节/click</title>
    <defs>
        <path d="M11.8828427,0.932842712 C11.9578573,1.00785726 12,1.10959883 12,1.21568542 L12,17.2843146 C12,17.5052285 11.8209139,17.6843146 11.6,17.6843146 C11.4939134,17.6843146 11.3921718,17.6421718 11.3171573,17.5671573 L7,13.25 L0.8,13.25 C0.3581722,13.25 -1.67936305e-16,12.8918278 0,12.45 L0,6.05 C-5.41083001e-17,5.6081722 0.3581722,5.25 0.8,5.25 L7,5.25 L11.3171573,0.932842712 C11.473367,0.776632996 11.726633,0.776632996 11.8828427,0.932842712 Z M18.75,1.875 L18.875,2 C20.75,3.875 21.875,6.5 21.875,9.25 C21.875,12 20.875,14.5 18.875,16.5 L18.75,16.625 L17.375,15.25 L17.5,15.125 C19.125,13.5 19.875,11.5 19.875,9.25 C19.875,7 19,5 17.5,3.375 L17.375,3.25 L18.75,1.875 Z M16.25,4.375 L16.375,4.5 C17.625,5.75 18.375,7.5 18.375,9.25 C18.375,11 17.625,12.75 16.375,14 L16.25,14.125 L14.875,12.75 L15,12.625 C15.875,11.75 16.375,10.5 16.375,9.25 C16.375,8 15.875,6.75 15,5.875 L14.875,5.75 L16.25,4.375 Z" id="path-1"></path>
    </defs>
    <g id="音量调节/click" stroke="none" stroke-width="1" fill="none" fill-rule="evenodd">
        <g id="编组">
            <rect id="矩形" x="0" y="0" width="30" height="30"></rect>
            <g id="Combined-Shape" transform="translate(4.000000, 5.750000)">
                <use fill="#FFFFFF" xlink:href="#path-1"></use>
                <use fill-opacity="0.3" fill="#000000" xlink:href="#path-1"></use>
            </g>
        </g>
    </g>
</svg>