<?xml version="1.0" encoding="UTF-8"?>
<svg width="32px" height="32px" viewBox="0 0 32 32" version="1.1" xmlns="http://www.w3.org/2000/svg" xmlns:xlink="http://www.w3.org/1999/xlink">
    <!-- Generator: Sketch 61.2 (89653) - https://sketch.com -->
    <title>社会社会</title>
    <desc>Created with Sketch.</desc>
    <defs>
        <polygon id="path-1" points="0.115364516 0.167322581 25.1157516 0.167322581 25.1157516 25.1676871 0.115364516 25.1676871"></polygon>
        <polygon id="path-3" points="0.115319355 0.167322581 25.1157065 0.167322581 25.1157065 25.1676645 0.115319355 25.1676645"></polygon>
        <path d="M2.89483871,0.0659354839 C1.15658065,2.21290323 0.11516129,4.94787097 0.11516129,7.92558065 L0.11516129,7.92558065 C0.11516129,10.2565806 0.753290323,12.4385484 1.86425806,14.3064194 L1.86425806,14.3064194 C2.26935484,14.3775484 2.68596774,14.4143548 3.1113871,14.4143548 L3.1113871,14.4143548 C7.07451613,14.4143548 10.2870645,11.2015806 10.2870645,7.23845161 L10.2870645,7.23845161 C10.2870645,3.27532258 7.07451613,0.0625483871 3.1113871,0.0625483871 L3.1113871,0.0625483871 C3.03912903,0.0625483871 2.96664516,0.0636774194 2.89483871,0.0659354839" id="path-5"></path>
        <path d="M0.0824193548,7.2413871 C0.0824193548,10.5763226 2.35719355,13.3799355 5.43990323,14.1849355 L5.43990323,14.1849355 C8.73058065,11.9331935 10.8899677,8.14935484 10.8899677,3.86106452 L10.8899677,3.86106452 C10.8899677,2.82325806 10.7632903,1.81458065 10.5248387,0.850387097 L10.5248387,0.850387097 C9.54506452,0.348645161 8.43477419,0.065483871 7.25832258,0.065483871 L7.25832258,0.065483871 C3.29519355,0.065483871 0.0824193548,3.27825806 0.0824193548,7.2413871" id="path-7"></path>
    </defs>
    <g id="社会社会" stroke="none" stroke-width="1" fill="none" fill-rule="evenodd">
        <g id="编组" transform="translate(2.000000, 3.000000)">
            <g transform="translate(2.709677, 0.058484)">
                <g>
                    <mask id="mask-2" fill="white">
                        <use xlink:href="#path-1"></use>
                    </mask>
                    <g id="Clip-2"></g>
                    <path d="M25.1157516,12.6674935 C25.1157516,19.5713 19.5191387,25.1676871 12.6155581,25.1676871 C5.71175161,25.1676871 0.115364516,19.5713 0.115364516,12.6674935 C0.115364516,5.7639129 5.71175161,0.1673 12.6155581,0.1673 C19.5191387,0.1673 25.1157516,5.7639129 25.1157516,12.6674935" id="Fill-1" fill="#FFD400" mask="url(#mask-2)"></path>
                </g>
                <g>
                    <mask id="mask-4" fill="white">
                        <use xlink:href="#path-3"></use>
                    </mask>
                    <g id="Clip-4"></g>
                    <path d="M12.6155129,0.167277419 C5.71170645,0.167277419 0.115319355,5.76389032 0.115319355,12.667471 C0.115319355,19.5712774 5.71170645,25.1676645 12.6155129,25.1676645 C19.5190935,25.1676645 25.1157065,19.5712774 25.1157065,12.667471 C25.1157065,5.76389032 19.5190935,0.167277419 12.6155129,0.167277419 M12.6155129,0.667212903 C19.2325452,0.667212903 24.615771,6.05066452 24.615771,12.667471 C24.615771,19.2845032 19.2325452,24.667729 12.6155129,24.667729 C5.99848065,24.667729 0.615254839,19.2845032 0.615254839,12.667471 C0.615254839,6.05066452 5.99848065,0.667212903 12.6155129,0.667212903" id="Fill-3" fill="#BE6D00" mask="url(#mask-4)"></path>
                </g>
            </g>
            <g transform="translate(2.709677, 4.800419)">
                <mask id="mask-6" fill="white">
                    <use xlink:href="#path-5"></use>
                </mask>
                <g id="Clip-6"></g>
                <path d="M2.89483871,0.0659354839 C1.15658065,2.21290323 0.11516129,4.94787097 0.11516129,7.92558065 L0.11516129,7.92558065 C0.11516129,10.2565806 0.753290323,12.4385484 1.86425806,14.3064194 L1.86425806,14.3064194 C2.26935484,14.3775484 2.68596774,14.4143548 3.1113871,14.4143548 L3.1113871,14.4143548 C7.07451613,14.4143548 10.2870645,11.2015806 10.2870645,7.23845161 L10.2870645,7.23845161 C10.2870645,3.27532258 7.07451613,0.0625483871 3.1113871,0.0625483871 L3.1113871,0.0625483871 C3.03912903,0.0625483871 2.96664516,0.0636774194 2.89483871,0.0659354839" id="Fill-5" mask="url(#mask-6)"></path>
            </g>
            <g transform="translate(16.935484, 8.864935)">
                <mask id="mask-8" fill="white">
                    <use xlink:href="#path-7"></use>
                </mask>
                <g id="Clip-8"></g>
                <path d="M0.0824193548,7.2413871 C0.0824193548,10.5763226 2.35719355,13.3799355 5.43990323,14.1849355 L5.43990323,14.1849355 C8.73058065,11.9331935 10.8899677,8.14935484 10.8899677,3.86106452 L10.8899677,3.86106452 C10.8899677,2.82325806 10.7632903,1.81458065 10.5248387,0.850387097 L10.5248387,0.850387097 C9.54506452,0.348645161 8.43477419,0.065483871 7.25832258,0.065483871 L7.25832258,0.065483871 C3.29519355,0.065483871 0.0824193548,3.27825806 0.0824193548,7.2413871" id="Fill-7" mask="url(#mask-8)"></path>
            </g>
            <g transform="translate(0.000000, 3.671387)">
                <path d="M12.9562774,1.10627097 C11.2275032,0.258141935 10.3240516,1.14962581 9.88327742,1.41562581 C9.71911613,1.51475484 9.62969677,1.56804516 9.54818065,1.49081935 C9.44092258,1.38875484 9.7179871,0.814303226 10.5205032,0.421625806 C11.7899871,-0.199567742 12.9752452,0.128529032 13.3864387,0.532948387 C13.6122452,0.754916129 13.523729,1.01120645 13.4218903,1.10559355 C13.2949871,1.22323871 13.1335355,1.19320645 12.9562774,1.10627097" id="Fill-9" fill="#835C25"></path>
                <path d="M16.9394129,2.55529355 C16.9394129,2.55529355 17.5714452,3.51180968 18.7086065,3.10106774 C20.0327355,2.62258387 20.8533161,1.76474516 22.2420258,2.08042258 C22.8880581,2.22742258 23.7867677,2.72780968 24.2785742,3.77713226 C24.4242194,4.08829355 24.2695419,4.3314871 23.9816387,4.1601 C23.6361548,3.95439032 22.7419613,2.73684194 21.465929,2.81497097 C20.0718,2.90032581 19.7141226,3.47139032 18.9337355,3.7121 C17.9024774,4.0304871 17.0940903,3.66422903 16.6402194,2.96603548 C16.2396387,2.34958387 16.6923806,2.20822903 16.9394129,2.55529355" id="Fill-11" fill="#835C25"></path>
                <path d="M12.5378129,7.32735161 L6.56613548,5.89077097 C5.84807097,5.71802903 5.40187742,4.98912581 5.57461935,4.27106129 L5.69632903,3.76570645 C5.86907097,3.04764194 6.59797419,2.60144839 7.31603871,2.77419032 L13.2877161,4.21077097 C14.0057806,4.3835129 14.4517484,5.11241613 14.2790065,5.83048065 L14.1575226,6.33583548 C13.9847806,7.0539 13.2558774,7.50009355 12.5378129,7.32735161" id="Fill-13" fill="#FFFFFF"></path>
                <path d="M12.3402097,7.03755161 C12.6938226,7.12290645 13.0605323,7.06397097 13.3728226,6.8727129 C13.6853387,6.68145484 13.904371,6.38158387 13.9892742,6.02819677 C14.165629,5.29522903 13.7128871,4.55526129 12.9799194,4.37890645 L7.51359677,3.06380968 C6.78085484,2.88768065 6.04066129,3.34019677 5.86453226,4.07339032 C5.68817742,4.80635806 6.14091935,5.5461 6.8738871,5.72245484 L12.3402097,7.03755161 Z M12.6601774,7.54674516 C12.5170161,7.54674516 12.3727258,7.52980968 12.2300161,7.4954871 L12.2300161,7.4954871 L6.76391935,6.18039032 C6.28814516,6.06613226 5.88462903,5.77168065 5.62766129,5.35190645 C5.37069355,4.93213226 5.2921129,4.43897097 5.40659677,3.96319677 C5.64369355,2.97777742 6.63859677,2.36877742 7.62379032,2.60587419 L13.0898871,3.92097097 C14.0755323,4.15806774 14.6843065,5.15274516 14.4472097,6.13816452 C14.3327258,6.61393871 14.0385,7.01745484 13.6187258,7.27442258 C13.3249516,7.45439032 12.9950484,7.54674516 12.6601774,7.54674516 L12.6601774,7.54674516 Z" id="Fill-15" fill="#835C25"></path>
                <path d="M8.55291613,4.39155161 C8.55291613,5.14597097 7.94143226,5.75745484 7.1870129,5.75745484 C6.43259355,5.75745484 5.82088387,5.14597097 5.82088387,4.39155161 C5.82088387,3.63713226 6.43259355,3.02564839 7.1870129,3.02564839 C7.94143226,3.02564839 8.55291613,3.63713226 8.55291613,4.39155161" id="Fill-17" fill="#000000"></path>
                <path d="M23.3865484,9.93738065 L17.414871,8.5008 C16.6968065,8.32805806 16.2506129,7.59915484 16.4233548,6.88109032 L16.5450645,6.37573548 C16.7178065,5.65767097 17.4467097,5.21147742 18.1647742,5.38421935 L24.1362258,6.8208 C24.8545161,6.99354194 25.3004839,7.72244516 25.1277419,8.44050968 L25.0062581,8.94586452 C24.8335161,9.66392903 24.1046129,10.1101226 23.3865484,9.93738065" id="Fill-19" fill="#FFFFFF"></path>
                <path d="M23.1889226,9.64758065 C23.9218903,9.82393548 24.6616323,9.37119355 24.8379871,8.638 C24.9231161,8.28483871 24.8644065,7.91812903 24.6731484,7.6053871 C24.4818903,7.29287097 24.1817935,7.07406452 23.8286323,6.98893548 L18.3623097,5.67383871 C18.0086968,5.58893548 17.6422129,5.64741935 17.3296968,5.83890323 C17.0171806,6.03016129 16.7981484,6.33003226 16.7132452,6.68341935 C16.6281161,7.03680645 16.6868258,7.40351613 16.8780839,7.71603226 C17.0693419,8.02854839 17.3694387,8.24758065 17.7226,8.33248387 L23.1889226,9.64758065 Z M23.5086645,10.1567742 C23.3668581,10.1567742 23.2227935,10.1402903 23.078729,10.1055161 L23.078729,10.1055161 L17.6126323,8.79041935 C17.1368581,8.67616129 16.7333419,8.38170968 16.4763742,7.96193548 C16.2194065,7.54216129 16.1408258,7.049 16.2553097,6.57322581 C16.3697935,6.09767742 16.6637935,5.69416129 17.0837935,5.43696774 C17.5035677,5.18 17.9969548,5.10141935 18.4725032,5.21590323 L23.9386,6.531 C24.9242452,6.76809677 25.5330194,7.76277419 25.2959226,8.74819355 C25.0936,9.58977419 24.3385032,10.1567742 23.5086645,10.1567742 L23.5086645,10.1567742 Z" id="Fill-21" fill="#835C25"></path>
                <path d="M19.4016516,7.00158065 C19.4016516,7.756 18.7901677,8.36748387 18.0357484,8.36748387 C17.281329,8.36748387 16.6696194,7.756 16.6696194,7.00158065 C16.6696194,6.24716129 17.281329,5.63567742 18.0357484,5.63567742 C18.7901677,5.63567742 19.4016516,6.24716129 19.4016516,7.00158065" id="Fill-23" fill="#000000"></path>
                <path d="M12.1634032,10.4012323 C12.7001452,10.4764258 15.2650806,11.4823935 17.2365968,10.3149742 C17.6324355,10.0805871 17.854629,9.91800645 18.0282742,10.0390387 C18.2080161,10.1639097 18.1118226,10.4908774 17.7548226,10.8359097 C16.4659194,12.0821355 14.039629,12.0843935 12.5985323,11.4921032 C12.3081452,11.3726516 11.5627581,11.0156516 11.6774677,10.6539097 C11.7285,10.4926839 11.8867903,10.3623935 12.1634032,10.4012323" id="Fill-25" fill="#835C25"></path>
                <path d="M13.2680258,18.9764806 C13.1720581,18.2383194 12.6321548,17.5423839 11.6688645,16.9117065 C11.0090581,16.4549 10.1645419,15.5214161 9.15857419,14.1369968 C9.10483226,14.0629323 9.06802581,14.0128032 9.05154194,13.9922548 C9.01721935,13.9493516 8.86638065,13.7163194 8.36825161,12.5211258 C8.3221871,12.4104806 8.27657419,12.2973516 8.23050968,12.1835452 C7.9548,11.5004806 7.66938065,10.7941581 7.18909032,10.3152226 C7.13015484,10.2562871 7.0694129,10.2007387 7.00754194,10.1463194 C7.19315484,10.0476419 7.3528,9.91644839 7.47292903,9.7525129 C7.72470323,9.40906129 7.78950968,8.96015806 7.65086452,8.52096452 C7.44244516,7.86093226 7.0341871,7.76248065 6.80928387,7.76248065 C6.70496129,7.76248065 6.59815484,7.7855129 6.49473548,7.82593226 C5.8724129,6.90667419 4.95631613,6.40402903 3.87899355,6.40402903 C2.46409032,6.40402903 1.09389677,7.30319032 0.692187097,8.49567419 C-0.00397419355,10.5615774 0.700993548,13.9249645 0.94396129,14.5978677 C0.988219355,14.7207065 1.03902581,14.9112871 1.09773548,15.1319 C1.38315484,16.2029 1.91447742,18.196771 3.41947742,18.6483839 C3.86657419,18.7827387 4.28386452,18.8509323 4.66028387,18.8509323 C5.43028387,18.8509323 5.91283226,18.5754484 6.2048,18.2961258 C6.44234839,18.6495129 6.69999355,19.015771 6.98812258,19.393771 C7.97354194,20.6862871 9.32296129,21.4273839 10.690671,21.4273839 C11.5083161,21.4273839 12.2286387,21.1473839 12.6673806,20.6594161 C13.135929,20.138029 13.343671,19.5561258 13.2680258,18.9764806" id="Fill-27" fill="#FFD400"></path>
                <path d="M12.4813839,20.4923194 C12.0957065,20.9215774 11.4451581,21.1774161 10.6907387,21.1774161 C9.5775129,21.1774161 8.23780323,20.6205774 7.1869,19.2422548 C5.91831935,17.5785129 5.21448065,16.1159645 4.41535161,15.1452226 C4.40835161,15.1154161 4.39615806,15.0865129 4.37741613,15.0598677 C3.91654516,14.4014161 3.56564194,13.3609 3.56202903,13.3505129 C3.51822258,13.2195452 3.37641613,13.1486419 3.24567419,13.1926742 C3.11470645,13.2364806 3.04402903,13.3780613 3.08783548,13.5088032 C3.09731935,13.5372548 3.24319032,13.9696742 3.47441613,14.4653194 C2.8995129,14.370029 1.68557742,13.9330935 1.94999677,11.9342548 C2.16157742,10.3344161 3.37167419,9.49893226 4.67683548,9.49893226 C5.49154516,9.49893226 6.34306129,9.82409355 7.01257742,10.492029 C7.53419032,11.0125129 7.82502903,11.8671903 8.13754516,12.6170935 C8.45006129,13.3672226 8.73141613,13.9922548 8.8562871,14.1485129 C8.98138387,14.304771 10.3529323,16.3047387 11.5264484,17.1171903 C13.3875452,18.3360935 13.2938355,19.5881903 12.4813839,20.4923194 M4.66012581,18.6009645 C4.33270645,18.6009645 3.94657742,18.5458677 3.49157742,18.409029 C1.8249,17.9088677 1.44983548,15.2630935 1.17909355,14.5129645 C0.908351613,13.7630613 0.283319355,10.492029 0.929125806,8.57538387 C1.29877097,7.47841613 2.57660968,6.65422258 3.87906129,6.65399677 C4.85183548,6.65399677 5.83838387,7.11373871 6.47086774,8.26286774 C6.66393226,8.85131935 6.70954516,9.28260968 6.69102903,9.59625484 C6.0845129,9.20786774 5.39196452,8.99899677 4.67683548,8.99899677 C3.5782871,8.99899677 2.65112581,9.48222258 2.06967419,10.2856419 C1.93306129,10.1038677 1.7232871,9.7769 1.55641613,9.49102903 C1.48686774,9.37202903 1.33399677,9.33160968 1.21454516,9.40115806 C1.09531935,9.47070645 1.05512581,9.62380323 1.12467419,9.74302903 C1.46835161,10.3326097 1.67338387,10.6042548 1.79667419,10.734771 C1.62709355,11.0748355 1.50899677,11.4548677 1.45435161,11.868771 C1.32248065,12.865029 1.50402903,13.6535452 1.99425484,14.2126419 C2.51722258,14.8094484 3.22241613,14.9505774 3.57219032,14.9828677 C4.10983548,15.4498355 4.57093226,16.1884484 5.14470645,17.1072548 C5.36802903,17.4649323 5.60625484,17.8463194 5.8709,18.2469 C5.60896452,18.4383839 5.22193226,18.6009645 4.66012581,18.6009645 M7.41248065,8.59638387 C7.54615806,9.01999677 7.45199677,9.42441613 7.18283548,9.70644839 C7.2322871,9.09699677 7.05615806,8.44283548 6.94596452,8.10706129 L6.9315129,8.06280323 L6.90983548,8.0235129 C7.10764194,8.06348065 7.29619032,8.22786774 7.41248065,8.59638387 M13.516029,18.9441903 C13.4101258,18.1319645 12.8349968,17.377771 11.8062226,16.7028355 C11.1703516,16.2607065 10.3475129,15.3482226 9.36073871,13.9902226 C9.2972871,13.9028355 9.26838387,13.8633194 9.24670645,13.8359968 C9.22548065,13.8070935 9.08525484,13.5914484 8.59909355,12.4249323 C8.55325484,12.3149645 8.50809355,12.2029645 8.46248065,12.0898355 C8.1845129,11.4022548 7.89570645,10.6932226 7.40412581,10.1806419 C7.50573871,10.0982226 7.59741613,10.0056419 7.67441613,9.90019032 C7.97383548,9.49170645 8.05219032,8.9615129 7.88915806,8.44577097 C7.62315806,7.6035129 7.04554516,7.5125129 6.80935161,7.5125129 L6.80935161,7.5125129 C6.73799677,7.5125129 6.66686774,7.52222258 6.59641613,7.5369 C5.93073871,6.64157742 4.98415806,6.15406129 3.8792871,6.15406129 L3.87883548,6.15406129 C2.36141613,6.1542871 0.889609677,7.12660968 0.455158065,8.41573871 C-0.261551613,10.5430613 0.459674194,13.9931581 0.70873871,14.682771 C0.749383871,14.7954484 0.798835484,14.9810613 0.856190323,15.196029 C1.15425484,16.3144484 1.70883548,18.3961581 3.34796452,18.8879645 C3.81786774,19.0293194 4.25954516,19.1009 4.66012581,19.1009 C5.33777097,19.1009 5.81783548,18.9035452 6.15180323,18.6628355 C6.34848065,18.9491581 6.55893226,19.2433839 6.78925484,19.5455129 C7.82231935,20.9003516 9.24422258,21.6773516 10.6907387,21.6773516 C11.5790613,21.6773516 12.3673516,21.3673194 12.8532871,20.8265129 C13.3719645,20.2493516 13.6011581,19.5983516 13.516029,18.9441903" id="Fill-29" fill="#BE6D00"></path>
            </g>
        </g>
    </g>
</svg>