<?xml version="1.0" encoding="UTF-8"?>
<svg width="16px" height="16px" viewBox="0 0 16 16" version="1.1" xmlns="http://www.w3.org/2000/svg" xmlns:xlink="http://www.w3.org/1999/xlink">
    <title>关机备份</title>
    <g id="关机备份" stroke="none" stroke-width="1" fill="none" fill-rule="evenodd">
        <g id="编组-5">
            <rect id="矩形" x="0" y="0" width="16" height="16"></rect>
            <path d="M15,8 C15,11.8659932 11.8659932,15 8,15 C4.13400675,15 1,11.8659932 1,8 C1,5.20749895 2.63517574,2.79691366 5.00026701,1.67350433 L5.00063427,3.45551881 C3.52734114,4.42985451 2.55555556,6.10144091 2.55555556,8 C2.55555556,11.0068836 4.99311636,13.4444444 8,13.4444444 C11.0068836,13.4444444 13.4444444,11.0068836 13.4444444,8 C13.4444444,6.10187487 12.4731031,4.43061867 11.0003759,3.45618704 L11.0007361,1.6739809 C13.3652866,2.7975953 15,5.20789376 15,8 Z" id="形状结合" fill="#FA5151"></path>
            <rect id="矩形" fill="#FA5151" x="7" y="1" width="2" height="6"></rect>
        </g>
    </g>
</svg>