<?xml version="1.0" encoding="UTF-8"?>
<svg width="32px" height="32px" viewBox="0 0 32 32" version="1.1" xmlns="http://www.w3.org/2000/svg" xmlns:xlink="http://www.w3.org/1999/xlink">
    <!-- Generator: Sketch 61.2 (89653) - https://sketch.com -->
    <title>心心</title>
    <desc>Created with Sketch.</desc>
    <g id="心心" stroke="none" stroke-width="1" fill="none" fill-rule="evenodd">
        <g id="编组" transform="translate(2.000000, 4.000000)">
            <path d="M13.8084779,3.63402239 C9.39550052,-3.26759924 0.170345182,0.503526072 0.00205470925,7.90855146 C-0.111688124,12.9178837 4.36880109,16.5945902 7.73876888,19.3662462 C11.2410697,22.2462637 12.2290424,22.8690363 13.3451898,24.0277456 C14.512705,22.9208933 15.4823321,22.2831996 19.1573263,19.6257756 C22.6977861,17.0671734 27.293975,13.485864 27.4077178,8.47726563 C27.5747853,1.12605405 18.5303954,-3.05992684 13.8084779,3.63402239" id="Fill-1" fill="#F95251"></path>
            <path d="M13.8084779,3.63402239 C9.39550052,-3.26759924 0.170345182,0.503526072 0.00205470925,7.90855146 C-0.111688124,12.9178837 4.36880109,16.5945902 7.73876888,19.3662462 C11.2410697,22.2462637 12.2290424,22.8690363 13.3451898,24.0277456 C14.512705,22.9208933 15.4823321,22.2831996 19.1573263,19.6257756 C22.6977861,17.0671734 27.293975,13.485864 27.4077178,8.47726563 C27.5747853,1.12605405 18.5303954,-3.05992684 13.8084779,3.63402239 Z" id="Stroke-3" stroke="#C83D3A" stroke-width="1.46764947"></path>
        </g>
    </g>
</svg>