<?xml version="1.0" encoding="UTF-8"?>
<svg width="24px" height="24px" viewBox="0 0 24 24" version="1.1" xmlns="http://www.w3.org/2000/svg" xmlns:xlink="http://www.w3.org/1999/xlink">
    <!-- Generator: Sketch 64 (93537) - https://sketch.com -->
    <title>Draw-Light@2x</title>
    <desc>Created with Sketch.</desc>
    <g id="Draw-Light" stroke="none" stroke-width="1" fill="none" fill-rule="evenodd">
        <g id="编组-2">
            <g id="编组" transform="translate(4.000000, 4.000000)">
                <rect id="矩形" x="0" y="0" width="16" height="16"></rect>
                <path d="M10.0068635,1.63881008 C11.1822813,1.31504805 12.133292,1.54431863 12.4175144,2.46731084 C12.6198386,3.12434458 12.3422144,3.89883774 11.7453729,4.67156895 L11.621796,4.82605637 C10.5936225,6.06878135 9.44425952,7.92383065 8.77975357,9.37155368 L8.62260056,9.7263201 L8.77809316,9.61944743 C10.0797943,8.73338215 11.0445732,8.41564737 11.7455719,8.78919981 L11.8355166,8.84185449 C12.5171186,9.27792809 12.5656529,10.0443257 12.1983369,11.0180507 L12.1767089,11.0710863 L12.2817558,11.0131176 C12.4392968,10.923716 12.6089947,10.8244319 12.790127,10.715399 L12.9750441,10.6031215 L13.8,11.9408322 C12.6170278,12.6651118 11.814666,13.0617804 11.2833359,13.1511597 C10.0170089,13.3641787 9.77646859,12.3592261 10.2732636,11.3866532 L10.3272746,11.286209 C10.507789,10.9666566 10.6417612,10.6797961 10.7263212,10.441517 L10.7719261,10.2986111 L10.7177355,10.319989 C10.3349006,10.4792753 9.82630539,10.7863781 9.21129977,11.2404243 L9.02362513,11.3810455 C8.02321818,12.1413462 7.04530426,12.3172039 6.75159199,11.1723784 C6.62108874,10.6637057 6.79916095,9.98113489 7.20506816,9.03707918 C7.85741316,7.51986044 9.05204492,5.53503074 10.1811589,4.10553453 L10.405928,3.82734282 C10.6350027,3.55046659 10.7796364,3.30404841 10.8533933,3.13759391 L10.8814408,3.06921722 L10.8485226,3.07089241 C10.767125,3.0773538 10.6670247,3.09324415 10.5497125,3.12071371 L10.4267183,3.15212264 C8.00691252,3.81864411 4.61044735,6.64527307 2.55241954,10.3399252 L2.39276654,10.6333881 L1,9.89902713 C3.23485608,5.69097147 7.09076406,2.44203277 10.0068635,1.63881008 Z" id="Path-11" fill="#6467F0" fill-rule="nonzero"></path>
            </g>
        </g>
    </g>
</svg>