<?xml version="1.0" encoding="UTF-8"?>
<svg width="24px" height="24px" viewBox="0 0 24 24" version="1.1" xmlns="http://www.w3.org/2000/svg" xmlns:xlink="http://www.w3.org/1999/xlink">
    <title>画板</title>
    <g id="画板" stroke="none" stroke-width="1" fill="none" fill-rule="evenodd">
        <g id="编组-2">
            <rect id="矩形" stroke="#979797" stroke-width="1.2" fill="#D8D8D8" opacity="0" x="0.6" y="0.6" width="22.8" height="22.8"></rect>
            <path d="M17.1541722,4.5 C18.4914503,4.5 18.9763797,4.63923842 19.4652685,4.90069906 C19.9541574,5.16215969 20.3378403,5.54584256 20.5993009,6.03473144 C20.8607616,6.52362033 21,7.00854969 21,8.3458278 L21,15.6541722 C21,16.9914503 20.8607616,17.4763797 20.5993009,17.9652686 C20.3378403,18.4541574 19.9541574,18.8378403 19.4652685,19.0993009 C18.9763797,19.3607616 18.4914503,19.5 17.1541722,19.5 L6.84582779,19.5 C5.50854968,19.5 5.02362032,19.3607616 4.53473143,19.0993009 C4.04584254,18.8378403 3.66215968,18.4541574 3.40069904,17.9652686 C3.1392384,17.4763797 2.99999999,16.9914503 2.99999999,15.6541722 L2.99999999,8.3458278 C2.99999999,7.00854969 3.1392384,6.52362033 3.40069904,6.03473144 C3.66215968,5.54584256 4.04584254,5.16215969 4.53473143,4.90069906 C5.02362032,4.63923842 5.50854968,4.5 6.84582779,4.5 L17.1541722,4.5 Z M10.804,7.92 C10.4726291,7.92 10.204,8.18862915 10.204,8.52 L10.204,8.52 L10.204,15.48 C10.204,15.8113708 10.4726291,16.08 10.804,16.08 C11.1353708,16.08 11.404,15.8113708 11.404,15.48 L11.404,15.48 L11.404,8.52 C11.404,8.18862915 11.1353708,7.92 10.804,7.92 Z M15.604,9.6 C15.2726291,9.6 15.004,9.86862915 15.004,10.2 L15.004,10.2 L15.004,13.8 C15.004,14.1313708 15.2726291,14.4 15.604,14.4 C15.9353708,14.4 16.204,14.1313708 16.204,13.8 L16.204,13.8 L16.204,10.2 C16.204,9.86862915 15.9353708,9.6 15.604,9.6 Z M8.40399999,9.6 C8.07262914,9.6 7.80399999,9.86862915 7.80399999,10.2 L7.80399999,10.2 L7.80399999,13.8 C7.80399999,14.1313708 8.07262914,14.4 8.40399999,14.4 C8.73537084,14.4 9.00399999,14.1313708 9.00399999,13.8 L9.00399999,13.8 L9.00399999,10.2 C9.00399999,9.86862915 8.73537084,9.6 8.40399999,9.6 Z M13.204,10.2 C12.8726291,10.2 12.604,10.4686292 12.604,10.8 L12.604,10.8 L12.604,13.2 C12.604,13.5313708 12.8726291,13.8 13.204,13.8 C13.5353708,13.8 13.804,13.5313708 13.804,13.2 L13.804,13.2 L13.804,10.8 C13.804,10.4686292 13.5353708,10.2 13.204,10.2 Z" id="形状结合" fill="#6467F0"></path>
        </g>
    </g>
</svg>