<?xml version="1.0" encoding="UTF-8"?>
<svg width="32px" height="32px" viewBox="0 0 32 32" version="1.1" xmlns="http://www.w3.org/2000/svg" xmlns:xlink="http://www.w3.org/1999/xlink">
    <!-- Generator: Sketch 61.2 (89653) - https://sketch.com -->
    <title>礼物</title>
    <desc>Created with Sketch.</desc>
    <defs>
        <polygon id="path-1" points="8.10155284e-05 0.265324606 23.8874423 0.265324606 23.8874423 26.88 8.10155284e-05 26.88"></polygon>
    </defs>
    <g id="礼物" stroke="none" stroke-width="1" fill="none" fill-rule="evenodd">
        <g id="编组" transform="translate(4.000000, 2.000000)">
            <path d="M16.9281008,3.2032 C16.841759,3.2032 16.7546027,3.21107394 16.6696184,3.22682182 C16.1947384,3.30691879 15.7958827,3.61210182 15.5974051,4.04435394 L14.4206584,6.55586909 L16.3375554,6.55451152 L17.5409105,5.98948848 C17.9750633,5.78883879 18.2799748,5.38998303 18.3584427,4.92080485 C18.4439699,4.44728242 18.2924645,3.9683297 17.9538851,3.63463758 C17.6818269,3.3590497 17.3095796,3.2032 16.9281008,3.2032 L16.9281008,3.2032 Z M6.95209115,3.20890182 C6.57034085,3.20890182 6.19755055,3.36529455 5.92929358,3.63762424 C5.58718448,3.97620364 5.43622206,4.45515636 5.5212063,4.92324848 C5.6018463,5.39704242 5.90730085,5.79589818 6.33928145,5.99491879 L7.54535176,6.5596703 L9.46197721,6.55831273 L8.28387297,4.0508703 C8.08322327,3.61671758 7.684096,3.31207758 7.21546085,3.23333818 C7.12477479,3.21704727 7.03816145,3.20890182 6.95209115,3.20890182 L6.95209115,3.20890182 Z M2.5285663,14.2253576 C1.36077964,14.2253576 0.409933576,13.2750545 0.409390545,12.1072679 L0.407218192,8.68346182 C0.406675394,7.51458909 1.35670691,6.5632 2.52530812,6.56265697 L3.45443297,6.56211394 C3.25188267,6.18905212 3.10933721,5.78422303 3.03412752,5.36364606 C2.809856,4.08426667 3.22310206,2.77284848 4.14000873,1.85431273 C4.88233115,1.11090424 5.91110206,0.684625455 6.96240873,0.684625455 C7.75061721,0.684625455 8.52172024,0.919486061 9.19263418,1.36368485 C9.78209358,1.75412364 10.2694633,2.33516606 10.6020693,3.04327758 L11.9411821,5.89255758 L13.2626463,3.07097212 C13.6634027,2.21488485 14.2759408,1.55048727 15.0348257,1.14918788 C15.6107093,0.841832727 16.2612596,0.678652121 16.9145251,0.678652121 C17.9802221,0.678652121 18.982656,1.09298424 19.7371966,1.8448097 C20.6557324,2.76253091 21.0706075,4.07340606 20.8479651,5.35197091 C20.7727554,5.77336242 20.630753,6.17846303 20.4287457,6.55206788 L21.357599,6.55152485 C22.5267433,6.55152485 23.4775893,7.50155636 23.4781324,8.66961455 L23.4803047,12.0936921 C23.480576,12.6598012 23.2603772,13.1922424 22.8604354,13.5927273 C22.4602221,13.9929406 21.9283239,14.2139539 21.3622148,14.2142255 L2.52992388,14.2253576 L2.5285663,14.2253576 Z M3.97166933,26.4755782 C2.80388267,26.4755782 1.85330812,25.5255467 1.85249358,24.3574885 L1.84787772,16.6535176 C1.8476063,15.9568097 2.41398691,15.3896145 3.11042327,15.389343 L9.95857842,15.3852703 C10.6552863,15.3852703 11.2222099,15.9516509 11.2224815,16.6478158 L11.2276403,25.2078739 C11.2279118,25.9045818 10.6618027,26.471777 9.96509479,26.4720485 L3.97302691,26.4755782 L3.97166933,26.4755782 Z M13.9313881,26.4791079 C13.2352233,26.4791079 12.6685712,25.9127273 12.6682996,25.2162909 L12.6631404,16.6562327 C12.6628693,16.3187394 12.7940112,16.0016097 13.0324015,15.7626764 C13.2707918,15.5240145 13.5879215,15.3926012 13.9254148,15.3923297 L20.7738415,15.388257 C21.4705493,15.388257 22.037473,15.9546376 22.0377445,16.6505309 L22.0423605,24.3547733 C22.0426318,24.9208824 21.822433,25.4533236 21.4224912,25.8538085 C21.0222778,26.2540218 20.4903796,26.4750352 19.9242705,26.4753067 L13.9322027,26.4791079 L13.9313881,26.4791079 Z" id="Fill-1" fill="#13ADFE"></path>
            <g transform="translate(0.000000, 0.006191)">
                <mask id="mask-2" fill="white">
                    <use xlink:href="#path-1"></use>
                </mask>
                <g id="Clip-4"></g>
                <path d="M20.7745202,14.9746579 L20.7745202,14.9746579 L20.7739772,14.9746579 L13.925279,14.9787307 C13.0042996,14.9792737 12.2551893,15.7291985 12.2557321,16.6501779 L12.2608912,25.2105076 C12.2614342,26.130944 13.010816,26.8800543 13.9315239,26.8800543 L19.9246778,26.8765246 C21.3178221,26.8757101 22.4505833,25.7415913 22.4497692,24.348447 L22.445153,16.6442046 C22.4446099,15.7237682 21.6952281,14.9746579 20.7745202,14.9746579 L20.7745202,14.9746579 Z M9.95925721,14.9719428 L9.9589857,14.9719428 L3.11028752,14.9760155 C2.66391661,14.9760155 2.24469721,15.1500567 1.92919661,15.4658288 C1.61396752,15.781601 1.44046933,16.2010919 1.44074053,16.6474628 L1.44535661,24.3517052 C1.44617115,25.7437634 2.57947539,26.8765246 3.97180509,26.8765246 L9.96550206,26.8729949 C10.4116015,26.8727234 10.8310924,26.6986822 11.1463215,26.3831816 C11.4618221,26.0674095 11.6353202,25.647647 11.635049,25.2015476 L11.6298899,16.6414895 C11.6293469,15.7207816 10.8799651,14.9719428 9.95925721,14.9719428 L9.95925721,14.9719428 Z M7.63590206,6.14607127 L6.51427297,5.62096097 C6.19985842,5.47597188 5.9807457,5.19006642 5.92372752,4.85393067 C5.86100752,4.50829188 5.96934206,4.16482521 6.21180509,3.9245343 C6.41136873,3.721984 6.67826812,3.61011976 6.95195539,3.61011976 C7.01358933,3.61011976 7.07549479,3.61582158 7.13631418,3.6269537 C7.48385358,3.68532945 7.77003055,3.90362764 7.91284752,4.21315491 L8.82079418,6.14552824 L7.63590206,6.14607127 Z M15.0612984,6.14172703 L15.9646293,4.21315491 C16.1096184,3.89874036 16.3952524,3.67989915 16.7313881,3.62315248 C16.8038827,3.61011976 16.8663312,3.60441794 16.9282366,3.60441794 C17.2013808,3.60441794 17.4682802,3.71573915 17.6602415,3.91041552 C17.9108499,4.1574943 18.019456,4.50096097 17.9586366,4.8365537 C17.9002608,5.18327855 17.6819627,5.469184 17.3724354,5.61227248 L16.2464621,6.141184 L15.0612984,6.14172703 Z M16.9146608,0.265324606 C16.1946027,0.265324606 15.4778027,0.444796121 14.8416427,0.784461576 C14.0067336,1.22621673 13.3320184,1.95550642 12.893793,2.89196218 L11.9405033,4.92751127 L10.9706512,2.86372461 C10.6062778,2.08800582 10.0692208,1.4496737 9.41758448,1.01796461 C8.67987782,0.529508848 7.83084994,0.271026424 6.96227297,0.271026424 C5.80371782,0.271026424 4.67014206,0.741019152 3.85179539,1.56045188 C2.84148752,2.57266036 2.38588509,4.01793552 2.63269236,5.42655612 C2.67667782,5.67336339 2.74184145,5.91501188 2.82655418,6.14905794 L2.52517236,6.14932945 C1.13202812,6.150144 -0.000733090909,7.28426279 8.10155284e-05,8.67740703 L0.00198206061,12.1014846 C0.00279660606,13.4938143 1.13637236,14.6265755 2.52870206,14.6265755 L10.2343021,14.6219598 L13.6583796,14.6197876 L21.3626221,14.6151719 C22.0373372,14.6149004 22.6715966,14.3518022 23.1486487,13.874207 C23.6254293,13.3966119 23.8879845,12.762081 23.8874423,12.0870943 L23.8855408,8.66301673 C23.8847263,7.27068703 22.7514221,6.13792582 21.3590924,6.13792582 L21.0560815,6.13819733 C21.1402512,5.9046943 21.2048718,5.66386036 21.2485857,5.41813915 C21.4943069,4.00653188 21.0370754,2.56179976 20.0254099,1.55094885 C19.1934875,0.721741576 18.0889639,0.265324606 16.9146608,0.265324606 L16.9146608,0.265324606 Z M20.7745202,15.7892034 C21.2469566,15.7892034 21.630336,16.1720398 21.6306075,16.6447476 L21.6352236,24.3489901 C21.6357663,25.2944058 20.8695505,26.0614361 19.9241348,26.0619792 L13.9320669,26.0655088 L13.9315239,26.0655088 C13.458816,26.0655088 13.0757081,25.6826725 13.0754366,25.2099646 L13.0702777,16.6499064 L13.0702777,16.6499064 C13.0700063,16.176927 13.4531142,15.7935476 13.9258221,15.7932761 L20.7739772,15.7892034 L20.7745202,15.7892034 L20.7745202,15.7892034 Z M9.95925721,15.7864882 C10.4319651,15.7864882 10.815073,16.1693246 10.8153445,16.641761 L10.8205034,25.2020907 C10.8207748,25.6747985 10.4376669,26.0581779 9.96495903,26.0584495 L3.97289115,26.0619792 L3.97180509,26.0619792 C3.02693236,26.0619792 2.26044509,25.2963064 2.25990206,24.3511622 L2.25528616,16.6469198 C2.25501479,16.1742119 2.63785115,15.790561 3.11083055,15.790561 L9.9589857,15.7864882 L9.95925721,15.7864882 L9.95925721,15.7864882 Z M7.45480145,6.96088824 L10.1031602,6.95925915 L8.65245479,3.87158885 C8.39668752,3.31796945 7.88406691,2.92644461 7.28266085,2.82544097 C7.1724257,2.80534885 7.06191903,2.7955743 6.95195539,2.7955743 C6.46268509,2.7955743 5.98834812,2.99052218 5.63890812,3.345664 C5.20529842,3.77465794 5.01143661,4.38991127 5.1205857,4.98995976 C5.22267539,5.59136582 5.61501479,6.10344339 6.1689057,6.35839612 L7.45480145,6.96088824 L7.45480145,6.96088824 Z M13.7800184,6.95708703 L16.4286487,6.95545794 L17.7140015,6.35160824 C18.2676208,6.09611248 18.6591457,5.58322036 18.7601493,4.9818143 C18.8687554,4.38176582 18.674079,3.76651248 18.2399263,3.33806158 C17.8904863,2.98400582 17.4166924,2.78987248 16.9282366,2.78987248 C16.8177299,2.78987248 16.7066802,2.79964703 16.5959021,2.82001067 C15.994496,2.92128582 15.4821469,3.31362521 15.2269227,3.86778764 L13.7800184,6.95708703 L13.7800184,6.95708703 Z M16.9146608,1.07987006 C17.8426996,1.07987006 18.7598778,1.43962764 19.4495263,2.127104 C20.2746608,2.95169552 20.6466366,4.12654158 20.4465299,5.27586521 C20.3365663,5.89437673 20.0655942,6.47297552 19.6607651,6.95355733 L21.3580063,6.95247127 L21.3590924,6.95247127 C22.3039651,6.95247127 23.0704524,7.71841552 23.0709954,8.66355976 L23.0728966,12.0876373 C23.0737105,13.0330531 22.3074948,13.8000834 21.362079,13.8006264 L13.6578366,13.8052422 C13.6578366,13.8052422 10.7064669,13.8071428 10.233759,13.8074143 L2.52951661,13.8120301 L2.52870206,13.8120301 C1.58355782,13.8120301 0.817070545,13.0460858 0.816527515,12.1009416 L0.814626621,8.676864 C0.814083879,7.73117673 1.58002812,6.96441794 2.52544388,6.96387491 L4.22268509,6.96278885 C3.81731297,6.48275006 3.5455263,5.90442279 3.43501964,5.28591127 C3.23355539,4.13685915 3.60417358,2.96174158 4.42822206,2.136064 C5.10483782,1.45809067 6.02038691,1.08557188 6.96227297,1.08557188 C7.643776,1.08557188 8.33939782,1.28106279 8.96795539,1.697024 C9.52483297,2.06628461 9.94921115,2.60524218 10.2334875,3.21017794 L11.9415893,6.8454943 L13.6314996,3.23732945 C13.9722512,2.50939733 14.5150099,1.87866764 15.2252936,1.50289067 C15.7582778,1.21834279 16.3385057,1.07987006 16.9146608,1.07987006 L16.9146608,1.07987006 Z" id="Fill-3" fill="#006CB1" mask="url(#mask-2)"></path>
            </g>
        </g>
    </g>
</svg>