<?xml version="1.0" encoding="UTF-8"?>
<svg width="30px" height="30px" viewBox="0 0 30 30" version="1.1" xmlns="http://www.w3.org/2000/svg" xmlns:xlink="http://www.w3.org/1999/xlink">
    <title>Cameralight/click@2x</title>
    <defs>
        <filter id="filter-1">
            <feColorMatrix in="SourceGraphic" type="matrix" values="0 0 0 0 1.000000 0 0 0 0 1.000000 0 0 0 0 1.000000 0 0 0 1.000000 0"></feColorMatrix>
        </filter>
    </defs>
    <g id="Cameralight/click" stroke="none" stroke-width="1" fill="none" fill-rule="evenodd">
        <circle id="椭圆形备份-5" fill-opacity="0.9" fill="#FFFFFF" cx="15" cy="15" r="15"></circle>
        <g filter="url(#filter-1)" id="编组">
            <g transform="translate(7.000000, 7.000000)">
                <rect id="矩形" x="0" y="0" width="16" height="16"></rect>
            </g>
        </g>
        <path d="M17,10.7 C17.5522847,10.7 18,11.1477153 18,11.7 L18,18.3 C18,18.8522847 17.5522847,19.3 17,19.3 L9,19.3 C8.44771525,19.3 8,18.8522847 8,18.3 L8,11.7 C8,11.1477153 8.44771525,10.7 9,10.7 L17,10.7 Z M21.8699286,11.9000997 C21.9541564,12.0062005 22,12.1376822 22,12.2731507 L22,17.7268493 C22,18.0582202 21.7313708,18.3268493 21.4,18.3268493 C21.2645315,18.3268493 21.1330498,18.2810057 21.026949,18.1967779 L18.6666667,16.3230769 L18.6666667,13.6769231 L21.026949,11.8032221 C21.2864834,11.5971917 21.6638982,11.6405652 21.8699286,11.9000997 Z" id="图标颜色" fill-opacity="0.9" fill="#000000"></path>
        <circle id="椭圆形" fill-opacity="0.3" fill="#FFFFFF" cx="15" cy="15" r="15"></circle>
    </g>
</svg>