<?xml version="1.0" encoding="UTF-8"?>
<svg width="30px" height="30px" viewBox="0 0 30 30" version="1.1" xmlns="http://www.w3.org/2000/svg" xmlns:xlink="http://www.w3.org/1999/xlink">
    <title>静音/default</title>
    <g id="静音/default" stroke="none" stroke-width="1" fill="none" fill-rule="evenodd">
        <g id="编组">
            <rect id="矩形" x="0" y="0" width="30" height="30"></rect>
            <g id="3.Icons/Filled/volume-up" transform="translate(4.000000, 5.750000)" fill="#FFFFFF">
                <path d="M3.12132034,0.25 L7.56,4.689 L11.3171573,0.932842712 C11.473367,0.776632996 11.726633,0.776632996 11.8828427,0.932842712 C11.9578573,1.00785726 12,1.10959883 12,1.21568542 L12,9.129 L15.238481,12.3665377 C15.9652493,11.5131579 16.375,10.3815789 16.375,9.25 C16.375,8 15.875,6.75 15,5.875 L14.875,5.75 L16.25,4.375 L16.375,4.5 C17.625,5.75 18.375,7.5 18.375,9.25 C18.375,10.8839464 17.7211761,12.5178929 16.6170165,13.7448629 L17.7436056,14.8715252 C19.2001027,13.2937842 19.875,11.384375 19.875,9.25 C19.875,7 19,5 17.5,3.375 L17.375,3.25 L18.75,1.875 L18.875,2 C20.75,3.875 21.875,6.5 21.875,9.25 C21.875,11.8858696 20.9562815,14.2920595 19.1188446,16.2484224 L20.0918831,17.2205627 L19.0312229,18.2812229 L2.06066017,1.31066017 L3.12132034,0.25 Z M4,5.24968542 L12,13.2496854 L12,17.2843146 C12,17.5052285 11.8209139,17.6843146 11.6,17.6843146 C11.4939134,17.6843146 11.3921718,17.6421718 11.3171573,17.5671573 L7,13.25 L0.8,13.25 C0.3581722,13.25 4.47473987e-13,12.8918278 4.47641924e-13,12.45 L4.47641924e-13,6.05 C4.47587815e-13,5.6081722 0.3581722,5.25 0.8,5.25 L4,5.24968542 Z" id="形状结合"></path>
            </g>
        </g>
    </g>
</svg>