<?xml version="1.0" encoding="UTF-8"?>
<svg width="16px" height="16px" viewBox="0 0 16 16" version="1.1" xmlns="http://www.w3.org/2000/svg" xmlns:xlink="http://www.w3.org/1999/xlink">
    <title>连麦面板小icon</title>
    <g id="连麦面板小icon" stroke="none" stroke-width="1" fill="none" fill-rule="evenodd">
        <rect id="矩形" x="0" y="0" width="16" height="16"></rect>
        <path d="M9.75101924,7.603011 C9.66377327,7.64663085 9.64741609,7.68480109 9.62015551,7.77750086 C9.5329221,8.0828649 9.31483751,8.82446299 9.17853308,9.25524377 C9.14582029,9.36430228 9.09129495,9.46245374 9.00405107,9.54969762 C8.91135445,9.64239424 8.80229699,9.69691905 8.68778521,9.72417857 C8.05524459,9.88773835 7.40634207,9.9913143 6.75743433,9.98583016 C6.11397985,9.98579929 5.46506739,9.88216109 4.83251107,9.71854062 C4.71799668,9.69127011 4.60348072,9.63128157 4.51622847,9.54402932 C4.43442948,9.46223033 4.37444147,9.35862038 4.34171821,9.24955873 C4.19991918,8.8133116 3.98176344,8.07169258 3.89995399,7.77177343 C3.87268452,7.67907106 3.85087041,7.63544598 3.76907352,7.59727103 L2.07315237,6.8283161 C1.87138729,6.74651136 1.64236322,6.7901244 1.47332768,6.94825341 C1.40789477,7.01368632 1.3588227,7.11729104 1.34791774,7.13910253 C1.00986654,7.86978886 1.13532828,9.42530121 1.7351875,10.0251604 C1.90423873,10.1942117 2.10600538,10.3087344 2.14963098,10.3414545 C3.55654841,11.2249087 5.15975253,11.6612259 6.76293573,11.6613028 C8.36611892,11.6613798 9.96928119,11.2252163 11.3761139,10.3418972 C11.4251896,10.3146345 11.621492,10.1946778 11.790527,10.0256428 C12.3903287,9.42584115 12.5157051,7.87034083 12.1775838,7.13962207 C12.1666768,7.11780953 12.1230475,7.00874736 12.0521556,6.94876091 C11.8776521,6.79606843 11.6486238,6.75243341 11.4468666,6.83421879 L9.75101924,7.603011 Z" id="图标颜色备份" fill="#ffffff" transform="translate(6.762791, 9.224607) rotate(-315.000000) translate(-6.762791, -9.224607) "></path>
        <path d="M11.0139639,3.94110353 L12.9913587,7.40154442 C13.1009627,7.5933514 13.034324,7.83769327 12.842517,7.94729726 C12.782078,7.98183387 12.7136722,8 12.6440615,8 L8.68927187,8 C8.46835797,8 8.28927187,7.8209139 8.28927187,7.6 C8.28927187,7.53038922 8.307438,7.4619835 8.34197461,7.40154442 L10.3193694,3.94110353 C10.4289734,3.74929655 10.6733153,3.68265786 10.8651222,3.79226185 C10.9271348,3.82769757 10.9785282,3.87909102 11.0139639,3.94110353 Z" id="三角形" fill="#ffffff" transform="translate(10.666667, 5.666667) rotate(-270.000000) translate(-10.666667, -5.666667) "></path>
    </g>
</svg>