<?xml version="1.0" encoding="UTF-8"?>
<svg width="30px" height="30px" viewBox="0 0 30 30" version="1.1" xmlns="http://www.w3.org/2000/svg" xmlns:xlink="http://www.w3.org/1999/xlink">
    <title>Silence-Defult</title>
    <defs>
        <filter id="filter-1">
            <feColorMatrix in="SourceGraphic" type="matrix" values="0 0 0 0 1.000000 0 0 0 0 1.000000 0 0 0 0 1.000000 0 0 0 1.000000 0"></feColorMatrix>
        </filter>
    </defs>
    <g id="Silence-Defult" stroke="none" stroke-width="1" fill="none" fill-rule="evenodd">
        <circle id="椭圆形备份-5" fill="#404040" cx="15" cy="15" r="15"></circle>
        <g filter="url(#filter-1)" id="Group">
            <g transform="translate(7.000000, 7.000000)">
                <path d="M4.33333333,6.66666667 L4.33333333,8 C4.33333333,10.0250441 5.97495592,11.6666667 8,11.6666667 C10.0250441,11.6666667 11.6666667,10.0250441 11.6666667,8 L11.6666667,6.66666667 L12.6666667,6.66666667 L12.6666667,8 C12.6666667,10.4083293 10.8423478,12.3905661 8.50025256,12.640168 L8.5,14.6666667 L7.5,14.6666667 L7.49974744,12.640168 C5.15765218,12.3905661 3.33333333,10.4083293 3.33333333,8 L3.33333333,6.66666667 L4.33333333,6.66666667 Z M8,1.33333333 C9.47275933,1.33333333 10.6666667,2.52724067 10.6666667,4 L10.6666667,4 L10.6666667,8 C10.6666667,9.47275933 9.47275933,10.6666667 8,10.6666667 C6.52724067,10.6666667 5.33333333,9.47275933 5.33333333,8 L5.33333333,8 L5.33333333,4 C5.33333333,2.52724067 6.52724067,1.33333333 8,1.33333333 Z" id="图标颜色" fill="#EDEDED"></path>
            </g>
        </g>
    </g>
    <circle id="椭圆形" fill-opacity="0.3" fill="#FFFFFF" cx="15" cy="15" r="15"></circle>
</svg>