<?xml version="1.0" encoding="UTF-8"?>
<svg width="30px" height="30px" viewBox="0 0 30 30" version="1.1" xmlns="http://www.w3.org/2000/svg" xmlns:xlink="http://www.w3.org/1999/xlink">
    <title>静音/click</title>
    <defs>
        <path d="M7.12132034,6 L11.56,10.439 L15.3171573,6.68284271 C15.473367,6.526633 15.726633,6.526633 15.8828427,6.68284271 C15.9578573,6.75785726 16,6.85959883 16,6.96568542 L16,14.879 L19.238481,18.1165377 C19.9652493,17.2631579 20.375,16.1315789 20.375,15 C20.375,13.75 19.875,12.5 19,11.625 L18.875,11.5 L20.25,10.125 L20.375,10.25 C21.625,11.5 22.375,13.25 22.375,15 C22.375,16.6339464 21.7211761,18.2678929 20.6170165,19.4948629 L21.7436056,20.6215252 C23.2001027,19.0437842 23.875,17.134375 23.875,15 C23.875,12.75 23,10.75 21.5,9.125 L21.375,9 L22.75,7.625 L22.875,7.75 C24.75,9.625 25.875,12.25 25.875,15 C25.875,17.6358696 24.9562815,20.0420595 23.1188446,21.9984224 L24.0918831,22.9705627 L23.0312229,24.0312229 L6.06066017,7.06066017 L7.12132034,6 Z M8,10.9996854 L16,18.9996854 L16,23.0343146 C16,23.2552285 15.8209139,23.4343146 15.6,23.4343146 C15.4939134,23.4343146 15.3921718,23.3921718 15.3171573,23.3171573 L11,19 L4.8,19 C4.3581722,19 4,18.6418278 4,18.2 L4,11.8 C4,11.3581722 4.3581722,11 4.8,11 L8,10.9996854 Z" id="path-1"></path>
    </defs>
    <g id="静音/click" stroke="none" stroke-width="1" fill="none" fill-rule="evenodd">
        <g id="编组">
            <rect id="矩形" x="0" y="0" width="30" height="30"></rect>
        </g>
        <g id="形状结合">
            <use fill="#FFFFFF" xlink:href="#path-1"></use>
            <use fill-opacity="0.3" fill="#000000" xlink:href="#path-1"></use>
        </g>
    </g>
</svg>