<?xml version="1.0" encoding="UTF-8"?>
<svg width="30px" height="30px" viewBox="0 0 30 30" version="1.1" xmlns="http://www.w3.org/2000/svg" xmlns:xlink="http://www.w3.org/1999/xlink">
    <title>恢复/default</title>
    <g id="恢复/default" stroke="none" stroke-width="1" fill="none" fill-rule="evenodd" fill-opacity="0.9">
        <g id="最大化" transform="translate(5.000000, 5.000000)" fill="#FFFFFF">
            <path d="M19.1475,12.7725 L19.1475,14.6475 L14.773107,14.648107 L14.7725,19.0225 L12.8975,19.0225 L12.898107,13.273107 C12.898107,12.9969646 13.1219646,12.773107 13.398107,12.773107 L19.1475,12.7725 Z M0.8975,12.7725 L6.64689303,12.773107 C6.9230354,12.773107 7.14689303,12.9969646 7.14689303,13.273107 L7.14689303,13.273107 L7.1475,19.0225 L5.2725,19.0225 L5.27189303,14.648107 L0.8975,14.6475 L0.8975,12.7725 Z M14.7725,0.7725 L14.773107,5.14689303 L19.1475,5.1475 L19.1475,7.0225 L13.398107,7.02189303 C13.1219646,7.02189303 12.898107,6.7980354 12.898107,6.52189303 L12.898107,6.52189303 L12.8975,0.7725 L14.7725,0.7725 Z M7,0.625 L7,6.375 C7,6.65114237 6.77614237,6.875 6.5,6.875 L0.75,6.875 L0.75,5 L5.125,5 L5.125,0.625 L7,0.625 Z" id="形状结合"></path>
        </g>
    </g>
</svg>