<?xml version="1.0" encoding="UTF-8"?>
<svg width="30px" height="30px" viewBox="0 0 30 30" version="1.1" xmlns="http://www.w3.org/2000/svg" xmlns:xlink="http://www.w3.org/1999/xlink">
    <title>最大化/click</title>
    <defs>
        <path d="M19.1475,12.7725 L19.146893,18.521893 C19.146893,18.7980354 18.9230354,19.021893 18.646893,19.021893 L12.8975,19.0225 L12.8975,17.1475 L17.271893,17.146893 L17.2725,12.7725 L19.1475,12.7725 Z M7.82106781,10.625 L9.14689303,11.9508252 L3.95,17.146 L7.00336732,17.146893 L7.00336732,19.021893 L1.25336732,19.021893 C0.977224945,19.021893 0.75336732,18.7980354 0.75336732,18.521893 L0.753,17.699 L0.75,17.6960678 L0.753,17.693 L0.75336732,12.771893 L2.62836732,12.771893 L2.628,15.818 L7.82106781,10.625 Z M18.6435257,0.625 C18.9196681,0.625 19.1435257,0.848857625 19.1435257,1.125 L19.143893,1.94789303 L19.146893,1.95082521 L19.143893,1.95389303 L19.1435257,6.874 L17.2685257,6.874 L17.268893,3.82889303 L12.0758252,9.02189303 L10.75,7.69606781 L15.946893,2.50089303 L12.8935257,2.5 L12.8935257,0.625 L18.6435257,0.625 Z M7,0.625 L7,2.5 L2.625,2.5 L2.625,6.875 L0.75,6.875 L0.75,1.125 C0.75,0.848857625 0.973857625,0.625 1.25,0.625 L7,0.625 Z" id="path-1"></path>
    </defs>
    <g id="最大化/click" stroke="none" stroke-width="1" fill="none" fill-rule="evenodd">
        <g id="形状结合" transform="translate(5.000000, 5.000000)">
            <use fill-opacity="0.9" fill="#FFFFFF" xlink:href="#path-1"></use>
            <use fill-opacity="0.3" fill="#000000" xlink:href="#path-1"></use>
        </g>
    </g>
</svg>