<?xml version="1.0" encoding="UTF-8"?>
<svg width="24px" height="24px" viewBox="0 0 24 24" version="1.1" xmlns="http://www.w3.org/2000/svg" xmlns:xlink="http://www.w3.org/1999/xlink">
    <!-- Generator: Sketch 64 (93537) - https://sketch.com -->
    <title>Emoji-Light备份</title>
    <desc>Created with Sketch.</desc>
    <g id="Emoji-Light备份" stroke="none" stroke-width="1" fill="none" fill-rule="evenodd">
        <g id="编组" fill="#6467F0">
            <g id="s" transform="translate(2.000000, 2.000000)">
                <g id="icon23">
                    <g id="Group-19" transform="translate(1.666667, 1.666667)">
                        <path d="M8.33333333,0 C12.9357062,0 16.6666667,3.73096042 16.6666667,8.33333333 C16.6666667,12.9357062 12.9357062,16.6666667 8.33333333,16.6666667 C3.73096042,16.6666667 0,12.9357062 0,8.33333333 C0,3.73096042 3.73096042,0 8.33333333,0 Z M12.8979821,9.16666667 L3.76868459,9.16666667 C3.97919658,11.5027083 5.94248227,13.3333333 8.33333333,13.3333333 C10.7241844,13.3333333 12.6874701,11.5027083 12.8979821,9.16666667 Z M5.41666667,4.58333333 C4.72631073,4.58333333 4.16666667,5.1429774 4.16666667,5.83333333 C4.16666667,6.52368927 4.72631073,7.08333333 5.41666667,7.08333333 C6.1070226,7.08333333 6.66666667,6.52368927 6.66666667,5.83333333 C6.66666667,5.1429774 6.1070226,4.58333333 5.41666667,4.58333333 Z M11.25,4.58333333 C10.5596441,4.58333333 10,5.1429774 10,5.83333333 C10,6.52368927 10.5596441,7.08333333 11.25,7.08333333 C11.9403559,7.08333333 12.5,6.52368927 12.5,5.83333333 C12.5,5.1429774 11.9403559,4.58333333 11.25,4.58333333 Z" id="图标颜色"></path>
                    </g>
                </g>
            </g>
        </g>
    </g>
</svg>