<?xml version="1.0" encoding="UTF-8"?>
<svg width="24px" height="24px" viewBox="0 0 24 24" version="1.1" xmlns="http://www.w3.org/2000/svg" xmlns:xlink="http://www.w3.org/1999/xlink">
    <title>输入框直播/default</title>
    <g id="输入框直播/default" stroke="none" stroke-width="1" fill="none" fill-rule="evenodd">
        <path d="M12,2 C17.5228475,2 22,6.4771525 22,12 C22,17.5228475 17.5228475,22 12,22 C6.4771525,22 2,17.5228475 2,12 C2,6.4771525 6.4771525,2 12,2 Z M12,3.2 C7.1398942,3.2 3.2,7.1398942 3.2,12 C3.2,16.8601058 7.1398942,20.8 12,20.8 C16.8601058,20.8 20.8,16.8601058 20.8,12 C20.8,7.1398942 16.8601058,3.2 12,3.2 Z" id="椭圆形备份-7" fill="#474747" fill-rule="nonzero"></path>
        <path d="M12,6 C15.3137085,6 18,8.6862915 18,12 C18,15.3137085 15.3137085,18 12,18 C8.6862915,18 6,15.3137085 6,12 C6,8.6862915 8.6862915,6 12,6 Z M12,7.2 C9.3490332,7.2 7.2,9.3490332 7.2,12 C7.2,14.6509668 9.3490332,16.8 12,16.8 C14.6509668,16.8 16.8,14.6509668 16.8,12 C16.8,9.3490332 14.6509668,7.2 12,7.2 Z" id="椭圆形备份-8" fill="#474747" fill-rule="nonzero"></path>
    </g>
</svg>