<?xml version="1.0" encoding="UTF-8"?>
<svg width="90px" height="30px" viewBox="0 0 90 30" version="1.1" xmlns="http://www.w3.org/2000/svg" xmlns:xlink="http://www.w3.org/1999/xlink">
    <title>转视频</title>
    <g id="转视频" stroke="none" stroke-width="1" fill="none" fill-rule="evenodd">
        <rect id="Rectangle-703" stroke-opacity="0.3" stroke="#000000" stroke-width="0.5" fill="#ffffff" x="-0.25" y="-0.25" width="90.5" height="30.5" rx="4"></rect>
        <path d="M47.8571429,9 C48.6461211,9 49.2857143,9.63959321 49.2857143,10.4285714 L49.2857143,19.5714286 C49.2857143,20.3604068 48.6461211,21 47.8571429,21 L36.4285714,21 C35.6395932,21 35,20.3604068 35,19.5714286 L35,10.4285714 C35,9.63959321 35.6395932,9 36.4285714,9 L47.8571429,9 Z M54.8202296,10.6855529 C54.9367582,10.8358377 55,11.0206075 55,11.210777 L55,18.789223 C55,19.2626099 54.6162441,19.6463658 54.1428571,19.6463658 C53.9526876,19.6463658 53.7679178,19.583124 53.617633,19.4665954 L50.2380952,16.8461538 L50.2380952,13.1538462 L53.617633,10.5334046 C53.9917354,10.2433313 54.5301563,10.3114504 54.8202296,10.6855529 Z" id="图标颜色" fill="#000000"></path>
    </g>
    <rect id="遮罩"  stroke-opacity="0.3" stroke="#FFFFFF" stroke-width="0.5"  fill-opacity="0.3" fill="#FFFFFF" width="90" height="30"></rect>
</svg>