<?xml version="1.0" encoding="UTF-8"?>
<svg width="30px" height="30px" viewBox="0 0 30 30" version="1.1" xmlns="http://www.w3.org/2000/svg" xmlns:xlink="http://www.w3.org/1999/xlink">
    <title>画板</title>
    <g id="画板" stroke="none" stroke-width="1" fill="none" fill-rule="evenodd">
        <g id="编组" fill="#404040" fill-rule="nonzero">
            <path d="M15,0 C23.2842712,0 30,6.71572875 30,15 C30,23.2842712 23.2842712,30 15,30 C6.71572875,30 0,23.2842712 0,15 C0,6.71572875 6.71572875,0 15,0 Z M4,15 C4,21.0751322 8.92486775,26 15,26 C17.1857619,26 19.2226247,25.3624874 20.934791,24.2632596 L5.7367404,9.06520903 C4.63751263,10.7773753 4,12.8142381 4,15 Z M15,4 C12.5564917,4 10.2990694,4.79672923 8.47334296,6.14457796 L23.855422,21.526657 C25.2032708,19.7009306 26,17.4435083 26,15 C26,8.92486775 21.0751322,4 15,4 Z" id="形状结合"></path>
        </g>
    </g>
</svg>