<?xml version="1.0" encoding="UTF-8"?>
<svg width="30px" height="30px" viewBox="0 0 30 30" version="1.1" xmlns="http://www.w3.org/2000/svg" xmlns:xlink="http://www.w3.org/1999/xlink">
    <title>Camera-Defult</title>
    <defs>
        <filter id="filter-1">
            <feColorMatrix in="SourceGraphic" type="matrix" values="0 0 0 0 1.000000 0 0 0 0 1.000000 0 0 0 0 1.000000 0 0 0 1.000000 0"></feColorMatrix>
        </filter>
    </defs>
    <g id="Camera-Defult" stroke="none" stroke-width="1" fill="none" fill-rule="evenodd">
        <circle id="椭圆形备份-5" fill="#404040" cx="15" cy="15" r="15"></circle>
        <g filter="url(#filter-1)" id="编组">
            <g transform="translate(7.000000, 7.000000)">
                <rect id="矩形" x="0" y="0" width="16" height="16"></rect>
                <g id="3.Icons/Filled/video-call" transform="translate(0.500000, 3.000000)" fill="#EDEDED">
                    <path d="M9.33333333,0.666666667 C9.88561808,0.666666667 10.3333333,1.11438192 10.3333333,1.66666667 L10.3333333,8.33333333 C10.3333333,8.88561808 9.88561808,9.33333333 9.33333333,9.33333333 L1.33333333,9.33333333 C0.781048584,9.33333333 0.333333333,8.88561808 0.333333333,8.33333333 L0.333333333,1.66666667 C0.333333333,1.11438192 0.781048584,0.666666667 1.33333333,0.666666667 L9.33333333,0.666666667 Z M14.2018546,1.87355788 C14.2869649,1.97994571 14.3333333,2.11213201 14.3333333,2.24837491 L14.3333333,7.75162509 C14.3333333,8.08299594 14.0647042,8.35162509 13.7333333,8.35162509 C13.5970904,8.35162509 13.4649041,8.30525664 13.3585163,8.22014638 L11,6.33333333 L11,3.66666667 L13.3585163,1.77985362 C13.6172735,1.57284789 13.9948489,1.61480072 14.2018546,1.87355788 Z" id="图标颜色"></path>
                </g>
            </g>
        </g>
    </g>
</svg>