<?xml version="1.0" encoding="UTF-8"?>
<svg width="32px" height="32px" viewBox="0 0 32 32" version="1.1" xmlns="http://www.w3.org/2000/svg" xmlns:xlink="http://www.w3.org/1999/xlink">
    <!-- Generator: Sketch 61.2 (89653) - https://sketch.com -->
    <title>五角星</title>
    <desc>Created with Sketch.</desc>
    <g id="五角星" stroke="none" stroke-width="1" fill="none" fill-rule="evenodd">
        <g id="编组" transform="translate(2.000000, 2.000000)">
            <path d="M18.2827178,7.544656 C18.4795288,7.915656 18.8401688,8.162896 19.2470378,8.205456 L26.7842516,8.992816 C27.8088585,9.099776 28.2700668,10.377136 27.5650074,11.154136 L22.3768199,16.871456 C22.0967426,17.180016 21.9813054,17.611496 22.0678157,18.025336 L23.6739343,25.693136 C23.892373,26.735576 22.8618185,27.584536 21.9304806,27.130096 L15.0772392,23.786336 C14.7074074,23.605736 14.3051493,23.572976 13.9518086,23.786336 L7.37727779,27.790056 C6.48784331,28.327376 5.38970262,27.574736 5.51919779,26.516896 L6.47189297,18.732896 C6.52352883,18.312896 6.37186538,17.893456 6.06691641,17.611216 L0.415898483,12.385576 C-0.352151172,11.675496 -0.000432551724,10.361176 1.01119779,10.161816 L8.45325021,8.694896 C8.85471228,8.615936 9.193184,8.337056 9.357824,7.949536 L12.4100171,0.768376 C12.8249964,-0.207704 14.1404943,-0.267344 14.6360364,0.667296 L18.2827178,7.544656 Z" id="Fill-1" fill="#6467EF"></path>
            <path d="M14.6360364,0.667296 L18.2827178,7.544656 C18.4795288,7.915656 18.8401688,8.162896 19.2470378,8.205456 L26.7842516,8.992816 C27.8088585,9.099776 28.2700668,10.377136 27.5650074,11.154136 L22.3768199,16.871456 C22.0967426,17.180016 21.9813054,17.611496 22.0678157,18.025336 L23.6739343,25.693136 C23.892373,26.735576 22.8618185,27.584536 21.9304806,27.130096 L15.0772392,23.786336 C14.7074074,23.605736 14.2753964,23.625336 13.9220557,23.838696 L7.28527832,27.130096 C6.39584384,27.667416 5.29770315,26.914776 5.42719832,25.856936 L6.47189297,18.732896 C6.52352883,18.312896 6.37186538,17.893456 6.06691641,17.611216 L0.415898483,12.385576 C-0.352151172,11.675496 -0.000432551724,10.361176 1.01119779,10.161816 L8.45325021,8.694896 C8.85471228,8.615936 9.193184,8.337056 9.357824,7.949536 L12.4100171,0.768376 C12.8249964,-0.207704 14.1404943,-0.267344 14.6360364,0.667296 Z" id="Stroke-3" stroke="#5B5EAC" stroke-width="1.68"></path>
        </g>
    </g>
</svg>