<?xml version="1.0" encoding="UTF-8"?>
<svg width="24px" height="24px" viewBox="0 0 24 24" version="1.1" xmlns="http://www.w3.org/2000/svg" xmlns:xlink="http://www.w3.org/1999/xlink">
    <!-- Generator: Sketch 64 (93537) - https://sketch.com -->
    <title>Camera-Light@2x</title>
    <desc>Created with Sketch.</desc>
    <g id="Camera-Light" stroke="none" stroke-width="1" fill="none" fill-rule="evenodd">
        <g id="编组-2">
            <g id="编组" transform="translate(4.000000, 4.000000)">
                <rect id="矩形" x="0" y="0" width="16" height="16"></rect>
                <g id="3.Icons/Filled/video-call" transform="translate(0.500000, 3.000000)" fill="#6467F0">
                    <g id="Group" transform="translate(0.333333, 0.333333)">
                        <path d="M9,0.333333333 C9.55228475,0.333333333 10,0.781048584 10,1.33333333 L10,8 C10,8.55228475 9.55228475,9 9,9 L1,9 C0.44771525,9 6.76353751e-17,8.55228475 0,8 L0,1.33333333 C-6.76353751e-17,0.781048584 0.44771525,0.333333333 1,0.333333333 L9,0.333333333 Z M13.8685213,1.54022455 C13.9536315,1.64661238 14,1.77879868 14,1.91504158 L14,7.41829176 C14,7.74966261 13.7313708,8.01829176 13.4,8.01829176 C13.2637571,8.01829176 13.1315708,7.97192331 13.025183,7.88681304 L10.6666667,6 L10.6666667,3.33333333 L13.025183,1.44652029 C13.2839401,1.23951456 13.6615156,1.28146739 13.8685213,1.54022455 Z" id="图标颜色"></path>
                    </g>
                </g>
            </g>
        </g>
    </g>
</svg>