<?xml version="1.0" encoding="UTF-8"?>
<svg width="40px" height="40px" viewBox="0 0 40 40" version="1.1" xmlns="http://www.w3.org/2000/svg" xmlns:xlink="http://www.w3.org/1999/xlink">
    <title>个人认证高级</title>
    <g id="个人认证高级" stroke="none" stroke-width="1" fill="none" fill-rule="evenodd">
        <g id="认证icon" transform="translate(3.571429, 3.571429)">
            <g id="编组-19" fill="#F7B500">
                <path d="M23.7346495,0.958176058 L26.1264204,6.73125529 L31.8989668,9.1224934 C32.4976538,9.37047766 32.7819545,10.0568403 32.5339702,10.6555273 L30.1426367,16.4272591 L32.5339702,22.2016156 C32.7819545,22.8003026 32.4976538,23.4866652 31.8989668,23.7346495 L26.125226,26.1261464 L23.7346495,31.8989668 C23.4866652,32.4976538 22.8003026,32.7819545 22.2016156,32.5339702 L16.4292222,30.1423626 L10.6555273,32.5339702 C10.0568403,32.7819545 9.37047766,32.4976538 9.1224934,31.8989668 L6.73033491,26.124952 L0.958176058,23.7346495 C0.359489089,23.4866652 0.0751883717,22.8003026 0.323172634,22.2016156 L2.71411865,16.4289482 L0.323172634,10.6555273 C0.0751883717,10.0568403 0.359489089,9.37047766 0.958176058,9.1224934 L6.73152932,6.73006088 L9.1224934,0.958176058 C9.37047766,0.359489089 10.0568403,0.0751883717 10.6555273,0.323172634 L16.4275331,2.71384462 L22.2016156,0.323172634 C22.8003026,0.0751883717 23.4866652,0.359489089 23.7346495,0.958176058 Z" id="形状结合"></path>
            </g>
            <path d="M14.4676336,19.9940991 L23.7998281,10.6619047 L25.5707073,12.432784 L15.2257424,22.7734506 C14.8092125,23.1900392 14.1338365,23.1898989 13.7173639,22.7732531 C13.7173252,22.7732144 13.7172866,22.7731757 13.7173639,22.7730212 L8.0952381,17.1468289 L8.0952381,17.1468289 L9.85780074,15.3842662 L14.4676336,19.9940991 Z" id="Combined-Shape" fill="#FFFFFF"></path>
        </g>
    </g>
</svg>