<?xml version="1.0" encoding="UTF-8"?>
<svg width="24px" height="24px" viewBox="0 0 24 24" version="1.1" xmlns="http://www.w3.org/2000/svg" xmlns:xlink="http://www.w3.org/1999/xlink">
    <!-- Generator: Sketch 64 (93537) - https://sketch.com -->
    <title>Share-Light</title>
    <desc>Created with Sketch.</desc>
    <g id="Share-Light" stroke="none" stroke-width="1" fill="none" fill-rule="evenodd">
        <g id="编组" fill="#6467F0">
            <g id="3.Icons/Filled/share" transform="translate(4.000000, 4.000000)">
                <g id="icon38">
                    <path d="M8.56897628,1.56555731 L10.3600003,3.3570226 L9.65300028,4.06412939 L8.49966667,2.91108009 L8.49966667,4.66608009 L7.49966667,4.66608009 L7.5,9 L8.5,9 L8.49966667,4.66608009 L12.6673623,4.66666667 C13.0339131,4.66666667 13.3333333,4.96389244 13.3333333,5.33053901 L13.3333333,14.0027943 C13.3333333,14.3673865 13.0361076,14.6666667 12.669461,14.6666667 L3.33053901,14.6666667 C2.9659468,14.6666667 2.66666667,14.3694409 2.66666667,14.0027943 L2.66666667,5.33053901 C2.66666667,4.9659468 2.96483206,4.66666667 3.33263771,4.66666667 L7.49966667,4.66608009 L7.49966667,2.91708009 L6.35366686,4.06412939 L5.64666684,3.3570226 L7.43769085,1.56572813 C7.75000128,1.25319971 8.25653326,1.25316146 8.56897628,1.56555731 Z" id="图标颜色"></path>
                </g>
            </g>
        </g>
    </g>
</svg>