<?xml version="1.0" encoding="UTF-8"?>
<svg width="30px" height="30px" viewBox="0 0 30 30" version="1.1" xmlns="http://www.w3.org/2000/svg" xmlns:xlink="http://www.w3.org/1999/xlink">
    <title>点赞</title>
    <g id="点赞" stroke="none" stroke-width="1" fill="none" fill-rule="evenodd">
        <g id="编组-11备份" fill="#404040">
            <circle id="椭圆形备份-3" cx="15" cy="15" r="15"></circle>
        </g>
        <g id="common_icons_like" transform="translate(7.000000, 7.000000)" fill="#FFFFFF">
            <path d="M3.02368927,3.8521164 C4.32543691,2.55036876 6.43598684,2.55036876 7.73773448,3.8521164 C7.85960562,3.97398753 8.01674046,4.12556075 8.209139,4.30683603 C8.40153754,4.12556075 8.55867238,3.97398753 8.68054352,3.8521164 C9.98229116,2.55036876 12.0928411,2.55036876 13.3945887,3.8521164 C14.6842275,5.1417552 14.6962237,7.22521933 13.4305773,8.52962644 L8.91620877,13.0444675 C8.52574193,13.4350493 7.89257695,13.4350824 7.50203222,13.0445786 C7.50201988,13.0445662 7.50200755,13.0445539 7.50203222,13.0445046 L2.98742738,8.52989972 L2.98742738,8.52989972 C1.72205427,7.22521933 1.73405047,5.1417552 3.02368927,3.8521164 Z" id="图标颜色"></path>
        </g>
    </g>
</svg>