<?xml version="1.0" encoding="UTF-8"?>
<svg width="30px" height="30px" viewBox="0 0 30 30" version="1.1" xmlns="http://www.w3.org/2000/svg" xmlns:xlink="http://www.w3.org/1999/xlink">
    <title>旋转屏幕/click</title>
    <defs>
        <path d="M0.853333333,10 L14,10 L14,10 L14,18.1466667 C14,18.6179497 13.6179497,19 13.1466667,19 L0.853333333,19 C0.382050347,19 1.68737823e-16,18.6179497 0,18.1466667 L0,10.8533333 C-5.77155201e-17,10.3820503 0.382050347,10 0.853333333,10 Z" id="path-1"></path>
        <path d="M17.1466667,0.470992971 C17.6179497,0.470992971 18,0.853043318 18,1.3243263 L18,14.1466667 C18,14.6179497 17.6179497,15 17.1466667,15 L16,14.999993 L16,8 L8,7.99999297 L8,1.3243263 C8,0.853043318 8.38205035,0.470992971 8.85333333,0.470992971 L17.1466667,0.470992971 Z" id="path-2"></path>
    </defs>
    <g id="旋转屏幕/click" stroke="none" stroke-width="1" fill="none" fill-rule="evenodd">
        <g id="编组-2" transform="translate(6.000000, 5.000000)">
            <g id="矩形备份-2">
                <use fill="#FFFFFF" xlink:href="#path-1"></use>
                <use fill-opacity="0.3" fill="#000000" xlink:href="#path-1"></use>
            </g>
            <g id="形状结合">
                <use fill="#FFFFFF" xlink:href="#path-2"></use>
                <use fill-opacity="0.3" fill="#000000" xlink:href="#path-2"></use>
            </g>
        </g>
    </g>
</svg>