<?xml version="1.0" encoding="UTF-8"?>
<svg width="24px" height="24px" viewBox="0 0 24 24" version="1.1" xmlns="http://www.w3.org/2000/svg" xmlns:xlink="http://www.w3.org/1999/xlink">
    <title>0.图标/04.特殊/视频号logo</title>
    <defs>
        <rect id="path-1" x="0" y="0" width="24" height="24"></rect>
    </defs>
    <g id="0.图标/04.特殊/视频号logo" stroke="none" stroke-width="1" fill="none" fill-rule="evenodd">
        <g id="视频号">
            <mask id="mask-2" fill="white">
                <use xlink:href="#path-1"></use>
            </mask>
            <g id="Mask"></g>
            <path d="M19.393924,3.18117225 C20.5556721,2.71122627 21.5489201,3.16204468 22.0665217,4.45773531 C23.4594092,7.9436619 20.1989546,21.1333333 17.640931,21.1333333 C16.8132831,21.1333333 15.9838354,20.4446602 15.0175091,19.206788 C14.5819867,18.6488801 14.1273556,17.9838481 13.659928,17.2332658 C13.2859996,16.632822 12.9184404,16.001514 12.5653312,15.3626079 L12.2002773,14.6900617 L12.182673,14.7220308 C11.7259026,15.5772127 11.2386543,16.432674 10.7400832,17.2332658 C10.2726555,17.9838481 9.81802442,18.6488801 9.38250204,19.206788 C8.41617574,20.4446602 7.58672803,21.1333333 6.7590801,21.1333333 C4.20105657,21.1333333 0.940601987,7.9436619 2.33347026,4.4577833 C2.85109104,3.16204468 3.84433904,2.71122627 5.00608717,3.18117225 C5.84839813,3.52190072 6.77801544,4.33659895 7.81684933,5.5570343 C8.43505223,6.28330699 9.08174788,7.14336451 9.74737586,8.11021522 C10.4843676,9.18072465 11.2064082,10.325458 11.8842613,11.469932 L12.2003932,12.0085361 L12.5157498,11.469932 C13.0580323,10.5543528 13.6285948,9.63860763 14.2124683,8.76083189 L14.6526353,8.11021522 C15.3182633,7.14336451 15.9649589,6.28330699 16.5831618,5.5570343 C17.6219957,4.33659895 18.551613,3.52190072 19.393924,3.18117225 Z M4.52434723,4.35257884 C4.03376037,4.15412849 3.78099012,4.26885662 3.51934727,4.92381629 C3.06214359,6.06804259 3.25413465,8.95139742 3.93191644,12.1870764 L4.09046476,12.9113521 L4.2646077,13.643845 C5.12012355,17.1047038 6.3509681,19.8682376 6.7590801,19.8682376 C7.03841148,19.8682376 7.64814917,19.3619851 8.37388231,18.4323148 C8.77882374,17.9135814 9.20923323,17.2839806 9.65481559,16.5684768 C10.016497,15.9876988 10.3734774,15.3745051 10.7169015,14.7530897 L11.1320676,13.9858727 L11.1320676,13.9858727 L11.4803655,13.3150415 L11.1162205,12.6773816 L10.7844007,12.1106962 C10.1201603,10.9892056 9.41294376,9.86797453 8.69393336,8.82358376 C8.05103566,7.88974967 7.42940302,7.06302411 6.84215149,6.37311348 C5.92636524,5.29723607 5.12630806,4.59608177 4.52434723,4.35257884 Z M20.8806447,4.92376831 C20.619021,4.26885662 20.3662508,4.15412849 19.8756639,4.35257884 C19.2737031,4.59608177 18.4736459,5.29723607 17.5578597,6.37311348 C16.9706081,7.06302411 16.3489755,7.88974967 15.7060778,8.82358376 C15.1308695,9.65909638 14.5632092,10.5437868 14.0190624,11.4384457 L13.4453801,12.3997692 L12.9185827,13.3150415 L13.0992784,13.664659 L13.3445323,14.1298298 C13.7890692,14.9621076 14.2629537,15.7941061 14.7451956,16.5684768 C15.1907779,17.2839806 15.6211874,17.9135814 16.0261288,18.4323148 C16.751862,19.3619851 17.3615997,19.8682376 17.640931,19.8682376 C18.049043,19.8682376 19.2798876,17.1047038 20.1354034,13.643845 L20.3095464,12.9113521 C21.1138712,9.38810344 21.3717333,6.15279699 20.8806447,4.92376831 Z" id="形状" fill="#FA9D3B" fill-rule="nonzero" mask="url(#mask-2)"></path>
        </g>
    </g>
</svg>