<?xml version="1.0" encoding="UTF-8"?>
<svg width="25px" height="25px" viewBox="0 0 25 25" version="1.1" xmlns="http://www.w3.org/2000/svg" xmlns:xlink="http://www.w3.org/1999/xlink">
    <title>0.图标/08.合作业务/icons_看一看</title>
    <g id="0.图标/08.合作业务/icons_看一看" stroke="none" stroke-width="1" fill="none" fill-rule="evenodd">
        <path d="M13.8364377,2.52762128 L16.6836319,5.34316667 L20.573197,6.37477729 C21.5822673,6.63983987 22.1846553,7.67143379 21.9145803,8.67690657 L20.8716319,12.5191667 L21.91498,16.3656657 C22.1846553,17.3696574 21.5822673,18.4012513 20.5746518,18.6659299 L16.7116319,19.6901667 L13.8364377,22.5239054 C13.0969662,23.2551783 11.9030338,23.2551783 11.1635623,22.5239054 L8.31663194,19.7091667 L4.42680304,18.6767494 C3.41773265,18.4116869 2.81534472,17.3800929 3.08541972,16.3746202 L4.12763194,12.5301667 L3.08501995,8.67542549 C2.81534472,7.67143379 3.41773265,6.63983987 4.42534816,6.37516133 L8.31663194,5.34216667 L11.1635623,2.52762128 C11.9030338,1.79634846 13.0969662,1.79634846 13.8364377,2.52762128 Z M12.1784935,17.8313487 L9.66069886,19.2797099 L12.042505,21.6351086 C12.2949728,21.8847772 12.7050272,21.8847772 12.958285,21.6343288 L15.3485418,19.2789552 L12.8327011,17.831718 C12.6252348,17.713149 12.3794177,17.7132377 12.1784935,17.8313487 Z M5.16791128,13.4718862 L4.29222967,16.7003614 C4.20274375,17.0335145 4.40412831,17.3783871 4.74583413,17.4681482 L8.01508482,18.3353342 L8.02332058,15.4521962 C8.02305352,15.2287828 7.90156518,15.020592 7.70692555,14.911339 L5.16791128,13.4718862 Z M19.8320884,13.4614508 L17.2980688,14.898072 C17.0994779,15.0164915 16.9766764,15.2284352 16.9766764,15.4407135 L16.9849152,18.324899 L20.2556207,17.4573286 C20.5958717,17.3679515 20.7972562,17.0230789 20.7081701,16.691407 L19.8320884,13.4614508 Z M15.7336319,6.98616667 L13.449947,8.30069972 C12.8648985,8.64470954 12.1383834,8.64526254 11.55288,8.30235871 L9.26563194,6.98616667 L9.27332103,9.59859232 C9.27332103,10.2691144 8.91315316,10.8913472 8.33196261,11.2330885 L6.04163194,12.5301667 L8.32107422,13.8226177 C8.90857415,14.1523666 9.27332103,14.7781644 9.27332103,15.4529344 L9.26463194,18.0641667 L11.550053,16.750827 C12.1350143,16.4068685 12.8598128,16.4068685 13.4542417,16.747196 L15.7336319,18.0581667 L15.726679,15.4424989 C15.726679,14.7802352 16.0887216,14.1590772 16.6680374,13.8184382 L18.9566319,12.5201667 L16.6789258,11.228909 C16.0914259,10.8991601 15.726679,10.2733624 15.726679,9.59859232 L15.7336319,6.98616667 Z M8.01508481,6.71619218 L4.74437926,7.58376254 C4.40412831,7.67313965 4.20274375,8.01801224 4.29193716,8.35008015 L5.16838652,11.5898067 L7.7019319,10.1534543 C7.90118166,10.0346438 8.02332358,9.82232333 8.02332358,9.60037764 L8.01508481,6.71619218 Z M16.9849152,6.71619254 L16.9766794,9.59933052 C16.9769465,9.8227439 17.0984348,10.0309348 17.2930745,10.1401877 L19.8320887,11.5796406 L20.7077703,8.35116528 C20.7972562,8.01801224 20.5958717,7.67313965 20.2541659,7.5833785 L16.9849152,6.71619254 Z M12.042505,3.41641814 L9.66069886,5.7718168 L12.1784935,7.22017806 C12.3785394,7.3377726 12.6214606,7.3377726 12.8215065,7.22017806 L15.3393011,5.7718168 L12.957495,3.41641814 C12.7050272,3.16674951 12.2949728,3.16674951 12.042505,3.41641814 Z" id="图标颜色" fill="#FFC300"></path>
    </g>
</svg>