<?xml version="1.0" encoding="UTF-8"?>
<svg width="24px" height="24px" viewBox="0 0 24 24" version="1.1" xmlns="http://www.w3.org/2000/svg" xmlns:xlink="http://www.w3.org/1999/xlink">
    <title>Newnote_Number</title>
    <g id="Newnote_Number" stroke="none" stroke-width="1" fill="none" fill-rule="evenodd">
        <rect id="mask" fill-opacity="0" fill="#FFFFFF" x="0" y="0" width="24" height="24"></rect>
        <path d="M3.5939268,8 L4.34978617,8 L4.34978617,3.77246094 L3.59685648,3.77246094 L2.4923643,4.54589844 L2.4923643,5.27246094 L3.54412211,4.53417969 L3.5939268,4.53417969 L3.5939268,8 Z M3.41210938,19.125 L3.94238281,19.125 C4.46386719,19.125 4.78320312,19.3798828 4.78320312,19.7929688 C4.78320312,20.1914062 4.44335938,20.4697266 3.95996094,20.4697266 C3.47363281,20.4697266 3.13964844,20.2207031 3.10742188,19.828125 L2.38378906,19.828125 C2.421875,20.6015625 3.04296875,21.1054688 3.95410156,21.1054688 C4.87402344,21.1054688 5.55371094,20.5664062 5.55371094,19.8398438 C5.55371094,19.2773438 5.19628906,18.8847656 4.61914062,18.8173828 L4.61914062,18.7675781 C5.08789062,18.6679688 5.38378906,18.2900391 5.38378906,17.7949219 C5.38378906,17.1474609 4.77148438,16.6669922 3.95117188,16.6669922 C3.07226562,16.6669922 2.50390625,17.1503906 2.46582031,17.9267578 L3.171875,17.9267578 C3.20117188,17.5283203 3.49121094,17.2822266 3.92773438,17.2822266 C4.37011719,17.2822266 4.65429688,17.5253906 4.65429688,17.9003906 C4.65429688,18.2783203 4.35839844,18.5390625 3.92773438,18.5390625 L3.41210938,18.5390625 L3.41210938,19.125 Z M2.40136719,11.5087891 L2.40136719,11.5205078 L3.11035156,11.5205078 L3.11035156,11.5087891 C3.11035156,11.078125 3.40917969,10.7880859 3.8515625,10.7880859 C4.26757812,10.7880859 4.57226562,11.0576172 4.57226562,11.4296875 C4.57226562,11.7285156 4.42871094,11.9482422 3.8515625,12.5341797 L2.44238281,13.9755859 L2.44238281,14.5 L5.37792969,14.5 L5.37792969,13.8583984 L3.47949219,13.8583984 L3.47949219,13.8085938 L4.36425781,12.9208984 C5.08203125,12.2119141 5.31347656,11.8369141 5.31347656,11.3828125 C5.31347656,10.6767578 4.70996094,10.1669922 3.875,10.1669922 C3.0078125,10.1669922 2.40136719,10.7177734 2.40136719,11.5087891 Z M7.8,4.48181818 L20.8,4.48181818 L20.8,5.68181818 L7.8,5.68181818 L7.8,4.48181818 Z M7.83171992,18.3628482 L20.8317199,18.3628482 L20.8317199,19.5628482 L7.83171992,19.5628482 L7.83171992,18.3628482 Z M7.8,11.4 L20.8,11.4 L20.8,12.6 L7.8,12.6 L7.8,11.4 Z" id="形状结合" fill-opacity="0.9" fill="#000000"></path>
    </g>
</svg>