<?xml version="1.0" encoding="UTF-8"?>
<svg width="24px" height="24px" viewBox="0 0 24 24" version="1.1" xmlns="http://www.w3.org/2000/svg" xmlns:xlink="http://www.w3.org/1999/xlink">
    <title>Newnote_Dividing_line</title>
    <g id="Newnote_Dividing_line" stroke="none" stroke-width="1" fill="none" fill-rule="evenodd">
        <rect id="mask" fill-opacity="0" fill="#FFFFFF" x="0" y="0" width="24" height="24"></rect>
        <path d="M2.98108151,11.4083594 L20.9810815,11.4083594 L20.9810815,12.7719958 L2.98108151,12.7719958 L2.98108151,11.4083594 Z M3,4.52259411 L5.5,4.52259411 L5.5,5.88623047 L3,5.88623047 L3,4.52259411 Z M8.1603605,4.52259411 L10.6603605,4.52259411 L10.6603605,5.88623047 L8.1603605,5.88623047 L8.1603605,4.52259411 Z M13.320721,4.52259411 L15.820721,4.52259411 L15.820721,5.88623047 L13.320721,5.88623047 L13.320721,4.52259411 Z M18.4810815,4.52259411 L20.9810815,4.52259411 L20.9810815,5.88623047 L18.4810815,5.88623047 L18.4810815,4.52259411 Z M3,18.1992119 L5.5,18.1992119 L5.5,19.5628482 L3,19.5628482 L3,18.1992119 Z M8.1603605,18.1992119 L10.6603605,18.1992119 L10.6603605,19.5628482 L8.1603605,19.5628482 L8.1603605,18.1992119 Z M13.320721,18.1992119 L15.820721,18.1992119 L15.820721,19.5628482 L13.320721,19.5628482 L13.320721,18.1992119 Z M18.4810815,18.1992119 L20.9810815,18.1992119 L20.9810815,19.5628482 L18.4810815,19.5628482 L18.4810815,18.1992119 Z" id="形状结合" fill-opacity="0.9" fill="#000000"></path>
    </g>
</svg>