<?xml version="1.0" encoding="UTF-8"?>
<svg width="24px" height="24px" viewBox="0 0 24 24" version="1.1" xmlns="http://www.w3.org/2000/svg" xmlns:xlink="http://www.w3.org/1999/xlink">
    <title>Newnote_Points</title>
    <g id="Newnote_Points" stroke="none" stroke-width="1" fill="none" fill-rule="evenodd">
        <rect id="mask" fill-opacity="0" fill="#FFFFFF" x="0" y="0" width="24" height="24"></rect>
        <path d="M7.8,4.48181818 L20.8,4.48181818 L20.8,5.68181818 L7.8,5.68181818 L7.8,4.48181818 Z M7.83171992,18.3628482 L20.8317199,18.3628482 L20.8317199,19.5628482 L7.83171992,19.5628482 L7.83171992,18.3628482 Z M7.8,11.4 L20.8,11.4 L20.8,12.6 L7.8,12.6 L7.8,11.4 Z M3.4,10.8843761 L3.5,10.8843761 C4.05228475,10.8843761 4.5,11.3320914 4.5,11.8843761 L4.5,11.9843761 C4.5,12.5366609 4.05228475,12.9843761 3.5,12.9843761 L3.4,12.9843761 C2.84771525,12.9843761 2.4,12.5366609 2.4,11.9843761 L2.4,11.8843761 C2.4,11.3320914 2.84771525,10.8843761 3.4,10.8843761 Z M3.4,17.9 L3.5,17.9 C4.05228475,17.9 4.5,18.3477153 4.5,18.9 L4.5,19 C4.5,19.5522847 4.05228475,20 3.5,20 L3.4,20 C2.84771525,20 2.4,19.5522847 2.4,19 L2.4,18.9 C2.4,18.3477153 2.84771525,17.9 3.4,17.9 Z M3.4,3.95971097 L3.5,3.95971097 C4.05228475,3.95971097 4.5,4.40742622 4.5,4.95971097 L4.5,5.05971097 C4.5,5.61199572 4.05228475,6.05971097 3.5,6.05971097 L3.4,6.05971097 C2.84771525,6.05971097 2.4,5.61199572 2.4,5.05971097 L2.4,4.95971097 C2.4,4.40742622 2.84771525,3.95971097 3.4,3.95971097 Z" id="形状结合" fill-opacity="0.9" fill="#000000"></path>
    </g>
</svg>