<?xml version="1.0" encoding="UTF-8"?>
<svg width="24px" height="24px" viewBox="0 0 24 24" version="1.1" xmlns="http://www.w3.org/2000/svg" xmlns:xlink="http://www.w3.org/1999/xlink">
    <title>Newnote_Refresh</title>
    <g id="Newnote_Refresh" stroke="none" stroke-width="1" fill="none" fill-rule="evenodd">
        <rect id="mask" fill-opacity="0" fill="#FFFFFF" x="0" y="0" width="24" height="24"></rect>
        <path d="M12,3.4 C15.107779,3.4 17.7577738,5.5612582 18.4340019,8.52269074 L18.448,8.59 L18.4980727,8.60327568 C20.815046,9.24339657 22.4924462,11.3191623 22.595021,13.7624421 L22.6,14 C22.6,17.0191566 20.210764,19.4802773 17.2198921,19.595762 L17,19.6 L15.5355339,19.6 L15.5355339,18.4 L17,18.4 C19.4300529,18.4 21.4,16.4300529 21.4,14 C21.4,11.946089 19.9822328,10.1858012 18.0245565,9.72041306 L17.8201483,9.67692965 L17.4020713,9.59832131 L17.3378881,9.17778812 C16.9383078,6.55970833 14.6763384,4.6 12,4.6 C9.40249407,4.6 7.1951122,6.44602159 6.7020641,8.94789443 L6.66200107,9.17711105 L6.59781323,9.59746976 L6.17992931,9.67617526 C4.11717268,10.0646809 2.6,11.8753459 2.6,14 C2.6,16.3585808 4.45577197,18.2837227 6.78681603,18.3949261 L7,18.4 L7,19.6 C3.9072054,19.6 1.4,17.0927946 1.4,14 C1.4,11.4547392 3.11003098,9.26418696 5.50165665,8.60272705 L5.551,8.589 L5.5659222,8.5220136 C6.22448736,5.63902528 8.75426424,3.51429633 11.7556394,3.40446503 L12,3.4 Z M8.46446609,18.4 L8.46446609,19.6 L7,19.6 L7,18.4 L8.46446609,18.4 Z M11.2928932,9.24743867 C11.6834175,8.85691438 12.3165825,8.85691438 12.7071068,9.24743867 L12.7071068,9.24743867 L15.5355339,12.0758658 L14.6870057,12.924394 L12.5999939,10.8373822 L12.5999939,19.6 L11.3999939,19.6 L11.3999939,10.8373943 L9.31299427,12.924394 L8.46446609,12.0758658 Z" id="形状结合" fill-opacity="0.9" fill="#000000"></path>
    </g>
</svg>