<?xml version="1.0" encoding="UTF-8"?>
<svg width="24px" height="24px" viewBox="0 0 24 24" version="1.1" xmlns="http://www.w3.org/2000/svg" xmlns:xlink="http://www.w3.org/1999/xlink">
    <title>Newnote_BoldNormal</title>
    <g id="Newnote_BoldNormal" stroke="none" stroke-width="1" fill="none" fill-rule="evenodd">
        <rect id="mask" fill-opacity="0" fill="#FFFFFF" x="0" y="0" width="24" height="24"></rect>
        <g id="0.图标/线型/zGrid" opacity="0">
            <rect id="mask" fill-opacity="0" fill="#FFFFFF" x="0" y="0" width="24" height="24"></rect>
            <path d="M12,3.4 C15.107779,3.4 17.7577738,5.5612582 18.4340019,8.52269074 L18.448,8.59 L18.4980727,8.60327568 C20.815046,9.24339657 22.4924462,11.3191623 22.595021,13.7624421 L22.6,14 C22.6,17.0191566 20.210764,19.4802773 17.2198921,19.595762 L17,19.6 L15.5355339,19.6 L15.5355339,18.4 L17,18.4 C19.4300529,18.4 21.4,16.4300529 21.4,14 C21.4,11.946089 19.9822328,10.1858012 18.0245565,9.72041306 L17.8201483,9.67692965 L17.4020713,9.59832131 L17.3378881,9.17778812 C16.9383078,6.55970833 14.6763384,4.6 12,4.6 C9.40249407,4.6 7.1951122,6.44602159 6.7020641,8.94789443 L6.66200107,9.17711105 L6.59781323,9.59746976 L6.17992931,9.67617526 C4.11717268,10.0646809 2.6,11.8753459 2.6,14 C2.6,16.3585808 4.45577197,18.2837227 6.78681603,18.3949261 L7,18.4 L7,19.6 C3.9072054,19.6 1.4,17.0927946 1.4,14 C1.4,11.4547392 3.11003098,9.26418696 5.50165665,8.60272705 L5.551,8.589 L5.5659222,8.5220136 C6.22448736,5.63902528 8.75426424,3.51429633 11.7556394,3.40446503 L12,3.4 Z M8.46446609,18.4 L8.46446609,19.6 L7,19.6 L7,18.4 L8.46446609,18.4 Z M11.2928932,9.24743867 C11.6834175,8.85691438 12.3165825,8.85691438 12.7071068,9.24743867 L12.7071068,9.24743867 L15.5355339,12.0758658 L14.6870057,12.924394 L12.5999939,10.8373822 L12.5999939,19.6 L11.3999939,19.6 L11.3999939,10.8373943 L9.31299427,12.924394 L8.46446609,12.0758658 Z" id="形状结合" fill-opacity="0.9" fill="#000000"></path>
        </g>
        <path d="M13,3 C15.4852814,3 17.5,5.01471863 17.5,7.5 C17.5,9.13020852 16.6331388,10.5579507 15.335223,11.34742 C17.1887661,12.0794017 18.5,13.8865733 18.5,16 C18.5,18.7328271 16.307548,20.9535797 13.5856197,20.9992817 L13.5853198,21 L5.00381913,21 L5.00381913,19.8000812 L5.012,19.8 L5.012,12.198 L5.00892356,12.1988561 L5.00892356,10.8093952 L5.012,10.809 L5.012,4.199 L5,4.19991875 L5,3 L13,3 Z M10.2522561,12.1982769 L6.312,12.198 L6.312,19.8 L10.2512387,19.8008529 L10.25,19.799 L13.4608969,19.799803 C13.4739157,19.7999342 13.4869502,19.8 13.5,19.8 C15.598682,19.8 17.3,18.098682 17.3,16 C17.3,13.901318 15.598682,12.2 13.5,12.2 L13.5,12.1999188 L10.2512332,12.1991518 C10.2515741,12.1988601 10.2519151,12.1985684 10.2522561,12.1982769 Z M9.9417323,4.19891202 L6.312,4.199 L6.312,10.809 L9.95166487,10.8102667 L9.94,10.799 L12.9689449,10.7998569 C12.9792853,10.7999522 12.9896371,10.8 13,10.8 C14.8225397,10.8 16.3,9.32253967 16.3,7.5 C16.3,5.67746033 14.8225397,4.2 13,4.2 L13,4.19991875 L9.94070613,4.19986345 C9.94104814,4.19954625 9.94139019,4.19922911 9.9417323,4.19891202 Z" id="形状结合" fill-opacity="0.9" fill="#000000"></path>
    </g>
</svg>