<?xml version="1.0" encoding="UTF-8"?>
<svg width="24px" height="24px" viewBox="0 0 24 24" version="1.1" xmlns="http://www.w3.org/2000/svg" xmlns:xlink="http://www.w3.org/1999/xlink">
    <title>Newnote_Upcoming</title>
    <g id="Newnote_Upcoming" stroke="none" stroke-width="1" fill="none" fill-rule="evenodd">
        <rect id="mask" fill-opacity="0" fill="#FFFFFF" x="0" y="0" width="24" height="24"></rect>
        <path d="M15.2040923,3 L14,4.2 L4.2,4.2 L4.2,19.8 L19.8,19.8 L19.8,13.1822029 L21,12 L21,20 C21,20.5522847 20.5522847,21 20,21 L4,21 C3.44771525,21 3,20.5522847 3,20 L3,4 C3,3.44771525 3.44771525,3 4,3 L15.2040923,3 Z M20.8087131,3.56741178 L21.6925965,4.45129525 L11.9698783,14.1740135 C11.6444414,14.4994504 11.1168039,14.4994504 10.791367,14.1740135 L10.791367,14.1740135 L6.95170448,10.334351 L7.83558796,9.4504675 L11.3806227,12.9955022 L20.8087131,3.56741178 Z" id="形状结合" fill-opacity="0.9" fill="#000000"></path>
    </g>
</svg>