<?xml version="1.0" encoding="UTF-8"?>
<svg width="28px" height="28px" viewBox="0 0 28 28" version="1.1" xmlns="http://www.w3.org/2000/svg" xmlns:xlink="http://www.w3.org/1999/xlink">
    <title>ocr_default</title>
    <g id="For_Windows" stroke="none" stroke-width="1" fill="none" fill-rule="evenodd">
        <g id="ocr_default">
            <rect id="矩形" x="0" y="0" width="28" height="28"></rect>
            <path d="M7,18 L7,21 L10.5,21 L10.5,22 L7,22 C6.44771525,22 6,21.5522847 6,21 L6,18 L7,18 Z M22,18 L22,21 C22,21.5522847 21.5522847,22 21,22 L17.5,22 L17.5,21 L21,21 L21,18 L22,18 Z M14.0619543,9.86307261 L14.7631175,11.0677465 L14.4294752,11.2610726 L17.6410595,11.2616008 L17.6410595,12.3816008 L16.4595508,12.3823342 C16.1457086,13.5914227 15.5880158,14.653043 14.7912863,15.5649127 C15.5039105,16.1736789 16.3761433,16.690625 17.4103087,17.1169461 L17.8057159,17.2725708 L17.4118789,18.3210423 L17.0693734,18.1874573 C15.859082,17.6975037 14.8333136,17.0869462 13.9954541,16.3573901 C13.158592,17.0865208 12.1325305,17.6973331 10.9218177,18.1874573 L10.5793121,18.3210423 L10.1854752,17.2725708 C11.3944957,16.8184269 12.3982026,16.2497747 13.200885,15.5645806 C12.4031752,14.653043 11.8454825,13.5914227 11.5316402,12.3823342 L10.3823936,12.3816008 L10.3823936,11.2616008 L13.5794752,11.2610726 L13.0939757,10.4264707 L14.0619543,9.86307261 Z M15.2962745,12.3823525 L12.6949166,12.3823525 C12.9660234,13.2766776 13.3984251,14.0727544 13.9953343,14.7721061 C14.5927659,14.0727544 15.0251677,13.2766776 15.2962745,12.3823525 Z M10.5,6 L10.5,7 L7,7 L7,11 L6,11 L6,7 C6,6.44771525 6.44771525,6 7,6 L10.5,6 Z M21,6 C21.5522847,6 22,6.44771525 22,7 L22,10.999 L21,10.999 L21,7 L17.5,7 L17.5,6 L21,6 Z" id="形状结合" fill="#FFFFFF" fill-rule="nonzero"></path>
        </g>
    </g>
</svg>