<?xml version="1.0" encoding="UTF-8"?>
<svg width="24px" height="24px" viewBox="0 0 24 24" version="1.1" xmlns="http://www.w3.org/2000/svg" xmlns:xlink="http://www.w3.org/1999/xlink">
    <!-- Generator: Sketch 61.2 (89653) - https://sketch.com -->
    <title>Icons/ComposeInput/Profile</title>
    <desc>Created with Sketch.</desc>
    <g id="Icons/ComposeInput/Profile" stroke="none" stroke-width="1" fill="none" fill-rule="evenodd">
        <rect id="Icon-Background" fill-opacity="0" fill="#FFFFFF" x="0" y="0" width="24" height="24"></rect>
        <path d="M20.302,19.8 L20.302,19.3154633 C20.302,19.0860594 20.066679,18.7100199 19.8618095,18.6100873 L14.2014561,15.8490401 C12.6748743,15.1043932 12.2975728,13.302913 13.3913366,12.0063685 L13.7528692,11.5778088 C14.304195,10.9242686 14.802,9.56439093 14.802,8.71018568 L14.802,7.00020747 C14.802,5.4549142 13.5475898,4.2 12.002,4.2 C10.4583088,4.2 9.202,5.4552027 9.202,6.99958038 L9.202,8.70929053 C9.202,9.56566389 9.69774673,10.9204838 10.2510784,11.5763118 L10.612611,12.0048127 C11.7086364,13.3038601 11.3272143,15.1036503 9.80271945,15.8475869 L4.1423663,18.6097766 C3.93901709,18.7090088 3.702,19.0886771 3.702,19.3154633 L3.702,19.8 L20.302,19.8 Z M2.502,20 L2.502,19.3154633 C2.502,18.6303744 3.00015091,17.8319079 3.61609761,17.5313327 L9.27645076,14.769143 C10.0973771,14.36854 10.2882591,13.4812624 9.69544522,12.7786389 L9.33391269,12.350138 C8.59831763,11.4782852 8.002,9.84949648 8.002,8.70929053 L8.002,6.99958038 C8.002,4.79067313 9.79735615,3 12.002,3 C14.211139,3 16.002,4.79298022 16.002,7.00020747 L16.002,8.71018568 C16.002,9.84929595 15.4029324,11.4828603 14.6700872,12.351573 L14.3085546,12.7801327 C13.7190324,13.4789507 13.9031877,14.3683976 14.727549,14.7705104 L20.3879024,17.5315576 C21.0032015,17.8316925 21.502,18.6251701 21.502,19.3154633 L21.502,20 C21.502,20.5522847 21.0542847,21 20.502,21 L3.502,21 C2.94971525,21 2.502,20.5522847 2.502,20 Z" id="Profile" fill="#000000"></path>
    </g>
</svg>