<svg width="24" height="24" viewBox="0 0 24 24" fill="none" xmlns="http://www.w3.org/2000/svg">
<path fill-rule="evenodd" clip-rule="evenodd" d="M2 6.5C2 5.94772 2.44772 5.5 3 5.5H16C16.5523 5.5 17 5.94772 17 6.5V9.41423L21.5677 7.22535C22.2315 6.90726 22.9999 7.39109 22.9999 8.12715V15.867C22.9999 16.6026 22.2325 17.0865 21.5688 16.7693L17 14.5864V17.5C17 18.0523 16.5523 18.5 16 18.5H3C2.44772 18.5 2 18.0523 2 17.5V6.5ZM3.2 17.3V6.7H15.8V17.3H3.2ZM17 13.2564L21.7999 15.5498V8.44477L17 10.7449V13.2564Z" fill="#576B95"/>
</svg>
