<svg width="24" height="24" viewBox="0 0 24 24" fill="none" xmlns="http://www.w3.org/2000/svg">
<path fill-rule="evenodd" clip-rule="evenodd" d="M5.54817 2.40039L5.57482 2.40092C6.46329 2.43054 7.23165 2.95223 7.58567 3.79178L8.90078 7.28895C9.07295 7.76247 9.02175 8.16378 8.76393 8.63615L8.26817 9.5284L7.68459 10.6124L7.30869 11.3328C7.28413 11.3784 7.2705 11.4313 7.2705 11.4746C7.2705 11.5064 7.28506 11.5553 7.31881 11.6104C7.99385 12.7565 8.71449 13.7125 9.49961 14.4977C10.2711 15.2823 11.2188 16.0009 12.3918 16.692C12.4363 16.7195 12.4699 16.7294 12.5092 16.7294C12.5606 16.7294 12.5985 16.7194 12.6626 16.6849L13.1309 16.4386L13.9853 15.9805L15.36 15.2287C15.8193 14.9782 16.1964 14.9323 16.706 15.1031L20.2328 16.4307C21.0192 16.7635 21.5375 17.5139 21.5944 18.3704C21.6014 18.455 21.6017 18.5401 21.5956 18.6262C21.5843 18.7856 21.5527 18.9413 21.4958 19.1231L21.4382 19.2883C20.7082 21.2757 18.8334 22.6003 16.7196 22.6003C16.2731 22.6003 15.7643 22.5281 15.4412 22.4338C12.0695 21.6631 8.98356 19.9465 6.5185 17.4812C4.04898 15.0114 2.33553 11.9234 1.55575 8.50285L1.48827 8.17028C1.42971 7.85212 1.3999 7.56338 1.3999 7.27923C1.3999 5.16285 2.72674 3.28949 4.75542 2.54533L4.94673 2.4865C5.07923 2.45045 5.20664 2.42527 5.3335 2.41161C5.40266 2.40416 5.4707 2.40031 5.54817 2.40039ZM5.54342 3.60042L5.46195 3.60455C5.40191 3.61102 5.33603 3.62404 5.28158 3.63849L5.13958 3.68158C3.60969 4.24342 2.59985 5.66921 2.59985 7.27908C2.59985 7.48506 2.62229 7.70242 2.66629 7.94201L2.72867 8.24981C3.45506 11.4354 5.05673 14.322 7.36702 16.6325C9.67319 18.9389 12.558 20.5437 15.7412 21.2723L15.8765 21.3066C16.1196 21.361 16.4415 21.4002 16.7196 21.4002C18.3274 21.4002 19.7543 20.392 20.3083 18.8841L20.3562 18.7475C20.3808 18.6683 20.3942 18.6022 20.3985 18.5414C20.4003 18.5153 20.4003 18.4917 20.3977 18.4599C20.3697 18.0392 20.128 17.6892 19.7876 17.5447L16.3043 16.2336C16.1466 16.1808 16.1126 16.1849 15.9352 16.2817L14.5567 17.0356L13.6937 17.4983L13.2262 17.7442C12.9957 17.8682 12.7632 17.9292 12.5092 17.9292C12.2433 17.9292 11.9929 17.8555 11.7726 17.7198C10.5238 16.984 9.49326 16.2027 8.64743 15.3425C7.79019 14.4851 7.00893 13.4488 6.29058 12.2289C6.14929 11.999 6.07045 11.7339 6.07045 11.4744C6.07045 11.2302 6.13443 10.9823 6.24838 10.7707L6.62427 10.0503L7.21531 8.95246L7.71272 8.05717C7.81271 7.87396 7.81893 7.82525 7.77525 7.70502L6.47128 4.23624C6.3103 3.85504 5.96313 3.61747 5.54342 3.60042ZM5.54342 3.60042L5.54478 3.60035L5.53479 3.6001C5.53767 3.60019 5.54055 3.6003 5.54342 3.60042Z" fill="#576B95"/>
</svg>
