<svg width="24" height="24" viewBox="0 0 24 24" fill="none" xmlns="http://www.w3.org/2000/svg">
<path d="M6.77355 6.39997L7.58591 20.0475C7.61106 20.4701 7.96113 20.8 8.38449 20.8H15.6155C16.0389 20.8 16.3889 20.4701 16.4141 20.0475L17.2264 6.39997H6.77355ZM18.4286 6.39997L17.612 20.1188C17.5491 21.1754 16.6739 22 15.6155 22H8.38449C7.32608 22 6.45092 21.1754 6.38803 20.1188L5.57143 6.39997H3.5V5.69997C3.5 5.42383 3.72386 5.19997 4 5.19997H20C20.2761 5.19997 20.5 5.42383 20.5 5.69997V6.39997H18.4286ZM14 3C14.2761 3 14.5 3.22386 14.5 3.5V4.2H9.5V3.5C9.5 3.22386 9.72386 3 10 3H14ZM9.5 8.99997H10.7L11.2 18H10L9.5 8.99997ZM13.3 8.99997H14.5L14 18H12.8L13.3 8.99997Z" fill="#FA5151"/>
</svg>
