<?xml version="1.0" encoding="UTF-8"?>
<svg width="24px" height="24px" viewBox="0 0 24 24" version="1.1" xmlns="http://www.w3.org/2000/svg" xmlns:xlink="http://www.w3.org/1999/xlink">
    <!-- Generator: Sketch 61.2 (89653) - https://sketch.com -->
    <title>Icons/ComposeInput/More</title>
    <desc>Created with Sketch.</desc>
    <g id="Icons/ComposeInput/More" stroke="none" stroke-width="1" fill="none" fill-rule="evenodd">
        <rect id="Icon-Background" fill-opacity="0" fill="#FFFFFF" x="0" y="0" width="24" height="24"></rect>
        <path d="M5,10 C6.1044,10 7,10.8952 7,12 C7,13.1044 6.1044,14 5,14 C3.8956,14 3,13.1044 3,12 C3,10.8952 3.8956,10 5,10 Z M19,10 C20.1044,10 21,10.8952 21,12 C21,13.1044 20.1044,14 19,14 C17.8956,14 17,13.1044 17,12 C17,10.8952 17.8956,10 19,10 Z M12,10 C13.1044,10 14,10.8952 14,12 C14,13.1044 13.1044,14 12,14 C10.8956,14 10,13.1044 10,12 C10,10.8952 10.8956,10 12,10 Z" id="More" fill="#000000"></path>
    </g>
</svg>