<?xml version="1.0" encoding="UTF-8"?>
<svg width="24px" height="24px" viewBox="0 0 24 24" version="1.1" xmlns="http://www.w3.org/2000/svg" xmlns:xlink="http://www.w3.org/1999/xlink">
    <title>0.图标/05.特殊/导航栏 icons_miniprogram</title>
    <g id="0.图标/05.特殊/导航栏-icons_miniprogram" stroke="none" stroke-width="1" fill="none" fill-rule="evenodd">
        <rect id="Icon-Background" fill-opacity="0" fill="#000000" x="0" y="0" width="24" height="24"></rect>
        <path d="M12,3.375 C16.763456,3.375 20.625,7.23654403 20.625,12 C20.625,16.763456 16.763456,20.625 12,20.625 C7.23654403,20.625 3.375,16.763456 3.375,12 C3.375,7.23654403 7.23654403,3.375 12,3.375 Z M12,4.41 C7.80815875,4.41 4.41,7.80815875 4.41,12 C4.41,16.1918413 7.80815875,19.59 12,19.59 C16.1918413,19.59 19.59,16.1918413 19.59,12 C19.59,7.80815875 16.1918413,4.41 12,4.41 Z M14.2006815,7.60125 C15.6888702,7.60125 16.9005679,8.68759965 16.9005679,10.0397727 C16.9005679,11.2373032 15.978809,12.2305778 14.7120506,12.4508836 L14.5927269,12.4521591 C14.2446598,12.4521591 14.0429173,12.2079444 14.173678,11.9137517 C14.2661517,11.6979798 14.476634,11.5279748 14.7293074,11.4718397 C15.464141,11.2944661 15.9701133,10.7172301 15.9701133,10.0397727 C15.9701133,9.22412108 15.1966156,8.55784091 14.2268179,8.55784091 C13.2570201,8.55784091 12.4835224,9.22412108 12.4835224,10.0397727 L12.4835224,13.9602273 C12.4835224,15.3124003 11.2718247,16.39875 9.78363603,16.39875 C8.29544736,16.39875 7.08374967,15.3124003 7.08374967,13.9602273 C7.08374967,12.7754903 8.02086908,11.7656633 9.28704513,11.5739773 L9.39159058,11.5739773 C9.65923304,11.5739773 9.84374967,11.7293597 9.84374967,11.9477273 C9.84386029,11.9857213 9.84314934,12.0042062 9.8393091,12.0272476 C9.83441179,12.0566315 9.82480258,12.0843914 9.81063957,12.1123846 C9.72287461,12.3171695 9.49519558,12.4942532 9.25501014,12.5542966 C8.5241422,12.730713 8.01420422,13.305291 8.01420422,13.9602273 C8.01420422,14.7758789 8.78770188,15.4421591 9.75749967,15.4421591 C10.7272975,15.4421591 11.5007951,14.7758789 11.5007951,13.9602273 L11.5007951,10.0397727 C11.5007951,8.68759965 12.7124928,7.60125 14.2006815,7.60125 Z" id="MiniProgram" fill-opacity="0.9" fill="#000000"></path>
    </g>
</svg>