<?xml version="1.0" encoding="UTF-8"?>
<svg width="16px" height="16px" viewBox="0 0 16 16" version="1.1" xmlns="http://www.w3.org/2000/svg" xmlns:xlink="http://www.w3.org/1999/xlink">
    <title>icon_yuyin@1x</title>
    <g id="icon_yuyin" stroke="none" stroke-width="1" fill="none" fill-rule="evenodd">
        <g id="编组">
            <rect id="矩形" x="0" y="0" width="16" height="16"></rect>
            <g id="Group-4-Copy-4" transform="translate(8.000000, 8.000000) scale(-1, 1) translate(-8.000000, -8.000000) translate(3.000000, 1.000000)" fill="#000000" fill-opacity="0.5">
                <path d="M10,7 C10,9.73367004 8.88071187,12.2085438 7.07106781,14 L6.18270674,13.1207965 C7.73894165,11.5489194 8.7,9.38669329 8.7,7 C8.7,4.61381462 7.73935065,2.45200092 6.18370021,0.880207157 L7.07106781,0 C8.88071187,1.79145622 10,4.26632996 10,7 Z M6.5,7 C6.5,8.77688553 5.77246272,10.3855535 4.59619408,11.55 L3.69537995,10.6584384 C4.62556156,9.71892304 5.2,8.42654516 5.2,7 C5.2,5.57345484 4.62556156,4.28107696 3.69537995,3.34156163 L4.59619408,2.45 C5.77246272,3.61444655 6.5,5.22311447 6.5,7 Z M2.12132034,4.9 C2.66421356,5.43743687 3,6.17989899 3,7 C3,7.82010101 2.66421356,8.56256313 2.12132034,9.1 L0,7 Z" id="Combined-Shape" transform="translate(5.000000, 7.000000) scale(-1, 1) translate(-5.000000, -7.000000) "></path>
            </g>
        </g>
    </g>
</svg>