<?xml version="1.0" encoding="UTF-8"?>
<svg width="16px" height="16px" viewBox="0 0 16 16" version="1.1" xmlns="http://www.w3.org/2000/svg" xmlns:xlink="http://www.w3.org/1999/xlink">
    <title>icon_mingpian@1x</title>
    <g id="icon_mingpian" stroke="none" stroke-width="1" fill="none" fill-rule="evenodd">
        <g id="编组">
            <rect id="Rectangle-11" x="0" y="0" width="16" height="16"></rect>
            <path d="M13.5333333,13.2 L13.5333333,12.8769756 C13.5333333,12.7240396 13.3764526,12.4733466 13.239873,12.4067248 L9.4663041,10.5660267 C8.44858286,10.0695955 8.19704851,8.86860869 8.92622439,8.00424564 L9.16724611,7.71853918 C9.53479668,7.28284576 9.86666667,6.37626062 9.86666667,5.80679046 L9.86666667,4.66680498 C9.86666667,3.63660947 9.0303932,2.8 8,2.8 C6.97087256,2.8 6.13333333,3.6368018 6.13333333,4.66638692 L6.13333333,5.80619369 C6.13333333,6.37710926 6.46383115,7.28032254 6.83271895,7.71754117 L7.07374063,8.00320845 C7.80442428,8.86924009 7.55014288,10.0691002 6.53381297,10.5650579 L2.7602442,12.4065177 C2.62467806,12.4726725 2.46666667,12.7257847 2.46666667,12.8769756 L2.46666667,13.2 L13.5333333,13.2 Z M1.66666667,13.3333333 L1.66666667,12.8769756 C1.66666667,12.4202496 1.99876727,11.8879386 2.40939841,11.6875551 L6.18296717,9.84609534 C6.73025142,9.57902669 6.85750604,8.9875083 6.46229682,8.5190926 L6.22127513,8.23342532 C5.73087842,7.6521901 5.33333333,6.56633099 5.33333333,5.80619369 L5.33333333,4.66638692 C5.33333333,3.19378209 6.53023744,2 8,2 C9.47275933,2 10.6666667,3.19532015 10.6666667,4.66680498 L10.6666667,5.80679046 C10.6666667,6.5661973 10.2672883,7.65524023 9.77872477,8.23438202 L9.53770306,8.52008849 C9.14468827,8.98596712 9.26745847,9.57893174 9.81703266,9.84700692 L13.5906016,11.687705 C14.000801,11.887795 14.3333333,12.4167801 14.3333333,12.8769756 L14.3333333,13.3333333 C14.3333333,13.7015232 14.0348565,14 13.6666667,14 L2.33333333,14 C1.9651435,14 1.66666667,13.7015232 1.66666667,13.3333333 Z" id="Path-67" fill-opacity="0.5" fill="#000000"></path>
        </g>
    </g>
</svg>