<?xml version="1.0" encoding="UTF-8"?>
<svg width="16px" height="16px" viewBox="0 0 16 16" version="1.1" xmlns="http://www.w3.org/2000/svg" xmlns:xlink="http://www.w3.org/1999/xlink">
    <title>icon_biji@1x</title>
    <g id="icon_biji" stroke="none" stroke-width="1" fill="none" fill-rule="evenodd">
        <g id="编组">
            <rect id="矩形" x="0" y="0" width="16" height="16"></rect>
            <g id="编组-2" transform="translate(1.333333, 1.333333)" fill="#000000" fill-opacity="0.45">
                <g id="Group" transform="translate(0.666667, 0.000000)">
                    <path d="M7.33333333,0.666666667 L7.33333333,1.46666667 L0.8,1.46666667 L0.8,11.8666667 L11.2,11.8666667 L11.2,5.33333333 L12,5.33333333 L12,12 C12,12.3681898 11.7015232,12.6666667 11.3333333,12.6666667 L0.666666667,12.6666667 C0.298476833,12.6666667 0,12.3681898 0,12 L0,1.33333333 C0,0.9651435 0.298476833,0.666666667 0.666666667,0.666666667 L7.33333333,0.666666667 Z M11.7108126,0.497386693 L12.1810375,0.967611553 C12.3108865,1.09746056 12.3108865,1.3079874 12.1810375,1.43783641 L5.8412705,7.77760338 L4.29687467,8.64125204 C4.20071028,8.69503085 4.07915729,8.66067055 4.02537848,8.56450616 C3.99122497,8.50343468 3.99156386,8.42893406 4.02627155,8.36817583 L4.90090397,6.83707048 L11.2405878,0.497386693 C11.3704368,0.367537684 11.5809636,0.367537684 11.7108126,0.497386693 Z" id="Rectangle-41"></path>
                </g>
            </g>
        </g>
    </g>
</svg>