<?xml version="1.0" encoding="UTF-8"?>
<svg width="16px" height="16px" viewBox="0 0 16 16" version="1.1" xmlns="http://www.w3.org/2000/svg" xmlns:xlink="http://www.w3.org/1999/xlink">
    <title>icon_shipinhao@1x</title>
    <g id="icon_shipinhao" stroke="none" stroke-width="1" fill="none" fill-rule="evenodd">
        <g id="编组">
            <rect id="矩形" x="0" y="0" width="16" height="16"></rect>
            <g id="fileicon_word-120-@2x" transform="translate(2.000000, 2.000000)" fill="#000000" fill-opacity="0.45">
                <path d="M10.23172,0.773238581 C10.9151012,0.496799767 11.4993648,0.761987069 11.8038363,1.52415803 C12.6231819,3.57470308 10.7052674,11.3333333 9.20054767,11.3333333 C8.71369595,11.3333333 8.22578553,10.9282315 7.6573583,10.2000714 C7.40116866,9.87189028 7.1337386,9.48069498 6.85878117,9.03917594 C6.63882331,8.6859737 6.42261198,8.31461608 6.21490073,7.93878896 L6.00016309,7.54317358 L6.00016309,7.54317358 L5.98980765,7.56197889 C5.72111919,8.06502708 5.43450253,8.56823961 5.14122539,9.03917594 C4.86626795,9.48069498 4.5988379,9.87189028 4.34264826,10.2000714 C3.77422103,10.9282315 3.2863106,11.3333333 2.79945889,11.3333333 C1.29473916,11.3333333 -0.623175302,3.57470308 0.196158974,1.52418625 C0.500641791,0.761987069 1.08490532,0.496799767 1.76828657,0.773238581 C2.26376361,0.973667089 2.81059732,1.45290134 3.42167608,2.17080449 C3.78532484,2.59802372 4.16573405,3.10393991 4.55727992,3.67267562 C4.99080449,4.30238705 5.41553424,4.97575964 5.81427136,5.64897958 L6.00023127,5.96580555 L6.1857352,5.64897958 C6.50472489,5.11040362 6.84034987,4.57172998 7.18380486,4.05539131 L7.44272664,3.67267562 C7.83427251,3.10393991 8.21468171,2.59802372 8.57833048,2.17080449 C9.18940924,1.45290134 9.73624295,0.973667089 10.23172,0.773238581 Z M1.48491014,1.46230128 C1.19632963,1.34556578 1.04764125,1.41305291 0.893733685,1.79832331 C0.62479035,2.4713976 0.737726266,4.16748868 1.13642144,6.07082924 L1.22968515,6.49687376 L1.33212218,6.92775194 C1.8353668,8.96355124 2.559393,10.5891594 2.79945889,10.5891594 C2.96377146,10.5891594 3.32244069,10.2913638 3.74934254,9.74449889 C3.98754338,9.43936158 4.24072543,9.0690082 4.5028327,8.64812359 C4.71558647,8.30648947 4.92557493,7.94578733 5.1275891,7.58024885 L5.37180448,7.12894473 L5.37180448,7.12894473 L5.57668559,6.73433813 L5.36248264,6.35924406 L5.16729455,6.02589975 C4.77656486,5.3661994 4.36055515,4.70665169 3.93760786,4.09230417 C3.55943274,3.54299 3.19376649,3.05668085 2.84832441,2.65085107 C2.30962661,2.017982 1.83900474,1.6055383 1.48491014,1.46230128 Z M11.1062616,1.79829508 C10.9523653,1.41305291 10.8036769,1.34556578 10.5150964,1.46230128 C10.1610018,1.6055383 9.69037994,2.017982 9.15168215,2.65085107 C8.80624007,3.05668085 8.44057381,3.54299 8.0623987,4.09230417 C7.72404086,4.58378218 7.39012308,5.10418832 7.07003668,5.63045824 L6.73257655,6.19594266 L6.42269569,6.73433813 L6.52898728,6.9399955 L6.67325431,7.21362536 C6.93474658,7.70320056 7.21350216,8.19261142 7.49717386,8.64812359 C7.75928113,9.0690082 8.01246318,9.43936158 8.25066402,9.74449889 C8.67756586,10.2913638 9.0362351,10.5891594 9.20054767,10.5891594 C9.44061356,10.5891594 10.1646398,8.96355124 10.6678844,6.92775194 L10.7703214,6.49687376 C11.2434536,4.42437457 11.3951372,2.52125313 11.1062616,1.79829508 Z" id="形状"></path>
            </g>
        </g>
    </g>
</svg>