<svg width="24" height="24" viewBox="0 0 24 24" fill="none" xmlns="http://www.w3.org/2000/svg">
<path fill-rule="evenodd" clip-rule="evenodd" d="M15.4529 16.4014C14.2428 17.4001 12.6915 18 11 18C7.134 18 4 14.866 4 11C4 7.134 7.134 4 11 4C14.866 4 18 7.134 18 11C18 12.7425 17.3633 14.3363 16.3099 15.5614L20.4243 19.6757L19.5757 20.5243L15.4529 16.4014ZM16.8 11C16.8 14.2033 14.2033 16.8 11 16.8C7.79674 16.8 5.2 14.2033 5.2 11C5.2 7.79676 7.79674 5.20001 11 5.20001C14.2033 5.20001 16.8 7.79676 16.8 11Z" fill="black" fill-opacity="0.9"/>
</svg>
