<?xml version="1.0" encoding="UTF-8"?>
<svg width="16px" height="16px" viewBox="0 0 16 16" version="1.1" xmlns="http://www.w3.org/2000/svg" xmlns:xlink="http://www.w3.org/1999/xlink">
    <title>icon_info</title>
    <g id="icon_info" stroke="none" stroke-width="1" fill="none" fill-rule="evenodd">
        <g id="Icons/Tint-Color/Black" fill="#576B95" transform="translate(1.333333, 1.333333)">
            <path d="M6.66666667,0 C10.348565,0 13.3333333,2.98476833 13.3333333,6.66666667 C13.3333333,10.348565 10.348565,13.3333333 6.66666667,13.3333333 C2.98476833,13.3333333 0,10.348565 0,6.66666667 C0,2.98476833 2.98476833,0 6.66666667,0 Z M6.66666667,0.8 C3.42659613,0.8 0.8,3.42659613 0.8,6.66666667 C0.8,9.9067372 3.42659613,12.5333333 6.66666667,12.5333333 C9.9067372,12.5333333 12.5333333,9.9067372 12.5333333,6.66666667 C12.5333333,3.42659613 9.9067372,0.8 6.66666667,0.8 Z M7.06666644,5.33333333 L7.06666644,10 L6.26666641,10 L6.26666641,5.33333333 L7.06666644,5.33333333 Z M6.66666667,3.33333333 C7.0348565,3.33333333 7.33333333,3.63181017 7.33333333,4 C7.33333333,4.36818983 7.0348565,4.66666667 6.66666667,4.66666667 C6.29847683,4.66666667 6,4.36818983 6,4 C6,3.63181017 6.29847683,3.33333333 6.66666667,3.33333333 Z" id="图标颜色"></path>
        </g>
    </g>
</svg>