<?xml version="1.0" encoding="UTF-8"?>
<svg width="16px" height="16px" viewBox="0 0 16 16" version="1.1" xmlns="http://www.w3.org/2000/svg" xmlns:xlink="http://www.w3.org/1999/xlink">
    <title>icon_transfer</title>
    <g id="icon_transfer" stroke="none" stroke-width="1" fill="none" fill-rule="evenodd">
        <g id="0.图标/线型/icons_outlined_transfer" fill="#576B95">
            <path d="M13,9 C13.1840949,9 13.3333333,9.14923842 13.3333333,9.33333333 C13.3333333,9.42935773 13.2919228,9.52071766 13.2197095,9.58401008 L9.93121586,12.4662614 C9.8204599,12.5633352 9.65198061,12.5522436 9.55490684,12.4414876 C9.47472484,12.3500043 9.4666183,12.2158529 9.5352007,12.11538 L10.9791503,10 L2.66593826,10 L2.66593826,9 L13,9 Z M6.44436476,3.55851235 C6.52454676,3.6499957 6.5326533,3.78414712 6.4640709,3.88462004 L5.02012125,6 L13.3333333,6 L13.3333333,7 L2.9992716,7 C2.81517668,7 2.66593826,6.85076158 2.66593826,6.66666667 C2.66593826,6.57064227 2.70734882,6.47928234 2.77956207,6.41598992 L6.06805574,3.53373858 C6.17881169,3.4366648 6.34729098,3.4477564 6.44436476,3.55851235 Z" id="Combined-Shape"></path>
        </g>
    </g>
</svg>