<?xml version="1.0" encoding="UTF-8"?>
<svg width="69px" height="4px" viewBox="0 0 69 4" version="1.1" xmlns="http://www.w3.org/2000/svg" xmlns:xlink="http://www.w3.org/1999/xlink">
    <title>终止符/圆点终止符/darkmode</title>
    <g id="基础设计规范_终止符_v1" stroke="none" stroke-width="1" fill="none" fill-rule="evenodd">
        <g id="基础设计规范_终止符_xingong_版本号V1.0_20200708" transform="translate(-1216.000000, -10940.000000)">
            <g id="编组" transform="translate(176.000000, 10638.000000)">
                <g id="编组-4备份-7" transform="translate(867.000000, 156.000000)">
                    <g id="编组-15" transform="translate(0.000000, -672.000000)">
                        <g id="编组" transform="translate(0.000000, 778.000000)">
                            <g id="编组-14" transform="translate(173.000000, 40.000000)">
                                <polygon id="矩形" fill-opacity="0.15" fill="#FFFFFF" points="0.5 1.5 24.5 1.5 24.5 2.5 0.5 2.5"></polygon>
                                <g id="月亮" transform="translate(32.500000, 0.000000)">
                                    <path d="M2,1.8189894e-12 C3.1045695,1.8189894e-12 4,0.8954305 4,2 C4,3.1045695 3.1045695,4 2,4 C1.15145147,4 0.426327698,3.47155577 0.135771339,2.72580994 C0.380067428,2.89866551 0.678199744,3 1,3 C1.82842712,3 2.5,2.32842712 2.5,1.5 C2.5,0.833389579 2.06516076,0.268341303 1.46366036,0.0730332353 C1.63368412,0.0254252461 1.81387287,1.8189894e-12 2,1.8189894e-12 Z" id="形状结合" fill-opacity="0.15" fill="#FFFFFF"></path>
                                    <rect id="矩形" x="0" y="0" width="4" height="4"></rect>
                                </g>
                                <rect id="矩形备份" fill-opacity="0.15" fill="#FFFFFF" x="44.5" y="1.5" width="24" height="1"></rect>
                            </g>
                        </g>
                    </g>
                </g>
            </g>
        </g>
    </g>
</svg>