<?xml version="1.0" encoding="UTF-8"?>
<svg width="24px" height="24px" viewBox="0 0 24 24" version="1.1" xmlns="http://www.w3.org/2000/svg" xmlns:xlink="http://www.w3.org/1999/xlink">
    <!-- Generator: Sketch 64 (93537) - https://sketch.com -->
    <title>3.Icons/Outlined/subscriptions</title>
    <desc>Created with Sketch.</desc>
    <g id="3.Icons/Outlined/subscriptions" stroke="none" stroke-width="1" fill="none" fill-rule="evenodd">
        <g id="menu" transform="translate(4.000000, 2.000000)" fill="#000000">
            <g id="Group">
                <path d="M15,0 C15.5522847,0 16,0.44771525 16,1 L16,19 C16,19.5522847 15.5522847,20 15,20 L1,20 C0.44771525,20 0,19.5522847 0,19 L0,1 C0,0.44771525 0.44771525,0 1,0 L15,0 Z M14.8,1.2 L1.2,1.2 L1.2,18.8 L14.8,18.8 L14.8,1.2 Z" id="图标颜色"></path>
            </g>
            <path d="M3.75,13.6288362 C4.16421356,13.6288362 4.5,13.9646226 4.5,14.3788362 C4.5,14.7930497 4.16421356,15.1288362 3.75,15.1288362 C3.33578644,15.1288362 3,14.7930497 3,14.3788362 C3,13.9646226 3.33578644,13.6288362 3.75,13.6288362 Z M12.4,13.7970501 C12.7313708,13.7970501 13,14.0656793 13,14.3970501 C13,14.728421 12.7313708,14.9970501 12.4,14.9970501 L5.8036834,14.9970501 C5.47231255,14.9970501 5.2036834,14.728421 5.2036834,14.3970501 C5.2036834,14.0656793 5.47231255,13.7970501 5.8036834,13.7970501 L12.4,13.7970501 Z M3.75,9.22311262 C4.16421356,9.22311262 4.5,9.55889906 4.5,9.97311262 C4.5,10.3873262 4.16421356,10.7231126 3.75,10.7231126 C3.33578644,10.7231126 3,10.3873262 3,9.97311262 C3,9.55889906 3.33578644,9.22311262 3.75,9.22311262 Z M12.4,9.38653442 C12.7313708,9.38653442 13,9.65516357 13,9.98653442 C13,10.3179053 12.7313708,10.5865344 12.4,10.5865344 L5.8036834,10.5865344 C5.47231255,10.5865344 5.2036834,10.3179053 5.2036834,9.98653442 C5.2036834,9.65516357 5.47231255,9.38653442 5.8036834,9.38653442 L12.4,9.38653442 Z M3.75,5.13380122 C4.16421356,5.13380122 4.5,5.46958766 4.5,5.88380122 C4.5,6.29801479 4.16421356,6.63380122 3.75,6.63380122 C3.33578644,6.63380122 3,6.29801479 3,5.88380122 C3,5.46958766 3.33578644,5.13380122 3.75,5.13380122 Z M12.4,5.30303863 C12.7313708,5.30303863 13,5.57166778 13,5.90303863 C13,6.23440948 12.7313708,6.50303863 12.4,6.50303863 L5.8036834,6.50303863 C5.47231255,6.50303863 5.2036834,6.23440948 5.2036834,5.90303863 C5.2036834,5.57166778 5.47231255,5.30303863 5.8036834,5.30303863 L12.4,5.30303863 Z" id="Combined-Shape"></path>
        </g>
    </g>
</svg>