<?xml version="1.0" encoding="UTF-8"?>
<svg width="32px" height="32px" viewBox="0 0 32 32" version="1.1" xmlns="http://www.w3.org/2000/svg" xmlns:xlink="http://www.w3.org/1999/xlink">
    <title>画板@3x</title>
    <g id="画板" stroke="none" stroke-width="1" fill="none" fill-rule="evenodd">
        <g id="编组-13">
            <rect id="矩形" stroke="#979797" stroke-width="0.98" fill="#D8D8D8" opacity="0" x="0.49" y="0.49" width="31.02" height="31.02"></rect>
            <g id="0.图标/03.导航/icons_outlined_Nav视频号" transform="translate(5.032405, 6.464313)" fill="#000000" fill-opacity="0.5">
                <path d="M18.7581533,0.189831222 C20.0110189,-0.302575416 21.0821687,0.169789467 21.6403666,1.52740648 C23.1425001,5.17993986 19.6263236,19 16.8676707,19 C15.9751092,19 15.0806068,18.2784124 14.0384902,16.9813771 C13.5688092,16.3968046 13.0785208,15.6999879 12.5744321,14.9135322 C12.1711761,14.2843906 11.7747886,13.6229099 11.3939847,12.9534678 L11.000299,12.2487779 L10.981314,12.2822749 C10.4887185,13.1783295 9.96325464,14.0746768 9.42557987,14.9135322 C8.92149125,15.6999879 8.43120281,16.3968046 7.96152181,16.9813771 C6.91940522,18.2784124 6.02490277,19 5.13234129,19 C2.37368846,19 -1.14248805,5.17993986 0.359624785,1.52745676 C0.917843283,0.169789467 1.98899308,-0.302575416 3.24185871,0.189831222 C4.15023328,0.546844502 5.15276175,1.40048051 6.27307281,2.6792455 C6.93976221,3.44022975 7.63717909,4.34139296 8.35501318,5.35445345 C9.14980823,6.47612693 9.92847944,7.67557185 10.6594975,8.87474488 L11.000424,9.43909114 L11.3405145,8.87474488 C11.925329,7.91540646 12.5406414,6.95589403 13.1703089,6.03616577 L13.6449988,5.35445345 C14.3628329,4.34139296 15.0602498,3.44022975 15.7269392,2.6792455 C16.8472503,1.40048051 17.8497787,0.546844502 18.7581533,0.189831222 Z M2.72233525,1.41722415 C2.19327099,1.20928904 1.92067562,1.3295005 1.63851176,2.0157634 C1.14544897,3.21467698 1.35249815,6.23583921 2.0834393,9.62616459 L2.25442278,10.3850564 L2.442224,11.1525581 C3.36483913,14.7788256 4.6922205,17.6744401 5.13234129,17.6744401 C5.433581,17.6744401 6.09114127,17.1439917 6.87379465,16.1698886 C7.31049619,15.6263628 7.77466328,14.9666709 8.25519328,14.2169702 C8.64524187,13.6084344 9.03022071,12.9659337 9.40058002,12.3148183 L9.84830821,11.5109328 L10.2239236,10.8080398 L9.83121817,10.1399035 L9.47337334,9.54613393 C8.75703558,8.37104268 7.99435111,7.19622332 7.21894774,6.10191681 C6.5256267,5.12345094 5.85523856,4.25721276 5.22192808,3.53432847 C4.23431545,2.40703044 3.37150869,1.67236509 2.72233525,1.41722415 Z M20.3614796,2.01571312 C20.0793364,1.3295005 19.806741,1.20928904 19.2776768,1.41722415 C18.6285033,1.67236509 17.7656966,2.40703044 16.7780839,3.53432847 C16.1447735,4.25721276 15.4743853,5.12345094 14.7810643,6.10191681 C14.1607416,6.97736201 13.548559,7.90433545 12.9617339,8.84175373 L12.343057,9.84902287 L11.7749421,10.8080398 L11.96981,11.174367 L12.2342996,11.6617702 C12.7137021,12.533826 13.224754,13.4055891 13.7448187,14.2169702 C14.2253487,14.9666709 14.6895158,15.6263628 15.1262174,16.1698886 C15.9088708,17.1439917 16.566431,17.6744401 16.8676707,17.6744401 C17.3077915,17.6744401 18.6351729,14.7788256 19.557788,11.1525581 L19.7455892,10.3850564 C20.6129983,6.69341721 20.8910849,3.30348215 20.3614796,2.01571312 Z" id="形状"></path>
            </g>
        </g>
    </g>
</svg>