<?xml version="1.0" encoding="UTF-8"?>
<svg width="32px" height="32px" viewBox="0 0 32 32" version="1.1" xmlns="http://www.w3.org/2000/svg" xmlns:xlink="http://www.w3.org/1999/xlink">
    <title>画板@3x</title>
    <g id="画板" stroke="none" stroke-width="1" fill="none" fill-rule="evenodd">
        <g id="编组">
            <rect id="矩形" stroke="#979797" fill="#D8D8D8" opacity="0" x="0.5" y="0.5" width="31" height="31"></rect>
            <path d="M9,14.5 C9.8283,14.5 10.5,15.1714 10.5,16 C10.5,16.8283 9.8283,17.5 9,17.5 C8.1717,17.5 7.5,16.8283 7.5,16 C7.5,15.1714 8.1717,14.5 9,14.5 Z M16,14.5 C16.8283,14.5 17.5,15.1714 17.5,16 C17.5,16.8283 16.8283,17.5 16,17.5 C15.1717,17.5 14.5,16.8283 14.5,16 C14.5,15.1714 15.1717,14.5 16,14.5 Z M23,14.5 C23.8283,14.5 24.5,15.1714 24.5,16 C24.5,16.8283 23.8283,17.5 23,17.5 C22.1717,17.5 21.5,16.8283 21.5,16 C21.5,15.1714 22.1717,14.5 23,14.5 Z" id="More" fill-opacity="0.5" fill="#000000"></path>
        </g>
    </g>
</svg>