<?xml version="1.0" encoding="UTF-8"?>
<svg width="32px" height="32px" viewBox="0 0 32 32" version="1.1" xmlns="http://www.w3.org/2000/svg" xmlns:xlink="http://www.w3.org/1999/xlink">
    <title>搜一搜</title>
    <g id="搜一搜" stroke="none" stroke-width="1" fill="none" fill-rule="evenodd" fill-opacity="0.5">
        <path d="M15.5441402,16.7728829 L22.6762312,24.643421 C22.8616578,24.8480464 22.8460941,25.1642461 22.6414687,25.3496727 L22.6259831,25.3631371 L22.6259831,25.3631371 L21.6424481,26.183474 C21.4303865,26.3603482 21.1150917,26.3318232 20.9382175,26.1197616 C20.9302799,26.1102449 20.9226988,26.1004363 20.91549,26.0903563 L14.7234766,17.4321032 C14.5654599,17.2111495 14.6127609,16.9044545 14.830006,16.7413767 L14.8734634,16.7087548 C15.0800287,16.5536939 15.370702,16.5814872 15.5441402,16.7728829 Z M11.7753403,16.9643302 L11.8843938,16.9970751 C12.140615,17.0740094 12.290885,17.3389924 12.2253853,17.5983724 L10.179677,25.6994159 C10.1120668,25.9671536 9.84021362,26.1293889 9.57247593,26.0617787 L9.53050523,26.0492001 L9.53050523,26.0492001 L8.25154404,25.6039508 C7.99075334,25.5131608 7.85294053,25.2281484 7.94373052,24.9673577 C7.94707971,24.9577373 7.95072212,24.9482214 7.95465265,24.9388236 L11.1702687,17.2502844 C11.2690324,17.0141403 11.5301878,16.8907194 11.7753403,16.9643302 Z M25.9407027,12.7393922 L25.9442124,12.7812599 L25.9442124,12.7812599 L25.9995453,14.1104238 C26.0110311,14.3863272 25.7966783,14.6193022 25.5207749,14.630788 C25.5122436,14.6311431 25.5037046,14.6312797 25.4951663,14.6311975 L16.1326087,14.5410934 C15.8583563,14.538454 15.6374204,14.3153816 15.6374204,14.0411165 L15.6374204,13.9777933 C15.6374204,13.7258802 15.824829,13.5133078 16.0747559,13.4817357 L25.3819805,12.3059992 C25.6559456,12.2713905 25.906094,12.4654272 25.9407027,12.7393922 Z M5.64592309,12.4473327 C5.66662056,12.4491309 5.68718584,12.4522173 5.70749932,12.456574 L10.3078369,13.443232 C10.556753,13.4966183 10.725816,13.728507 10.7005068,13.9818226 L10.6893071,14.0939191 C10.6641012,14.3462003 10.4540607,14.5396824 10.2005624,14.5441336 L5.50880757,14.6265179 C5.23270775,14.631366 5.00495444,14.4114731 5.0001063,14.1353733 C4.99980128,14.1180021 5.00040187,14.1006268 5.00190564,14.0833181 L5.10452265,12.9021794 C5.12842379,12.6270734 5.37081703,12.4234315 5.64592309,12.4473327 Z M14.8144179,5.71158408 C14.8344735,5.71589992 14.8542444,5.72144596 14.8736186,5.72819076 L16.1236072,6.16335373 C16.3843979,6.25414371 16.5222108,6.53915617 16.4314208,6.79994687 C16.4269617,6.81275547 16.4219833,6.82537733 16.4164979,6.83778115 L14.1351903,11.996402 C14.0263034,12.2426231 13.7420101,12.3584228 13.492073,12.2583596 L13.3333183,12.1948016 C13.1070574,12.1042172 12.9790716,11.8636964 13.0303451,11.6254307 L14.2204187,6.09520492 C14.2785131,5.8252426 14.5444556,5.6534897 14.8144179,5.71158408 Z" id="Combined-Shape" fill="#000000"></path>
    </g>
</svg>