<?xml version="1.0" encoding="UTF-8"?>
<svg width="32px" height="32px" viewBox="0 0 32 32" version="1.1" xmlns="http://www.w3.org/2000/svg" xmlns:xlink="http://www.w3.org/1999/xlink">
    <title>icon/sender32</title>
    <g id="icon/sender32" stroke="none" stroke-width="1" fill="none" fill-rule="evenodd">
        <g id="编组">
            <rect id="矩形" x="0" y="0" width="32" height="32"></rect>
            <g id="3.Icons/Outlined/me" transform="translate(4.000000, 4.000000)" fill="#000000" fill-opacity="0.9">
                <g id="icon11" transform="translate(2.000000, 3.000000)">
                    <path d="M18.3,16.8 L18.3,16.3154633 C18.3,16.0860594 18.064679,15.7100199 17.8598095,15.6100873 L12.1994561,12.8490401 C10.6728743,12.1043932 10.2955728,10.302913 11.3893366,9.00636847 L11.7508692,8.57780877 C12.302195,7.92426863 12.8,6.56439093 12.8,5.71018568 L12.8,4.00020747 C12.8,2.4549142 11.5455898,1.2 10,1.2 C8.45630885,1.2 7.2,2.4552027 7.2,3.99958038 L7.2,5.70929053 C7.2,6.56566389 7.69574673,7.92048381 8.24907842,8.57631176 L8.61061095,9.00481267 C9.70663642,10.3038601 9.32521432,12.1036503 7.80071945,12.8475869 L2.1403663,15.6097766 C1.93701709,15.7090088 1.7,16.0886771 1.7,16.3154633 L1.7,16.8 L18.3,16.8 Z M0.5,17 L0.5,16.3154633 C0.5,15.6303744 0.998150907,14.8319079 1.61409761,14.5313327 L7.27445076,11.769143 C8.09537712,11.36854 8.28625906,10.4812624 7.69344522,9.7786389 L7.33191269,9.35013798 C6.59631763,8.47828515 6,6.84949648 6,5.70929053 L6,3.99958038 C6,1.79067313 7.79535615,0 10,0 C12.209139,0 14,1.79298022 14,4.00020747 L14,5.71018568 C14,6.84929595 13.4009324,8.48286035 12.6680872,9.35157303 L12.3065546,9.78013273 C11.7170324,10.4789507 11.9011877,11.3683976 12.725549,11.7705104 L18.3859024,14.5315576 C19.0012015,14.8316925 19.5,15.6251701 19.5,16.3154633 L19.5,17 C19.5,17.5522847 19.0522847,18 18.5,18 L1.5,18 C0.94771525,18 0.5,17.5522847 0.5,17 Z" id="图标颜色"></path>
                </g>
            </g>
        </g>
    </g>
</svg>