<?xml version="1.0" encoding="UTF-8"?>
<svg width="32px" height="32px" viewBox="0 0 32 32" version="1.1" xmlns="http://www.w3.org/2000/svg" xmlns:xlink="http://www.w3.org/1999/xlink">
    <title>icon/Chat32</title>
    <g id="icon/Chat32" stroke="none" stroke-width="1" fill="none" fill-rule="evenodd">
        <g id="编组">
            <rect id="矩形" x="0" y="0" width="32" height="32"></rect>
            <g id="3.Icons/Outlined/chats" transform="translate(4.000000, 4.000000)" fill="#000000" fill-opacity="0.9">
                <g id="Icons/Tint-Color/Black" transform="translate(2.000000, 3.000000)">
                    <path d="M6.66745316,15.2678377 L7.10723968,15.3951922 C8.02854159,15.6619852 9.00220916,15.8 10,15.8 C14.8994301,15.8 18.8,12.4845156 18.8,8.5 C18.8,4.51548439 14.8994301,1.2 10,1.2 C5.10056987,1.2 1.2,4.51548439 1.2,8.5 C1.2,10.5759237 2.25693049,12.5260959 4.10059482,13.9113629 L4.65125979,14.325114 L4.41619358,16.3473404 L6.66745316,15.2678377 Z M10,17 C8.87101667,17 7.78573058,16.8409734 6.77345417,16.5478358 L3.79050106,17.9781933 C3.70535272,18.0190228 3.61038279,18.0349049 3.51658297,18.0240015 C3.24228753,17.9921171 3.04577459,17.7439092 3.07765905,17.4696138 L3.37975626,14.8707334 C1.30699806,13.313333 0,11.0364044 0,8.5 C0,3.80557963 4.4771525,0 10,0 C15.5228475,0 20,3.80557963 20,8.5 C20,13.1944204 15.5228475,17 10,17 Z" id="图标颜色"></path>
                </g>
            </g>
        </g>
    </g>
</svg>