<?xml version="1.0" encoding="UTF-8"?>
<svg width="32px" height="32px" viewBox="0 0 32 32" version="1.1" xmlns="http://www.w3.org/2000/svg" xmlns:xlink="http://www.w3.org/1999/xlink">
    <title>icon/Newest32</title>
    <g id="icon/Newest32" stroke="none" stroke-width="1" fill="none" fill-rule="evenodd">
        <g id="编组">
            <rect id="矩形" x="0" y="0" width="32" height="32"></rect>
            <g id="3.Icons/Outlined/time" transform="translate(4.000000, 4.000000)" fill="#000000" fill-opacity="0.9">
                <g id="Icons/Tint-Color/Black" transform="translate(2.000000, 2.000000)">
                    <path d="M10,0 C15.5228475,0 20,4.4771525 20,10 C20,15.5228475 15.5228475,20 10,20 C4.4771525,20 0,15.5228475 0,10 C0,4.4771525 4.4771525,0 10,0 Z M10,1.2 C5.1398942,1.2 1.2,5.1398942 1.2,10 C1.2,14.8601058 5.1398942,18.8 10,18.8 C14.8601058,18.8 18.8,14.8601058 18.8,10 C18.8,5.1398942 14.8601058,1.2 10,1.2 Z M10.5999997,4 L10.599,9.502 L14.4911685,13.3941125 L13.6426403,14.2426407 L9.4,10 L9.39999962,10 L9.39999962,4 L10.5999997,4 Z" id="图标颜色"></path>
                </g>
            </g>
        </g>
    </g>
</svg>