<?xml version="1.0" encoding="UTF-8"?>
<svg width="32px" height="32px" viewBox="0 0 32 32" version="1.1" xmlns="http://www.w3.org/2000/svg" xmlns:xlink="http://www.w3.org/1999/xlink">
    <title>3.Icons/Outlined/tag</title>
    <g id="3.Icons/Outlined/tag" stroke="none" stroke-width="1" fill="none" fill-rule="evenodd" fill-opacity="0.9">
        <g id="icon28" transform="translate(6.000000, 7.000000)" fill="#000000">
            <path d="M18,0 C18.5522847,0 19,0.44771525 19,1 L19,7.58578644 C19,7.85100293 18.8946432,8.10535684 18.7071068,8.29289322 L9.20710678,17.7928932 C8.81658249,18.1834175 8.18341751,18.1834175 7.79289322,17.7928932 L1.20710678,11.2071068 C0.816582489,10.8165825 0.816582489,10.1834175 1.20710678,9.79289322 L10.7071068,0.292893219 C10.8946432,0.10535684 11.1489971,0 11.4142136,0 L18,0 Z M17.8,1.2 L11.4970563,1.2 L2.19705627,10.5 L8.5,16.8029437 L17.8,7.50294373 L17.8,1.2 Z M14,3.5 C14.8284271,3.5 15.5,4.17157288 15.5,5 C15.5,5.82842712 14.8284271,6.5 14,6.5 C13.1715729,6.5 12.5,5.82842712 12.5,5 C12.5,4.17157288 13.1715729,3.5 14,3.5 Z" id="图标颜色"></path>
        </g>
    </g>
</svg>