<svg width="24" height="24" viewBox="0 0 24 24" fill="none" xmlns="http://www.w3.org/2000/svg">
<path d="M14.5536 7.03784C15.2439 7.03784 15.8036 6.4782 15.8036 5.78784C15.8036 5.09749 15.2439 4.53784 14.5536 4.53784C13.8632 4.53784 13.3036 5.09749 13.3036 5.78784C13.3036 6.4782 13.8632 7.03784 14.5536 7.03784Z" fill="black"/>
<path d="M3.5 8.95306C3.5 8.53885 3.83579 8.20306 4.25 8.20306C4.66421 8.20306 5 8.53885 5 8.95306V13.4531C5 13.8673 4.66421 14.2031 4.25 14.2031C3.83579 14.2031 3.5 13.8673 3.5 13.4531V8.95306Z" fill="black"/>
<path d="M8.65179 10.2593C8.65179 9.84506 8.98758 9.50928 9.40179 9.50928C9.81601 9.50928 10.1518 9.84506 10.1518 10.2593V19.8844C10.1518 20.2986 9.81601 20.6344 9.40179 20.6344C8.98758 20.6344 8.65179 20.2986 8.65179 19.8844V10.2593Z" fill="black"/>
<path d="M13.8036 8.95306C13.8036 8.53885 14.1394 8.20306 14.5536 8.20306C14.9678 8.20306 15.3036 8.53885 15.3036 8.95306V16.0995C15.3036 16.5137 14.9678 16.8495 14.5536 16.8495C14.1394 16.8495 13.8036 16.5137 13.8036 16.0995V8.95306Z" fill="black"/>
<path d="M18.9554 10.2236C18.9554 9.80942 19.2912 9.47363 19.7054 9.47363C20.1196 9.47363 20.4554 9.80942 20.4554 10.2236V13.4531C20.4554 13.8673 20.1196 14.2031 19.7054 14.2031C19.2912 14.2031 18.9554 13.8673 18.9554 13.4531V10.2236Z" fill="black"/>
</svg>
