<svg width="24" height="24" viewBox="0 0 24 24" fill="none" xmlns="http://www.w3.org/2000/svg">
<path fill-rule="evenodd" clip-rule="evenodd" d="M14 14V20.9975C14 21.5442 13.5512 22 12.9975 22H3.00247C2.45576 22 2 21.5512 2 20.9975V11.0025C2 10.4558 2.44882 10 3.00247 10H10V3.00247C10 2.45576 10.4488 2 11.0025 2H20.9975C21.5442 2 22 2.44882 22 3.00247V12.9975C22 13.5442 21.5512 14 20.9975 14H14ZM11.2 10H12.9975C13.24 10 13.4646 10.0883 13.6395 10.2349L15.457 5H16.8438L18.8047 10.6367H17.5508L17.1211 9.26953H15.1406L14.7109 10.6367H13.9303C13.9752 10.75 14 10.8734 14 11.0025V12.8H20.8V3.2H11.2V10ZM3.2 20.8V11.2H12.8V20.8H3.2ZM10.1322 14.6969H11.2252V13.669H8.1849L8.77125 13.488C8.69887 13.184 8.49618 12.7279 8.3152 12.3877L7.18594 12.7207C7.32348 13.0102 7.45378 13.3794 7.52617 13.669H4.54375V14.6969H5.68749C6.06391 15.6741 6.5272 16.5066 7.12803 17.2015C6.3969 17.7372 5.49204 18.1136 4.38449 18.3598C4.58718 18.6059 4.90569 19.0981 5.02151 19.3515C6.16526 19.033 7.12079 18.5769 7.90983 17.9544C8.65543 18.5552 9.56029 19.004 10.6751 19.2936C10.8343 19.004 11.1456 18.5407 11.3845 18.3091C10.3349 18.0774 9.45895 17.6938 8.73506 17.1726C9.32865 16.4994 9.79194 15.6814 10.1322 14.6969ZM6.78058 14.6969H8.945C8.69888 15.3918 8.35865 15.9782 7.93156 16.4704C7.44656 15.9564 7.06289 15.3629 6.78058 14.6969ZM16.1172 6.07812L15.3945 8.38672H16.8672L16.1445 6.07812H16.1172Z" fill="black" fill-opacity="0.9"/>
</svg>
