<?xml version="1.0" encoding="UTF-8"?>
<svg width="25px" height="25px" viewBox="0 0 25 25" version="1.1" xmlns="http://www.w3.org/2000/svg" xmlns:xlink="http://www.w3.org/1999/xlink">
    <title>translate_green</title>
    <g id="translate_green" stroke="none" stroke-width="1" fill="none" fill-rule="evenodd">
        <g id="icon/outlined/translate_inable备份">
            <rect id="矩形" fill-opacity="0.05" fill="#000000" x="0" y="0" width="25" height="25" rx="4"></rect>
            <g id="编组-8备份-7" fill="#07C160">
                <path d="M13,12 L6.5,12 L6.5,18.5 L13,18.5 L13,12 Z M14,13 L18.5,13 L18.5,6.5 L12,6.5 L12,11 L13.5,11 C13.7761424,11 14,11.2238576 14,11.5 L14,13 Z M14,19 C14,19.2761424 13.7761424,19.5 13.5,19.5 L6,19.5 C5.72385763,19.5 5.5,19.2761424 5.5,19 L5.5,11.5 C5.5,11.2238576 5.72385763,11 6,11 L11,11 L11,6 C11,5.72385763 11.2238576,5.5 11.5,5.5 L19,5.5 C19.2761424,5.5 19.5,5.72385763 19.5,6 L19.5,13.5 C19.5,13.7761424 19.2761424,14 19,14 L14,14 L14,19 Z" id="形状结合" fill-rule="nonzero"></path>
                <path d="M10.5140846,14.5364721 L9.07113386,14.5364721 C9.25934482,14.9804569 9.51511869,15.3761825 9.83845547,15.718823 C10.1231849,15.3906603 10.3500032,14.9997606 10.5140846,14.5364721 Z M12.03425,14.5364721 L11.3055358,14.5364721 C11.0787175,15.1927975 10.7698584,15.7381267 10.3741328,16.1869374 C10.856725,16.5344038 11.4406616,16.7901777 12.1404203,16.9446072 C11.9811649,17.0990367 11.7736502,17.4078957 11.6674799,17.6009326 C10.9242879,17.4078957 10.3210477,17.1086885 9.82397771,16.708137 C9.2979522,17.1231663 8.66093048,17.4271994 7.89843479,17.63954 C7.82122004,17.4706327 7.60887947,17.14247 7.47375365,16.9783887 C8.21211973,16.8143073 8.81535999,16.5633594 9.30277812,16.2062411 C8.90222659,15.7429526 8.59336757,15.1879716 8.34241962,14.5364721 L7.57992393,14.5364721 L7.57992393,13.8511911 L9.56820384,13.8511911 C9.51994462,13.6581543 9.43307802,13.4120322 9.3413855,13.2189953 L10.0942293,12.9970029 C10.2148774,13.2238213 10.3500032,13.5278544 10.3982624,13.7305431 L10.0073627,13.8511911 L12.03425,13.8511911 L12.03425,14.5364721 Z" id="Rectangle-44"></path>
                <path d="M15.7662516,7.62790291 L17.0735433,11.3857154 L16.2376058,11.3857154 L15.9511474,10.4742571 L14.6308349,10.4742571 L14.3443766,11.3857154 L13.5370849,11.3857154 L14.8417724,7.62790291 L15.7662516,7.62790291 Z M15.3001058,8.34665291 L15.2818766,8.34665291 L14.8001058,9.88571541 L15.7818766,9.88571541 L15.3001058,8.34665291 Z" id="形状结合" fill-rule="nonzero"></path>
            </g>
        </g>
    </g>
</svg>