<?xml version="1.0" encoding="UTF-8"?>
<svg width="25px" height="25px" viewBox="0 0 25 25" version="1.1" xmlns="http://www.w3.org/2000/svg" xmlns:xlink="http://www.w3.org/1999/xlink">
    <title>translate_green备份</title>
    <g id="For_Mac" stroke="none" stroke-width="1" fill="none" fill-rule="evenodd">
        <g id="translate_green备份" fill-rule="nonzero">
            <rect id="矩形" x="0" y="0" width="25" height="25"></rect>
            <g id="编组-8备份-7" transform="translate(5.500000, 5.500000)" fill="#FFFFFF">
                <path d="M7.5,6.5 L1,6.5 L1,13 L7.5,13 L7.5,6.5 Z M8.5,7.5 L13,7.5 L13,1 L6.5,1 L6.5,5.5 L8,5.5 C8.2761424,5.5 8.5,5.7238576 8.5,6 L8.5,7.5 Z M8.5,13.5 C8.5,13.7761424 8.2761424,14 8,14 L0.5,14 C0.22385763,14 0,13.7761424 0,13.5 L0,6 C0,5.7238576 0.22385763,5.5 0.5,5.5 L5.5,5.5 L5.5,0.5 C5.5,0.22385763 5.7238576,0 6,0 L13.5,0 C13.7761424,0 14,0.22385763 14,0.5 L14,8 C14,8.2761424 13.7761424,8.5 13.5,8.5 L8.5,8.5 L8.5,13.5 Z" id="形状结合"></path>
                <path d="M5.0140846,9.0364721 L3.57113386,9.0364721 C3.75934482,9.4804569 4.01511869,9.8761825 4.33845547,10.218823 C4.6231849,9.8906603 4.8500032,9.4997606 5.0140846,9.0364721 Z M6.53425,9.0364721 L5.8055358,9.0364721 C5.5787175,9.6927975 5.2698584,10.2381267 4.8741328,10.6869374 C5.356725,11.0344038 5.9406616,11.2901777 6.6404203,11.4446072 C6.4811649,11.5990367 6.2736502,11.9078957 6.1674799,12.1009326 C5.4242879,11.9078957 4.8210477,11.6086885 4.32397771,11.208137 C3.7979522,11.6231663 3.16093048,11.9271994 2.39843479,12.13954 C2.32122004,11.9706327 2.10887947,11.64247 1.97375365,11.4783887 C2.71211973,11.3143073 3.31535999,11.0633594 3.80277812,10.7062411 C3.40222659,10.2429526 3.09336757,9.6879716 2.84241962,9.0364721 L2.07992393,9.0364721 L2.07992393,8.3511911 L4.06820384,8.3511911 C4.01994462,8.1581543 3.93307802,7.9120322 3.8413855,7.7189953 L4.5942293,7.4970029 C4.7148774,7.7238213 4.8500032,8.0278544 4.8982624,8.2305431 L4.5073627,8.3511911 L6.53425,8.3511911 L6.53425,9.0364721 Z" id="Rectangle-44"></path>
                <path d="M10.2662516,2.12790291 L11.5735433,5.8857154 L10.7376058,5.8857154 L10.4511474,4.9742571 L9.1308349,4.9742571 L8.8443766,5.8857154 L8.0370849,5.8857154 L9.3417724,2.12790291 L10.2662516,2.12790291 Z M9.8001058,2.84665291 L9.7818766,2.84665291 L9.3001058,4.38571541 L10.2818766,4.38571541 L9.8001058,2.84665291 Z" id="形状结合"></path>
            </g>
        </g>
    </g>
</svg>