<?xml version="1.0" encoding="UTF-8"?>
<svg width="16px" height="16px" viewBox="0 0 16 16" version="1.1" xmlns="http://www.w3.org/2000/svg" xmlns:xlink="http://www.w3.org/1999/xlink">
    <!-- Generator: Sketch 61 (89581) - https://sketch.com -->
    <title>0.图标/线型/icons_outlined_add</title>
    <desc>Created with Sketch.</desc>
    <g id="200518_Mac微信.通讯录管理器.交互" stroke="none" stroke-width="1" fill="none" fill-rule="evenodd" fill-opacity="0.9">
        <g id="标签界面-1" transform="translate(-154.000000, -319.000000)" fill="#000000">
            <g id="编组" transform="translate(153.000000, 318.000000)">
                <g id="编组-2">
                    <g id="0.图标/线型/icons_outlined_add2" transform="translate(0.000000, 0.000000)">
                        <g id="icon21">
                            <path d="M9,1.5 C13.1421356,1.5 16.5,4.85786438 16.5,9 C16.5,13.1421356 13.1421356,16.5 9,16.5 C4.85786438,16.5 1.5,13.1421356 1.5,9 C1.5,4.85786438 4.85786438,1.5 9,1.5 Z M9,2.4 C5.35492065,2.4 2.4,5.35492065 2.4,9 C2.4,12.6450793 5.35492065,15.6 9,15.6 C12.6450793,15.6 15.6,12.6450793 15.6,9 C15.6,5.35492065 12.6450793,2.4 9,2.4 Z M9.44999546,5.25 L9.449,8.549 L12.75,8.54999542 L12.75,9.44999546 L9.449,9.449 L9.44999546,12.75 L8.54999542,12.75 L8.549,9.449 L5.25,9.44999546 L5.25,8.54999542 L8.549,8.549 L8.54999542,5.25 L9.44999546,5.25 Z" id="Combined-Shape"></path>
                        </g>
                    </g>
                </g>
            </g>
        </g>
    </g>
</svg>