<?xml version="1.0" encoding="UTF-8"?>
<svg width="40px" height="40px" viewBox="0 0 40 40" version="1.1" xmlns="http://www.w3.org/2000/svg" xmlns:xlink="http://www.w3.org/1999/xlink">
    <!-- Generator: Sketch 63.1 (92452) - https://sketch.com -->
    <title>无底色静音</title>
    <desc>Created with Sketch.</desc>
    <g id="无底色静音" stroke="none" stroke-width="1" fill="none" fill-rule="evenodd">
        <path d="M14.5,18 L14.5,20 C14.5,23.0375661 16.9624339,25.5 20,25.5 C20.7066758,25.5 21.3822232,25.3667235 22.0028779,25.1239348 L23.1375309,26.2591742 C22.4060152,26.6265778 21.6012015,26.8695162 20.7508809,26.9601985 L20.75,30 L19.25,30 L19.2501233,26.9603055 C15.736739,26.5861325 13,23.6126661 13,20 L13,18 L14.5,18 Z M11.0606602,12.0606602 L12.1213203,11 L15.9996602,14.879 L16,14 C16,11.790861 17.790861,10 20,10 C22.1421954,10 23.8910789,11.6839685 23.9951047,13.8003597 L24,14 L24,20 C24,20.8176683 23.754659,21.5780342 23.3335757,22.2114989 L24.4095311,23.2878123 C25.0944653,22.3706827 25.5,21.2327002 25.5,20 L25.5,18 L27,18 L27,20 C27,21.6475305 26.4308265,23.1621233 25.4783857,24.3578725 L29.0918831,27.9705627 L28.0312229,29.0312229 L19.4886602,20.488 L11.0606602,12.0606602 Z M15.9996602,19.12 L20.79959,23.9200687 C20.5412292,23.9724849 20.2738278,24 20,24 C17.8578046,24 16.1089211,22.3160315 16.0048953,20.1996403 L16,20 L15.9996602,19.12 Z" id="形状结合" fill="#FA5151"></path>
    </g>
</svg>