<svg width="56" height="56" viewBox="0 0 56 56" fill="none" xmlns="http://www.w3.org/2000/svg">
<circle cx="28" cy="28" r="28" fill="black" fill-opacity="0.4"/>
<path d="M33.6034 31.1287C34.1213 30.2031 34.4165 29.136 34.4165 28V25.6666H36.1665V28C36.1665 29.6218 35.6938 31.1332 34.8786 32.4038L39.7737 37.299L38.5363 38.5364L18.7373 18.7374L19.9747 17.5L23.3352 20.8605C23.409 18.3477 25.4692 16.3333 27.9999 16.3333C30.5772 16.3333 32.6665 18.4227 32.6665 21V28C32.6665 28.6466 32.535 29.2626 32.2972 29.8225L33.6034 31.1287ZM31.1285 33.6035L32.4037 34.8787C31.3646 35.5453 30.1646 35.9829 28.8749 36.1203V39.6666H27.1249V36.1203C23.026 35.6837 19.8332 32.2147 19.8332 28V25.6666H21.5832V28C21.5832 31.5438 24.456 34.4166 27.9999 34.4166C29.1359 34.4166 30.203 34.1214 31.1285 33.6035ZM29.8224 32.2974C29.2625 32.5351 28.6465 32.6666 27.9999 32.6666C25.4225 32.6666 23.3332 30.5773 23.3332 28V25.8082L29.8224 32.2974Z" fill="white"/>
</svg>
