<svg width="56" height="56" viewBox="0 0 56 56" fill="none" xmlns="http://www.w3.org/2000/svg">
<circle cx="28" cy="28" r="28" fill="black" fill-opacity="0.4"/>
<path fill-rule="evenodd" clip-rule="evenodd" d="M38.5 17.5C39.1443 17.5 39.6666 18.0223 39.6666 18.6667V31.5C39.6666 32.1443 39.1443 32.6667 38.5 32.6667H32.7802L33.7906 34.4167H33.8333V34.4907L36.169 38.5363L34.1483 39.7029L32.4434 36.75H23.5589L21.854 39.7029L19.8333 38.5363L22.1666 34.4948V34.4167H22.2118L23.2221 32.6667H17.5C16.8556 32.6667 16.3333 32.1443 16.3333 31.5V18.6667C16.3333 18.0223 16.8556 17.5 17.5 17.5H38.5ZM25.9164 32.6667L24.9061 34.4167H31.0963L30.0859 32.6667H25.9164ZM37.3333 19.8333H18.6666V30.3333H37.3333V19.8333Z" fill="white"/>
<rect x="14" y="14" width="28" height="28" fill="white" fill-opacity="0.01"/>
</svg>
