<svg width="56" height="56" viewBox="0 0 56 56" fill="none" xmlns="http://www.w3.org/2000/svg">
<circle cx="28" cy="28" r="28" fill="white"/>
<path fill-rule="evenodd" clip-rule="evenodd" d="M22.75 23.9167L27.1833 19.4834C27.65 19.0167 28.35 19.0167 28.8167 19.4834C29.05 19.7167 29.1667 19.95 29.1667 20.3V35.7C29.1667 36.4 28.7 36.8667 28 36.8667C27.65 36.8667 27.4167 36.75 27.1833 36.5167L22.75 32.0834H17.5C16.8 32.0834 16.3333 31.6167 16.3333 30.9167V25.0834C16.3333 24.3834 16.8 23.9167 17.5 23.9167H22.75ZM33.9501 33.6L35.2335 34.8833L35.3501 34.7666C37.2168 32.9 38.1501 30.5666 38.1501 28C38.1501 25.4333 37.1001 22.9833 35.3501 21.2333L35.2335 21.1166L33.9501 22.4L34.0668 22.5166C35.4668 24.0333 36.2835 25.9 36.2835 28C36.2835 30.1 35.5835 31.9666 34.0668 33.4833L33.9501 33.6ZM31.6168 31.2666L32.9001 32.55L33.0168 32.4333C34.1835 31.2666 34.8835 29.6333 34.8835 28C34.8835 26.3666 34.1835 24.7333 33.0168 23.5666L32.9001 23.45L31.6168 24.7333L31.7335 24.85C32.5501 25.6666 33.0168 26.8333 33.0168 28C33.0168 29.1666 32.5501 30.3333 31.7335 31.15L31.6168 31.2666Z" fill="black" fill-opacity="0.9"/>
</svg>
