<?xml version="1.0" encoding="UTF-8"?>
<svg width="40px" height="40px" viewBox="0 0 40 40" version="1.1" xmlns="http://www.w3.org/2000/svg" xmlns:xlink="http://www.w3.org/1999/xlink">
    <title>切换摄像头</title>
    <g id="0702-切图" stroke="none" stroke-width="1" fill="none" fill-rule="evenodd">
        <g id="切换摄像头">
            <circle id="椭圆形" fill="#FFFFFF" cx="20" cy="20" r="20"></circle>
            <g id="编组" transform="translate(8.000000, 8.000000)" fill="#FFFFFF">
                <g id="icon20" transform="translate(2.000000, 4.000000)">
                    <path d="M12.7324081,0 C12.8995847,5.6322073e-16 13.0557004,0.0835505677 13.1484333,0.222649902 L13.1484333,0.222649902 L15,3 L19,3 C19.5522847,3 20,3.44771525 20,4 L20,4 L20,15 C20,15.5522847 19.5522847,16 19,16 L19,16 L1,16 C0.44771525,16 5.39670589e-15,15.5522847 5.32907052e-15,15 L5.32907052e-15,15 L5.32907052e-15,4 C5.26143514e-15,3.44771525 0.44771525,3 1,3 L1,3 L5,3 L6.85156673,0.222649902 C6.94429962,0.0835505677 7.10041529,-2.66255444e-16 7.26759188,0 L7.26759188,0 Z M14,9 L12.8,9 C12.8,10.5463973 11.5463973,11.8 10,11.8 C9.35727012,11.8 8.75229306,11.5824013 8.26810995,11.2008004 L8.26810995,11.2008004 L9.5,11.2 L9.5,10 L7,10 C6.72385763,10 6.5,10.2238576 6.5,10.5 L6.5,10.5 L6.5,13 L7.70000005,13 L7.70031889,12.2732483 C8.3508522,12.7311344 9.14402764,13 10,13 C12.209139,13 14,11.209139 14,9 L14,9 Z M13.5,5 L12.3,5 L12.2996086,5.72670063 C11.6490888,5.26884563 10.8559405,5 10,5 C7.790861,5 6,6.790861 6,9 L6,9 L7.2,9 C7.2,7.4536027 8.4536027,6.2 10,6.2 C10.6436333,6.2 11.2488907,6.41848237 11.7324916,6.79964243 L11.7324916,6.79964243 L10.5,6.79999995 L10.5,8 L13,8 L13.0898756,7.99194433 C13.3231248,7.94960837 13.5,7.74545989 13.5,7.5 L13.5,7.5 L13.5,5 Z" id="Combined-Shape" fill="#000000"></path>
                </g>
            </g>
        </g>
    </g>
</svg>