<?xml version="1.0" encoding="UTF-8"?>
<svg width="24px" height="24px" viewBox="0 0 24 24" version="1.1" xmlns="http://www.w3.org/2000/svg" xmlns:xlink="http://www.w3.org/1999/xlink">
    <!-- Generator: Sketch 63.1 (92452) - https://sketch.com -->
    <title>窗口置顶</title>
    <desc>Created with Sketch.</desc>
    <g id="窗口置顶" stroke="none" stroke-width="1" fill="none" fill-rule="evenodd">
        <g id="编组">
            <rect id="矩形" x="0" y="0" width="24" height="24"></rect>
            <path d="M11.3716875,14.4381633 L12.6285856,14.4381633 L12.6285856,19 L11.3716875,19 L11.3716875,14.4381633 Z M14.8900236,5 L9.1107914,5 C8.9900672,5 8.87096725,5.02722352 8.76273909,5.07955678 L8.64175708,5.15187 C8.34269645,5.36907211 8.23567696,5.7708703 8.40654273,6.10913413 L9.70943972,8.68773196 L6.12050821,13.2636895 C6.04177201,13.386226 6,13.5280247 6,13.6727649 C6,14.0972497 6.35170779,14.4413626 6.78556134,14.4413626 L17.2143363,14.4413626 C17.3625694,14.4413626 17.5077775,14.4003278 17.6331828,14.3229994 L17.7458947,14.2388609 C18.0204584,13.9926324 18.0845421,13.5821761 17.8789221,13.2629631 L14.2892623,8.70156672 L15.5949406,6.10780788 C15.6479953,6.00226448 15.675585,5.88621558 15.675585,5.76859774 C15.675585,5.34411293 15.3238772,5 14.8900236,5 Z M9.86812311,6.22975638 L14.13215,6.22975638 L12.8522846,8.77742185 L16.360002,13.2116063 L7.63712892,13.2116063 L11.1482076,8.76123632 L9.86812311,6.22975638 Z" id="矩形" fill-opacity="0.9" fill="#FFFFFF"></path>
        </g>
    </g>
</svg>