<svg width="56" height="56" viewBox="0 0 56 56" fill="none" xmlns="http://www.w3.org/2000/svg">
<circle cx="28" cy="28" r="28" fill="white"/>
<path fill-rule="evenodd" clip-rule="evenodd" d="M28 16.3333C25.4227 16.3333 23.3333 18.4227 23.3333 21V28C23.3333 30.5773 25.4227 32.6666 28 32.6666C30.5773 32.6666 32.6667 30.5773 32.6667 28V21C32.6667 18.4226 30.5773 16.3333 28 16.3333ZM21.5833 25.6666V28C21.5833 31.5438 24.4562 34.4166 28 34.4166C31.5438 34.4166 34.4167 31.5438 34.4167 28V25.6666H36.1667V28C36.1667 32.2147 32.9739 35.6837 28.875 36.1203V39.6666H27.125V36.1203C23.0261 35.6837 19.8333 32.2147 19.8333 28V25.6666H21.5833Z" fill="black" fill-opacity="0.9"/>
</svg>
