<svg width="56" height="56" viewBox="0 0 56 56" fill="none" xmlns="http://www.w3.org/2000/svg">
<circle cx="28" cy="28" r="28" fill="black" fill-opacity="0.4"/>
<path fill-rule="evenodd" clip-rule="evenodd" d="M19.9749 17.5L18.7374 18.7374L23.3333 23.3333L29.1667 29.1667L38.5364 38.5364L39.7739 37.299L36.2337 33.7588C37.5113 32.087 38.15 30.1233 38.15 28C38.15 25.4333 37.1 22.9833 35.35 21.2333L35.2333 21.1167L33.95 22.4L34.0667 22.5167C35.4667 24.0333 36.2833 25.9 36.2833 28C36.2833 29.6486 35.852 31.1533 34.9327 32.4578L33.861 31.3862C34.5126 30.3774 34.8833 29.1887 34.8833 28C34.8833 26.3667 34.1833 24.7333 33.0167 23.5667L32.9 23.45L31.6167 24.7333L31.7333 24.85C32.55 25.6667 33.0167 26.8333 33.0167 28C33.0167 28.7096 32.844 29.4192 32.525 30.0501L29.1667 26.6918V20.3C29.1667 19.95 29.05 19.7167 28.8167 19.4833C28.35 19.0167 27.65 19.0167 27.1833 19.4833L24.5708 22.0959L19.9749 17.5ZM17.5 23.9167H21.4418L29.1667 31.6415V35.7C29.1667 36.4 28.7 36.8667 28 36.8667C27.65 36.8667 27.4167 36.75 27.1833 36.5167L22.75 32.0833H17.5C16.8 32.0833 16.3333 31.6167 16.3333 30.9167V25.0833C16.3333 24.3833 16.8 23.9167 17.5 23.9167Z" fill="white"/>
</svg>
