<svg width="56" height="56" viewBox="0 0 56 56" fill="none" xmlns="http://www.w3.org/2000/svg">
<circle cx="28" cy="28" r="28" fill="black" fill-opacity="0.4"/>
<path fill-rule="evenodd" clip-rule="evenodd" d="M17.0046 16.8631L15.7672 18.1005L35.5661 37.8995L36.8036 36.6621L33.8333 33.6918V21.4167C33.8333 20.8644 33.3856 20.4167 32.8333 20.4167H20.5582L17.0046 16.8631ZM16.3333 21.4167C16.3333 21.3322 16.3438 21.2502 16.3635 21.1718L30.7751 35.5834H17.3333C16.781 35.5834 16.3333 35.1356 16.3333 34.5834V21.4167ZM39.2086 22.2998L35 25.6667V30.3334L39.2086 33.7003C39.8634 34.2241 40.8333 33.7579 40.8333 32.9194V23.0807C40.8333 22.2421 39.8634 21.776 39.2086 22.2998Z" fill="white"/>
</svg>
