<?xml version="1.0" encoding="UTF-8"?>
<svg width="40px" height="40px" viewBox="0 0 40 40" version="1.1" xmlns="http://www.w3.org/2000/svg" xmlns:xlink="http://www.w3.org/1999/xlink">
    <!-- Generator: Sketch 63.1 (92452) - https://sketch.com -->
    <title>无底色声音</title>
    <desc>Created with Sketch.</desc>
    <g id="无底色声音" stroke="none" stroke-width="1" fill="none" fill-rule="evenodd">
        <path d="M23.1096171,9.87430021 C25.7177915,12.6798066 27.3125,16.4373508 27.3125,20.5667073 C27.3125,24.6916944 25.7211646,28.4456555 23.1178933,31.2502052 L21.2681186,29.5368853 C23.4752962,27.1722672 24.8256579,24.000125 24.8256579,20.5131409 C24.8256579,17.0490974 23.4930057,13.8957669 21.31157,11.5361713 Z M18.8120237,13.8475352 C20.4849793,15.6242956 21.5098684,18.0161762 21.5098684,20.6470135 C21.5098684,23.2293353 20.5224309,25.5814323 18.9039135,27.3475704 L17.0033902,25.5869979 C18.2010357,24.2658177 18.9304942,22.5137473 18.9304942,20.5916009 C18.9304942,18.6495807 18.1858734,16.8811717 16.9660917,15.5553619 Z M14.0564856,18.2438891 C15.0320732,18.5793841 15.7329819,19.5037827 15.7329819,20.5916009 C15.7329819,21.6557545 15.0622368,22.5635213 14.1197604,22.9165857 L11.5625,20.5493851 Z" id="Combined-Shape" fill="#07C160"></path>
    </g>
</svg>