<?xml version="1.0" encoding="UTF-8"?>
<svg width="40px" height="40px" viewBox="0 0 40 40" version="1.1" xmlns="http://www.w3.org/2000/svg" xmlns:xlink="http://www.w3.org/1999/xlink">
    <title>接听视频通话</title>
    <g id="0702-切图" stroke="none" stroke-width="1" fill="none" fill-rule="evenodd">
        <g id="接听视频通话">
            <circle id="Oval" fill="#07C160" cx="20" cy="20" r="20"></circle>
            <g id="编组" transform="translate(8.000000, 8.000000)" fill="#FFFFFF">
                <g id="0.图标/面型/icons_filled_video_call" transform="translate(2.000000, 5.000000)">
                    <path d="M13,0.5 C13.5522847,0.5 14,0.94771525 14,1.5 L14,12.5 C14,13.0522847 13.5522847,13.5 13,13.5 L1,13.5 C0.44771525,13.5 0,13.0522847 0,12.5 L0,1.5 C0,0.94771525 0.44771525,0.5 1,0.5 L13,0.5 Z M19.7808688,2.4559298 C19.9227192,2.63324285 20,2.85355335 20,3.08062485 L20,10.9193752 C20,11.4716599 19.5522847,11.9193752 19,11.9193752 C18.7729285,11.9193752 18.552618,11.8420944 18.375305,11.700244 L15,9 L15,5 L18.375305,2.29975604 C18.8065669,1.95474649 19.4358593,2.02466786 19.7808688,2.4559298 Z" id="形状"></path>
                </g>
            </g>
        </g>
    </g>
</svg>