<?xml version="1.0" encoding="UTF-8"?>
<svg width="24px" height="24px" viewBox="0 0 24 24" version="1.1" xmlns="http://www.w3.org/2000/svg" xmlns:xlink="http://www.w3.org/1999/xlink">
    <!-- Generator: Sketch 63.1 (92452) - https://sketch.com -->
    <title>多人通话banner icon</title>
    <desc>Created with Sketch.</desc>
    <g id="多人通话banner-icon" stroke="none" stroke-width="1" fill="none" fill-rule="evenodd">
        <g id="3.Icons/Filled/wechat-out">
            <rect id="矩形" x="0" y="0" width="24" height="24"></rect>
            <path d="M16.0510185,15.9305913 C15.8762281,15.8723222 15.8033987,15.9014567 15.6431742,15.9888603 C15.1188029,16.2802057 13.8370064,16.9794344 13.0795813,17.3727506 C12.890225,17.4747215 12.6863028,17.5329906 12.4532489,17.5329906 C12.2056291,17.5329906 11.9871411,17.4601542 11.7977848,17.3436161 C10.7344764,16.7172237 9.72943142,15.9888603 8.87004516,15.1148243 C8.0106589,14.2553556 7.28236545,13.2502142 6.65603309,12.1868038 C6.53950614,11.9974293 6.46667679,11.764353 6.46667679,11.5312768 C6.46667679,11.3127678 6.52494027,11.0942588 6.62690135,10.9048843 C7.02017981,10.1328192 7.71934152,8.85089974 8.0106589,8.34104542 C8.09805411,8.18080548 8.12718585,8.09340189 8.06892237,7.93316195 L6.83082352,4.64095973 C6.67059896,4.2622108 6.30645224,4.01456727 5.86947617,4 C5.69468574,4 5.49076358,4.07283633 5.44706597,4.0874036 C4.01961082,4.61182519 3,5.96658098 3,7.56898029 C3,8.02056555 3.11652695,8.44301628 3.13109282,8.54498715 C3.83025453,11.6041131 5.3888025,14.3281919 7.52998522,16.4695801 C9.67116795,18.6109683 12.3949854,20.1696658 15.4538179,20.8688946 C15.555779,20.8980291 15.9781892,21 16.4297311,21 C18.0319767,21 19.3866025,19.9802913 19.9109738,18.5526992 C19.9255396,18.5089974 20.0129349,18.3050557 19.998369,18.1302485 C19.9692372,17.6932305 19.7216175,17.3290488 19.3429049,17.1688089 L16.0510185,15.9305913 Z" id="图标颜色" fill="#07C160"></path>
            <g id="3.Icons/Filled/video-call" transform="translate(11.000000, 5.000000)" fill="#07C160">
                <path d="M7.02,0 C7.28509668,-1.04208621e-16 7.5,0.21490332 7.5,0.48 L7.5,5.52 C7.5,5.78509668 7.28509668,6 7.02,6 L0.48,6 C0.21490332,6 -2.30461712e-17,5.78509668 0,5.52 L0,0.48 C-8.79761313e-17,0.21490332 0.21490332,-6.81368115e-18 0.48,0 L7.02,0 Z M10.394817,0.698846304 C10.4629052,0.783956567 10.5,0.889705609 10.5,0.998699927 L10.5,5.00130007 C10.5,5.26639675 10.2850967,5.48130007 10.02,5.48130007 C9.91100568,5.48130007 9.80525664,5.44420531 9.72014638,5.3761171 L8,4 L8,2 L9.72014638,0.623882898 C9.92715211,0.458278315 10.2292124,0.491840575 10.394817,0.698846304 Z" id="图标颜色"></path>
            </g>
        </g>
    </g>
</svg>