<svg width="56" height="56" viewBox="0 0 56 56" fill="none" xmlns="http://www.w3.org/2000/svg">
<circle cx="28" cy="28" r="28" fill="white"/>
<path fill-rule="evenodd" clip-rule="evenodd" d="M39.6666 18.6667C39.6666 18.0223 39.1443 17.5 38.5 17.5H17.5C16.8556 17.5 16.3333 18.0223 16.3333 18.6667V31.5C16.3333 32.1443 16.8556 32.6667 17.5 32.6667H23.2221L22.2118 34.4167H22.1666V34.4948L19.8333 38.5363L21.854 39.7029L23.5589 36.75H32.4434L34.1483 39.7029L36.169 38.5363L33.8333 34.4907V34.4167H33.7906L32.7802 32.6667H38.5C39.1443 32.6667 39.6666 32.1443 39.6666 31.5V18.6667ZM30.0859 32.6667H25.9164L24.9061 34.4167H31.0963L30.0859 32.6667Z" fill="black" fill-opacity="0.9"/>
<rect x="14" y="14" width="28" height="28" fill="white" fill-opacity="0.01"/>
</svg>
