<?xml version="1.0" encoding="UTF-8"?>
<svg width="28px" height="28px" viewBox="0 0 28 28" version="1.1" xmlns="http://www.w3.org/2000/svg" xmlns:xlink="http://www.w3.org/1999/xlink">
    <title>VoIP_ZoomIn</title>
    <g id="页面-1" stroke="none" stroke-width="1" fill="none" fill-rule="evenodd">
        <g id="VoIP_ZoomIn" fill-rule="nonzero">
            <circle id="椭圆形" fill-opacity="0.15" fill="#FFFFFF" cx="14" cy="14" r="14"></circle>
            <g id="Zoom-In" transform="translate(2.000000, 2.000000)">
                <path d="M5.86275817,19.2 L4.8,18.1543422 L7.56579084,15.435 L5.14178562,15.4334051 L5.14178562,13.9314051 L9.57078562,13.9314051 C9.84692799,13.9314051 10.0707856,14.1552628 10.0707856,14.4314051 L10.0707908,14.976 L10.1137908,15.0173689 L10.0707908,15.06 L10.0707856,18.9404051 L8.59278562,18.9404051 L8.59279084,16.514 L5.86275817,19.2 Z M18.1372418,4.8 L19.2,5.84565776 L16.4342092,8.565 L18.8582144,8.56659486 L18.8582144,10.0685949 L14.4292144,10.0685949 C14.153072,10.0685949 13.9292144,9.84473723 13.9292144,9.56859486 L13.9292092,9.024 L13.8862092,8.98263105 L13.9292092,8.94 L13.9292144,5.05959486 L15.4072144,5.05959486 L15.4072092,7.486 L18.1372418,4.8 Z" id="形状结合" fill-opacity="0.9" fill="#ffffff"></path>
                <rect id="BG" fill-opacity="0" fill="#FFFFFF" x="0" y="0" width="24" height="24"></rect>
            </g>
        </g>
    </g>
</svg>